<?xml version="1.0" encoding="utf-8" standalone="no"?>
<!DOCTYPE svg PUBLIC "-//W3C//DTD SVG 1.1//EN"
  "http://www.w3.org/Graphics/SVG/1.1/DTD/svg11.dtd">
<!-- Created with matplotlib (http://matplotlib.org/) -->
<svg height="504pt" version="1.1" viewBox="0 0 720 504" width="720pt" xmlns="http://www.w3.org/2000/svg" xmlns:xlink="http://www.w3.org/1999/xlink">
 <defs>
  <style type="text/css">
*{stroke-linecap:butt;stroke-linejoin:round;}
  </style>
 </defs>
 <g id="figure_1">
  <g id="patch_1">
   <path d="M 0 504 
L 720 504 
L 720 0 
L 0 0 
z
" style="fill:#ffffff;"/>
  </g>
  <g id="axes_1">
   <g id="patch_2">
    <path d="M 90 311.590588 
L 648 311.590588 
L 648 60.48 
L 90 60.48 
z
" style="fill:#ffffff;"/>
   </g>
   <g id="matplotlib.axis_1">
    <g id="xtick_1">
     <g id="line2d_1">
      <path clip-path="url(#p1f200cd7a9)" d="M 115.363636 311.590588 
L 115.363636 60.48 
" style="fill:none;stroke:#cccccc;stroke-linecap:round;"/>
     </g>
     <g id="line2d_2"/>
    </g>
    <g id="xtick_2">
     <g id="line2d_3">
      <path clip-path="url(#p1f200cd7a9)" d="M 192.22314 311.590588 
L 192.22314 60.48 
" style="fill:none;stroke:#cccccc;stroke-linecap:round;"/>
     </g>
     <g id="line2d_4"/>
    </g>
    <g id="xtick_3">
     <g id="line2d_5">
      <path clip-path="url(#p1f200cd7a9)" d="M 269.082645 311.590588 
L 269.082645 60.48 
" style="fill:none;stroke:#cccccc;stroke-linecap:round;"/>
     </g>
     <g id="line2d_6"/>
    </g>
    <g id="xtick_4">
     <g id="line2d_7">
      <path clip-path="url(#p1f200cd7a9)" d="M 345.942149 311.590588 
L 345.942149 60.48 
" style="fill:none;stroke:#cccccc;stroke-linecap:round;"/>
     </g>
     <g id="line2d_8"/>
    </g>
    <g id="xtick_5">
     <g id="line2d_9">
      <path clip-path="url(#p1f200cd7a9)" d="M 422.801653 311.590588 
L 422.801653 60.48 
" style="fill:none;stroke:#cccccc;stroke-linecap:round;"/>
     </g>
     <g id="line2d_10"/>
    </g>
    <g id="xtick_6">
     <g id="line2d_11">
      <path clip-path="url(#p1f200cd7a9)" d="M 499.661157 311.590588 
L 499.661157 60.48 
" style="fill:none;stroke:#cccccc;stroke-linecap:round;"/>
     </g>
     <g id="line2d_12"/>
    </g>
    <g id="xtick_7">
     <g id="line2d_13">
      <path clip-path="url(#p1f200cd7a9)" d="M 576.520661 311.590588 
L 576.520661 60.48 
" style="fill:none;stroke:#cccccc;stroke-linecap:round;"/>
     </g>
     <g id="line2d_14"/>
    </g>
   </g>
   <g id="matplotlib.axis_2">
    <g id="ytick_1">
     <g id="line2d_15">
      <path clip-path="url(#p1f200cd7a9)" d="M 90 311.590588 
L 648 311.590588 
" style="fill:none;stroke:#cccccc;stroke-linecap:round;"/>
     </g>
     <g id="line2d_16"/>
     <g id="text_1">
      <!-- 0 -->
      <defs>
       <path d="M 31.78125 66.40625 
Q 24.171875 66.40625 20.328125 58.90625 
Q 16.5 51.421875 16.5 36.375 
Q 16.5 21.390625 20.328125 13.890625 
Q 24.171875 6.390625 31.78125 6.390625 
Q 39.453125 6.390625 43.28125 13.890625 
Q 47.125 21.390625 47.125 36.375 
Q 47.125 51.421875 43.28125 58.90625 
Q 39.453125 66.40625 31.78125 66.40625 
z
M 31.78125 74.21875 
Q 44.046875 74.21875 50.515625 64.515625 
Q 56.984375 54.828125 56.984375 36.375 
Q 56.984375 17.96875 50.515625 8.265625 
Q 44.046875 -1.421875 31.78125 -1.421875 
Q 19.53125 -1.421875 13.0625 8.265625 
Q 6.59375 17.96875 6.59375 36.375 
Q 6.59375 54.828125 13.0625 64.515625 
Q 19.53125 74.21875 31.78125 74.21875 
z
" id="DejaVuSans-30"/>
      </defs>
      <g style="fill:#d62728;" transform="translate(77.91 314.629963)scale(0.08 -0.08)">
       <use xlink:href="#DejaVuSans-30"/>
      </g>
     </g>
    </g>
    <g id="ytick_2">
     <g id="line2d_17">
      <path clip-path="url(#p1f200cd7a9)" d="M 90 273.51901 
L 648 273.51901 
" style="fill:none;stroke:#cccccc;stroke-linecap:round;"/>
     </g>
     <g id="line2d_18"/>
     <g id="text_2">
      <!-- 10 -->
      <defs>
       <path d="M 12.40625 8.296875 
L 28.515625 8.296875 
L 28.515625 63.921875 
L 10.984375 60.40625 
L 10.984375 69.390625 
L 28.421875 72.90625 
L 38.28125 72.90625 
L 38.28125 8.296875 
L 54.390625 8.296875 
L 54.390625 0 
L 12.40625 0 
z
" id="DejaVuSans-31"/>
      </defs>
      <g style="fill:#d62728;" transform="translate(72.82 276.558385)scale(0.08 -0.08)">
       <use xlink:href="#DejaVuSans-31"/>
       <use x="63.623047" xlink:href="#DejaVuSans-30"/>
      </g>
     </g>
    </g>
    <g id="ytick_3">
     <g id="line2d_19">
      <path clip-path="url(#p1f200cd7a9)" d="M 90 235.447432 
L 648 235.447432 
" style="fill:none;stroke:#cccccc;stroke-linecap:round;"/>
     </g>
     <g id="line2d_20"/>
     <g id="text_3">
      <!-- 20 -->
      <defs>
       <path d="M 19.1875 8.296875 
L 53.609375 8.296875 
L 53.609375 0 
L 7.328125 0 
L 7.328125 8.296875 
Q 12.9375 14.109375 22.625 23.890625 
Q 32.328125 33.6875 34.8125 36.53125 
Q 39.546875 41.84375 41.421875 45.53125 
Q 43.3125 49.21875 43.3125 52.78125 
Q 43.3125 58.59375 39.234375 62.25 
Q 35.15625 65.921875 28.609375 65.921875 
Q 23.96875 65.921875 18.8125 64.3125 
Q 13.671875 62.703125 7.8125 59.421875 
L 7.8125 69.390625 
Q 13.765625 71.78125 18.9375 73 
Q 24.125 74.21875 28.421875 74.21875 
Q 39.75 74.21875 46.484375 68.546875 
Q 53.21875 62.890625 53.21875 53.421875 
Q 53.21875 48.921875 51.53125 44.890625 
Q 49.859375 40.875 45.40625 35.40625 
Q 44.1875 33.984375 37.640625 27.21875 
Q 31.109375 20.453125 19.1875 8.296875 
z
" id="DejaVuSans-32"/>
      </defs>
      <g style="fill:#d62728;" transform="translate(72.82 238.486807)scale(0.08 -0.08)">
       <use xlink:href="#DejaVuSans-32"/>
       <use x="63.623047" xlink:href="#DejaVuSans-30"/>
      </g>
     </g>
    </g>
    <g id="ytick_4">
     <g id="line2d_21">
      <path clip-path="url(#p1f200cd7a9)" d="M 90 197.375854 
L 648 197.375854 
" style="fill:none;stroke:#cccccc;stroke-linecap:round;"/>
     </g>
     <g id="line2d_22"/>
     <g id="text_4">
      <!-- 30 -->
      <defs>
       <path d="M 40.578125 39.3125 
Q 47.65625 37.796875 51.625 33 
Q 55.609375 28.21875 55.609375 21.1875 
Q 55.609375 10.40625 48.1875 4.484375 
Q 40.765625 -1.421875 27.09375 -1.421875 
Q 22.515625 -1.421875 17.65625 -0.515625 
Q 12.796875 0.390625 7.625 2.203125 
L 7.625 11.71875 
Q 11.71875 9.328125 16.59375 8.109375 
Q 21.484375 6.890625 26.8125 6.890625 
Q 36.078125 6.890625 40.9375 10.546875 
Q 45.796875 14.203125 45.796875 21.1875 
Q 45.796875 27.640625 41.28125 31.265625 
Q 36.765625 34.90625 28.71875 34.90625 
L 20.21875 34.90625 
L 20.21875 43.015625 
L 29.109375 43.015625 
Q 36.375 43.015625 40.234375 45.921875 
Q 44.09375 48.828125 44.09375 54.296875 
Q 44.09375 59.90625 40.109375 62.90625 
Q 36.140625 65.921875 28.71875 65.921875 
Q 24.65625 65.921875 20.015625 65.03125 
Q 15.375 64.15625 9.8125 62.3125 
L 9.8125 71.09375 
Q 15.4375 72.65625 20.34375 73.4375 
Q 25.25 74.21875 29.59375 74.21875 
Q 40.828125 74.21875 47.359375 69.109375 
Q 53.90625 64.015625 53.90625 55.328125 
Q 53.90625 49.265625 50.4375 45.09375 
Q 46.96875 40.921875 40.578125 39.3125 
z
" id="DejaVuSans-33"/>
      </defs>
      <g style="fill:#d62728;" transform="translate(72.82 200.415229)scale(0.08 -0.08)">
       <use xlink:href="#DejaVuSans-33"/>
       <use x="63.623047" xlink:href="#DejaVuSans-30"/>
      </g>
     </g>
    </g>
    <g id="ytick_5">
     <g id="line2d_23">
      <path clip-path="url(#p1f200cd7a9)" d="M 90 159.304276 
L 648 159.304276 
" style="fill:none;stroke:#cccccc;stroke-linecap:round;"/>
     </g>
     <g id="line2d_24"/>
     <g id="text_5">
      <!-- 40 -->
      <defs>
       <path d="M 37.796875 64.3125 
L 12.890625 25.390625 
L 37.796875 25.390625 
z
M 35.203125 72.90625 
L 47.609375 72.90625 
L 47.609375 25.390625 
L 58.015625 25.390625 
L 58.015625 17.1875 
L 47.609375 17.1875 
L 47.609375 0 
L 37.796875 0 
L 37.796875 17.1875 
L 4.890625 17.1875 
L 4.890625 26.703125 
z
" id="DejaVuSans-34"/>
      </defs>
      <g style="fill:#d62728;" transform="translate(72.82 162.343651)scale(0.08 -0.08)">
       <use xlink:href="#DejaVuSans-34"/>
       <use x="63.623047" xlink:href="#DejaVuSans-30"/>
      </g>
     </g>
    </g>
    <g id="ytick_6">
     <g id="line2d_25">
      <path clip-path="url(#p1f200cd7a9)" d="M 90 121.232697 
L 648 121.232697 
" style="fill:none;stroke:#cccccc;stroke-linecap:round;"/>
     </g>
     <g id="line2d_26"/>
     <g id="text_6">
      <!-- 50 -->
      <defs>
       <path d="M 10.796875 72.90625 
L 49.515625 72.90625 
L 49.515625 64.59375 
L 19.828125 64.59375 
L 19.828125 46.734375 
Q 21.96875 47.46875 24.109375 47.828125 
Q 26.265625 48.1875 28.421875 48.1875 
Q 40.625 48.1875 47.75 41.5 
Q 54.890625 34.8125 54.890625 23.390625 
Q 54.890625 11.625 47.5625 5.09375 
Q 40.234375 -1.421875 26.90625 -1.421875 
Q 22.3125 -1.421875 17.546875 -0.640625 
Q 12.796875 0.140625 7.71875 1.703125 
L 7.71875 11.625 
Q 12.109375 9.234375 16.796875 8.0625 
Q 21.484375 6.890625 26.703125 6.890625 
Q 35.15625 6.890625 40.078125 11.328125 
Q 45.015625 15.765625 45.015625 23.390625 
Q 45.015625 31 40.078125 35.4375 
Q 35.15625 39.890625 26.703125 39.890625 
Q 22.75 39.890625 18.8125 39.015625 
Q 14.890625 38.140625 10.796875 36.28125 
z
" id="DejaVuSans-35"/>
      </defs>
      <g style="fill:#d62728;" transform="translate(72.82 124.272072)scale(0.08 -0.08)">
       <use xlink:href="#DejaVuSans-35"/>
       <use x="63.623047" xlink:href="#DejaVuSans-30"/>
      </g>
     </g>
    </g>
    <g id="ytick_7">
     <g id="line2d_27">
      <path clip-path="url(#p1f200cd7a9)" d="M 90 83.161119 
L 648 83.161119 
" style="fill:none;stroke:#cccccc;stroke-linecap:round;"/>
     </g>
     <g id="line2d_28"/>
     <g id="text_7">
      <!-- 60 -->
      <defs>
       <path d="M 33.015625 40.375 
Q 26.375 40.375 22.484375 35.828125 
Q 18.609375 31.296875 18.609375 23.390625 
Q 18.609375 15.53125 22.484375 10.953125 
Q 26.375 6.390625 33.015625 6.390625 
Q 39.65625 6.390625 43.53125 10.953125 
Q 47.40625 15.53125 47.40625 23.390625 
Q 47.40625 31.296875 43.53125 35.828125 
Q 39.65625 40.375 33.015625 40.375 
z
M 52.59375 71.296875 
L 52.59375 62.3125 
Q 48.875 64.0625 45.09375 64.984375 
Q 41.3125 65.921875 37.59375 65.921875 
Q 27.828125 65.921875 22.671875 59.328125 
Q 17.53125 52.734375 16.796875 39.40625 
Q 19.671875 43.65625 24.015625 45.921875 
Q 28.375 48.1875 33.59375 48.1875 
Q 44.578125 48.1875 50.953125 41.515625 
Q 57.328125 34.859375 57.328125 23.390625 
Q 57.328125 12.15625 50.6875 5.359375 
Q 44.046875 -1.421875 33.015625 -1.421875 
Q 20.359375 -1.421875 13.671875 8.265625 
Q 6.984375 17.96875 6.984375 36.375 
Q 6.984375 53.65625 15.1875 63.9375 
Q 23.390625 74.21875 37.203125 74.21875 
Q 40.921875 74.21875 44.703125 73.484375 
Q 48.484375 72.75 52.59375 71.296875 
z
" id="DejaVuSans-36"/>
      </defs>
      <g style="fill:#d62728;" transform="translate(72.82 86.200494)scale(0.08 -0.08)">
       <use xlink:href="#DejaVuSans-36"/>
       <use x="63.623047" xlink:href="#DejaVuSans-30"/>
      </g>
     </g>
    </g>
   </g>
   <g id="line2d_29">
    <path clip-path="url(#p1f200cd7a9)" d="M 117.229222 -1 
L 117.669421 60.860716 
L 118.438017 119.518845 
L 119.206612 149.316736 
L 119.975207 169.319886 
L 120.743802 182.768959 
L 121.512397 189.147291 
L 122.280992 191.882863 
L 123.818182 201.923725 
L 125.355372 215.997052 
L 127.661157 238.396912 
L 128.429752 244.040481 
L 129.198347 247.171955 
L 130.735537 251.308263 
L 133.041322 257.129562 
L 134.578512 260.4848 
L 136.884298 264.822799 
L 137.652893 266.104817 
L 138.421488 267.143848 
L 139.958678 268.722162 
L 142.264463 270.558723 
L 146.107438 273.032388 
L 150.719008 275.518874 
L 154.561983 277.264787 
L 165.322314 281.221914 
L 169.933884 282.413211 
L 175.31405 283.677612 
L 184.53719 285.101422 
L 189.14876 285.576741 
L 191.454545 285.860829 
L 195.297521 286.357843 
L 201.446281 286.973748 
L 202.983471 287.196702 
L 210.669421 287.854618 
L 222.966942 288.372979 
L 225.272727 288.495557 
L 228.347107 288.606057 
L 256.016529 289.026367 
L 259.090909 288.977067 
L 260.628099 289.072348 
L 272.92562 289.285719 
L 276.768595 289.238484 
L 278.305785 289.321928 
L 286.760331 289.303027 
L 309.818182 289.511467 
L 317.504132 289.565782 
L 329.801653 289.602507 
L 339.024793 289.615962 
L 340.561983 289.5571 
L 362.85124 289.629742 
L 369.768595 289.701994 
L 388.214876 289.588941 
L 391.289256 289.49338 
L 397.438017 289.430027 
L 405.892562 289.243612 
L 412.041322 289.249517 
L 427.413223 289.082211 
L 438.173554 288.569866 
L 439.710744 288.435453 
L 456.619835 288.160334 
L 468.14876 287.995125 
L 486.595041 287.717221 
L 488.132231 287.800173 
L 501.198347 287.741124 
L 502.735537 287.736817 
L 509.652893 287.729373 
L 510.421488 287.891153 
L 532.710744 287.84533 
L 540.396694 287.829117 
L 546.545455 287.837487 
L 547.31405 287.728754 
L 548.85124 287.799965 
L 549.619835 287.733909 
L 550.38843 287.799889 
L 551.92562 287.732558 
L 553.46281 287.696902 
L 554.231405 287.620432 
L 555.768595 287.680692 
L 575.752066 287.923241 
L 576.520661 287.999308 
L 577.289256 287.942898 
L 578.826446 288.025198 
L 580.363636 288.036841 
L 581.900826 287.895693 
L 584.975207 287.916247 
L 596.504132 287.843716 
L 597.272727 287.801518 
L 598.041322 287.873789 
L 598.809917 287.795424 
L 600.347107 287.85178 
L 608.033058 287.842213 
L 614.950413 287.862812 
L 622.636364 287.741026 
L 622.636364 287.741026 
" style="fill:none;stroke:#d62728;stroke-linecap:round;stroke-width:1.75;"/>
   </g>
   <g id="line2d_30">
    <path clip-path="url(#p1f200cd7a9)" d="M 116.701955 -1 
L 116.900826 31.395143 
L 117.669421 127.741912 
L 118.438017 176.849891 
L 119.206612 197.766229 
L 119.975207 208.464986 
L 120.743802 214.392292 
L 121.512397 215.375045 
L 122.280992 214.104179 
L 123.049587 215.567647 
L 123.818182 217.952141 
L 124.586777 221.492095 
L 125.355372 226.508674 
L 126.892562 239.652805 
L 128.429752 253.862904 
L 129.198347 257.557495 
L 129.966942 259.673627 
L 133.041322 266.362259 
L 136.115702 273.466464 
L 138.421488 278.849964 
L 139.190083 280.173656 
L 139.958678 281.212749 
L 141.495868 282.541839 
L 143.033058 283.329164 
L 146.876033 284.678643 
L 153.793388 286.354857 
L 157.636364 287.019957 
L 159.942149 287.420785 
L 163.016529 287.955358 
L 167.628099 288.517338 
L 180.694215 289.384102 
L 188.380165 289.539141 
L 190.68595 289.536079 
L 199.909091 289.899679 
L 211.438017 290.317215 
L 212.975207 290.331567 
L 214.512397 290.342176 
L 218.355372 290.354567 
L 219.892562 290.247396 
L 220.661157 290.268365 
L 221.429752 290.406616 
L 258.322314 290.604821 
L 259.090909 290.5754 
L 260.628099 290.665002 
L 272.92562 290.851864 
L 276.768595 290.80011 
L 278.305785 290.881593 
L 286.760331 290.857108 
L 309.049587 291.053734 
L 317.504132 291.130155 
L 329.801653 291.177698 
L 339.024793 291.200698 
L 340.561983 291.143851 
L 362.082645 291.2141 
L 367.46281 291.351029 
L 388.214876 291.235341 
L 391.289256 291.143887 
L 398.975207 291.087669 
L 399.743802 290.950919 
L 425.107438 290.867059 
L 436.636364 290.504391 
L 437.404959 290.315562 
L 438.173554 290.328042 
L 439.710744 290.197863 
L 458.92562 289.933631 
L 471.22314 289.757768 
L 473.528926 289.681776 
L 509.652893 289.559978 
L 510.421488 289.7215 
L 532.710744 289.66509 
L 540.396694 289.645772 
L 546.545455 289.652753 
L 547.31405 289.543383 
L 548.85124 289.614489 
L 549.619835 289.548335 
L 550.38843 289.614215 
L 551.92562 289.546347 
L 553.46281 289.510695 
L 554.231405 289.434008 
L 555.768595 289.49431 
L 575.752066 289.730611 
L 576.520661 289.806476 
L 577.289256 289.749479 
L 578.826446 289.831482 
L 580.363636 289.84264 
L 581.900826 289.700804 
L 584.975207 289.720272 
L 596.504132 289.643774 
L 597.272727 289.601204 
L 598.041322 289.673077 
L 598.809917 289.594246 
L 600.347107 289.649912 
L 608.033058 289.637551 
L 614.950413 289.655266 
L 622.636364 289.531419 
L 622.636364 289.531419 
" style="fill:none;stroke:#d62728;stroke-dasharray:0.5,0.825;stroke-dashoffset:0;stroke-width:0.5;"/>
   </g>
   <g id="line2d_31">
    <path clip-path="url(#p1f200cd7a9)" d="M 115.363636 200.593942 
L 116.132231 219.371621 
L 116.900826 233.046341 
L 117.669421 244.709392 
L 119.975207 272.445488 
L 120.743802 279.967256 
L 121.512397 285.362834 
L 122.280992 289.369273 
L 123.818182 295.562173 
L 124.586777 298.604117 
L 125.355372 301.078966 
L 126.123967 302.704687 
L 126.892562 303.294369 
L 127.661157 302.872654 
L 128.429752 301.768165 
L 129.198347 301.205048 
L 129.966942 301.269769 
L 132.272727 302.209799 
L 133.041322 302.357891 
L 133.809917 302.365737 
L 134.578512 302.247103 
L 135.347107 301.992219 
L 136.884298 301.100772 
L 139.190083 299.378929 
L 139.958678 299.1 
L 140.727273 299.011531 
L 142.264463 299.164912 
L 144.570248 299.737882 
L 153.793388 302.168863 
L 159.942149 303.521045 
L 168.396694 305.070696 
L 174.545455 305.998326 
L 182.231405 306.954045 
L 192.22314 307.943911 
L 201.446281 308.62464 
L 212.206612 309.189694 
L 223.735537 309.572126 
L 238.338843 309.838449 
L 262.165289 310.003005 
L 310.586777 310.031658 
L 437.404959 309.83474 
L 498.892562 309.757916 
L 622.636364 309.800195 
L 622.636364 309.800195 
" style="fill:none;stroke:#d62728;stroke-dasharray:3.2,0.8,0.5,0.8;stroke-dashoffset:0;stroke-width:0.5;"/>
   </g>
   <g id="patch_3">
    <path d="M 90 311.590588 
L 90 60.48 
" style="fill:none;stroke:#cccccc;stroke-linecap:square;stroke-linejoin:miter;"/>
   </g>
   <g id="patch_4">
    <path d="M 648 311.590588 
L 648 60.48 
" style="fill:none;stroke:#cccccc;stroke-linecap:square;stroke-linejoin:miter;"/>
   </g>
   <g id="patch_5">
    <path d="M 90 311.590588 
L 648 311.590588 
" style="fill:none;stroke:#cccccc;stroke-linecap:square;stroke-linejoin:miter;"/>
   </g>
   <g id="patch_6">
    <path d="M 90 60.48 
L 648 60.48 
" style="fill:none;stroke:#cccccc;stroke-linecap:square;stroke-linejoin:miter;"/>
   </g>
  </g>
  <g id="axes_2">
   <g id="matplotlib.axis_3">
    <g id="ytick_8">
     <g id="line2d_32"/>
     <g id="text_8">
      <!-- 0 -->
      <g style="fill:#1f77b4;" transform="translate(655 314.629963)scale(0.08 -0.08)">
       <use xlink:href="#DejaVuSans-30"/>
      </g>
     </g>
    </g>
    <g id="ytick_9">
     <g id="line2d_33"/>
     <g id="text_9">
      <!-- 200 -->
      <g style="fill:#1f77b4;" transform="translate(655 264.407846)scale(0.08 -0.08)">
       <use xlink:href="#DejaVuSans-32"/>
       <use x="63.623047" xlink:href="#DejaVuSans-30"/>
       <use x="127.246094" xlink:href="#DejaVuSans-30"/>
      </g>
     </g>
    </g>
    <g id="ytick_10">
     <g id="line2d_34"/>
     <g id="text_10">
      <!-- 400 -->
      <g style="fill:#1f77b4;" transform="translate(655 214.185728)scale(0.08 -0.08)">
       <use xlink:href="#DejaVuSans-34"/>
       <use x="63.623047" xlink:href="#DejaVuSans-30"/>
       <use x="127.246094" xlink:href="#DejaVuSans-30"/>
      </g>
     </g>
    </g>
    <g id="ytick_11">
     <g id="line2d_35"/>
     <g id="text_11">
      <!-- 600 -->
      <g style="fill:#1f77b4;" transform="translate(655 163.96361)scale(0.08 -0.08)">
       <use xlink:href="#DejaVuSans-36"/>
       <use x="63.623047" xlink:href="#DejaVuSans-30"/>
       <use x="127.246094" xlink:href="#DejaVuSans-30"/>
      </g>
     </g>
    </g>
    <g id="ytick_12">
     <g id="line2d_36"/>
     <g id="text_12">
      <!-- 800 -->
      <defs>
       <path d="M 31.78125 34.625 
Q 24.75 34.625 20.71875 30.859375 
Q 16.703125 27.09375 16.703125 20.515625 
Q 16.703125 13.921875 20.71875 10.15625 
Q 24.75 6.390625 31.78125 6.390625 
Q 38.8125 6.390625 42.859375 10.171875 
Q 46.921875 13.96875 46.921875 20.515625 
Q 46.921875 27.09375 42.890625 30.859375 
Q 38.875 34.625 31.78125 34.625 
z
M 21.921875 38.8125 
Q 15.578125 40.375 12.03125 44.71875 
Q 8.5 49.078125 8.5 55.328125 
Q 8.5 64.0625 14.71875 69.140625 
Q 20.953125 74.21875 31.78125 74.21875 
Q 42.671875 74.21875 48.875 69.140625 
Q 55.078125 64.0625 55.078125 55.328125 
Q 55.078125 49.078125 51.53125 44.71875 
Q 48 40.375 41.703125 38.8125 
Q 48.828125 37.15625 52.796875 32.3125 
Q 56.78125 27.484375 56.78125 20.515625 
Q 56.78125 9.90625 50.3125 4.234375 
Q 43.84375 -1.421875 31.78125 -1.421875 
Q 19.734375 -1.421875 13.25 4.234375 
Q 6.78125 9.90625 6.78125 20.515625 
Q 6.78125 27.484375 10.78125 32.3125 
Q 14.796875 37.15625 21.921875 38.8125 
z
M 18.3125 54.390625 
Q 18.3125 48.734375 21.84375 45.5625 
Q 25.390625 42.390625 31.78125 42.390625 
Q 38.140625 42.390625 41.71875 45.5625 
Q 45.3125 48.734375 45.3125 54.390625 
Q 45.3125 60.0625 41.71875 63.234375 
Q 38.140625 66.40625 31.78125 66.40625 
Q 25.390625 66.40625 21.84375 63.234375 
Q 18.3125 60.0625 18.3125 54.390625 
z
" id="DejaVuSans-38"/>
      </defs>
      <g style="fill:#1f77b4;" transform="translate(655 113.741493)scale(0.08 -0.08)">
       <use xlink:href="#DejaVuSans-38"/>
       <use x="63.623047" xlink:href="#DejaVuSans-30"/>
       <use x="127.246094" xlink:href="#DejaVuSans-30"/>
      </g>
     </g>
    </g>
    <g id="ytick_13">
     <g id="line2d_37"/>
     <g id="text_13">
      <!-- 1000 -->
      <g style="fill:#1f77b4;" transform="translate(655 63.519375)scale(0.08 -0.08)">
       <use xlink:href="#DejaVuSans-31"/>
       <use x="63.623047" xlink:href="#DejaVuSans-30"/>
       <use x="127.246094" xlink:href="#DejaVuSans-30"/>
       <use x="190.869141" xlink:href="#DejaVuSans-30"/>
      </g>
     </g>
    </g>
   </g>
   <g id="line2d_38">
    <path clip-path="url(#p1f200cd7a9)" d="M 115.363636 311.339478 
L 116.132231 306.568376 
L 116.900826 304.559492 
L 117.669421 302.048386 
L 118.438017 300.541722 
L 119.206612 296.775064 
L 119.975207 289.995078 
L 122.280992 241.781845 
L 123.049587 232.239642 
L 123.818182 227.970762 
L 124.586777 224.455214 
L 125.355372 222.446329 
L 126.123967 221.441887 
L 127.661157 213.406348 
L 128.429752 207.128584 
L 129.198347 205.119699 
L 129.966942 200.348598 
L 130.735537 199.846376 
L 131.504132 198.841934 
L 133.041322 194.321944 
L 134.578512 191.308616 
L 135.347107 190.304174 
L 136.115702 188.044179 
L 137.652893 180.259751 
L 138.421488 175.990871 
L 139.190083 172.977544 
L 139.958678 170.717548 
L 140.727273 167.453111 
L 142.264463 165.444226 
L 143.033058 163.686452 
L 143.801653 162.682009 
L 144.570248 161.928678 
L 146.107438 159.919793 
L 146.876033 159.166461 
L 147.644628 158.66424 
L 148.413223 158.413129 
L 149.181818 158.66424 
L 149.950413 157.659798 
L 150.719008 156.906466 
L 153.024793 156.906466 
L 153.793388 155.902024 
L 154.561983 156.153134 
L 155.330579 155.650913 
L 156.099174 155.399802 
L 156.867769 155.399802 
L 157.636364 155.148692 
L 158.404959 154.646471 
L 159.173554 153.893139 
L 159.942149 152.888696 
L 160.710744 151.382033 
L 163.016529 149.875369 
L 163.785124 148.368706 
L 166.090909 148.368706 
L 166.859504 147.364264 
L 167.628099 146.610932 
L 168.396694 146.610932 
L 169.165289 146.359821 
L 169.933884 146.359821 
L 170.702479 146.108711 
L 171.471074 146.610932 
L 172.239669 144.853158 
L 173.008264 145.104268 
L 173.77686 144.602047 
L 174.545455 144.853158 
L 175.31405 144.099826 
L 176.85124 144.099826 
L 177.619835 144.350936 
L 178.38843 143.848715 
L 179.157025 144.350936 
L 179.92562 143.848715 
L 180.694215 143.095384 
L 181.46281 142.593162 
L 182.231405 142.844273 
L 183 142.593162 
L 183.768595 141.839831 
L 184.53719 142.844273 
L 185.305785 142.593162 
L 186.07438 142.844273 
L 186.842975 142.342052 
L 187.61157 142.593162 
L 188.380165 142.090941 
L 189.14876 143.597605 
L 189.917355 143.597605 
L 190.68595 143.346494 
L 191.454545 142.593162 
L 193.760331 142.593162 
L 194.528926 142.342052 
L 195.297521 140.835388 
L 196.066116 141.337609 
L 196.834711 141.58872 
L 197.603306 141.086499 
L 198.371901 141.086499 
L 199.140496 141.839831 
L 199.909091 141.839831 
L 202.214876 142.593162 
L 202.983471 143.095384 
L 203.752066 142.593162 
L 204.520661 141.839831 
L 205.289256 141.839831 
L 206.057851 141.337609 
L 206.826446 141.086499 
L 207.595041 141.337609 
L 209.132231 140.333167 
L 209.900826 140.584278 
L 211.438017 140.082056 
L 212.206612 140.082056 
L 212.975207 139.328725 
L 213.743802 140.082056 
L 214.512397 140.333167 
L 216.049587 140.333167 
L 216.818182 139.830946 
L 217.586777 139.830946 
L 218.355372 140.082056 
L 219.123967 139.830946 
L 219.892562 140.082056 
L 220.661157 140.082056 
L 221.429752 139.328725 
L 222.198347 139.579835 
L 223.735537 139.579835 
L 224.504132 138.826504 
L 226.041322 139.328725 
L 226.809917 138.826504 
L 227.578512 138.826504 
L 228.347107 138.575393 
L 229.115702 138.575393 
L 229.884298 138.826504 
L 230.652893 138.324282 
L 231.421488 138.073172 
L 232.190083 138.324282 
L 232.958678 138.073172 
L 233.727273 138.073172 
L 234.495868 138.324282 
L 235.264463 137.570951 
L 236.033058 137.822061 
L 236.801653 137.822061 
L 238.338843 137.31984 
L 239.107438 136.566508 
L 240.644628 137.068729 
L 241.413223 137.570951 
L 242.181818 137.570951 
L 242.950413 138.324282 
L 243.719008 138.575393 
L 245.256198 138.575393 
L 246.024793 139.077614 
L 246.793388 138.826504 
L 247.561983 138.324282 
L 249.867769 138.324282 
L 250.636364 138.073172 
L 251.404959 138.826504 
L 252.173554 139.077614 
L 252.942149 139.579835 
L 253.710744 139.579835 
L 254.479339 140.082056 
L 255.247934 139.830946 
L 256.016529 139.830946 
L 256.785124 140.082056 
L 257.553719 139.830946 
L 259.090909 140.333167 
L 259.859504 139.328725 
L 261.396694 138.826504 
L 262.165289 139.077614 
L 262.933884 139.077614 
L 263.702479 139.579835 
L 264.471074 139.328725 
L 265.239669 139.830946 
L 266.77686 139.830946 
L 267.545455 140.082056 
L 268.31405 139.830946 
L 269.082645 139.830946 
L 269.85124 139.328725 
L 272.157025 139.328725 
L 272.92562 140.082056 
L 274.46281 140.082056 
L 275.231405 140.333167 
L 276 140.082056 
L 277.53719 140.082056 
L 279.07438 140.584278 
L 280.61157 140.082056 
L 281.380165 140.584278 
L 282.14876 140.584278 
L 282.917355 140.835388 
L 283.68595 140.333167 
L 285.22314 140.333167 
L 285.991736 140.082056 
L 286.760331 140.082056 
L 287.528926 140.584278 
L 288.297521 139.830946 
L 293.677686 139.830946 
L 294.446281 140.082056 
L 295.214876 140.082056 
L 295.983471 140.333167 
L 296.752066 140.333167 
L 299.057851 139.579835 
L 301.363636 139.579835 
L 302.132231 139.328725 
L 302.900826 139.328725 
L 303.669421 139.077614 
L 304.438017 139.328725 
L 305.206612 139.077614 
L 305.975207 139.077614 
L 306.743802 138.575393 
L 307.512397 138.575393 
L 308.280992 138.073172 
L 309.049587 137.822061 
L 309.818182 138.073172 
L 310.586777 138.073172 
L 311.355372 137.570951 
L 312.123967 137.570951 
L 313.661157 137.068729 
L 314.429752 137.31984 
L 315.198347 137.31984 
L 315.966942 137.570951 
L 316.735537 137.068729 
L 317.504132 137.31984 
L 318.272727 137.31984 
L 319.041322 137.068729 
L 322.115702 137.068729 
L 322.884298 137.31984 
L 323.652893 136.566508 
L 324.421488 137.068729 
L 325.190083 136.566508 
L 325.958678 136.566508 
L 326.727273 137.31984 
L 327.495868 137.068729 
L 329.033058 137.570951 
L 329.801653 137.068729 
L 330.570248 137.31984 
L 333.644628 137.31984 
L 334.413223 137.570951 
L 335.181818 137.31984 
L 335.950413 137.31984 
L 336.719008 137.068729 
L 340.561983 137.068729 
L 341.330579 137.31984 
L 342.867769 137.31984 
L 343.636364 137.570951 
L 344.404959 137.570951 
L 345.173554 137.31984 
L 345.942149 137.822061 
L 346.710744 137.570951 
L 347.479339 137.570951 
L 348.247934 138.073172 
L 349.016529 138.324282 
L 349.785124 138.324282 
L 350.553719 138.073172 
L 352.090909 138.073172 
L 352.859504 137.570951 
L 354.396694 137.570951 
L 355.165289 137.822061 
L 357.471074 137.822061 
L 358.239669 138.073172 
L 359.008264 138.073172 
L 359.77686 137.822061 
L 360.545455 138.073172 
L 361.31405 137.570951 
L 363.619835 137.570951 
L 364.38843 137.31984 
L 365.157025 137.31984 
L 365.92562 137.068729 
L 366.694215 137.31984 
L 367.46281 137.822061 
L 368.231405 137.570951 
L 369.768595 137.570951 
L 370.53719 137.822061 
L 371.305785 137.570951 
L 372.07438 137.822061 
L 372.842975 137.822061 
L 373.61157 137.570951 
L 375.14876 137.570951 
L 375.917355 137.822061 
L 377.454545 137.31984 
L 378.22314 137.570951 
L 378.991736 137.570951 
L 379.760331 138.324282 
L 380.528926 137.570951 
L 381.297521 137.31984 
L 382.066116 137.570951 
L 382.834711 137.068729 
L 383.603306 137.068729 
L 385.140496 137.570951 
L 385.909091 137.31984 
L 386.677686 136.817619 
L 387.446281 136.817619 
L 388.214876 137.068729 
L 388.983471 136.566508 
L 389.752066 136.566508 
L 390.520661 136.817619 
L 391.289256 137.822061 
L 392.057851 137.822061 
L 392.826446 137.31984 
L 393.595041 137.068729 
L 394.363636 137.068729 
L 395.132231 137.31984 
L 395.900826 138.073172 
L 396.669421 138.575393 
L 398.975207 139.328725 
L 399.743802 139.077614 
L 400.512397 139.077614 
L 401.280992 138.575393 
L 402.049587 139.328725 
L 402.818182 139.830946 
L 403.586777 139.328725 
L 404.355372 139.077614 
L 405.123967 139.077614 
L 406.661157 139.579835 
L 407.429752 139.579835 
L 408.198347 140.082056 
L 410.504132 140.082056 
L 412.041322 139.579835 
L 415.115702 140.584278 
L 415.884298 140.584278 
L 416.652893 141.086499 
L 418.190083 140.584278 
L 418.958678 140.835388 
L 419.727273 141.337609 
L 420.495868 141.337609 
L 422.033058 141.839831 
L 422.801653 140.835388 
L 423.570248 141.337609 
L 424.338843 141.086499 
L 425.107438 141.337609 
L 425.876033 141.839831 
L 426.644628 141.337609 
L 427.413223 141.337609 
L 428.181818 142.090941 
L 428.950413 142.090941 
L 429.719008 142.342052 
L 430.487603 142.844273 
L 431.256198 142.844273 
L 432.024793 143.346494 
L 432.793388 142.593162 
L 434.330579 143.095384 
L 435.099174 143.095384 
L 435.867769 143.848715 
L 436.636364 143.848715 
L 437.404959 143.597605 
L 438.942149 144.602047 
L 439.710744 144.099826 
L 441.247934 144.602047 
L 442.016529 145.104268 
L 442.785124 144.853158 
L 445.090909 145.606489 
L 445.859504 145.355379 
L 446.628099 145.8576 
L 447.396694 145.606489 
L 448.165289 145.606489 
L 448.933884 145.8576 
L 450.471074 145.8576 
L 452.008264 145.355379 
L 452.77686 145.606489 
L 453.545455 145.104268 
L 454.31405 146.108711 
L 455.082645 145.8576 
L 455.85124 146.359821 
L 457.38843 145.355379 
L 458.157025 145.606489 
L 458.92562 145.606489 
L 461.231405 147.113153 
L 462 147.364264 
L 462.768595 147.364264 
L 463.53719 147.113153 
L 465.07438 147.113153 
L 465.842975 146.862042 
L 466.61157 146.862042 
L 467.380165 147.113153 
L 468.14876 147.113153 
L 468.917355 146.610932 
L 469.68595 146.862042 
L 470.454545 146.359821 
L 471.991736 146.862042 
L 472.760331 146.862042 
L 473.528926 146.610932 
L 474.297521 146.862042 
L 475.066116 146.862042 
L 476.603306 146.359821 
L 477.371901 146.359821 
L 478.140496 146.862042 
L 478.909091 146.862042 
L 479.677686 147.615374 
L 480.446281 147.364264 
L 481.214876 147.615374 
L 481.983471 147.364264 
L 483.520661 147.364264 
L 484.289256 147.113153 
L 485.057851 147.364264 
L 485.826446 146.359821 
L 486.595041 147.113153 
L 487.363636 146.610932 
L 488.132231 145.8576 
L 488.900826 145.8576 
L 489.669421 146.359821 
L 491.206612 146.359821 
L 491.975207 146.610932 
L 495.049587 146.610932 
L 495.818182 146.359821 
L 496.586777 146.359821 
L 497.355372 146.862042 
L 498.123967 146.610932 
L 498.892562 146.610932 
L 499.661157 147.113153 
L 500.429752 146.862042 
L 501.198347 146.862042 
L 502.735537 146.359821 
L 506.578512 146.359821 
L 507.347107 146.862042 
L 508.115702 146.610932 
L 509.652893 146.610932 
L 511.190083 146.108711 
L 511.958678 146.108711 
L 513.495868 146.610932 
L 515.033058 146.610932 
L 515.801653 146.359821 
L 516.570248 146.359821 
L 517.338843 146.862042 
L 518.876033 146.862042 
L 519.644628 147.364264 
L 520.413223 147.364264 
L 521.181818 146.862042 
L 521.950413 146.862042 
L 522.719008 147.113153 
L 523.487603 146.862042 
L 524.256198 146.862042 
L 525.024793 147.364264 
L 525.793388 146.862042 
L 526.561983 147.364264 
L 527.330579 147.113153 
L 528.099174 147.113153 
L 528.867769 146.359821 
L 529.636364 146.862042 
L 530.404959 146.610932 
L 531.173554 146.862042 
L 531.942149 146.359821 
L 532.710744 146.610932 
L 533.479339 146.610932 
L 534.247934 146.359821 
L 535.016529 146.359821 
L 535.785124 146.108711 
L 536.553719 146.359821 
L 537.322314 146.108711 
L 538.859504 146.610932 
L 539.628099 146.359821 
L 541.933884 146.359821 
L 542.702479 146.610932 
L 543.471074 146.108711 
L 544.239669 146.359821 
L 545.008264 145.8576 
L 545.77686 145.606489 
L 546.545455 146.108711 
L 547.31405 145.8576 
L 548.082645 145.8576 
L 549.619835 145.355379 
L 553.46281 145.355379 
L 554.231405 145.606489 
L 555.768595 145.606489 
L 556.53719 145.355379 
L 558.07438 145.355379 
L 558.842975 145.606489 
L 559.61157 145.355379 
L 561.14876 145.355379 
L 561.917355 145.104268 
L 564.22314 145.104268 
L 565.760331 144.602047 
L 567.297521 145.104268 
L 571.140496 143.848715 
L 572.677686 143.848715 
L 573.446281 144.350936 
L 574.214876 144.099826 
L 575.752066 144.602047 
L 576.520661 144.602047 
L 577.289256 144.853158 
L 578.057851 144.853158 
L 578.826446 144.350936 
L 579.595041 144.602047 
L 580.363636 144.350936 
L 581.900826 145.8576 
L 582.669421 145.104268 
L 583.438017 145.355379 
L 584.206612 145.104268 
L 585.743802 145.104268 
L 586.512397 144.602047 
L 587.280992 144.602047 
L 588.049587 144.853158 
L 588.818182 144.602047 
L 589.586777 144.853158 
L 590.355372 144.350936 
L 591.123967 144.853158 
L 591.892562 144.350936 
L 593.429752 144.350936 
L 594.198347 144.602047 
L 594.966942 144.099826 
L 595.735537 144.099826 
L 597.272727 144.602047 
L 598.041322 144.350936 
L 598.809917 144.350936 
L 599.578512 144.853158 
L 600.347107 144.350936 
L 602.652893 145.104268 
L 608.801653 145.104268 
L 609.570248 145.355379 
L 610.338843 145.104268 
L 612.644628 145.104268 
L 613.413223 145.355379 
L 614.181818 145.104268 
L 614.950413 145.355379 
L 615.719008 145.8576 
L 618.793388 145.8576 
L 619.561983 145.606489 
L 620.330579 145.606489 
L 621.099174 145.355379 
L 621.867769 145.355379 
L 622.636364 145.8576 
L 622.636364 145.8576 
" style="fill:none;stroke:#1f77b4;stroke-linecap:round;stroke-width:1.75;"/>
   </g>
   <g id="line2d_39">
    <path clip-path="url(#p1f200cd7a9)" d="M 115.363636 282.712871 
L 116.132231 276.937327 
L 116.900826 287.232861 
L 117.669421 292.506184 
L 118.438017 295.770621 
L 119.206612 292.757294 
L 119.975207 282.46176 
L 121.512397 274.928442 
L 122.280992 266.892904 
L 123.818182 243.288508 
L 124.586777 233.495195 
L 126.123967 191.308616 
L 126.892562 178.250866 
L 127.661157 178.753087 
L 128.429752 189.550842 
L 129.198347 191.810838 
L 129.966942 183.775299 
L 131.504132 173.228654 
L 132.272727 172.475322 
L 133.041322 170.466438 
L 133.809917 171.721991 
L 134.578512 180.259751 
L 135.347107 187.541958 
L 136.884298 195.828607 
L 137.652893 200.850819 
L 138.421488 204.366367 
L 139.190083 206.877473 
L 139.958678 207.128584 
L 140.727273 203.110814 
L 141.495868 197.586381 
L 142.264463 195.075275 
L 143.033058 193.819722 
L 143.801653 190.053064 
L 144.570248 188.044179 
L 145.338843 186.537515 
L 146.107438 184.026409 
L 146.876033 182.519746 
L 148.413223 179.255308 
L 149.181818 176.493092 
L 149.950413 173.228654 
L 155.330579 155.902024 
L 156.099174 154.39536 
L 157.636364 150.12648 
L 158.404959 148.870927 
L 159.173554 147.866485 
L 160.710744 145.355379 
L 161.479339 144.853158 
L 162.247934 143.848715 
L 163.016529 141.839831 
L 164.553719 140.835388 
L 165.322314 139.328725 
L 166.090909 138.324282 
L 166.859504 137.068729 
L 167.628099 135.562066 
L 168.396694 135.059845 
L 169.165289 135.059845 
L 169.933884 134.306513 
L 170.702479 134.306513 
L 171.471074 133.804292 
L 172.239669 132.046518 
L 173.008264 132.297628 
L 173.77686 131.795407 
L 174.545455 132.046518 
L 175.31405 131.544296 
L 176.082645 131.544296 
L 176.85124 131.042075 
L 177.619835 130.037633 
L 178.38843 129.535412 
L 179.157025 127.777638 
L 179.92562 127.024306 
L 181.46281 126.019864 
L 182.231405 125.768753 
L 183 125.266532 
L 183.768595 125.015421 
L 184.53719 123.759868 
L 185.305785 123.006536 
L 186.07438 122.755426 
L 186.842975 121.750984 
L 187.61157 121.499873 
L 188.380165 120.746541 
L 189.14876 119.490988 
L 189.917355 118.988767 
L 191.454545 116.979882 
L 192.22314 116.728772 
L 192.991736 115.473219 
L 193.760331 114.468776 
L 194.528926 113.966555 
L 195.297521 112.711002 
L 196.066116 111.957671 
L 196.834711 110.199896 
L 197.603306 109.195454 
L 198.371901 107.939901 
L 199.140496 106.182127 
L 199.909091 105.679906 
L 200.677686 104.173242 
L 201.446281 103.671021 
L 202.214876 102.415468 
L 202.983471 101.662136 
L 203.752066 101.411026 
L 205.289256 99.904362 
L 206.057851 99.653252 
L 207.595041 99.653252 
L 208.363636 99.151031 
L 209.132231 98.89992 
L 210.669421 98.89992 
L 211.438017 98.648809 
L 212.206612 98.146588 
L 212.975207 98.146588 
L 213.743802 97.895478 
L 214.512397 97.393256 
L 215.280992 96.639925 
L 216.049587 96.639925 
L 216.818182 96.137704 
L 217.586777 95.133261 
L 218.355372 94.882151 
L 219.123967 94.379929 
L 219.892562 93.626598 
L 220.661157 93.375487 
L 221.429752 92.371045 
L 222.198347 90.111049 
L 222.966942 89.859939 
L 223.735537 89.106607 
L 224.504132 88.855496 
L 225.272727 87.348833 
L 226.041322 87.097722 
L 228.347107 84.837727 
L 229.115702 83.079953 
L 229.884298 82.326621 
L 230.652893 81.8244 
L 231.421488 81.071068 
L 232.190083 81.071068 
L 233.727273 79.062184 
L 234.495868 78.308852 
L 235.264463 77.806631 
L 236.033058 76.299967 
L 236.801653 75.797746 
L 237.570248 74.542193 
L 239.107438 73.035529 
L 239.876033 72.533308 
L 240.644628 71.528866 
L 242.181818 71.026645 
L 242.950413 70.273313 
L 243.719008 69.771092 
L 245.256198 69.771092 
L 246.024793 68.264428 
L 246.793388 68.264428 
L 247.561983 68.013318 
L 248.330579 67.008875 
L 249.099174 66.757765 
L 250.636364 66.757765 
L 251.404959 67.008875 
L 252.173554 67.008875 
L 252.942149 66.506654 
L 254.479339 66.004433 
L 255.247934 66.506654 
L 256.016529 66.255544 
L 256.785124 67.008875 
L 257.553719 66.757765 
L 259.090909 66.757765 
L 259.859504 66.506654 
L 260.628099 66.757765 
L 261.396694 66.506654 
L 262.165289 66.757765 
L 262.933884 66.757765 
L 263.702479 67.008875 
L 264.471074 67.008875 
L 265.239669 66.757765 
L 266.008264 67.008875 
L 266.77686 67.008875 
L 267.545455 66.757765 
L 269.85124 67.511096 
L 270.619835 67.511096 
L 271.38843 67.259986 
L 272.157025 67.762207 
L 276 67.762207 
L 276.768595 68.013318 
L 277.53719 68.013318 
L 278.305785 68.264428 
L 280.61157 68.264428 
L 281.380165 68.515539 
L 289.066116 68.515539 
L 289.834711 68.766649 
L 290.603306 68.766649 
L 291.371901 69.01776 
L 298.289256 69.01776 
L 299.057851 68.766649 
L 299.826446 68.766649 
L 300.595041 68.515539 
L 303.669421 68.515539 
L 304.438017 68.766649 
L 310.586777 68.766649 
L 311.355372 69.01776 
L 317.504132 69.01776 
L 318.272727 69.268871 
L 345.942149 69.268871 
L 346.710744 69.519981 
L 352.859504 69.519981 
L 353.628099 69.771092 
L 358.239669 69.771092 
L 359.008264 70.022202 
L 359.77686 70.022202 
L 360.545455 70.273313 
L 421.264463 70.273313 
L 422.033058 70.524424 
L 423.570248 70.524424 
L 424.338843 70.775534 
L 425.107438 70.775534 
L 425.876033 71.026645 
L 435.867769 71.026645 
L 436.636364 70.775534 
L 442.785124 70.775534 
L 443.553719 71.026645 
L 448.165289 71.026645 
L 448.933884 71.528866 
L 449.702479 71.779976 
L 450.471074 71.779976 
L 451.239669 72.031087 
L 452.008264 72.031087 
L 452.77686 71.779976 
L 453.545455 71.779976 
L 454.31405 72.031087 
L 458.157025 72.031087 
L 458.92562 72.282198 
L 459.694215 72.031087 
L 460.46281 72.533308 
L 465.842975 72.533308 
L 466.61157 72.784419 
L 467.380165 72.784419 
L 468.14876 73.035529 
L 468.917355 73.035529 
L 469.68595 72.784419 
L 470.454545 73.28664 
L 471.22314 73.035529 
L 476.603306 73.035529 
L 478.140496 73.537751 
L 479.677686 73.537751 
L 480.446281 73.28664 
L 490.438017 73.28664 
L 491.206612 73.537751 
L 491.975207 73.28664 
L 492.743802 73.28664 
L 493.512397 73.537751 
L 495.049587 73.537751 
L 495.818182 73.28664 
L 496.586777 73.28664 
L 497.355372 73.537751 
L 498.892562 73.537751 
L 499.661157 73.788861 
L 500.429752 73.537751 
L 505.041322 73.537751 
L 505.809917 73.788861 
L 508.115702 73.788861 
L 508.884298 73.537751 
L 509.652893 73.788861 
L 515.801653 73.788861 
L 516.570248 73.537751 
L 519.644628 73.537751 
L 520.413223 73.28664 
L 521.181818 73.28664 
L 521.950413 73.035529 
L 522.719008 73.28664 
L 523.487603 73.035529 
L 524.256198 73.28664 
L 525.024793 73.035529 
L 525.793388 73.28664 
L 532.710744 73.28664 
L 533.479339 73.035529 
L 537.322314 73.035529 
L 538.090909 73.28664 
L 538.859504 73.035529 
L 539.628099 73.28664 
L 545.77686 73.28664 
L 546.545455 73.537751 
L 547.31405 73.28664 
L 548.082645 73.28664 
L 548.85124 73.537751 
L 551.157025 73.537751 
L 551.92562 73.28664 
L 552.694215 73.537751 
L 555 73.537751 
L 555.768595 73.28664 
L 557.305785 73.28664 
L 558.07438 73.537751 
L 558.842975 73.035529 
L 559.61157 73.537751 
L 560.380165 73.537751 
L 561.14876 73.28664 
L 561.917355 73.537751 
L 562.68595 73.537751 
L 563.454545 73.28664 
L 564.22314 73.537751 
L 584.206612 73.537751 
L 584.975207 73.28664 
L 587.280992 73.28664 
L 588.049587 73.537751 
L 588.818182 73.28664 
L 596.504132 73.28664 
L 597.272727 73.537751 
L 598.041322 73.28664 
L 600.347107 73.28664 
L 601.884298 72.784419 
L 610.338843 72.784419 
L 611.107438 73.537751 
L 611.876033 72.784419 
L 612.644628 73.035529 
L 613.413223 72.784419 
L 614.181818 73.537751 
L 619.561983 73.537751 
L 620.330579 73.788861 
L 622.636364 73.788861 
L 622.636364 73.788861 
" style="fill:none;stroke:#7f7f7f;stroke-linecap:round;stroke-width:1.75;"/>
   </g>
   <g id="line2d_40">
    <path clip-path="url(#p1f200cd7a9)" d="M 115.363636 311.339478 
L 116.132231 307.070598 
L 116.900826 305.563934 
L 117.669421 304.559492 
L 118.438017 300.792833 
L 119.206612 298.281727 
L 119.975207 289.492856 
L 120.743802 278.443991 
L 122.280992 245.297393 
L 123.049587 235.252969 
L 123.818182 229.477426 
L 125.355372 222.446329 
L 126.892562 211.397464 
L 127.661157 202.859704 
L 128.429752 191.057506 
L 129.198347 184.27752 
L 129.966942 180.259751 
L 130.735537 177.497534 
L 132.272727 168.959774 
L 133.041322 167.453111 
L 133.809917 163.184231 
L 134.578512 159.668682 
L 135.347107 155.399802 
L 136.115702 148.368706 
L 138.421488 122.504315 
L 139.958678 114.970998 
L 140.727273 113.715445 
L 142.264463 109.948786 
L 143.033058 109.948786 
L 143.801653 108.944344 
L 144.570248 108.191012 
L 145.338843 107.688791 
L 146.107438 107.688791 
L 146.876033 106.684348 
L 148.413223 107.186569 
L 149.181818 106.935459 
L 149.950413 108.191012 
L 150.719008 108.442122 
L 151.487603 108.442122 
L 152.256198 106.935459 
L 153.024793 106.935459 
L 153.793388 107.186569 
L 154.561983 107.688791 
L 155.330579 107.43768 
L 156.099174 107.939901 
L 157.636364 108.442122 
L 158.404959 109.446565 
L 159.173554 109.697675 
L 159.942149 109.195454 
L 160.710744 109.697675 
L 161.479339 109.948786 
L 162.247934 108.944344 
L 163.016529 109.195454 
L 163.785124 109.948786 
L 164.553719 109.948786 
L 165.322314 110.953228 
L 166.090909 111.204339 
L 166.859504 111.204339 
L 167.628099 111.455449 
L 168.396694 111.455449 
L 169.165289 112.208781 
L 169.933884 112.459892 
L 170.702479 112.208781 
L 171.471074 112.459892 
L 172.239669 113.213224 
L 173.008264 112.962113 
L 173.77686 112.962113 
L 175.31405 113.464334 
L 176.082645 114.468776 
L 176.85124 114.217666 
L 177.619835 113.464334 
L 178.38843 114.217666 
L 179.157025 114.217666 
L 179.92562 114.719887 
L 180.694215 114.719887 
L 183 115.473219 
L 183.768595 115.222108 
L 184.53719 116.477661 
L 185.305785 116.728772 
L 186.07438 117.733214 
L 188.380165 119.993209 
L 189.14876 120.24432 
L 189.917355 120.746541 
L 190.68595 120.746541 
L 191.454545 120.997652 
L 192.22314 121.499873 
L 192.991736 122.504315 
L 193.760331 123.006536 
L 194.528926 122.504315 
L 195.297521 123.257647 
L 196.834711 123.257647 
L 197.603306 124.010979 
L 200.677686 125.015421 
L 201.446281 125.517642 
L 202.214876 125.768753 
L 202.983471 125.768753 
L 203.752066 125.517642 
L 204.520661 125.517642 
L 205.289256 125.768753 
L 206.057851 125.768753 
L 206.826446 126.270974 
L 208.363636 126.270974 
L 209.132231 126.522085 
L 209.900826 126.522085 
L 212.206612 127.275416 
L 212.975207 127.024306 
L 213.743802 127.526527 
L 215.280992 127.024306 
L 216.049587 127.024306 
L 216.818182 127.526527 
L 217.586777 127.526527 
L 219.892562 129.033191 
L 220.661157 129.284301 
L 221.429752 129.033191 
L 222.198347 129.033191 
L 222.966942 129.284301 
L 223.735537 129.033191 
L 225.272727 129.535412 
L 226.041322 129.535412 
L 226.809917 130.037633 
L 227.578512 130.288744 
L 228.347107 130.288744 
L 229.115702 130.790965 
L 229.884298 131.042075 
L 230.652893 130.790965 
L 231.421488 131.042075 
L 232.190083 130.790965 
L 232.958678 131.042075 
L 233.727273 131.042075 
L 234.495868 131.293186 
L 235.264463 131.795407 
L 236.033058 132.046518 
L 236.801653 132.046518 
L 237.570248 132.297628 
L 238.338843 133.05096 
L 239.107438 133.05096 
L 239.876033 132.799849 
L 240.644628 133.302071 
L 242.181818 133.302071 
L 242.950413 133.804292 
L 243.719008 133.804292 
L 244.487603 133.302071 
L 245.256198 133.804292 
L 246.024793 133.804292 
L 246.793388 134.055402 
L 247.561983 133.553181 
L 250.636364 134.557624 
L 251.404959 134.557624 
L 252.173554 135.059845 
L 252.942149 135.059845 
L 253.710744 135.562066 
L 254.479339 135.310955 
L 256.016529 135.813176 
L 257.553719 136.817619 
L 259.090909 137.31984 
L 260.628099 137.31984 
L 261.396694 137.570951 
L 264.471074 137.570951 
L 265.239669 137.31984 
L 266.008264 138.324282 
L 266.77686 137.570951 
L 267.545455 137.822061 
L 269.85124 137.822061 
L 272.157025 138.575393 
L 272.92562 139.328725 
L 273.694215 139.830946 
L 276 139.830946 
L 276.768595 140.082056 
L 277.53719 140.584278 
L 278.305785 140.584278 
L 279.07438 140.333167 
L 281.380165 140.333167 
L 282.14876 140.082056 
L 282.917355 140.333167 
L 283.68595 140.082056 
L 285.22314 140.584278 
L 285.991736 140.333167 
L 286.760331 140.333167 
L 287.528926 139.830946 
L 288.297521 140.333167 
L 289.066116 140.082056 
L 290.603306 140.082056 
L 291.371901 140.333167 
L 292.140496 139.328725 
L 292.909091 139.830946 
L 293.677686 138.826504 
L 294.446281 139.328725 
L 295.214876 139.579835 
L 295.983471 139.077614 
L 296.752066 138.073172 
L 297.520661 138.575393 
L 301.363636 138.575393 
L 302.132231 138.826504 
L 303.669421 138.826504 
L 304.438017 138.324282 
L 305.975207 138.826504 
L 306.743802 138.073172 
L 307.512397 138.073172 
L 308.280992 137.31984 
L 309.049587 137.31984 
L 309.818182 136.064287 
L 310.586777 136.817619 
L 311.355372 136.064287 
L 312.123967 136.566508 
L 312.892562 136.064287 
L 313.661157 136.566508 
L 314.429752 136.315398 
L 315.198347 135.813176 
L 315.966942 136.566508 
L 316.735537 136.817619 
L 317.504132 137.570951 
L 318.272727 137.570951 
L 319.041322 137.31984 
L 320.578512 137.822061 
L 322.115702 137.822061 
L 322.884298 137.068729 
L 323.652893 137.31984 
L 324.421488 137.822061 
L 325.190083 137.822061 
L 325.958678 138.073172 
L 326.727273 137.570951 
L 327.495868 138.324282 
L 328.264463 138.073172 
L 329.033058 137.31984 
L 329.801653 137.822061 
L 330.570248 137.31984 
L 331.338843 137.31984 
L 332.107438 137.570951 
L 332.876033 137.31984 
L 334.413223 137.31984 
L 335.181818 137.570951 
L 335.950413 137.31984 
L 337.487603 137.31984 
L 338.256198 137.068729 
L 339.024793 137.068729 
L 339.793388 136.817619 
L 341.330579 136.817619 
L 342.099174 137.068729 
L 344.404959 137.068729 
L 345.173554 136.817619 
L 346.710744 136.817619 
L 347.479339 136.566508 
L 348.247934 136.817619 
L 349.016529 136.817619 
L 350.553719 137.31984 
L 351.322314 137.31984 
L 352.090909 137.570951 
L 353.628099 137.570951 
L 354.396694 137.822061 
L 355.165289 137.822061 
L 355.933884 137.570951 
L 357.471074 137.570951 
L 358.239669 137.31984 
L 359.008264 137.31984 
L 360.545455 136.817619 
L 361.31405 136.064287 
L 362.082645 135.813176 
L 362.85124 135.310955 
L 363.619835 135.310955 
L 364.38843 135.059845 
L 365.92562 135.059845 
L 366.694215 135.310955 
L 367.46281 135.059845 
L 369 135.562066 
L 369.768595 136.064287 
L 370.53719 135.562066 
L 371.305785 136.064287 
L 372.842975 136.566508 
L 373.61157 136.315398 
L 374.380165 137.068729 
L 375.14876 136.315398 
L 375.917355 136.817619 
L 376.68595 137.068729 
L 378.22314 137.068729 
L 379.760331 136.566508 
L 380.528926 137.068729 
L 381.297521 136.817619 
L 382.066116 137.068729 
L 382.834711 137.068729 
L 384.371901 136.566508 
L 385.140496 136.817619 
L 385.909091 136.817619 
L 386.677686 137.068729 
L 387.446281 136.817619 
L 388.214876 137.068729 
L 388.983471 136.817619 
L 389.752066 137.31984 
L 390.520661 137.570951 
L 392.057851 137.570951 
L 392.826446 137.822061 
L 393.595041 137.31984 
L 394.363636 137.822061 
L 395.132231 137.570951 
L 395.900826 138.324282 
L 396.669421 138.324282 
L 397.438017 138.073172 
L 398.206612 138.324282 
L 401.280992 137.31984 
L 402.049587 137.31984 
L 402.818182 137.068729 
L 405.123967 137.068729 
L 405.892562 136.566508 
L 407.429752 137.068729 
L 408.198347 136.315398 
L 408.966942 136.315398 
L 409.735537 136.566508 
L 412.041322 136.566508 
L 412.809917 136.064287 
L 413.578512 135.813176 
L 414.347107 136.315398 
L 415.115702 136.566508 
L 416.652893 136.566508 
L 417.421488 136.315398 
L 418.190083 136.566508 
L 418.958678 136.566508 
L 419.727273 137.068729 
L 420.495868 136.817619 
L 421.264463 137.570951 
L 422.033058 137.822061 
L 422.801653 137.570951 
L 425.107438 138.324282 
L 425.876033 138.324282 
L 426.644628 138.073172 
L 428.181818 139.077614 
L 428.950413 139.077614 
L 429.719008 138.826504 
L 430.487603 139.328725 
L 431.256198 139.328725 
L 432.024793 139.579835 
L 432.793388 139.579835 
L 433.561983 140.082056 
L 434.330579 140.835388 
L 435.099174 140.584278 
L 436.636364 141.086499 
L 438.173554 141.086499 
L 438.942149 141.337609 
L 439.710744 140.835388 
L 440.479339 141.337609 
L 441.247934 140.835388 
L 442.016529 141.337609 
L 443.553719 141.839831 
L 444.322314 142.593162 
L 445.090909 142.090941 
L 445.859504 142.844273 
L 446.628099 142.342052 
L 447.396694 142.593162 
L 448.165289 143.346494 
L 448.933884 143.346494 
L 449.702479 143.597605 
L 450.471074 143.597605 
L 451.239669 144.099826 
L 452.008264 143.597605 
L 453.545455 143.597605 
L 454.31405 143.346494 
L 455.082645 143.848715 
L 455.85124 143.346494 
L 458.92562 143.346494 
L 459.694215 142.844273 
L 461.231405 143.346494 
L 462 144.099826 
L 462.768595 143.848715 
L 463.53719 144.099826 
L 464.305785 143.597605 
L 465.07438 143.597605 
L 465.842975 144.099826 
L 466.61157 143.848715 
L 468.14876 143.848715 
L 468.917355 143.597605 
L 469.68595 143.597605 
L 470.454545 144.099826 
L 471.22314 144.350936 
L 472.760331 144.350936 
L 473.528926 144.602047 
L 474.297521 144.602047 
L 475.066116 144.099826 
L 475.834711 144.099826 
L 476.603306 144.602047 
L 477.371901 144.350936 
L 478.140496 144.602047 
L 478.909091 145.104268 
L 479.677686 144.602047 
L 480.446281 145.104268 
L 481.214876 145.355379 
L 481.983471 144.853158 
L 484.289256 144.853158 
L 485.057851 145.104268 
L 485.826446 145.104268 
L 486.595041 144.853158 
L 488.132231 144.853158 
L 489.669421 144.350936 
L 490.438017 143.848715 
L 491.206612 143.597605 
L 492.743802 143.597605 
L 493.512397 143.095384 
L 495.049587 142.593162 
L 496.586777 142.593162 
L 497.355372 142.342052 
L 501.198347 142.342052 
L 501.966942 142.090941 
L 503.504132 142.090941 
L 504.272727 142.342052 
L 505.041322 142.844273 
L 506.578512 142.342052 
L 507.347107 142.844273 
L 508.115702 142.593162 
L 508.884298 142.593162 
L 509.652893 142.844273 
L 516.570248 142.844273 
L 517.338843 142.593162 
L 518.107438 142.593162 
L 518.876033 142.342052 
L 519.644628 142.342052 
L 520.413223 142.593162 
L 521.181818 142.090941 
L 521.950413 142.342052 
L 524.256198 142.342052 
L 525.024793 142.593162 
L 526.561983 142.593162 
L 527.330579 142.342052 
L 531.942149 142.342052 
L 532.710744 142.090941 
L 534.247934 142.090941 
L 535.016529 142.342052 
L 535.785124 142.090941 
L 537.322314 142.090941 
L 538.090909 142.342052 
L 538.859504 142.844273 
L 539.628099 143.095384 
L 540.396694 142.844273 
L 541.165289 143.095384 
L 541.933884 143.095384 
L 542.702479 143.346494 
L 543.471074 143.346494 
L 544.239669 143.597605 
L 547.31405 143.597605 
L 548.082645 143.095384 
L 548.85124 143.095384 
L 549.619835 143.597605 
L 550.38843 143.095384 
L 551.157025 143.597605 
L 551.92562 143.848715 
L 552.694215 143.848715 
L 553.46281 143.597605 
L 555 143.597605 
L 555.768595 143.095384 
L 556.53719 144.099826 
L 557.305785 143.346494 
L 558.07438 144.099826 
L 559.61157 143.597605 
L 560.380165 143.848715 
L 561.917355 143.848715 
L 563.454545 144.350936 
L 564.22314 144.853158 
L 564.991736 144.602047 
L 565.760331 144.602047 
L 566.528926 144.853158 
L 568.066116 143.848715 
L 568.834711 144.099826 
L 569.603306 143.848715 
L 570.371901 144.350936 
L 571.140496 143.848715 
L 571.909091 143.848715 
L 572.677686 144.350936 
L 574.214876 144.853158 
L 574.983471 144.099826 
L 575.752066 144.099826 
L 576.520661 144.350936 
L 581.132231 144.350936 
L 581.900826 144.602047 
L 582.669421 144.350936 
L 583.438017 144.602047 
L 584.206612 144.350936 
L 585.743802 144.853158 
L 586.512397 144.602047 
L 587.280992 144.853158 
L 588.049587 144.853158 
L 588.818182 144.602047 
L 589.586777 144.853158 
L 591.123967 144.853158 
L 591.892562 145.104268 
L 592.661157 144.853158 
L 594.198347 145.355379 
L 594.966942 145.104268 
L 595.735537 145.355379 
L 599.578512 145.355379 
L 600.347107 145.104268 
L 601.115702 145.355379 
L 601.884298 145.104268 
L 602.652893 145.355379 
L 604.958678 145.355379 
L 605.727273 145.104268 
L 606.495868 145.104268 
L 607.264463 145.606489 
L 610.338843 145.606489 
L 611.876033 146.108711 
L 612.644628 145.606489 
L 613.413223 145.8576 
L 614.181818 145.606489 
L 614.950413 145.606489 
L 615.719008 145.8576 
L 616.487603 145.8576 
L 617.256198 146.108711 
L 618.024793 146.108711 
L 618.793388 146.359821 
L 619.561983 146.108711 
L 620.330579 146.108711 
L 621.867769 146.610932 
L 622.636364 146.610932 
L 622.636364 146.610932 
" style="fill:none;stroke:#2ca02c;stroke-linecap:round;stroke-width:1.75;"/>
   </g>
   <g id="patch_7">
    <path d="M 90 311.590588 
L 90 60.48 
" style="fill:none;stroke:#cccccc;stroke-linecap:square;stroke-linejoin:miter;"/>
   </g>
   <g id="patch_8">
    <path d="M 648 311.590588 
L 648 60.48 
" style="fill:none;stroke:#cccccc;stroke-linecap:square;stroke-linejoin:miter;"/>
   </g>
   <g id="patch_9">
    <path d="M 90 311.590588 
L 648 311.590588 
" style="fill:none;stroke:#cccccc;stroke-linecap:square;stroke-linejoin:miter;"/>
   </g>
   <g id="patch_10">
    <path d="M 90 60.48 
L 648 60.48 
" style="fill:none;stroke:#cccccc;stroke-linecap:square;stroke-linejoin:miter;"/>
   </g>
  </g>
  <g id="axes_3">
   <g id="patch_11">
    <path d="M 90 448.56 
L 648 448.56 
L 648 334.418824 
L 90 334.418824 
z
" style="fill:#ffffff;"/>
   </g>
   <g id="matplotlib.axis_4">
    <g id="xtick_8">
     <g id="line2d_41">
      <path clip-path="url(#pf8a84e8d03)" d="M 90 448.56 
L 90 334.418824 
" style="fill:none;stroke:#cccccc;stroke-linecap:round;"/>
     </g>
     <g id="line2d_42"/>
     <g id="text_14">
      <!-- 0 -->
      <g style="fill:#2ca02c;" transform="translate(87.455 461.63875)scale(0.08 -0.08)">
       <use xlink:href="#DejaVuSans-30"/>
      </g>
     </g>
    </g>
    <g id="xtick_9">
     <g id="line2d_43">
      <path clip-path="url(#pf8a84e8d03)" d="M 173.159463 448.56 
L 173.159463 334.418824 
" style="fill:none;stroke:#cccccc;stroke-linecap:round;"/>
     </g>
     <g id="line2d_44"/>
     <g id="text_15">
      <!-- 5000 -->
      <g style="fill:#2ca02c;" transform="translate(162.979463 461.63875)scale(0.08 -0.08)">
       <use xlink:href="#DejaVuSans-35"/>
       <use x="63.623047" xlink:href="#DejaVuSans-30"/>
       <use x="127.246094" xlink:href="#DejaVuSans-30"/>
       <use x="190.869141" xlink:href="#DejaVuSans-30"/>
      </g>
     </g>
    </g>
    <g id="xtick_10">
     <g id="line2d_45">
      <path clip-path="url(#pf8a84e8d03)" d="M 256.318927 448.56 
L 256.318927 334.418824 
" style="fill:none;stroke:#cccccc;stroke-linecap:round;"/>
     </g>
     <g id="line2d_46"/>
     <g id="text_16">
      <!-- 10000 -->
      <g style="fill:#2ca02c;" transform="translate(243.593927 461.63875)scale(0.08 -0.08)">
       <use xlink:href="#DejaVuSans-31"/>
       <use x="63.623047" xlink:href="#DejaVuSans-30"/>
       <use x="127.246094" xlink:href="#DejaVuSans-30"/>
       <use x="190.869141" xlink:href="#DejaVuSans-30"/>
       <use x="254.492188" xlink:href="#DejaVuSans-30"/>
      </g>
     </g>
    </g>
    <g id="xtick_11">
     <g id="line2d_47">
      <path clip-path="url(#pf8a84e8d03)" d="M 339.47839 448.56 
L 339.47839 334.418824 
" style="fill:none;stroke:#cccccc;stroke-linecap:round;"/>
     </g>
     <g id="line2d_48"/>
     <g id="text_17">
      <!-- 15000 -->
      <g style="fill:#2ca02c;" transform="translate(326.75339 461.63875)scale(0.08 -0.08)">
       <use xlink:href="#DejaVuSans-31"/>
       <use x="63.623047" xlink:href="#DejaVuSans-35"/>
       <use x="127.246094" xlink:href="#DejaVuSans-30"/>
       <use x="190.869141" xlink:href="#DejaVuSans-30"/>
       <use x="254.492188" xlink:href="#DejaVuSans-30"/>
      </g>
     </g>
    </g>
    <g id="xtick_12">
     <g id="line2d_49">
      <path clip-path="url(#pf8a84e8d03)" d="M 422.637854 448.56 
L 422.637854 334.418824 
" style="fill:none;stroke:#cccccc;stroke-linecap:round;"/>
     </g>
     <g id="line2d_50"/>
     <g id="text_18">
      <!-- 20000 -->
      <g style="fill:#2ca02c;" transform="translate(409.912854 461.63875)scale(0.08 -0.08)">
       <use xlink:href="#DejaVuSans-32"/>
       <use x="63.623047" xlink:href="#DejaVuSans-30"/>
       <use x="127.246094" xlink:href="#DejaVuSans-30"/>
       <use x="190.869141" xlink:href="#DejaVuSans-30"/>
       <use x="254.492188" xlink:href="#DejaVuSans-30"/>
      </g>
     </g>
    </g>
    <g id="xtick_13">
     <g id="line2d_51">
      <path clip-path="url(#pf8a84e8d03)" d="M 505.797317 448.56 
L 505.797317 334.418824 
" style="fill:none;stroke:#cccccc;stroke-linecap:round;"/>
     </g>
     <g id="line2d_52"/>
     <g id="text_19">
      <!-- 25000 -->
      <g style="fill:#2ca02c;" transform="translate(493.072317 461.63875)scale(0.08 -0.08)">
       <use xlink:href="#DejaVuSans-32"/>
       <use x="63.623047" xlink:href="#DejaVuSans-35"/>
       <use x="127.246094" xlink:href="#DejaVuSans-30"/>
       <use x="190.869141" xlink:href="#DejaVuSans-30"/>
       <use x="254.492188" xlink:href="#DejaVuSans-30"/>
      </g>
     </g>
    </g>
    <g id="xtick_14">
     <g id="line2d_53">
      <path clip-path="url(#pf8a84e8d03)" d="M 588.956781 448.56 
L 588.956781 334.418824 
" style="fill:none;stroke:#cccccc;stroke-linecap:round;"/>
     </g>
     <g id="line2d_54"/>
     <g id="text_20">
      <!-- 30000 -->
      <g style="fill:#2ca02c;" transform="translate(576.231781 461.63875)scale(0.08 -0.08)">
       <use xlink:href="#DejaVuSans-33"/>
       <use x="63.623047" xlink:href="#DejaVuSans-30"/>
       <use x="127.246094" xlink:href="#DejaVuSans-30"/>
       <use x="190.869141" xlink:href="#DejaVuSans-30"/>
       <use x="254.492188" xlink:href="#DejaVuSans-30"/>
      </g>
     </g>
    </g>
   </g>
   <g id="matplotlib.axis_5">
    <g id="ytick_14">
     <g id="line2d_55">
      <path clip-path="url(#pf8a84e8d03)" d="M 90 448.56 
L 648 448.56 
" style="fill:none;stroke:#cccccc;stroke-linecap:round;"/>
     </g>
     <g id="line2d_56"/>
     <g id="text_21">
      <!-- 0 -->
      <g style="fill:#2ca02c;" transform="translate(77.91 451.599375)scale(0.08 -0.08)">
       <use xlink:href="#DejaVuSans-30"/>
      </g>
     </g>
    </g>
    <g id="ytick_15">
     <g id="line2d_57">
      <path clip-path="url(#pf8a84e8d03)" d="M 90 425.731765 
L 648 425.731765 
" style="fill:none;stroke:#cccccc;stroke-linecap:round;"/>
     </g>
     <g id="line2d_58"/>
     <g id="text_22">
      <!-- 20 -->
      <g style="fill:#2ca02c;" transform="translate(72.82 428.77114)scale(0.08 -0.08)">
       <use xlink:href="#DejaVuSans-32"/>
       <use x="63.623047" xlink:href="#DejaVuSans-30"/>
      </g>
     </g>
    </g>
    <g id="ytick_16">
     <g id="line2d_59">
      <path clip-path="url(#pf8a84e8d03)" d="M 90 402.903529 
L 648 402.903529 
" style="fill:none;stroke:#cccccc;stroke-linecap:round;"/>
     </g>
     <g id="line2d_60"/>
     <g id="text_23">
      <!-- 40 -->
      <g style="fill:#2ca02c;" transform="translate(72.82 405.942904)scale(0.08 -0.08)">
       <use xlink:href="#DejaVuSans-34"/>
       <use x="63.623047" xlink:href="#DejaVuSans-30"/>
      </g>
     </g>
    </g>
    <g id="ytick_17">
     <g id="line2d_61">
      <path clip-path="url(#pf8a84e8d03)" d="M 90 380.075294 
L 648 380.075294 
" style="fill:none;stroke:#cccccc;stroke-linecap:round;"/>
     </g>
     <g id="line2d_62"/>
     <g id="text_24">
      <!-- 60 -->
      <g style="fill:#2ca02c;" transform="translate(72.82 383.114669)scale(0.08 -0.08)">
       <use xlink:href="#DejaVuSans-36"/>
       <use x="63.623047" xlink:href="#DejaVuSans-30"/>
      </g>
     </g>
    </g>
    <g id="ytick_18">
     <g id="line2d_63">
      <path clip-path="url(#pf8a84e8d03)" d="M 90 357.247059 
L 648 357.247059 
" style="fill:none;stroke:#cccccc;stroke-linecap:round;"/>
     </g>
     <g id="line2d_64"/>
     <g id="text_25">
      <!-- 80 -->
      <g style="fill:#2ca02c;" transform="translate(72.82 360.286434)scale(0.08 -0.08)">
       <use xlink:href="#DejaVuSans-38"/>
       <use x="63.623047" xlink:href="#DejaVuSans-30"/>
      </g>
     </g>
    </g>
    <g id="ytick_19">
     <g id="line2d_65">
      <path clip-path="url(#pf8a84e8d03)" d="M 90 334.418824 
L 648 334.418824 
" style="fill:none;stroke:#cccccc;stroke-linecap:round;"/>
     </g>
     <g id="line2d_66"/>
     <g id="text_26">
      <!-- 100 -->
      <g style="fill:#2ca02c;" transform="translate(67.73 337.458199)scale(0.08 -0.08)">
       <use xlink:href="#DejaVuSans-31"/>
       <use x="63.623047" xlink:href="#DejaVuSans-30"/>
       <use x="127.246094" xlink:href="#DejaVuSans-30"/>
      </g>
     </g>
    </g>
   </g>
   <g id="line2d_67">
    <path clip-path="url(#pf8a84e8d03)" d="M 90 443.994353 
L 90.831595 428.014588 
L 91.663189 425.731765 
L 92.494784 424.590353 
L 93.326379 421.166118 
L 94.157973 409.752 
L 95.821162 393.772235 
L 96.652757 383.499529 
L 97.484352 381.216706 
L 98.315946 374.368235 
L 99.979136 372.085412 
L 103.305514 372.085412 
L 104.137109 370.944 
L 104.968703 368.661176 
L 105.800298 365.236941 
L 106.631893 365.236941 
L 107.463487 364.095529 
L 108.295082 364.095529 
L 109.126677 362.954118 
L 112.453055 362.954118 
L 113.28465 361.812706 
L 114.116244 359.529882 
L 114.947839 359.529882 
L 115.779434 356.105647 
L 116.611028 356.105647 
L 117.442623 354.964235 
L 118.274218 354.964235 
L 119.105812 353.822824 
L 119.937407 353.822824 
L 120.769001 351.54 
L 123.263785 351.54 
L 124.09538 350.398588 
L 130.748137 350.398588 
L 131.579732 349.257176 
L 132.411326 350.398588 
L 133.242921 350.398588 
L 134.074516 351.54 
L 140.727273 351.54 
L 141.558867 350.398588 
L 142.390462 350.398588 
L 143.222057 351.54 
L 144.053651 351.54 
L 144.885246 352.681412 
L 150.706408 352.681412 
L 151.538003 353.822824 
L 157.359165 353.822824 
L 158.19076 352.681412 
L 160.685544 352.681412 
L 161.517139 353.822824 
L 175.654247 353.822824 
L 177.317437 356.105647 
L 217.233979 356.105647 
L 218.065574 357.247059 
L 218.897168 356.105647 
L 220.560358 356.105647 
L 221.391952 354.964235 
L 241.350224 354.964235 
L 242.181818 356.105647 
L 250.497765 356.105647 
L 251.329359 354.964235 
L 252.160954 356.105647 
L 252.992548 356.105647 
L 253.824143 354.964235 
L 259.645306 354.964235 
L 260.4769 356.105647 
L 261.308495 356.105647 
L 262.140089 354.964235 
L 262.971684 354.964235 
L 263.803279 356.105647 
L 277.108793 356.105647 
L 277.940387 357.247059 
L 282.098361 357.247059 
L 282.929955 356.105647 
L 289.582712 356.105647 
L 290.414307 357.247059 
L 300.393443 357.247059 
L 301.225037 356.105647 
L 309.540984 356.105647 
L 310.372578 357.247059 
L 357.773472 357.247059 
L 358.605067 358.388471 
L 367.752608 358.388471 
L 368.584203 359.529882 
L 369.415797 359.529882 
L 370.247392 358.388471 
L 371.078987 359.529882 
L 413.490313 359.529882 
L 414.321908 360.671294 
L 450.080477 360.671294 
L 451.743666 358.388471 
L 452.575261 358.388471 
L 454.23845 360.671294 
L 456.733234 360.671294 
L 457.564829 359.529882 
L 460.891207 359.529882 
L 461.722802 358.388471 
L 464.217586 358.388471 
L 465.04918 359.529882 
L 465.880775 358.388471 
L 466.71237 358.388471 
L 467.543964 359.529882 
L 468.375559 358.388471 
L 469.207154 359.529882 
L 470.870343 359.529882 
L 471.701937 358.388471 
L 472.533532 360.671294 
L 473.365127 359.529882 
L 476.691505 359.529882 
L 477.5231 360.671294 
L 531.576751 360.671294 
L 532.408346 359.529882 
L 582.304024 359.529882 
L 583.135618 358.388471 
L 638.852459 358.388471 
L 638.852459 358.388471 
" style="fill:none;stroke:#2ca02c;stroke-linecap:round;stroke-width:1.75;"/>
   </g>
   <g id="line2d_68">
    <path clip-path="url(#pf8a84e8d03)" d="M 90 439.428706 
L 90.831595 429.156 
L 92.494784 424.590353 
L 93.326379 424.590353 
L 94.157973 423.448941 
L 94.989568 417.741882 
L 95.821162 416.600471 
L 96.652757 406.327765 
L 97.484352 399.479294 
L 98.315946 394.913647 
L 99.147541 392.630824 
L 99.979136 389.206588 
L 100.81073 388.065176 
L 101.642325 388.065176 
L 102.47392 383.499529 
L 103.305514 380.075294 
L 104.137109 373.226824 
L 104.968703 370.944 
L 107.463487 367.519765 
L 108.295082 364.095529 
L 109.126677 365.236941 
L 109.958271 364.095529 
L 111.621461 364.095529 
L 112.453055 362.954118 
L 113.28465 362.954118 
L 114.116244 360.671294 
L 114.947839 359.529882 
L 116.611028 359.529882 
L 117.442623 356.105647 
L 118.274218 354.964235 
L 119.937407 354.964235 
L 120.769001 353.822824 
L 122.432191 353.822824 
L 123.263785 352.681412 
L 125.758569 352.681412 
L 126.590164 351.54 
L 129.916542 351.54 
L 130.748137 350.398588 
L 133.242921 350.398588 
L 134.074516 348.115765 
L 135.737705 348.115765 
L 136.5693 350.398588 
L 138.232489 350.398588 
L 139.064083 349.257176 
L 139.895678 350.398588 
L 142.390462 350.398588 
L 143.222057 351.54 
L 145.716841 351.54 
L 146.548435 352.681412 
L 159.022355 352.681412 
L 159.853949 351.54 
L 174.822653 351.54 
L 175.654247 350.398588 
L 177.317437 350.398588 
L 178.149031 349.257176 
L 180.643815 349.257176 
L 181.47541 350.398588 
L 182.307004 349.257176 
L 189.791356 349.257176 
L 190.622951 350.398588 
L 195.612519 350.398588 
L 196.444113 351.54 
L 197.275708 350.398588 
L 198.107303 351.54 
L 198.938897 350.398588 
L 199.770492 350.398588 
L 200.602086 351.54 
L 201.433681 350.398588 
L 202.265276 350.398588 
L 203.09687 351.54 
L 203.928465 350.398588 
L 205.591654 350.398588 
L 206.423249 351.54 
L 213.076006 351.54 
L 213.907601 350.398588 
L 215.57079 350.398588 
L 216.402385 351.54 
L 267.129657 351.54 
L 267.961252 352.681412 
L 274.614009 352.681412 
L 275.445604 351.54 
L 314.530551 351.54 
L 315.362146 350.398588 
L 316.193741 351.54 
L 317.025335 350.398588 
L 317.85693 351.54 
L 318.688525 350.398588 
L 319.520119 351.54 
L 320.351714 351.54 
L 321.183308 350.398588 
L 322.014903 351.54 
L 322.846498 351.54 
L 323.678092 350.398588 
L 337.815201 350.398588 
L 338.646796 351.54 
L 342.804769 351.54 
L 343.636364 350.398588 
L 344.467958 351.54 
L 345.299553 350.398588 
L 346.131148 350.398588 
L 346.962742 351.54 
L 347.794337 350.398588 
L 351.120715 350.398588 
L 351.95231 351.54 
L 352.783905 350.398588 
L 356.941878 350.398588 
L 357.773472 349.257176 
L 429.290611 349.257176 
L 430.122206 350.398588 
L 463.385991 350.398588 
L 464.217586 351.54 
L 559.850969 351.54 
L 560.682563 352.681412 
L 563.177347 352.681412 
L 564.008942 353.822824 
L 564.840537 352.681412 
L 565.672131 352.681412 
L 566.503726 351.54 
L 567.33532 352.681412 
L 568.166915 351.54 
L 568.99851 352.681412 
L 572.324888 352.681412 
L 573.156483 353.822824 
L 577.314456 353.822824 
L 578.146051 354.964235 
L 578.977645 353.822824 
L 579.80924 353.822824 
L 580.640835 354.964235 
L 581.472429 353.822824 
L 582.304024 354.964235 
L 583.135618 353.822824 
L 583.967213 354.964235 
L 584.798808 353.822824 
L 587.293592 353.822824 
L 588.125186 352.681412 
L 592.283159 352.681412 
L 593.114754 353.822824 
L 593.946349 352.681412 
L 594.777943 354.964235 
L 595.609538 353.822824 
L 603.925484 353.822824 
L 604.757079 352.681412 
L 605.588674 353.822824 
L 606.420268 352.681412 
L 607.251863 353.822824 
L 610.578241 353.822824 
L 611.409836 352.681412 
L 612.241431 353.822824 
L 613.90462 353.822824 
L 614.736215 352.681412 
L 616.399404 352.681412 
L 617.230999 353.822824 
L 618.894188 353.822824 
L 619.725782 351.54 
L 620.557377 353.822824 
L 621.388972 351.54 
L 623.052161 353.822824 
L 623.883756 352.681412 
L 624.71535 353.822824 
L 625.546945 352.681412 
L 626.378539 353.822824 
L 627.210134 353.822824 
L 628.041729 352.681412 
L 632.199702 352.681412 
L 633.031297 353.822824 
L 638.852459 353.822824 
L 638.852459 353.822824 
" style="fill:none;stroke:#ff7f0e;stroke-linecap:round;stroke-width:1.75;"/>
   </g>
   <g id="line2d_69">
    <path clip-path="url(#pf8a84e8d03)" d="M 90 442.852941 
L 90.831595 431.438824 
L 91.663189 426.873176 
L 92.494784 425.731765 
L 93.326379 420.024706 
L 94.157973 417.741882 
L 94.989568 420.024706 
L 95.821162 415.459059 
L 96.652757 413.176235 
L 98.315946 396.055059 
L 99.979136 396.055059 
L 100.81073 393.772235 
L 101.642325 393.772235 
L 102.47392 394.913647 
L 103.305514 394.913647 
L 104.137109 390.348 
L 105.800298 383.499529 
L 106.631893 382.358118 
L 107.463487 383.499529 
L 108.295082 382.358118 
L 109.126677 382.358118 
L 109.958271 381.216706 
L 110.789866 383.499529 
L 112.453055 376.651059 
L 113.28465 374.368235 
L 114.947839 367.519765 
L 115.779434 365.236941 
L 116.611028 361.812706 
L 117.442623 359.529882 
L 118.274218 358.388471 
L 119.105812 359.529882 
L 119.937407 359.529882 
L 120.769001 358.388471 
L 121.600596 358.388471 
L 124.09538 354.964235 
L 127.421759 354.964235 
L 128.253353 356.105647 
L 129.084948 356.105647 
L 129.916542 354.964235 
L 130.748137 352.681412 
L 131.579732 352.681412 
L 132.411326 353.822824 
L 133.242921 352.681412 
L 134.074516 352.681412 
L 135.737705 350.398588 
L 136.5693 351.54 
L 137.400894 351.54 
L 138.232489 352.681412 
L 139.064083 352.681412 
L 139.895678 353.822824 
L 144.053651 353.822824 
L 144.885246 352.681412 
L 150.706408 352.681412 
L 151.538003 353.822824 
L 154.864382 353.822824 
L 155.695976 354.964235 
L 156.527571 354.964235 
L 157.359165 356.105647 
L 171.496274 356.105647 
L 172.327869 357.247059 
L 180.643815 357.247059 
L 182.307004 354.964235 
L 187.296572 354.964235 
L 188.128167 353.822824 
L 218.065574 353.822824 
L 218.897168 352.681412 
L 222.223547 352.681412 
L 223.055142 353.822824 
L 236.360656 353.822824 
L 237.19225 354.964235 
L 238.85544 354.964235 
L 240.518629 352.681412 
L 244.676602 352.681412 
L 246.339791 354.964235 
L 252.160954 354.964235 
L 252.992548 353.822824 
L 276.277198 353.822824 
L 277.108793 354.964235 
L 281.266766 354.964235 
L 282.098361 356.105647 
L 283.76155 356.105647 
L 284.593145 354.964235 
L 292.909091 354.964235 
L 293.740686 356.105647 
L 294.57228 354.964235 
L 295.403875 356.105647 
L 296.235469 354.964235 
L 297.067064 354.964235 
L 297.898659 353.822824 
L 299.561848 356.105647 
L 300.393443 354.964235 
L 312.867362 354.964235 
L 313.698957 353.822824 
L 320.351714 353.822824 
L 321.183308 354.964235 
L 343.636364 354.964235 
L 344.467958 356.105647 
L 381.889717 356.105647 
L 382.721311 357.247059 
L 391.037258 357.247059 
L 391.868852 358.388471 
L 392.700447 357.247059 
L 394.363636 357.247059 
L 396.026826 359.529882 
L 396.85842 359.529882 
L 397.690015 360.671294 
L 398.52161 360.671294 
L 399.353204 359.529882 
L 406.837556 359.529882 
L 407.669151 357.247059 
L 408.500745 358.388471 
L 409.33234 358.388471 
L 410.995529 356.105647 
L 411.827124 357.247059 
L 412.658718 356.105647 
L 414.321908 356.105647 
L 415.153502 354.964235 
L 415.985097 356.105647 
L 416.816692 356.105647 
L 417.648286 354.964235 
L 418.479881 354.964235 
L 419.311475 356.105647 
L 424.301043 356.105647 
L 425.132638 357.247059 
L 426.795827 357.247059 
L 427.627422 358.388471 
L 430.9538 358.388471 
L 431.785395 357.247059 
L 445.922504 357.247059 
L 446.754098 356.105647 
L 447.585693 357.247059 
L 499.976155 357.247059 
L 500.80775 358.388471 
L 519.934426 358.388471 
L 520.766021 357.247059 
L 526.587183 357.247059 
L 527.418778 356.105647 
L 593.114754 356.105647 
L 593.946349 357.247059 
L 638.852459 357.247059 
L 638.852459 357.247059 
" style="fill:none;stroke:#9467bd;stroke-linecap:round;stroke-width:1.75;"/>
   </g>
   <g id="patch_12">
    <path d="M 90 448.56 
L 90 334.418824 
" style="fill:none;stroke:#cccccc;stroke-linecap:square;stroke-linejoin:miter;"/>
   </g>
   <g id="patch_13">
    <path d="M 648 448.56 
L 648 334.418824 
" style="fill:none;stroke:#cccccc;stroke-linecap:square;stroke-linejoin:miter;"/>
   </g>
   <g id="patch_14">
    <path d="M 90 448.56 
L 648 448.56 
" style="fill:none;stroke:#cccccc;stroke-linecap:square;stroke-linejoin:miter;"/>
   </g>
   <g id="patch_15">
    <path d="M 90 334.418824 
L 648 334.418824 
" style="fill:none;stroke:#cccccc;stroke-linecap:square;stroke-linejoin:miter;"/>
   </g>
  </g>
 </g>
 <defs>
  <clipPath id="p1f200cd7a9">
   <rect height="251.110588" width="558" x="90" y="60.48"/>
  </clipPath>
  <clipPath id="pf8a84e8d03">
   <rect height="114.141176" width="558" x="90" y="334.418824"/>
  </clipPath>
 </defs>
</svg>
