<?xml version="1.0" encoding="UTF-8"?>
<svg xmlns="http://www.w3.org/2000/svg" xmlns:xlink="http://www.w3.org/1999/xlink" width="128pt" height="128pt" viewBox="0 0 128 128" version="1.1">
<g id="surface1">
<rect x="0" y="0" width="128" height="128" style="fill:rgb(90%,90%,90%);fill-opacity:1;stroke:none;"/>
<path style="fill:none;stroke-width:2;stroke-linecap:butt;stroke-linejoin:miter;stroke:rgb(0%,0%,0%);stroke-opacity:1;stroke-miterlimit:10;" d="M -42 47 L -22 47 L -22 24.5 L -2 24.5 L -2 17 L -62 17 L -62 24.5 L -42 24.5 L -42 47 " transform="matrix(1,0,0,1,64,0)"/>
<path style="fill:none;stroke-width:2;stroke-linecap:butt;stroke-linejoin:miter;stroke:rgb(0%,0%,0%);stroke-opacity:1;stroke-miterlimit:10;" d="M 78.324219 -28.464844 L 92.464844 -14.324219 L 108.375 -30.230469 L 122.515625 -16.089844 L 127.820312 -21.394531 L 85.394531 -63.820312 L 80.089844 -58.515625 L 94.230469 -44.375 L 78.324219 -28.464844 " transform="matrix(1,0,0,1,0,64)"/>
<path style="fill:none;stroke-width:2;stroke-linecap:butt;stroke-linejoin:miter;stroke:rgb(0%,0%,0%);stroke-opacity:1;stroke-miterlimit:10;" d="M -28.25 32 C -28.25 48.570312 -29.929688 62 -32 62 C -34.070312 62 -35.75 48.570312 -35.75 32 C -35.75 15.429688 -34.070312 2 -32 2 C -29.929688 2 -28.25 15.429688 -28.25 32 " transform="matrix(1,0,0,1,64,64)"/>
<path style="fill:none;stroke-width:2;stroke-linecap:butt;stroke-linejoin:miter;stroke:rgb(0%,0%,0%);stroke-opacity:1;stroke-miterlimit:10;" d="M 11.917969 10.667969 C 11.917969 16.191406 11.355469 20.667969 10.667969 20.667969 C 9.976562 20.667969 9.417969 16.191406 9.417969 10.667969 C 9.417969 5.144531 9.976562 0.667969 10.667969 0.667969 C 11.355469 0.667969 11.917969 5.144531 11.917969 10.667969 M 33.25 10.667969 C 33.25 16.191406 32.691406 20.667969 32 20.667969 C 31.308594 20.667969 30.75 16.191406 30.75 10.667969 C 30.75 5.144531 31.308594 0.667969 32 0.667969 C 32.691406 0.667969 33.25 5.144531 33.25 10.667969 M 54.582031 10.667969 C 54.582031 16.191406 54.023438 20.667969 53.332031 20.667969 C 52.644531 20.667969 52.082031 16.191406 52.082031 10.667969 C 52.082031 5.144531 52.644531 0.667969 53.332031 0.667969 C 54.023438 0.667969 54.582031 5.144531 54.582031 10.667969 M 11.917969 32 C 11.917969 37.523438 11.355469 42 10.667969 42 C 9.976562 42 9.417969 37.523438 9.417969 32 C 9.417969 26.476562 9.976562 22 10.667969 22 C 11.355469 22 11.917969 26.476562 11.917969 32 M 33.25 32 C 33.25 37.523438 32.691406 42 32 42 C 31.308594 42 30.75 37.523438 30.75 32 C 30.75 26.476562 31.308594 22 32 22 C 32.691406 22 33.25 26.476562 33.25 32 " transform="matrix(1,0,0,1,64,64)"/>
</g>
</svg>
