<?xml version="1.0" encoding="UTF-8"?>
<svg xmlns="http://www.w3.org/2000/svg" xmlns:xlink="http://www.w3.org/1999/xlink" width="256pt" height="128pt" viewBox="0 0 256 128" version="1.1">
<g id="surface376">
<path style="fill:none;stroke-width:2;stroke-linecap:butt;stroke-linejoin:miter;stroke:rgb(0%,0%,0%);stroke-opacity:1;stroke-miterlimit:10;" d="M 0 0 L 64 0 L 64 64 L 0 64 Z M 0 0 "/>
<path style=" stroke:none;fill-rule:nonzero;fill:rgb(90%,90%,90%);fill-opacity:1;" d="M 0 0 L 64 0 L 64 64 L 0 64 Z M 0 0 "/>
<path style=" stroke:none;fill-rule:nonzero;fill:rgb(25%,25%,25%);fill-opacity:1;" d="M 10 17.5 L 22 17.5 L 16 14.5 Z M 10 17.5 "/>
<path style="fill-rule:nonzero;fill:rgb(25%,25%,25%);fill-opacity:1;stroke-width:2;stroke-linecap:butt;stroke-linejoin:miter;stroke:rgb(0%,0%,0%);stroke-opacity:1;stroke-miterlimit:10;" d="M -54 17.5 L -42 17.5 L -48 14.5 Z M -22 17.5 L -10 17.5 L -16 14.5 Z M -22 17.5 " transform="matrix(1,0,0,1,64,0)"/>
<path style="fill:none;stroke-width:2;stroke-linecap:butt;stroke-linejoin:miter;stroke:rgb(0%,0%,0%);stroke-opacity:1;stroke-miterlimit:10;" d="M 0 0 L 64 0 L 64 64 L 0 64 Z M 0 0 " transform="matrix(1,0,0,1,64,0)"/>
<path style=" stroke:none;fill-rule:nonzero;fill:rgb(100%,90%,90%);fill-opacity:1;" d="M 64 0 L 128 0 L 128 64 L 64 64 Z M 64 0 "/>
<path style=" stroke:none;fill-rule:nonzero;fill:rgb(25%,25%,25%);fill-opacity:1;" d="M 83.183594 10.695312 L 74.695312 19.183594 L 81.0625 17.0625 Z M 83.183594 10.695312 "/>
<path style="fill-rule:nonzero;fill:rgb(25%,25%,25%);fill-opacity:1;stroke-width:2;stroke-linecap:butt;stroke-linejoin:miter;stroke:rgb(0%,0%,0%);stroke-opacity:1;stroke-miterlimit:10;" d="M -44.816406 10.695312 L -53.304688 19.183594 L -46.9375 17.0625 Z M -12.816406 10.695312 L -21.304688 19.183594 L -14.9375 17.0625 Z M -12.816406 10.695312 " transform="matrix(1,0,0,1,128,0)"/>
<path style="fill:none;stroke-width:2;stroke-linecap:butt;stroke-linejoin:miter;stroke:rgb(0%,0%,0%);stroke-opacity:1;stroke-miterlimit:10;" d="M 0 0 L 64 0 L 64 64 L 0 64 Z M 0 0 " transform="matrix(1,0,0,1,128,0)"/>
<path style=" stroke:none;fill-rule:nonzero;fill:rgb(90%,90%,90%);fill-opacity:1;" d="M 128 0 L 192 0 L 192 64 L 128 64 Z M 128 0 "/>
<path style=" stroke:none;fill-rule:nonzero;fill:rgb(25%,25%,25%);fill-opacity:1;" d="M 138 17.5 L 150 17.5 L 144 14.5 Z M 138 17.5 "/>
<path style=" stroke:none;fill-rule:nonzero;fill:rgb(25%,25%,25%);fill-opacity:1;" d="M 138 17.5 L 150 17.5 L 144 14.5 Z M 170 17.5 L 182 17.5 L 176 14.5 Z M 170 17.5 "/>
<path style="fill-rule:nonzero;fill:rgb(25%,25%,25%);fill-opacity:1;stroke-width:2;stroke-linecap:butt;stroke-linejoin:miter;stroke:rgb(0%,0%,0%);stroke-opacity:1;stroke-miterlimit:10;" d="M -54 17.5 L -42 17.5 L -48 14.5 Z M -22 17.5 L -10 17.5 L -16 14.5 Z M -54 49.5 L -42 49.5 L -48 46.5 Z M -54 49.5 " transform="matrix(1,0,0,1,192,0)"/>
<path style="fill:none;stroke-width:2;stroke-linecap:butt;stroke-linejoin:miter;stroke:rgb(0%,0%,0%);stroke-opacity:1;stroke-miterlimit:10;" d="M 0 0 L 64 0 L 64 64 L 0 64 Z M 0 0 " transform="matrix(1,0,0,1,192,0)"/>
<path style=" stroke:none;fill-rule:nonzero;fill:rgb(90%,90%,90%);fill-opacity:1;" d="M 192 0 L 256 0 L 256 64 L 192 64 Z M 192 0 "/>
<path style=" stroke:none;fill-rule:nonzero;fill:rgb(25%,25%,25%);fill-opacity:1;" d="M 199 18.25 L 217 18.25 L 208 13.75 Z M 199 18.25 "/>
<path style="fill-rule:nonzero;fill:rgb(25%,25%,25%);fill-opacity:1;stroke-width:2;stroke-linecap:butt;stroke-linejoin:miter;stroke:rgb(0%,0%,0%);stroke-opacity:1;stroke-miterlimit:10;" d="M 199 -45.75 L 217 -45.75 L 208 -50.25 Z M 231 -45.75 L 249 -45.75 L 240 -50.25 Z M 231 -45.75 " transform="matrix(1,0,0,1,0,64)"/>
<path style="fill:none;stroke-width:2;stroke-linecap:butt;stroke-linejoin:miter;stroke:rgb(0%,0%,0%);stroke-opacity:1;stroke-miterlimit:10;" d="M 0 0 L 64 0 L 64 64 L 0 64 Z M 0 0 " transform="matrix(1,0,0,1,0,64)"/>
<path style=" stroke:none;fill-rule:nonzero;fill:rgb(90%,90%,90%);fill-opacity:1;" d="M 0 64 L 64 64 L 64 128 L 0 128 Z M 0 64 "/>
<path style=" stroke:none;fill-rule:nonzero;fill:rgb(25%,25%,25%);fill-opacity:1;" d="M 10 81.5 L 22 81.5 L 19 78.5 L 13 78.5 Z M 10 81.5 "/>
<path style="fill-rule:nonzero;fill:rgb(25%,25%,25%);fill-opacity:1;stroke-width:2;stroke-linecap:butt;stroke-linejoin:miter;stroke:rgb(0%,0%,0%);stroke-opacity:1;stroke-miterlimit:10;" d="M -54 17.5 L -42 17.5 L -45 14.5 L -51 14.5 Z M -22 17.5 L -10 17.5 L -13 14.5 L -19 14.5 Z M -22 17.5 " transform="matrix(1,0,0,1,64,64)"/>
<path style="fill:none;stroke-width:2;stroke-linecap:butt;stroke-linejoin:miter;stroke:rgb(0%,0%,0%);stroke-opacity:1;stroke-miterlimit:10;" d="M 0 0 L 64 0 L 64 64 L 0 64 Z M 0 0 " transform="matrix(1,0,0,1,64,64)"/>
<path style=" stroke:none;fill-rule:nonzero;fill:rgb(90%,90%,90%);fill-opacity:1;" d="M 64 64 L 128 64 L 128 128 L 64 128 Z M 64 64 "/>
<path style=" stroke:none;fill-rule:nonzero;fill:rgb(25%,25%,25%);fill-opacity:1;" d="M 77 86 L 83 86 L 83 74 L 77 74 Z M 77 86 "/>
<path style="fill-rule:nonzero;fill:rgb(25%,25%,25%);fill-opacity:1;stroke-width:2;stroke-linecap:butt;stroke-linejoin:miter;stroke:rgb(0%,0%,0%);stroke-opacity:1;stroke-miterlimit:10;" d="M -51 22 L -45 22 L -45 10 L -51 10 Z M -19 22 L -13 22 L -13 10 L -19 10 Z M -19 22 " transform="matrix(1,0,0,1,128,64)"/>
<path style="fill:none;stroke-width:2;stroke-linecap:butt;stroke-linejoin:miter;stroke:rgb(0%,0%,0%);stroke-opacity:1;stroke-miterlimit:10;" d="M 0 0 L 64 0 L 64 64 L 0 64 Z M 0 0 " transform="matrix(1,0,0,1,128,64)"/>
<path style=" stroke:none;fill-rule:nonzero;fill:rgb(90%,90%,90%);fill-opacity:1;" d="M 128 64 L 192 64 L 192 128 L 128 128 Z M 128 64 "/>
<path style=" stroke:none;fill-rule:nonzero;fill:rgb(25%,25%,25%);fill-opacity:1;" d="M 138 81.5 L 150 81.5 L 147 78.5 L 141 78.5 Z M 138 81.5 "/>
<path style=" stroke:none;fill-rule:nonzero;fill:rgb(25%,25%,25%);fill-opacity:1;" d="M 138 81.5 L 150 81.5 L 147 78.5 L 141 78.5 Z M 170 81.5 L 182 81.5 L 179 78.5 L 173 78.5 Z M 170 81.5 "/>
<path style="fill-rule:nonzero;fill:rgb(25%,25%,25%);fill-opacity:1;stroke-width:2;stroke-linecap:butt;stroke-linejoin:miter;stroke:rgb(0%,0%,0%);stroke-opacity:1;stroke-miterlimit:10;" d="M -54 17.5 L -42 17.5 L -45 14.5 L -51 14.5 Z M -22 17.5 L -10 17.5 L -13 14.5 L -19 14.5 Z M -54 49.5 L -42 49.5 L -45 46.5 L -51 46.5 Z M -54 49.5 " transform="matrix(1,0,0,1,192,64)"/>
<path style="fill:none;stroke-width:2;stroke-linecap:butt;stroke-linejoin:miter;stroke:rgb(0%,0%,0%);stroke-opacity:1;stroke-miterlimit:10;" d="M 0 0 L 64 0 L 64 64 L 0 64 Z M 0 0 " transform="matrix(1,0,0,1,192,64)"/>
<path style=" stroke:none;fill-rule:nonzero;fill:rgb(90%,90%,90%);fill-opacity:1;" d="M 192 64 L 256 64 L 256 128 L 192 128 Z M 192 64 "/>
<path style=" stroke:none;fill-rule:nonzero;fill:rgb(25%,25%,25%);fill-opacity:1;" d="M 203.5 89 L 212.5 89 L 212.5 71 L 203.5 71 Z M 203.5 89 "/>
<path style="fill-rule:nonzero;fill:rgb(25%,25%,25%);fill-opacity:1;stroke-width:2;stroke-linecap:butt;stroke-linejoin:miter;stroke:rgb(0%,0%,0%);stroke-opacity:1;stroke-miterlimit:10;" d="M -52.5 25 L -43.5 25 L -43.5 7 L -52.5 7 Z M -20.5 25 L -11.5 25 L -11.5 7 L -20.5 7 Z M -20.5 25 " transform="matrix(1,0,0,1,256,64)"/>
</g>
</svg>
