<?xml version="1.0" encoding="UTF-8"?>
<svg xmlns="http://www.w3.org/2000/svg" xmlns:xlink="http://www.w3.org/1999/xlink" width="256pt" height="128pt" viewBox="0 0 256 128" version="1.1">
<g id="surface96">
<path style="fill:none;stroke-width:2;stroke-linecap:butt;stroke-linejoin:miter;stroke:rgb(0%,0%,0%);stroke-opacity:1;stroke-miterlimit:10;" d="M 0 0 L 64 0 L 64 64 L 0 64 Z M 0 0 "/>
<path style=" stroke:none;fill-rule:nonzero;fill:rgb(90%,90%,90%);fill-opacity:1;" d="M 0 0 L 64 0 L 64 64 L 0 64 Z M 0 0 "/>
<path style=" stroke:none;fill-rule:nonzero;fill:rgb(25%,25%,25%);fill-opacity:1;" d="M 18.652344 14.410156 L 17.589844 13.347656 L 13.613281 17.855469 L 14.144531 18.386719 Z M 18.652344 14.410156 "/>
<path style="fill-rule:nonzero;fill:rgb(25%,25%,25%);fill-opacity:1;stroke-width:2;stroke-linecap:butt;stroke-linejoin:miter;stroke:rgb(0%,0%,0%);stroke-opacity:1;stroke-miterlimit:10;" d="M -45.347656 14.410156 L -46.410156 13.347656 L -50.386719 17.855469 L -49.855469 18.386719 Z M -13.347656 14.410156 L -14.410156 13.347656 L -18.386719 17.855469 L -17.855469 18.386719 Z M -13.347656 14.410156 " transform="matrix(1,0,0,1,64,0)"/>
<path style="fill:none;stroke-width:2;stroke-linecap:butt;stroke-linejoin:miter;stroke:rgb(0%,0%,0%);stroke-opacity:1;stroke-miterlimit:10;" d="M 0 0 L 64 0 L 64 64 L 0 64 Z M 0 0 " transform="matrix(1,0,0,1,64,0)"/>
<path style=" stroke:none;fill-rule:nonzero;fill:rgb(90%,90%,90%);fill-opacity:1;" d="M 64 0 L 128 0 L 128 64 L 64 64 Z M 64 0 "/>
<path style=" stroke:none;fill-rule:nonzero;fill:rgb(25%,25%,25%);fill-opacity:1;" d="M 81.589844 18.652344 L 82.652344 17.589844 L 78.144531 13.613281 L 77.613281 14.144531 Z M 81.589844 18.652344 "/>
<path style="fill-rule:nonzero;fill:rgb(25%,25%,25%);fill-opacity:1;stroke-width:2;stroke-linecap:butt;stroke-linejoin:miter;stroke:rgb(0%,0%,0%);stroke-opacity:1;stroke-miterlimit:10;" d="M -46.410156 18.652344 L -45.347656 17.589844 L -49.855469 13.613281 L -50.386719 14.144531 Z M -14.410156 18.652344 L -13.347656 17.589844 L -17.855469 13.613281 L -18.386719 14.144531 Z M -14.410156 18.652344 " transform="matrix(1,0,0,1,128,0)"/>
<path style="fill:none;stroke-width:2;stroke-linecap:butt;stroke-linejoin:miter;stroke:rgb(0%,0%,0%);stroke-opacity:1;stroke-miterlimit:10;" d="M 0 0 L 64 0 L 64 64 L 0 64 Z M 0 0 " transform="matrix(1,0,0,1,128,0)"/>
<path style=" stroke:none;fill-rule:nonzero;fill:rgb(90%,90%,90%);fill-opacity:1;" d="M 128 0 L 192 0 L 192 64 L 128 64 Z M 128 0 "/>
<path style=" stroke:none;fill-rule:nonzero;fill:rgb(25%,25%,25%);fill-opacity:1;" d="M 149.304688 12.816406 L 147.183594 10.695312 L 139.226562 19.710938 L 140.289062 20.773438 Z M 149.304688 12.816406 "/>
<path style="fill-rule:nonzero;fill:rgb(25%,25%,25%);fill-opacity:1;stroke-width:2;stroke-linecap:butt;stroke-linejoin:miter;stroke:rgb(0%,0%,0%);stroke-opacity:1;stroke-miterlimit:10;" d="M -42.695312 12.816406 L -44.816406 10.695312 L -52.773438 19.710938 L -51.710938 20.773438 Z M -10.695312 12.816406 L -12.816406 10.695312 L -20.773438 19.710938 L -19.710938 20.773438 Z M -10.695312 12.816406 " transform="matrix(1,0,0,1,192,0)"/>
<path style="fill:none;stroke-width:2;stroke-linecap:butt;stroke-linejoin:miter;stroke:rgb(0%,0%,0%);stroke-opacity:1;stroke-miterlimit:10;" d="M 0 0 L 64 0 L 64 64 L 0 64 Z M 0 0 " transform="matrix(1,0,0,1,192,0)"/>
<path style=" stroke:none;fill-rule:nonzero;fill:rgb(90%,90%,90%);fill-opacity:1;" d="M 192 0 L 256 0 L 256 64 L 192 64 Z M 192 0 "/>
<path style=" stroke:none;fill-rule:nonzero;fill:rgb(12.5%,12.5%,12.5%);fill-opacity:1;" d="M 210.652344 14.410156 L 209.589844 13.347656 L 205.613281 17.855469 L 206.144531 18.386719 Z M 210.652344 14.410156 "/>
<path style="fill-rule:nonzero;fill:rgb(12.5%,12.5%,12.5%);fill-opacity:1;stroke-width:2;stroke-linecap:butt;stroke-linejoin:miter;stroke:rgb(0%,0%,0%);stroke-opacity:1;stroke-miterlimit:10;" d="M 210.652344 -49.589844 L 209.589844 -50.652344 L 205.613281 -46.144531 L 206.144531 -45.613281 Z M 242.652344 -49.589844 L 241.589844 -50.652344 L 237.613281 -46.144531 L 238.144531 -45.613281 Z M 242.652344 -49.589844 " transform="matrix(1,0,0,1,0,64)"/>
<path style="fill:none;stroke-width:2;stroke-linecap:butt;stroke-linejoin:miter;stroke:rgb(0%,0%,0%);stroke-opacity:1;stroke-miterlimit:10;" d="M 0 0 L 64 0 L 64 64 L 0 64 Z M 0 0 " transform="matrix(1,0,0,1,0,64)"/>
<path style=" stroke:none;fill-rule:nonzero;fill:rgb(90%,90%,90%);fill-opacity:1;" d="M 0 64 L 64 64 L 64 128 L 0 128 Z M 0 64 "/>
<path style=" stroke:none;fill-rule:nonzero;fill:rgb(25%,25%,25%);fill-opacity:1;" d="M 17.238281 80.175781 L 15.824219 78.761719 L 15.027344 79.558594 L 13.613281 78.144531 L 13.347656 78.410156 L 17.589844 82.652344 L 17.855469 82.386719 L 16.441406 80.972656 Z M 17.238281 80.175781 "/>
<path style="fill-rule:nonzero;fill:rgb(25%,25%,25%);fill-opacity:1;stroke-width:2;stroke-linecap:butt;stroke-linejoin:miter;stroke:rgb(0%,0%,0%);stroke-opacity:1;stroke-miterlimit:10;" d="M -46.761719 16.175781 L -48.175781 14.761719 L -48.972656 15.558594 L -50.386719 14.144531 L -50.652344 14.410156 L -46.410156 18.652344 L -46.144531 18.386719 L -47.558594 16.972656 Z M -14.761719 16.175781 L -16.175781 14.761719 L -16.972656 15.558594 L -18.386719 14.144531 L -18.652344 14.410156 L -14.410156 18.652344 L -14.144531 18.386719 L -15.558594 16.972656 Z M -14.761719 16.175781 " transform="matrix(1,0,0,1,64,64)"/>
<path style="fill:none;stroke-width:2;stroke-linecap:butt;stroke-linejoin:miter;stroke:rgb(0%,0%,0%);stroke-opacity:1;stroke-miterlimit:10;" d="M 0 0 L 64 0 L 64 64 L 0 64 Z M 0 0 " transform="matrix(1,0,0,1,64,64)"/>
<path style=" stroke:none;fill-rule:nonzero;fill:rgb(90%,90%,90%);fill-opacity:1;" d="M 64 64 L 128 64 L 128 128 L 64 128 Z M 64 64 "/>
<path style=" stroke:none;fill-rule:nonzero;fill:rgb(25%,25%,25%);fill-opacity:1;" d="M 82.652344 78.410156 L 81.589844 77.347656 L 77.347656 81.589844 L 78.410156 82.652344 Z M 82.652344 78.410156 "/>
<path style="fill-rule:nonzero;fill:rgb(25%,25%,25%);fill-opacity:1;stroke-width:2;stroke-linecap:butt;stroke-linejoin:miter;stroke:rgb(0%,0%,0%);stroke-opacity:1;stroke-miterlimit:10;" d="M -45.347656 14.410156 L -46.410156 13.347656 L -50.652344 17.589844 L -49.589844 18.652344 Z M -13.347656 14.410156 L -14.410156 13.347656 L -18.652344 17.589844 L -17.589844 18.652344 Z M -13.347656 14.410156 " transform="matrix(1,0,0,1,128,64)"/>
<path style="fill:none;stroke-width:2;stroke-linecap:butt;stroke-linejoin:miter;stroke:rgb(0%,0%,0%);stroke-opacity:1;stroke-miterlimit:10;" d="M 0 0 L 64 0 L 64 64 L 0 64 Z M 0 0 " transform="matrix(1,0,0,1,128,64)"/>
<path style=" stroke:none;fill-rule:nonzero;fill:rgb(90%,90%,90%);fill-opacity:1;" d="M 128 64 L 192 64 L 192 128 L 128 128 Z M 128 64 "/>
<path style=" stroke:none;fill-rule:nonzero;fill:rgb(25%,25%,25%);fill-opacity:1;" d="M 146.476562 80.355469 L 143.644531 77.523438 L 142.054688 79.117188 L 139.226562 76.289062 L 138.695312 76.816406 L 147.183594 85.304688 L 147.710938 84.773438 L 144.882812 81.945312 Z M 146.476562 80.355469 "/>
<path style="fill-rule:nonzero;fill:rgb(25%,25%,25%);fill-opacity:1;stroke-width:2;stroke-linecap:butt;stroke-linejoin:miter;stroke:rgb(0%,0%,0%);stroke-opacity:1;stroke-miterlimit:10;" d="M -45.523438 16.355469 L -48.355469 13.523438 L -49.945312 15.117188 L -52.773438 12.289062 L -53.304688 12.816406 L -44.816406 21.304688 L -44.289062 20.773438 L -47.117188 17.945312 Z M -13.523438 16.355469 L -16.355469 13.523438 L -17.945312 15.117188 L -20.773438 12.289062 L -21.304688 12.816406 L -12.816406 21.304688 L -12.289062 20.773438 L -15.117188 17.945312 Z M -13.523438 16.355469 " transform="matrix(1,0,0,1,192,64)"/>
<path style="fill:none;stroke-width:2;stroke-linecap:butt;stroke-linejoin:miter;stroke:rgb(0%,0%,0%);stroke-opacity:1;stroke-miterlimit:10;" d="M 0 0 L 64 0 L 64 64 L 0 64 Z M 0 0 " transform="matrix(1,0,0,1,192,64)"/>
<path style=" stroke:none;fill-rule:nonzero;fill:rgb(90%,90%,90%);fill-opacity:1;" d="M 192 64 L 256 64 L 256 128 L 192 128 Z M 192 64 "/>
<path style=" stroke:none;fill-rule:nonzero;fill:rgb(12.5%,12.5%,12.5%);fill-opacity:1;" d="M 210.652344 78.410156 L 209.589844 77.347656 L 205.347656 81.589844 L 206.410156 82.652344 Z M 210.652344 78.410156 "/>
<path style="fill-rule:nonzero;fill:rgb(12.5%,12.5%,12.5%);fill-opacity:1;stroke-width:2;stroke-linecap:butt;stroke-linejoin:miter;stroke:rgb(0%,0%,0%);stroke-opacity:1;stroke-miterlimit:10;" d="M -45.347656 14.410156 L -46.410156 13.347656 L -50.652344 17.589844 L -49.589844 18.652344 Z M -13.347656 14.410156 L -14.410156 13.347656 L -18.652344 17.589844 L -17.589844 18.652344 Z M -13.347656 14.410156 " transform="matrix(1,0,0,1,256,64)"/>
</g>
</svg>
