<?xml version="1.0" encoding="UTF-8"?>
<svg xmlns="http://www.w3.org/2000/svg" xmlns:xlink="http://www.w3.org/1999/xlink" width="64pt" height="64pt" viewBox="0 0 64 64" version="1.1">
<g id="surface166">
<rect x="0" y="0" width="64" height="64" style="fill:rgb(80%,80%,40%);fill-opacity:1;stroke:none;"/>
<path style="fill:none;stroke-width:2;stroke-linecap:butt;stroke-linejoin:miter;stroke:rgb(0%,0%,0%);stroke-opacity:1;stroke-miterlimit:10;" d="M 27 62 L 37 62 L 37 17 L 47 17 L 47 2 L 17 2 L 17 17 L 27 17 L 27 62 "/>
<path style="fill:none;stroke-width:2;stroke-linecap:butt;stroke-linejoin:miter;stroke:rgb(0%,0%,0%);stroke-opacity:1;stroke-miterlimit:10;" d="M 9 20.667969 L 12.332031 20.667969 L 12.332031 5.667969 L 15.667969 5.667969 L 15.667969 0.667969 L 5.667969 0.667969 L 5.667969 5.667969 L 9 5.667969 L 9 20.667969 M 30.332031 20.667969 L 33.667969 20.667969 L 33.667969 5.667969 L 37 5.667969 L 37 0.667969 L 27 0.667969 L 27 5.667969 L 30.332031 5.667969 L 30.332031 20.667969 M 51.667969 20.667969 L 55 20.667969 L 55 5.667969 L 58.332031 5.667969 L 58.332031 0.667969 L 48.332031 0.667969 L 48.332031 5.667969 L 51.667969 5.667969 L 51.667969 20.667969 M 9 42 L 12.332031 42 L 12.332031 27 L 15.667969 27 L 15.667969 22 L 5.667969 22 L 5.667969 27 L 9 27 L 9 42 M 30.332031 42 L 33.667969 42 L 33.667969 27 L 37 27 L 37 22 L 27 22 L 27 27 L 30.332031 27 L 30.332031 42 M 51.667969 42 L 55 42 L 55 27 L 58.332031 27 L 58.332031 22 L 48.332031 22 L 48.332031 27 L 51.667969 27 L 51.667969 42 M 9 63.332031 L 12.332031 63.332031 L 12.332031 48.332031 L 15.667969 48.332031 L 15.667969 43.332031 L 5.667969 43.332031 L 5.667969 48.332031 L 9 48.332031 L 9 63.332031 "/>
</g>
</svg>
