<?xml version="1.0" encoding="UTF-8"?>
<svg xmlns="http://www.w3.org/2000/svg" xmlns:xlink="http://www.w3.org/1999/xlink" width="128pt" height="128pt" viewBox="0 0 128 128" version="1.1">
<g id="surface284">
<rect x="0" y="0" width="128" height="128" style="fill:rgb(90%,90%,90%);fill-opacity:1;stroke:none;"/>
<path style="fill:none;stroke-width:2;stroke-linecap:butt;stroke-linejoin:miter;stroke:rgb(0%,0%,0%);stroke-opacity:1;stroke-miterlimit:10;" d="M -32 62 L -2 17 L -32 2 L -62 17 L -32 62 " transform="matrix(1,0,0,1,64,0)"/>
<path style="fill:none;stroke-width:2;stroke-linecap:butt;stroke-linejoin:miter;stroke:rgb(0%,0%,0%);stroke-opacity:1;stroke-miterlimit:10;" d="M 74.667969 -43.332031 L 84.667969 -58.332031 L 74.667969 -63.332031 L 64.667969 -58.332031 L 74.667969 -43.332031 M 96 -43.332031 L 106 -58.332031 L 96 -63.332031 L 86 -58.332031 L 96 -43.332031 M 117.332031 -43.332031 L 127.332031 -58.332031 L 117.332031 -63.332031 L 107.332031 -58.332031 L 117.332031 -43.332031 M 74.667969 -22 L 84.667969 -37 L 74.667969 -42 L 64.667969 -37 L 74.667969 -22 M 96 -22 L 106 -37 L 96 -42 L 86 -37 L 96 -22 M 117.332031 -22 L 127.332031 -37 L 117.332031 -42 L 107.332031 -37 L 117.332031 -22 M 74.667969 -0.667969 L 84.667969 -15.667969 L 74.667969 -20.667969 L 64.667969 -15.667969 L 74.667969 -0.667969 " transform="matrix(1,0,0,1,0,64)"/>
<path style="fill:none;stroke-width:2;stroke-linecap:butt;stroke-linejoin:miter;stroke:rgb(0%,0%,0%);stroke-opacity:1;stroke-miterlimit:10;" d="M -28.25 32 C -28.25 48.570312 -29.929688 62 -32 62 C -34.070312 62 -35.75 48.570312 -35.75 32 C -35.75 15.429688 -34.070312 2 -32 2 C -29.929688 2 -28.25 15.429688 -28.25 32 " transform="matrix(1,0,0,1,64,64)"/>
<path style="fill-rule:nonzero;fill:rgb(12.5%,12.5%,12.5%);fill-opacity:1;stroke-width:2;stroke-linecap:butt;stroke-linejoin:miter;stroke:rgb(0%,0%,0%);stroke-opacity:1;stroke-miterlimit:10;" d="M 35.75 32 C 35.75 48.570312 34.070312 62 32 62 C 29.929688 62 28.25 48.570312 28.25 32 C 28.25 15.429688 29.929688 2 32 2 C 34.070312 2 35.75 15.429688 35.75 32 " transform="matrix(1,0,0,1,64,64)"/>
</g>
</svg>
