<?xml version="1.0" encoding="utf-8" standalone="no"?>
<!DOCTYPE svg PUBLIC "-//W3C//DTD SVG 1.1//EN"
  "http://www.w3.org/Graphics/SVG/1.1/DTD/svg11.dtd">
<!-- Created with matplotlib (https://matplotlib.org/) -->
<svg height="504pt" version="1.1" viewBox="0 0 720 504" width="720pt" xmlns="http://www.w3.org/2000/svg" xmlns:xlink="http://www.w3.org/1999/xlink">
 <defs>
  <style type="text/css">
*{stroke-linecap:butt;stroke-linejoin:round;white-space:pre;}
  </style>
 </defs>
 <g id="figure_1">
  <g id="patch_1">
   <path d="M 0 504 
L 720 504 
L 720 0 
L 0 0 
z
" style="fill:#ffffff;"/>
  </g>
  <g id="axes_1">
   <g id="patch_2">
    <path d="M 90 311.590588 
L 648 311.590588 
L 648 60.48 
L 90 60.48 
z
" style="fill:#ffffff;"/>
   </g>
   <g id="matplotlib.axis_1">
    <g id="xtick_1">
     <g id="line2d_1">
      <path clip-path="url(#p9582b8182f)" d="M 90 311.590588 
L 90 60.48 
" style="fill:none;stroke:#cccccc;stroke-linecap:round;"/>
     </g>
    </g>
    <g id="xtick_2">
     <g id="line2d_2">
      <path clip-path="url(#p9582b8182f)" d="M 174.29003 311.590588 
L 174.29003 60.48 
" style="fill:none;stroke:#cccccc;stroke-linecap:round;"/>
     </g>
    </g>
    <g id="xtick_3">
     <g id="line2d_3">
      <path clip-path="url(#p9582b8182f)" d="M 258.58006 311.590588 
L 258.58006 60.48 
" style="fill:none;stroke:#cccccc;stroke-linecap:round;"/>
     </g>
    </g>
    <g id="xtick_4">
     <g id="line2d_4">
      <path clip-path="url(#p9582b8182f)" d="M 342.870091 311.590588 
L 342.870091 60.48 
" style="fill:none;stroke:#cccccc;stroke-linecap:round;"/>
     </g>
    </g>
    <g id="xtick_5">
     <g id="line2d_5">
      <path clip-path="url(#p9582b8182f)" d="M 427.160121 311.590588 
L 427.160121 60.48 
" style="fill:none;stroke:#cccccc;stroke-linecap:round;"/>
     </g>
    </g>
    <g id="xtick_6">
     <g id="line2d_6">
      <path clip-path="url(#p9582b8182f)" d="M 511.450151 311.590588 
L 511.450151 60.48 
" style="fill:none;stroke:#cccccc;stroke-linecap:round;"/>
     </g>
    </g>
    <g id="xtick_7">
     <g id="line2d_7">
      <path clip-path="url(#p9582b8182f)" d="M 595.740181 311.590588 
L 595.740181 60.48 
" style="fill:none;stroke:#cccccc;stroke-linecap:round;"/>
     </g>
    </g>
   </g>
   <g id="matplotlib.axis_2">
    <g id="ytick_1">
     <g id="line2d_8">
      <path clip-path="url(#p9582b8182f)" d="M 90 311.590588 
L 648 311.590588 
" style="fill:none;stroke:#cccccc;stroke-linecap:round;"/>
     </g>
     <g id="line2d_9">
      <defs>
       <path d="M 0 0 
L -6 0 
" id="m2b51edbb2d" style="stroke:#262626;stroke-width:1.25;"/>
      </defs>
      <g>
       <use style="fill:#262626;stroke:#262626;stroke-width:1.25;" x="90" xlink:href="#m2b51edbb2d" y="311.590588"/>
      </g>
     </g>
     <g id="text_1">
      <!-- 0 -->
      <defs>
       <path d="M 4.15625 35.296875 
Q 4.15625 48 6.765625 55.734375 
Q 9.375 63.484375 14.515625 67.671875 
Q 19.671875 71.875 27.484375 71.875 
Q 33.25 71.875 37.59375 69.546875 
Q 41.9375 67.234375 44.765625 62.859375 
Q 47.609375 58.5 49.21875 52.21875 
Q 50.828125 45.953125 50.828125 35.296875 
Q 50.828125 22.703125 48.234375 14.96875 
Q 45.65625 7.234375 40.5 3 
Q 35.359375 -1.21875 27.484375 -1.21875 
Q 17.140625 -1.21875 11.234375 6.203125 
Q 4.15625 15.140625 4.15625 35.296875 
z
M 13.1875 35.296875 
Q 13.1875 17.671875 17.3125 11.828125 
Q 21.4375 6 27.484375 6 
Q 33.546875 6 37.671875 11.859375 
Q 41.796875 17.71875 41.796875 35.296875 
Q 41.796875 52.984375 37.671875 58.78125 
Q 33.546875 64.59375 27.390625 64.59375 
Q 21.34375 64.59375 17.71875 59.46875 
Q 13.1875 52.9375 13.1875 35.296875 
z
" id="ArialMT-48"/>
      </defs>
      <g style="fill:#d62728;" transform="translate(75.606375 314.740026)scale(0.088 -0.088)">
       <use xlink:href="#ArialMT-48"/>
      </g>
     </g>
    </g>
    <g id="ytick_2">
     <g id="line2d_10">
      <path clip-path="url(#p9582b8182f)" d="M 90 273.51901 
L 648 273.51901 
" style="fill:none;stroke:#cccccc;stroke-linecap:round;"/>
     </g>
     <g id="line2d_11">
      <g>
       <use style="fill:#262626;stroke:#262626;stroke-width:1.25;" x="90" xlink:href="#m2b51edbb2d" y="273.51901"/>
      </g>
     </g>
     <g id="text_2">
      <!-- 10 -->
      <defs>
       <path d="M 37.25 0 
L 28.46875 0 
L 28.46875 56 
Q 25.296875 52.984375 20.140625 49.953125 
Q 14.984375 46.921875 10.890625 45.40625 
L 10.890625 53.90625 
Q 18.265625 57.375 23.78125 62.296875 
Q 29.296875 67.234375 31.59375 71.875 
L 37.25 71.875 
z
" id="ArialMT-49"/>
      </defs>
      <g style="fill:#d62728;" transform="translate(70.71275 276.668448)scale(0.088 -0.088)">
       <use xlink:href="#ArialMT-49"/>
       <use x="55.615234" xlink:href="#ArialMT-48"/>
      </g>
     </g>
    </g>
    <g id="ytick_3">
     <g id="line2d_12">
      <path clip-path="url(#p9582b8182f)" d="M 90 235.447432 
L 648 235.447432 
" style="fill:none;stroke:#cccccc;stroke-linecap:round;"/>
     </g>
     <g id="line2d_13">
      <g>
       <use style="fill:#262626;stroke:#262626;stroke-width:1.25;" x="90" xlink:href="#m2b51edbb2d" y="235.447432"/>
      </g>
     </g>
     <g id="text_3">
      <!-- 20 -->
      <defs>
       <path d="M 50.34375 8.453125 
L 50.34375 0 
L 3.03125 0 
Q 2.9375 3.171875 4.046875 6.109375 
Q 5.859375 10.9375 9.828125 15.625 
Q 13.8125 20.3125 21.34375 26.46875 
Q 33.015625 36.03125 37.109375 41.625 
Q 41.21875 47.21875 41.21875 52.203125 
Q 41.21875 57.421875 37.46875 61 
Q 33.734375 64.59375 27.734375 64.59375 
Q 21.390625 64.59375 17.578125 60.78125 
Q 13.765625 56.984375 13.71875 50.25 
L 4.6875 51.171875 
Q 5.609375 61.28125 11.65625 66.578125 
Q 17.71875 71.875 27.9375 71.875 
Q 38.234375 71.875 44.234375 66.15625 
Q 50.25 60.453125 50.25 52 
Q 50.25 47.703125 48.484375 43.546875 
Q 46.734375 39.40625 42.65625 34.8125 
Q 38.578125 30.21875 29.109375 22.21875 
Q 21.1875 15.578125 18.9375 13.203125 
Q 16.703125 10.84375 15.234375 8.453125 
z
" id="ArialMT-50"/>
      </defs>
      <g style="fill:#d62728;" transform="translate(70.71275 238.596869)scale(0.088 -0.088)">
       <use xlink:href="#ArialMT-50"/>
       <use x="55.615234" xlink:href="#ArialMT-48"/>
      </g>
     </g>
    </g>
    <g id="ytick_4">
     <g id="line2d_14">
      <path clip-path="url(#p9582b8182f)" d="M 90 197.375854 
L 648 197.375854 
" style="fill:none;stroke:#cccccc;stroke-linecap:round;"/>
     </g>
     <g id="line2d_15">
      <g>
       <use style="fill:#262626;stroke:#262626;stroke-width:1.25;" x="90" xlink:href="#m2b51edbb2d" y="197.375854"/>
      </g>
     </g>
     <g id="text_4">
      <!-- 30 -->
      <defs>
       <path d="M 4.203125 18.890625 
L 12.984375 20.0625 
Q 14.5 12.59375 18.140625 9.296875 
Q 21.78125 6 27 6 
Q 33.203125 6 37.46875 10.296875 
Q 41.75 14.59375 41.75 20.953125 
Q 41.75 27 37.796875 30.921875 
Q 33.84375 34.859375 27.734375 34.859375 
Q 25.25 34.859375 21.53125 33.890625 
L 22.515625 41.609375 
Q 23.390625 41.5 23.921875 41.5 
Q 29.546875 41.5 34.03125 44.421875 
Q 38.53125 47.359375 38.53125 53.46875 
Q 38.53125 58.296875 35.25 61.46875 
Q 31.984375 64.65625 26.8125 64.65625 
Q 21.6875 64.65625 18.265625 61.421875 
Q 14.84375 58.203125 13.875 51.765625 
L 5.078125 53.328125 
Q 6.6875 62.15625 12.390625 67.015625 
Q 18.109375 71.875 26.609375 71.875 
Q 32.46875 71.875 37.390625 69.359375 
Q 42.328125 66.84375 44.9375 62.5 
Q 47.5625 58.15625 47.5625 53.265625 
Q 47.5625 48.640625 45.0625 44.828125 
Q 42.578125 41.015625 37.703125 38.765625 
Q 44.046875 37.3125 47.5625 32.6875 
Q 51.078125 28.078125 51.078125 21.140625 
Q 51.078125 11.765625 44.234375 5.25 
Q 37.40625 -1.265625 26.953125 -1.265625 
Q 17.53125 -1.265625 11.296875 4.34375 
Q 5.078125 9.96875 4.203125 18.890625 
z
" id="ArialMT-51"/>
      </defs>
      <g style="fill:#d62728;" transform="translate(70.71275 200.525291)scale(0.088 -0.088)">
       <use xlink:href="#ArialMT-51"/>
       <use x="55.615234" xlink:href="#ArialMT-48"/>
      </g>
     </g>
    </g>
    <g id="ytick_5">
     <g id="line2d_16">
      <path clip-path="url(#p9582b8182f)" d="M 90 159.304276 
L 648 159.304276 
" style="fill:none;stroke:#cccccc;stroke-linecap:round;"/>
     </g>
     <g id="line2d_17">
      <g>
       <use style="fill:#262626;stroke:#262626;stroke-width:1.25;" x="90" xlink:href="#m2b51edbb2d" y="159.304276"/>
      </g>
     </g>
     <g id="text_5">
      <!-- 40 -->
      <defs>
       <path d="M 32.328125 0 
L 32.328125 17.140625 
L 1.265625 17.140625 
L 1.265625 25.203125 
L 33.9375 71.578125 
L 41.109375 71.578125 
L 41.109375 25.203125 
L 50.78125 25.203125 
L 50.78125 17.140625 
L 41.109375 17.140625 
L 41.109375 0 
z
M 32.328125 25.203125 
L 32.328125 57.46875 
L 9.90625 25.203125 
z
" id="ArialMT-52"/>
      </defs>
      <g style="fill:#d62728;" transform="translate(70.71275 162.453713)scale(0.088 -0.088)">
       <use xlink:href="#ArialMT-52"/>
       <use x="55.615234" xlink:href="#ArialMT-48"/>
      </g>
     </g>
    </g>
    <g id="ytick_6">
     <g id="line2d_18">
      <path clip-path="url(#p9582b8182f)" d="M 90 121.232697 
L 648 121.232697 
" style="fill:none;stroke:#cccccc;stroke-linecap:round;"/>
     </g>
     <g id="line2d_19">
      <g>
       <use style="fill:#262626;stroke:#262626;stroke-width:1.25;" x="90" xlink:href="#m2b51edbb2d" y="121.232697"/>
      </g>
     </g>
     <g id="text_6">
      <!-- 50 -->
      <defs>
       <path d="M 4.15625 18.75 
L 13.375 19.53125 
Q 14.40625 12.796875 18.140625 9.390625 
Q 21.875 6 27.15625 6 
Q 33.5 6 37.890625 10.78125 
Q 42.28125 15.578125 42.28125 23.484375 
Q 42.28125 31 38.0625 35.34375 
Q 33.84375 39.703125 27 39.703125 
Q 22.75 39.703125 19.328125 37.765625 
Q 15.921875 35.84375 13.96875 32.765625 
L 5.71875 33.84375 
L 12.640625 70.609375 
L 48.25 70.609375 
L 48.25 62.203125 
L 19.671875 62.203125 
L 15.828125 42.96875 
Q 22.265625 47.46875 29.34375 47.46875 
Q 38.71875 47.46875 45.15625 40.96875 
Q 51.609375 34.46875 51.609375 24.265625 
Q 51.609375 14.546875 45.953125 7.46875 
Q 39.0625 -1.21875 27.15625 -1.21875 
Q 17.390625 -1.21875 11.203125 4.25 
Q 5.03125 9.71875 4.15625 18.75 
z
" id="ArialMT-53"/>
      </defs>
      <g style="fill:#d62728;" transform="translate(70.71275 124.382135)scale(0.088 -0.088)">
       <use xlink:href="#ArialMT-53"/>
       <use x="55.615234" xlink:href="#ArialMT-48"/>
      </g>
     </g>
    </g>
    <g id="ytick_7">
     <g id="line2d_20">
      <path clip-path="url(#p9582b8182f)" d="M 90 83.161119 
L 648 83.161119 
" style="fill:none;stroke:#cccccc;stroke-linecap:round;"/>
     </g>
     <g id="line2d_21">
      <g>
       <use style="fill:#262626;stroke:#262626;stroke-width:1.25;" x="90" xlink:href="#m2b51edbb2d" y="83.161119"/>
      </g>
     </g>
     <g id="text_7">
      <!-- 60 -->
      <defs>
       <path d="M 49.75 54.046875 
L 41.015625 53.375 
Q 39.84375 58.546875 37.703125 60.890625 
Q 34.125 64.65625 28.90625 64.65625 
Q 24.703125 64.65625 21.53125 62.3125 
Q 17.390625 59.28125 14.984375 53.46875 
Q 12.59375 47.65625 12.5 36.921875 
Q 15.671875 41.75 20.265625 44.09375 
Q 24.859375 46.4375 29.890625 46.4375 
Q 38.671875 46.4375 44.84375 39.96875 
Q 51.03125 33.5 51.03125 23.25 
Q 51.03125 16.5 48.125 10.71875 
Q 45.21875 4.9375 40.140625 1.859375 
Q 35.0625 -1.21875 28.609375 -1.21875 
Q 17.625 -1.21875 10.6875 6.859375 
Q 3.765625 14.9375 3.765625 33.5 
Q 3.765625 54.25 11.421875 63.671875 
Q 18.109375 71.875 29.4375 71.875 
Q 37.890625 71.875 43.28125 67.140625 
Q 48.6875 62.40625 49.75 54.046875 
z
M 13.875 23.1875 
Q 13.875 18.65625 15.796875 14.5 
Q 17.71875 10.359375 21.1875 8.171875 
Q 24.65625 6 28.46875 6 
Q 34.03125 6 38.03125 10.484375 
Q 42.046875 14.984375 42.046875 22.703125 
Q 42.046875 30.125 38.078125 34.390625 
Q 34.125 38.671875 28.125 38.671875 
Q 22.171875 38.671875 18.015625 34.390625 
Q 13.875 30.125 13.875 23.1875 
z
" id="ArialMT-54"/>
      </defs>
      <g style="fill:#d62728;" transform="translate(70.71275 86.310557)scale(0.088 -0.088)">
       <use xlink:href="#ArialMT-54"/>
       <use x="55.615234" xlink:href="#ArialMT-48"/>
      </g>
     </g>
    </g>
   </g>
   <g id="line2d_22">
    <path clip-path="url(#p9582b8182f)" d="M 94.091889 -1 
L 95.057402 60.860716 
L 96.743202 119.518845 
L 98.429003 149.316736 
L 100.114804 169.319886 
L 101.800604 182.768959 
L 103.486405 189.147291 
L 105.172205 191.882863 
L 106.858006 196.613278 
L 108.543807 201.923725 
L 110.229607 208.505624 
L 116.97281 238.396912 
L 118.65861 244.040481 
L 120.344411 247.171955 
L 122.030211 249.352808 
L 128.773414 257.129562 
L 132.145015 260.4848 
L 135.516616 263.479831 
L 138.888218 266.104817 
L 140.574018 267.143848 
L 143.945619 268.722162 
L 149.003021 270.558723 
L 157.432024 273.032388 
L 167.546828 275.518874 
L 175.975831 277.264787 
L 199.577039 281.221914 
L 209.691843 282.413211 
L 221.492447 283.677612 
L 241.722054 285.101422 
L 251.836858 285.576741 
L 256.89426 285.860829 
L 265.323263 286.357843 
L 278.809668 286.973748 
L 282.181269 287.196702 
L 299.039275 287.854618 
L 326.012085 288.372979 
L 331.069486 288.495557 
L 337.812689 288.606057 
L 398.501511 289.026367 
L 405.244713 288.977067 
L 408.616314 289.072348 
L 435.589124 289.285719 
L 444.018127 289.238484 
L 447.389728 289.321928 
L 465.933535 289.303027 
L 516.507553 289.511467 
L 533.365559 289.565782 
L 560.338369 289.602507 
L 580.567976 289.615962 
L 583.939577 289.5571 
L 629.456193 289.579079 
L 629.456193 289.579079 
" style="fill:none;stroke:#d62728;stroke-linecap:round;stroke-width:1.5;"/>
   </g>
   <g id="line2d_23">
    <path clip-path="url(#p9582b8182f)" d="M 92.935407 -1 
L 93.371601 31.395143 
L 95.057402 127.741912 
L 96.743202 176.849891 
L 98.429003 197.766229 
L 100.114804 208.464986 
L 101.800604 214.392292 
L 103.486405 215.375045 
L 105.172205 214.104179 
L 106.858006 215.567647 
L 108.543807 217.952141 
L 110.229607 221.492095 
L 111.915408 226.508674 
L 113.601208 232.714174 
L 115.287009 239.652805 
L 116.97281 247.114846 
L 118.65861 253.862904 
L 120.344411 257.557495 
L 122.030211 259.673627 
L 127.087613 264.643698 
L 133.830816 271.607895 
L 138.888218 277.188696 
L 140.574018 278.849964 
L 142.259819 280.173656 
L 143.945619 281.212749 
L 145.63142 281.941727 
L 147.317221 282.541839 
L 150.688822 283.329164 
L 159.117825 284.678643 
L 172.60423 286.18525 
L 179.347432 286.758264 
L 199.577039 288.273965 
L 211.377644 288.759952 
L 219.806647 289.091074 
L 226.549849 289.288718 
L 250.151057 289.539141 
L 255.208459 289.536079 
L 275.438066 289.899679 
L 300.725076 290.317215 
L 304.096677 290.331567 
L 307.468278 290.342176 
L 315.897281 290.354567 
L 319.268882 290.247396 
L 320.954683 290.268365 
L 322.640483 290.406616 
L 403.558912 290.604821 
L 405.244713 290.5754 
L 408.616314 290.665002 
L 435.589124 290.851864 
L 444.018127 290.80011 
L 447.389728 290.881593 
L 465.933535 290.857108 
L 514.821752 291.053734 
L 533.365559 291.130155 
L 560.338369 291.177698 
L 580.567976 291.200698 
L 583.939577 291.143851 
L 629.456193 291.19295 
L 629.456193 291.19295 
" style="fill:none;stroke:#d62728;stroke-dasharray:0.5,0.825;stroke-dashoffset:0;stroke-width:0.5;"/>
   </g>
   <g id="line2d_24">
    <path clip-path="url(#p9582b8182f)" d="M 90 200.593942 
L 91.685801 219.371621 
L 93.371601 233.046341 
L 95.057402 244.709392 
L 96.743202 254.259542 
L 100.114804 272.445488 
L 101.800604 279.967256 
L 103.486405 285.362834 
L 105.172205 289.369273 
L 106.858006 292.636219 
L 110.229607 298.604117 
L 111.915408 301.078966 
L 113.601208 302.704687 
L 115.287009 303.294369 
L 116.97281 302.872654 
L 118.65861 301.768165 
L 120.344411 301.205048 
L 122.030211 301.269769 
L 127.087613 302.209799 
L 128.773414 302.357891 
L 130.459215 302.365737 
L 132.145015 302.247103 
L 133.830816 301.992219 
L 135.516616 301.603956 
L 138.888218 300.506709 
L 142.259819 299.378929 
L 143.945619 299.1 
L 145.63142 299.011531 
L 149.003021 299.164912 
L 154.060423 299.737882 
L 174.29003 302.168863 
L 187.776435 303.521045 
L 206.320242 305.070696 
L 219.806647 305.998326 
L 236.664653 306.954045 
L 258.58006 307.943911 
L 278.809668 308.62464 
L 302.410876 309.189694 
L 327.697885 309.572126 
L 359.728097 309.838449 
L 411.987915 310.003005 
L 518.193353 310.031658 
L 629.456193 309.976717 
L 629.456193 309.976717 
" style="fill:none;stroke:#d62728;stroke-dasharray:3.2,0.8,0.5,0.8;stroke-dashoffset:0;stroke-width:0.5;"/>
   </g>
   <g id="patch_3">
    <path d="M 90 311.590588 
L 90 60.48 
" style="fill:none;stroke:#cccccc;stroke-linecap:square;stroke-linejoin:miter;stroke-width:1.25;"/>
   </g>
   <g id="patch_4">
    <path d="M 648 311.590588 
L 648 60.48 
" style="fill:none;stroke:#cccccc;stroke-linecap:square;stroke-linejoin:miter;stroke-width:1.25;"/>
   </g>
   <g id="patch_5">
    <path d="M 90 311.590588 
L 648 311.590588 
" style="fill:none;stroke:#cccccc;stroke-linecap:square;stroke-linejoin:miter;stroke-width:1.25;"/>
   </g>
   <g id="patch_6">
    <path d="M 90 60.48 
L 648 60.48 
" style="fill:none;stroke:#cccccc;stroke-linecap:square;stroke-linejoin:miter;stroke-width:1.25;"/>
   </g>
  </g>
  <g id="axes_2">
   <g id="matplotlib.axis_3">
    <g id="ytick_8">
     <g id="line2d_25">
      <defs>
       <path d="M 0 0 
L 6 0 
" id="m80d5e07ada" style="stroke:#262626;stroke-width:1.25;"/>
      </defs>
      <g>
       <use style="fill:#262626;stroke:#262626;stroke-width:1.25;" x="648" xlink:href="#m80d5e07ada" y="311.590588"/>
      </g>
     </g>
     <g id="text_8">
      <!-- 0 -->
      <g style="fill:#1f77b4;" transform="translate(657.5 314.740026)scale(0.088 -0.088)">
       <use xlink:href="#ArialMT-48"/>
      </g>
     </g>
    </g>
    <g id="ytick_9">
     <g id="line2d_26">
      <g>
       <use style="fill:#262626;stroke:#262626;stroke-width:1.25;" x="648" xlink:href="#m80d5e07ada" y="261.368471"/>
      </g>
     </g>
     <g id="text_9">
      <!-- 200 -->
      <g style="fill:#1f77b4;" transform="translate(657.5 264.517908)scale(0.088 -0.088)">
       <use xlink:href="#ArialMT-50"/>
       <use x="55.615234" xlink:href="#ArialMT-48"/>
       <use x="111.230469" xlink:href="#ArialMT-48"/>
      </g>
     </g>
    </g>
    <g id="ytick_10">
     <g id="line2d_27">
      <g>
       <use style="fill:#262626;stroke:#262626;stroke-width:1.25;" x="648" xlink:href="#m80d5e07ada" y="211.146353"/>
      </g>
     </g>
     <g id="text_10">
      <!-- 400 -->
      <g style="fill:#1f77b4;" transform="translate(657.5 214.29579)scale(0.088 -0.088)">
       <use xlink:href="#ArialMT-52"/>
       <use x="55.615234" xlink:href="#ArialMT-48"/>
       <use x="111.230469" xlink:href="#ArialMT-48"/>
      </g>
     </g>
    </g>
    <g id="ytick_11">
     <g id="line2d_28">
      <g>
       <use style="fill:#262626;stroke:#262626;stroke-width:1.25;" x="648" xlink:href="#m80d5e07ada" y="160.924235"/>
      </g>
     </g>
     <g id="text_11">
      <!-- 600 -->
      <g style="fill:#1f77b4;" transform="translate(657.5 164.073673)scale(0.088 -0.088)">
       <use xlink:href="#ArialMT-54"/>
       <use x="55.615234" xlink:href="#ArialMT-48"/>
       <use x="111.230469" xlink:href="#ArialMT-48"/>
      </g>
     </g>
    </g>
    <g id="ytick_12">
     <g id="line2d_29">
      <g>
       <use style="fill:#262626;stroke:#262626;stroke-width:1.25;" x="648" xlink:href="#m80d5e07ada" y="110.702118"/>
      </g>
     </g>
     <g id="text_12">
      <!-- 800 -->
      <defs>
       <path d="M 17.671875 38.8125 
Q 12.203125 40.828125 9.5625 44.53125 
Q 6.9375 48.25 6.9375 53.421875 
Q 6.9375 61.234375 12.546875 66.546875 
Q 18.171875 71.875 27.484375 71.875 
Q 36.859375 71.875 42.578125 66.421875 
Q 48.296875 60.984375 48.296875 53.171875 
Q 48.296875 48.1875 45.671875 44.5 
Q 43.0625 40.828125 37.75 38.8125 
Q 44.34375 36.671875 47.78125 31.875 
Q 51.21875 27.09375 51.21875 20.453125 
Q 51.21875 11.28125 44.71875 5.03125 
Q 38.234375 -1.21875 27.640625 -1.21875 
Q 17.046875 -1.21875 10.546875 5.046875 
Q 4.046875 11.328125 4.046875 20.703125 
Q 4.046875 27.6875 7.59375 32.390625 
Q 11.140625 37.109375 17.671875 38.8125 
z
M 15.921875 53.71875 
Q 15.921875 48.640625 19.1875 45.40625 
Q 22.46875 42.1875 27.6875 42.1875 
Q 32.765625 42.1875 36.015625 45.375 
Q 39.265625 48.578125 39.265625 53.21875 
Q 39.265625 58.0625 35.90625 61.359375 
Q 32.5625 64.65625 27.59375 64.65625 
Q 22.5625 64.65625 19.234375 61.421875 
Q 15.921875 58.203125 15.921875 53.71875 
z
M 13.09375 20.65625 
Q 13.09375 16.890625 14.875 13.375 
Q 16.65625 9.859375 20.171875 7.921875 
Q 23.6875 6 27.734375 6 
Q 34.03125 6 38.125 10.046875 
Q 42.234375 14.109375 42.234375 20.359375 
Q 42.234375 26.703125 38.015625 30.859375 
Q 33.796875 35.015625 27.4375 35.015625 
Q 21.234375 35.015625 17.15625 30.90625 
Q 13.09375 26.8125 13.09375 20.65625 
z
" id="ArialMT-56"/>
      </defs>
      <g style="fill:#1f77b4;" transform="translate(657.5 113.851555)scale(0.088 -0.088)">
       <use xlink:href="#ArialMT-56"/>
       <use x="55.615234" xlink:href="#ArialMT-48"/>
       <use x="111.230469" xlink:href="#ArialMT-48"/>
      </g>
     </g>
    </g>
    <g id="ytick_13">
     <g id="line2d_30">
      <g>
       <use style="fill:#262626;stroke:#262626;stroke-width:1.25;" x="648" xlink:href="#m80d5e07ada" y="60.48"/>
      </g>
     </g>
     <g id="text_13">
      <!-- 1000 -->
      <g style="fill:#1f77b4;" transform="translate(657.5 63.629437)scale(0.088 -0.088)">
       <use xlink:href="#ArialMT-49"/>
       <use x="55.615234" xlink:href="#ArialMT-48"/>
       <use x="111.230469" xlink:href="#ArialMT-48"/>
       <use x="166.845703" xlink:href="#ArialMT-48"/>
      </g>
     </g>
    </g>
   </g>
   <g id="line2d_31">
    <path clip-path="url(#p9582b8182f)" d="M 90 311.339478 
L 91.685801 306.568376 
L 93.371601 304.559492 
L 95.057402 302.048386 
L 96.743202 300.541722 
L 98.429003 296.775064 
L 100.114804 289.995078 
L 101.800604 273.170668 
L 103.486405 254.337374 
L 105.172205 241.781845 
L 106.858006 232.239642 
L 108.543807 227.970762 
L 110.229607 224.455214 
L 111.915408 222.446329 
L 113.601208 221.441887 
L 115.287009 217.675228 
L 116.97281 213.406348 
L 118.65861 207.128584 
L 120.344411 205.119699 
L 122.030211 200.348598 
L 123.716012 199.846376 
L 125.401813 198.841934 
L 128.773414 194.321944 
L 132.145015 191.308616 
L 133.830816 190.304174 
L 135.516616 188.044179 
L 138.888218 180.259751 
L 140.574018 175.990871 
L 142.259819 172.977544 
L 143.945619 170.717548 
L 145.63142 167.453111 
L 149.003021 165.444226 
L 150.688822 163.686452 
L 152.374622 162.682009 
L 154.060423 161.928678 
L 157.432024 159.919793 
L 159.117825 159.166461 
L 160.803625 158.66424 
L 162.489426 158.413129 
L 164.175227 158.66424 
L 165.861027 157.659798 
L 167.546828 156.906466 
L 172.60423 156.906466 
L 174.29003 155.902024 
L 175.975831 156.153134 
L 177.661631 155.650913 
L 179.347432 155.399802 
L 181.033233 155.399802 
L 182.719033 155.148692 
L 184.404834 154.646471 
L 186.090634 153.893139 
L 187.776435 152.888696 
L 189.462236 151.382033 
L 194.519637 149.875369 
L 196.205438 148.368706 
L 201.26284 148.368706 
L 202.94864 147.364264 
L 204.634441 146.610932 
L 206.320242 146.610932 
L 208.006042 146.359821 
L 209.691843 146.359821 
L 211.377644 146.108711 
L 213.063444 146.610932 
L 214.749245 144.853158 
L 216.435045 145.104268 
L 218.120846 144.602047 
L 219.806647 144.853158 
L 221.492447 144.099826 
L 224.864048 144.099826 
L 226.549849 144.350936 
L 228.23565 143.848715 
L 229.92145 144.350936 
L 231.607251 143.848715 
L 233.293051 143.095384 
L 234.978852 142.593162 
L 236.664653 142.844273 
L 238.350453 142.593162 
L 240.036254 141.839831 
L 241.722054 142.844273 
L 243.407855 142.593162 
L 245.093656 142.844273 
L 246.779456 142.342052 
L 248.465257 142.593162 
L 250.151057 142.090941 
L 251.836858 143.597605 
L 253.522659 143.597605 
L 255.208459 143.346494 
L 256.89426 142.593162 
L 261.951662 142.593162 
L 263.637462 142.342052 
L 265.323263 140.835388 
L 267.009063 141.337609 
L 268.694864 141.58872 
L 270.380665 141.086499 
L 272.066465 141.086499 
L 273.752266 141.839831 
L 275.438066 141.839831 
L 280.495468 142.593162 
L 282.181269 143.095384 
L 283.867069 142.593162 
L 285.55287 141.839831 
L 287.238671 141.839831 
L 288.924471 141.337609 
L 290.610272 141.086499 
L 292.296073 141.337609 
L 295.667674 140.333167 
L 297.353474 140.584278 
L 300.725076 140.082056 
L 302.410876 140.082056 
L 304.096677 139.328725 
L 305.782477 140.082056 
L 307.468278 140.333167 
L 310.839879 140.333167 
L 312.52568 139.830946 
L 314.21148 139.830946 
L 315.897281 140.082056 
L 317.583082 139.830946 
L 319.268882 140.082056 
L 320.954683 140.082056 
L 322.640483 139.328725 
L 324.326284 139.579835 
L 327.697885 139.579835 
L 329.383686 138.826504 
L 332.755287 139.328725 
L 334.441088 138.826504 
L 336.126888 138.826504 
L 337.812689 138.575393 
L 339.498489 138.575393 
L 341.18429 138.826504 
L 342.870091 138.324282 
L 344.555891 138.073172 
L 346.241692 138.324282 
L 347.927492 138.073172 
L 349.613293 138.073172 
L 351.299094 138.324282 
L 352.984894 137.570951 
L 354.670695 137.822061 
L 356.356495 137.822061 
L 359.728097 137.31984 
L 361.413897 136.566508 
L 364.785498 137.068729 
L 366.471299 137.570951 
L 368.1571 137.570951 
L 369.8429 138.324282 
L 371.528701 138.575393 
L 374.900302 138.575393 
L 376.586103 139.077614 
L 378.271903 138.826504 
L 379.957704 138.324282 
L 385.015106 138.324282 
L 386.700906 138.073172 
L 388.386707 138.826504 
L 390.072508 139.077614 
L 391.758308 139.579835 
L 393.444109 139.579835 
L 395.129909 140.082056 
L 396.81571 139.830946 
L 398.501511 139.830946 
L 400.187311 140.082056 
L 401.873112 139.830946 
L 405.244713 140.333167 
L 406.930514 139.328725 
L 410.302115 138.826504 
L 411.987915 139.077614 
L 413.673716 139.077614 
L 415.359517 139.579835 
L 417.045317 139.328725 
L 418.731118 139.830946 
L 422.102719 139.830946 
L 423.78852 140.082056 
L 425.47432 139.830946 
L 427.160121 139.830946 
L 428.845921 139.328725 
L 433.903323 139.328725 
L 435.589124 140.082056 
L 438.960725 140.082056 
L 440.646526 140.333167 
L 442.332326 140.082056 
L 445.703927 140.082056 
L 449.075529 140.584278 
L 452.44713 140.082056 
L 454.132931 140.584278 
L 455.818731 140.584278 
L 457.504532 140.835388 
L 459.190332 140.333167 
L 462.561934 140.333167 
L 464.247734 140.082056 
L 465.933535 140.082056 
L 467.619335 140.584278 
L 469.305136 139.830946 
L 481.10574 139.830946 
L 482.791541 140.082056 
L 484.477341 140.082056 
L 486.163142 140.333167 
L 487.848943 140.333167 
L 492.906344 139.579835 
L 497.963746 139.579835 
L 499.649547 139.328725 
L 501.335347 139.328725 
L 503.021148 139.077614 
L 504.706949 139.328725 
L 506.392749 139.077614 
L 508.07855 139.077614 
L 509.76435 138.575393 
L 511.450151 138.575393 
L 513.135952 138.073172 
L 514.821752 137.822061 
L 516.507553 138.073172 
L 518.193353 138.073172 
L 519.879154 137.570951 
L 521.564955 137.570951 
L 524.936556 137.068729 
L 526.622356 137.31984 
L 528.308157 137.31984 
L 529.993958 137.570951 
L 531.679758 137.068729 
L 533.365559 137.31984 
L 535.05136 137.31984 
L 536.73716 137.068729 
L 543.480363 137.068729 
L 545.166163 137.31984 
L 546.851964 136.566508 
L 548.537764 137.068729 
L 550.223565 136.566508 
L 551.909366 136.566508 
L 553.595166 137.31984 
L 555.280967 137.068729 
L 558.652568 137.570951 
L 560.338369 137.068729 
L 562.024169 137.31984 
L 568.767372 137.31984 
L 570.453172 137.570951 
L 572.138973 137.31984 
L 573.824773 137.31984 
L 575.510574 137.068729 
L 583.939577 137.068729 
L 585.625378 137.31984 
L 588.996979 137.31984 
L 590.682779 137.570951 
L 592.36858 137.570951 
L 594.054381 137.31984 
L 595.740181 137.822061 
L 597.425982 137.570951 
L 599.111782 137.570951 
L 600.797583 138.073172 
L 602.483384 138.324282 
L 604.169184 138.324282 
L 605.854985 138.073172 
L 609.226586 138.073172 
L 610.912387 137.570951 
L 614.283988 137.570951 
L 615.969789 137.822061 
L 621.02719 137.822061 
L 622.712991 138.073172 
L 624.398792 138.073172 
L 626.084592 137.822061 
L 627.770393 138.073172 
L 629.456193 137.570951 
L 629.456193 137.570951 
" style="fill:none;stroke:#1f77b4;stroke-linecap:round;stroke-width:1.5;"/>
   </g>
   <g id="line2d_32">
    <path clip-path="url(#p9582b8182f)" d="M 90 282.712871 
L 91.685801 276.937327 
L 93.371601 287.232861 
L 95.057402 292.506184 
L 96.743202 295.770621 
L 98.429003 292.757294 
L 100.114804 282.46176 
L 101.800604 278.443991 
L 103.486405 274.928442 
L 105.172205 266.892904 
L 108.543807 243.288508 
L 110.229607 233.495195 
L 111.915408 211.146353 
L 113.601208 191.308616 
L 115.287009 178.250866 
L 116.97281 178.753087 
L 118.65861 189.550842 
L 120.344411 191.810838 
L 122.030211 183.775299 
L 125.401813 173.228654 
L 127.087613 172.475322 
L 128.773414 170.466438 
L 130.459215 171.721991 
L 132.145015 180.259751 
L 133.830816 187.541958 
L 137.202417 195.828607 
L 138.888218 200.850819 
L 140.574018 204.366367 
L 142.259819 206.877473 
L 143.945619 207.128584 
L 145.63142 203.110814 
L 147.317221 197.586381 
L 149.003021 195.075275 
L 150.688822 193.819722 
L 152.374622 190.053064 
L 154.060423 188.044179 
L 155.746224 186.537515 
L 157.432024 184.026409 
L 159.117825 182.519746 
L 160.803625 180.761972 
L 162.489426 179.255308 
L 164.175227 176.493092 
L 165.861027 173.228654 
L 167.546828 170.717548 
L 169.232628 168.457553 
L 170.918429 165.444226 
L 172.60423 162.93312 
L 175.975831 158.413129 
L 177.661631 155.902024 
L 179.347432 154.39536 
L 181.033233 152.135365 
L 182.719033 150.12648 
L 184.404834 148.870927 
L 186.090634 147.866485 
L 189.462236 145.355379 
L 191.148036 144.853158 
L 192.833837 143.848715 
L 194.519637 141.839831 
L 197.891239 140.835388 
L 199.577039 139.328725 
L 201.26284 138.324282 
L 202.94864 137.068729 
L 204.634441 135.562066 
L 206.320242 135.059845 
L 208.006042 135.059845 
L 209.691843 134.306513 
L 211.377644 134.306513 
L 213.063444 133.804292 
L 214.749245 132.046518 
L 216.435045 132.297628 
L 218.120846 131.795407 
L 219.806647 132.046518 
L 221.492447 131.544296 
L 223.178248 131.544296 
L 224.864048 131.042075 
L 226.549849 130.037633 
L 228.23565 129.535412 
L 229.92145 127.777638 
L 231.607251 127.024306 
L 234.978852 126.019864 
L 236.664653 125.768753 
L 238.350453 125.266532 
L 240.036254 125.015421 
L 241.722054 123.759868 
L 243.407855 123.006536 
L 245.093656 122.755426 
L 246.779456 121.750984 
L 248.465257 121.499873 
L 250.151057 120.746541 
L 251.836858 119.490988 
L 253.522659 118.988767 
L 256.89426 116.979882 
L 258.58006 116.728772 
L 260.265861 115.473219 
L 261.951662 114.468776 
L 263.637462 113.966555 
L 265.323263 112.711002 
L 267.009063 111.957671 
L 268.694864 110.199896 
L 270.380665 109.195454 
L 272.066465 107.939901 
L 273.752266 106.182127 
L 275.438066 105.679906 
L 277.123867 104.173242 
L 278.809668 103.671021 
L 280.495468 102.415468 
L 282.181269 101.662136 
L 283.867069 101.411026 
L 287.238671 99.904362 
L 288.924471 99.653252 
L 292.296073 99.653252 
L 293.981873 99.151031 
L 295.667674 98.89992 
L 299.039275 98.89992 
L 300.725076 98.648809 
L 302.410876 98.146588 
L 304.096677 98.146588 
L 305.782477 97.895478 
L 307.468278 97.393256 
L 309.154079 96.639925 
L 310.839879 96.639925 
L 312.52568 96.137704 
L 314.21148 95.133261 
L 315.897281 94.882151 
L 317.583082 94.379929 
L 319.268882 93.626598 
L 320.954683 93.375487 
L 322.640483 92.371045 
L 324.326284 90.111049 
L 326.012085 89.859939 
L 327.697885 89.106607 
L 329.383686 88.855496 
L 331.069486 87.348833 
L 332.755287 87.097722 
L 337.812689 84.837727 
L 339.498489 83.079953 
L 341.18429 82.326621 
L 342.870091 81.8244 
L 344.555891 81.071068 
L 346.241692 81.071068 
L 349.613293 79.062184 
L 351.299094 78.308852 
L 352.984894 77.806631 
L 354.670695 76.299967 
L 356.356495 75.797746 
L 358.042296 74.542193 
L 361.413897 73.035529 
L 363.099698 72.533308 
L 364.785498 71.528866 
L 368.1571 71.026645 
L 369.8429 70.273313 
L 371.528701 69.771092 
L 374.900302 69.771092 
L 376.586103 68.264428 
L 378.271903 68.264428 
L 379.957704 68.013318 
L 381.643505 67.008875 
L 383.329305 66.757765 
L 386.700906 66.757765 
L 388.386707 67.008875 
L 390.072508 67.008875 
L 391.758308 66.506654 
L 395.129909 66.004433 
L 396.81571 66.506654 
L 398.501511 66.255544 
L 400.187311 67.008875 
L 401.873112 66.757765 
L 405.244713 66.757765 
L 406.930514 66.506654 
L 408.616314 66.757765 
L 410.302115 66.506654 
L 411.987915 66.757765 
L 413.673716 66.757765 
L 415.359517 67.008875 
L 417.045317 67.008875 
L 418.731118 66.757765 
L 420.416918 67.008875 
L 422.102719 67.008875 
L 423.78852 66.757765 
L 428.845921 67.511096 
L 430.531722 67.511096 
L 432.217523 67.259986 
L 433.903323 67.762207 
L 442.332326 67.762207 
L 444.018127 68.013318 
L 445.703927 68.013318 
L 447.389728 68.264428 
L 452.44713 68.264428 
L 454.132931 68.515539 
L 470.990937 68.515539 
L 472.676737 68.766649 
L 474.362538 68.766649 
L 476.048338 69.01776 
L 491.220544 69.01776 
L 492.906344 68.766649 
L 494.592145 68.766649 
L 496.277946 68.515539 
L 503.021148 68.515539 
L 504.706949 68.766649 
L 518.193353 68.766649 
L 519.879154 69.01776 
L 533.365559 69.01776 
L 535.05136 69.268871 
L 595.740181 69.268871 
L 597.425982 69.519981 
L 610.912387 69.519981 
L 612.598187 69.771092 
L 622.712991 69.771092 
L 624.398792 70.022202 
L 626.084592 70.022202 
L 627.770393 70.273313 
L 629.456193 70.273313 
L 629.456193 70.273313 
" style="fill:none;stroke:#7f7f7f;stroke-linecap:round;stroke-width:1.5;"/>
   </g>
   <g id="line2d_33">
    <path clip-path="url(#p9582b8182f)" d="M 90 311.339478 
L 91.685801 307.070598 
L 93.371601 305.563934 
L 95.057402 304.559492 
L 96.743202 300.792833 
L 98.429003 298.281727 
L 100.114804 289.492856 
L 101.800604 278.443991 
L 105.172205 245.297393 
L 106.858006 235.252969 
L 108.543807 229.477426 
L 111.915408 222.446329 
L 113.601208 217.173007 
L 115.287009 211.397464 
L 116.97281 202.859704 
L 118.65861 191.057506 
L 120.344411 184.27752 
L 122.030211 180.259751 
L 123.716012 177.497534 
L 127.087613 168.959774 
L 128.773414 167.453111 
L 130.459215 163.184231 
L 132.145015 159.668682 
L 133.830816 155.399802 
L 135.516616 148.368706 
L 137.202417 139.830946 
L 138.888218 130.539854 
L 140.574018 122.504315 
L 143.945619 114.970998 
L 145.63142 113.715445 
L 147.317221 111.957671 
L 149.003021 109.948786 
L 150.688822 109.948786 
L 152.374622 108.944344 
L 154.060423 108.191012 
L 155.746224 107.688791 
L 157.432024 107.688791 
L 159.117825 106.684348 
L 162.489426 107.186569 
L 164.175227 106.935459 
L 165.861027 108.191012 
L 167.546828 108.442122 
L 169.232628 108.442122 
L 170.918429 106.935459 
L 172.60423 106.935459 
L 174.29003 107.186569 
L 175.975831 107.688791 
L 177.661631 107.43768 
L 179.347432 107.939901 
L 182.719033 108.442122 
L 184.404834 109.446565 
L 186.090634 109.697675 
L 187.776435 109.195454 
L 189.462236 109.697675 
L 191.148036 109.948786 
L 192.833837 108.944344 
L 194.519637 109.195454 
L 196.205438 109.948786 
L 197.891239 109.948786 
L 199.577039 110.953228 
L 201.26284 111.204339 
L 202.94864 111.204339 
L 204.634441 111.455449 
L 206.320242 111.455449 
L 208.006042 112.208781 
L 209.691843 112.459892 
L 211.377644 112.208781 
L 213.063444 112.459892 
L 214.749245 113.213224 
L 216.435045 112.962113 
L 218.120846 112.962113 
L 221.492447 113.464334 
L 223.178248 114.468776 
L 224.864048 114.217666 
L 226.549849 113.464334 
L 228.23565 114.217666 
L 229.92145 114.217666 
L 231.607251 114.719887 
L 233.293051 114.719887 
L 238.350453 115.473219 
L 240.036254 115.222108 
L 241.722054 116.477661 
L 243.407855 116.728772 
L 245.093656 117.733214 
L 250.151057 119.993209 
L 251.836858 120.24432 
L 253.522659 120.746541 
L 255.208459 120.746541 
L 256.89426 120.997652 
L 258.58006 121.499873 
L 260.265861 122.504315 
L 261.951662 123.006536 
L 263.637462 122.504315 
L 265.323263 123.257647 
L 268.694864 123.257647 
L 270.380665 124.010979 
L 277.123867 125.015421 
L 278.809668 125.517642 
L 280.495468 125.768753 
L 282.181269 125.768753 
L 283.867069 125.517642 
L 285.55287 125.517642 
L 287.238671 125.768753 
L 288.924471 125.768753 
L 290.610272 126.270974 
L 293.981873 126.270974 
L 295.667674 126.522085 
L 297.353474 126.522085 
L 302.410876 127.275416 
L 304.096677 127.024306 
L 305.782477 127.526527 
L 309.154079 127.024306 
L 310.839879 127.024306 
L 312.52568 127.526527 
L 314.21148 127.526527 
L 319.268882 129.033191 
L 320.954683 129.284301 
L 322.640483 129.033191 
L 324.326284 129.033191 
L 326.012085 129.284301 
L 327.697885 129.033191 
L 331.069486 129.535412 
L 332.755287 129.535412 
L 334.441088 130.037633 
L 336.126888 130.288744 
L 337.812689 130.288744 
L 339.498489 130.790965 
L 341.18429 131.042075 
L 342.870091 130.790965 
L 344.555891 131.042075 
L 346.241692 130.790965 
L 347.927492 131.042075 
L 349.613293 131.042075 
L 351.299094 131.293186 
L 352.984894 131.795407 
L 354.670695 132.046518 
L 356.356495 132.046518 
L 358.042296 132.297628 
L 359.728097 133.05096 
L 361.413897 133.05096 
L 363.099698 132.799849 
L 364.785498 133.302071 
L 368.1571 133.302071 
L 369.8429 133.804292 
L 371.528701 133.804292 
L 373.214502 133.302071 
L 374.900302 133.804292 
L 376.586103 133.804292 
L 378.271903 134.055402 
L 379.957704 133.553181 
L 386.700906 134.557624 
L 388.386707 134.557624 
L 390.072508 135.059845 
L 391.758308 135.059845 
L 393.444109 135.562066 
L 395.129909 135.310955 
L 398.501511 135.813176 
L 401.873112 136.817619 
L 405.244713 137.31984 
L 408.616314 137.31984 
L 410.302115 137.570951 
L 417.045317 137.570951 
L 418.731118 137.31984 
L 420.416918 138.324282 
L 422.102719 137.570951 
L 423.78852 137.822061 
L 428.845921 137.822061 
L 433.903323 138.575393 
L 435.589124 139.328725 
L 437.274924 139.830946 
L 442.332326 139.830946 
L 444.018127 140.082056 
L 445.703927 140.584278 
L 447.389728 140.584278 
L 449.075529 140.333167 
L 454.132931 140.333167 
L 455.818731 140.082056 
L 457.504532 140.333167 
L 459.190332 140.082056 
L 462.561934 140.584278 
L 464.247734 140.333167 
L 465.933535 140.333167 
L 467.619335 139.830946 
L 469.305136 140.333167 
L 470.990937 140.082056 
L 474.362538 140.082056 
L 476.048338 140.333167 
L 477.734139 139.328725 
L 479.41994 139.830946 
L 481.10574 138.826504 
L 482.791541 139.328725 
L 484.477341 139.579835 
L 486.163142 139.077614 
L 487.848943 138.073172 
L 489.534743 138.575393 
L 497.963746 138.575393 
L 499.649547 138.826504 
L 503.021148 138.826504 
L 504.706949 138.324282 
L 508.07855 138.826504 
L 509.76435 138.073172 
L 511.450151 138.073172 
L 513.135952 137.31984 
L 514.821752 137.31984 
L 516.507553 136.064287 
L 518.193353 136.817619 
L 519.879154 136.064287 
L 521.564955 136.566508 
L 523.250755 136.064287 
L 524.936556 136.566508 
L 526.622356 136.315398 
L 528.308157 135.813176 
L 529.993958 136.566508 
L 531.679758 136.817619 
L 533.365559 137.570951 
L 535.05136 137.570951 
L 536.73716 137.31984 
L 540.108761 137.822061 
L 543.480363 137.822061 
L 545.166163 137.068729 
L 546.851964 137.31984 
L 548.537764 137.822061 
L 550.223565 137.822061 
L 551.909366 138.073172 
L 553.595166 137.570951 
L 555.280967 138.324282 
L 556.966767 138.073172 
L 558.652568 137.31984 
L 560.338369 137.822061 
L 562.024169 137.31984 
L 563.70997 137.31984 
L 565.39577 137.570951 
L 567.081571 137.31984 
L 570.453172 137.31984 
L 572.138973 137.570951 
L 573.824773 137.31984 
L 577.196375 137.31984 
L 578.882175 137.068729 
L 580.567976 137.068729 
L 582.253776 136.817619 
L 585.625378 136.817619 
L 587.311178 137.068729 
L 592.36858 137.068729 
L 594.054381 136.817619 
L 597.425982 136.817619 
L 599.111782 136.566508 
L 600.797583 136.817619 
L 602.483384 136.817619 
L 605.854985 137.31984 
L 607.540785 137.31984 
L 609.226586 137.570951 
L 612.598187 137.570951 
L 614.283988 137.822061 
L 615.969789 137.822061 
L 617.655589 137.570951 
L 621.02719 137.570951 
L 622.712991 137.31984 
L 624.398792 137.31984 
L 627.770393 136.817619 
L 629.456193 136.064287 
L 629.456193 136.064287 
" style="fill:none;stroke:#2ca02c;stroke-linecap:round;stroke-width:1.5;"/>
   </g>
   <g id="patch_7">
    <path d="M 90 311.590588 
L 90 60.48 
" style="fill:none;stroke:#cccccc;stroke-linecap:square;stroke-linejoin:miter;stroke-width:1.25;"/>
   </g>
   <g id="patch_8">
    <path d="M 648 311.590588 
L 648 60.48 
" style="fill:none;stroke:#cccccc;stroke-linecap:square;stroke-linejoin:miter;stroke-width:1.25;"/>
   </g>
   <g id="patch_9">
    <path d="M 90 311.590588 
L 648 311.590588 
" style="fill:none;stroke:#cccccc;stroke-linecap:square;stroke-linejoin:miter;stroke-width:1.25;"/>
   </g>
   <g id="patch_10">
    <path d="M 90 60.48 
L 648 60.48 
" style="fill:none;stroke:#cccccc;stroke-linecap:square;stroke-linejoin:miter;stroke-width:1.25;"/>
   </g>
  </g>
  <g id="axes_3">
   <g id="patch_11">
    <path d="M 90 448.56 
L 648 448.56 
L 648 334.418824 
L 90 334.418824 
z
" style="fill:#ffffff;"/>
   </g>
   <g id="matplotlib.axis_4">
    <g id="xtick_8">
     <g id="line2d_34">
      <path clip-path="url(#p5f630898f6)" d="M 90 448.56 
L 90 334.418824 
" style="fill:none;stroke:#cccccc;stroke-linecap:round;"/>
     </g>
     <g id="text_14">
      <!-- 0 -->
      <g style="fill:#2ca02c;" transform="translate(87.553188 464.358875)scale(0.088 -0.088)">
       <use xlink:href="#ArialMT-48"/>
      </g>
     </g>
    </g>
    <g id="xtick_9">
     <g id="line2d_35">
      <path clip-path="url(#p5f630898f6)" d="M 174.29003 448.56 
L 174.29003 334.418824 
" style="fill:none;stroke:#cccccc;stroke-linecap:round;"/>
     </g>
     <g id="text_15">
      <!-- 2500 -->
      <g style="fill:#2ca02c;" transform="translate(164.50278 464.358875)scale(0.088 -0.088)">
       <use xlink:href="#ArialMT-50"/>
       <use x="55.615234" xlink:href="#ArialMT-53"/>
       <use x="111.230469" xlink:href="#ArialMT-48"/>
       <use x="166.845703" xlink:href="#ArialMT-48"/>
      </g>
     </g>
    </g>
    <g id="xtick_10">
     <g id="line2d_36">
      <path clip-path="url(#p5f630898f6)" d="M 258.58006 448.56 
L 258.58006 334.418824 
" style="fill:none;stroke:#cccccc;stroke-linecap:round;"/>
     </g>
     <g id="text_16">
      <!-- 5000 -->
      <g style="fill:#2ca02c;" transform="translate(248.79281 464.358875)scale(0.088 -0.088)">
       <use xlink:href="#ArialMT-53"/>
       <use x="55.615234" xlink:href="#ArialMT-48"/>
       <use x="111.230469" xlink:href="#ArialMT-48"/>
       <use x="166.845703" xlink:href="#ArialMT-48"/>
      </g>
     </g>
    </g>
    <g id="xtick_11">
     <g id="line2d_37">
      <path clip-path="url(#p5f630898f6)" d="M 342.870091 448.56 
L 342.870091 334.418824 
" style="fill:none;stroke:#cccccc;stroke-linecap:round;"/>
     </g>
     <g id="text_17">
      <!-- 7500 -->
      <defs>
       <path d="M 4.734375 62.203125 
L 4.734375 70.65625 
L 51.078125 70.65625 
L 51.078125 63.8125 
Q 44.234375 56.546875 37.515625 44.484375 
Q 30.8125 32.421875 27.15625 19.671875 
Q 24.515625 10.6875 23.78125 0 
L 14.75 0 
Q 14.890625 8.453125 18.0625 20.40625 
Q 21.234375 32.375 27.171875 43.484375 
Q 33.109375 54.59375 39.796875 62.203125 
z
" id="ArialMT-55"/>
      </defs>
      <g style="fill:#2ca02c;" transform="translate(333.082841 464.358875)scale(0.088 -0.088)">
       <use xlink:href="#ArialMT-55"/>
       <use x="55.615234" xlink:href="#ArialMT-53"/>
       <use x="111.230469" xlink:href="#ArialMT-48"/>
       <use x="166.845703" xlink:href="#ArialMT-48"/>
      </g>
     </g>
    </g>
    <g id="xtick_12">
     <g id="line2d_38">
      <path clip-path="url(#p5f630898f6)" d="M 427.160121 448.56 
L 427.160121 334.418824 
" style="fill:none;stroke:#cccccc;stroke-linecap:round;"/>
     </g>
     <g id="text_18">
      <!-- 10000 -->
      <g style="fill:#2ca02c;" transform="translate(414.926058 464.358875)scale(0.088 -0.088)">
       <use xlink:href="#ArialMT-49"/>
       <use x="55.615234" xlink:href="#ArialMT-48"/>
       <use x="111.230469" xlink:href="#ArialMT-48"/>
       <use x="166.845703" xlink:href="#ArialMT-48"/>
       <use x="222.460938" xlink:href="#ArialMT-48"/>
      </g>
     </g>
    </g>
    <g id="xtick_13">
     <g id="line2d_39">
      <path clip-path="url(#p5f630898f6)" d="M 511.450151 448.56 
L 511.450151 334.418824 
" style="fill:none;stroke:#cccccc;stroke-linecap:round;"/>
     </g>
     <g id="text_19">
      <!-- 12500 -->
      <g style="fill:#2ca02c;" transform="translate(499.216089 464.358875)scale(0.088 -0.088)">
       <use xlink:href="#ArialMT-49"/>
       <use x="55.615234" xlink:href="#ArialMT-50"/>
       <use x="111.230469" xlink:href="#ArialMT-53"/>
       <use x="166.845703" xlink:href="#ArialMT-48"/>
       <use x="222.460938" xlink:href="#ArialMT-48"/>
      </g>
     </g>
    </g>
    <g id="xtick_14">
     <g id="line2d_40">
      <path clip-path="url(#p5f630898f6)" d="M 595.740181 448.56 
L 595.740181 334.418824 
" style="fill:none;stroke:#cccccc;stroke-linecap:round;"/>
     </g>
     <g id="text_20">
      <!-- 15000 -->
      <g style="fill:#2ca02c;" transform="translate(583.506119 464.358875)scale(0.088 -0.088)">
       <use xlink:href="#ArialMT-49"/>
       <use x="55.615234" xlink:href="#ArialMT-53"/>
       <use x="111.230469" xlink:href="#ArialMT-48"/>
       <use x="166.845703" xlink:href="#ArialMT-48"/>
       <use x="222.460938" xlink:href="#ArialMT-48"/>
      </g>
     </g>
    </g>
   </g>
   <g id="matplotlib.axis_5">
    <g id="ytick_14">
     <g id="line2d_41">
      <path clip-path="url(#p5f630898f6)" d="M 90 448.56 
L 648 448.56 
" style="fill:none;stroke:#cccccc;stroke-linecap:round;"/>
     </g>
     <g id="text_21">
      <!-- 0 -->
      <g style="fill:#2ca02c;" transform="translate(75.606375 451.709438)scale(0.088 -0.088)">
       <use xlink:href="#ArialMT-48"/>
      </g>
     </g>
    </g>
    <g id="ytick_15">
     <g id="line2d_42">
      <path clip-path="url(#p5f630898f6)" d="M 90 425.731765 
L 648 425.731765 
" style="fill:none;stroke:#cccccc;stroke-linecap:round;"/>
     </g>
     <g id="text_22">
      <!-- 20 -->
      <g style="fill:#2ca02c;" transform="translate(70.71275 428.881202)scale(0.088 -0.088)">
       <use xlink:href="#ArialMT-50"/>
       <use x="55.615234" xlink:href="#ArialMT-48"/>
      </g>
     </g>
    </g>
    <g id="ytick_16">
     <g id="line2d_43">
      <path clip-path="url(#p5f630898f6)" d="M 90 402.903529 
L 648 402.903529 
" style="fill:none;stroke:#cccccc;stroke-linecap:round;"/>
     </g>
     <g id="text_23">
      <!-- 40 -->
      <g style="fill:#2ca02c;" transform="translate(70.71275 406.052967)scale(0.088 -0.088)">
       <use xlink:href="#ArialMT-52"/>
       <use x="55.615234" xlink:href="#ArialMT-48"/>
      </g>
     </g>
    </g>
    <g id="ytick_17">
     <g id="line2d_44">
      <path clip-path="url(#p5f630898f6)" d="M 90 380.075294 
L 648 380.075294 
" style="fill:none;stroke:#cccccc;stroke-linecap:round;"/>
     </g>
     <g id="text_24">
      <!-- 60 -->
      <g style="fill:#2ca02c;" transform="translate(70.71275 383.224732)scale(0.088 -0.088)">
       <use xlink:href="#ArialMT-54"/>
       <use x="55.615234" xlink:href="#ArialMT-48"/>
      </g>
     </g>
    </g>
    <g id="ytick_18">
     <g id="line2d_45">
      <path clip-path="url(#p5f630898f6)" d="M 90 357.247059 
L 648 357.247059 
" style="fill:none;stroke:#cccccc;stroke-linecap:round;"/>
     </g>
     <g id="text_25">
      <!-- 80 -->
      <g style="fill:#2ca02c;" transform="translate(70.71275 360.396496)scale(0.088 -0.088)">
       <use xlink:href="#ArialMT-56"/>
       <use x="55.615234" xlink:href="#ArialMT-48"/>
      </g>
     </g>
    </g>
    <g id="ytick_19">
     <g id="line2d_46">
      <path clip-path="url(#p5f630898f6)" d="M 90 334.418824 
L 648 334.418824 
" style="fill:none;stroke:#cccccc;stroke-linecap:round;"/>
     </g>
     <g id="text_26">
      <!-- 100 -->
      <g style="fill:#2ca02c;" transform="translate(65.819125 337.568261)scale(0.088 -0.088)">
       <use xlink:href="#ArialMT-49"/>
       <use x="55.615234" xlink:href="#ArialMT-48"/>
       <use x="111.230469" xlink:href="#ArialMT-48"/>
      </g>
     </g>
    </g>
   </g>
   <g id="line2d_47">
    <path clip-path="url(#p5f630898f6)" d="M 90 443.994353 
L 91.685801 428.014588 
L 93.371601 425.731765 
L 95.057402 424.590353 
L 96.743202 421.166118 
L 98.429003 409.752 
L 101.800604 393.772235 
L 103.486405 383.499529 
L 105.172205 381.216706 
L 106.858006 374.368235 
L 110.229607 372.085412 
L 116.97281 372.085412 
L 118.65861 370.944 
L 120.344411 368.661176 
L 122.030211 365.236941 
L 123.716012 365.236941 
L 125.401813 364.095529 
L 127.087613 364.095529 
L 128.773414 362.954118 
L 135.516616 362.954118 
L 137.202417 361.812706 
L 138.888218 359.529882 
L 140.574018 359.529882 
L 142.259819 356.105647 
L 143.945619 356.105647 
L 145.63142 354.964235 
L 147.317221 354.964235 
L 149.003021 353.822824 
L 150.688822 353.822824 
L 152.374622 351.54 
L 157.432024 351.54 
L 159.117825 350.398588 
L 172.60423 350.398588 
L 174.29003 349.257176 
L 175.975831 350.398588 
L 177.661631 350.398588 
L 179.347432 351.54 
L 192.833837 351.54 
L 194.519637 350.398588 
L 196.205438 350.398588 
L 197.891239 351.54 
L 199.577039 351.54 
L 201.26284 352.681412 
L 213.063444 352.681412 
L 214.749245 353.822824 
L 226.549849 353.822824 
L 228.23565 352.681412 
L 233.293051 352.681412 
L 234.978852 353.822824 
L 263.637462 353.822824 
L 267.009063 356.105647 
L 347.927492 356.105647 
L 349.613293 357.247059 
L 351.299094 356.105647 
L 354.670695 356.105647 
L 356.356495 354.964235 
L 396.81571 354.964235 
L 398.501511 356.105647 
L 415.359517 356.105647 
L 417.045317 354.964235 
L 418.731118 356.105647 
L 420.416918 356.105647 
L 422.102719 354.964235 
L 433.903323 354.964235 
L 435.589124 356.105647 
L 437.274924 356.105647 
L 438.960725 354.964235 
L 440.646526 354.964235 
L 442.332326 356.105647 
L 469.305136 356.105647 
L 470.990937 357.247059 
L 479.41994 357.247059 
L 481.10574 356.105647 
L 494.592145 356.105647 
L 496.277946 357.247059 
L 516.507553 357.247059 
L 518.193353 356.105647 
L 535.05136 356.105647 
L 536.73716 357.247059 
L 629.456193 357.247059 
L 629.456193 357.247059 
" style="fill:none;stroke:#2ca02c;stroke-linecap:round;stroke-width:1.5;"/>
   </g>
   <g id="line2d_48">
    <path clip-path="url(#p5f630898f6)" d="M 90 439.428706 
L 91.685801 429.156 
L 95.057402 424.590353 
L 96.743202 424.590353 
L 98.429003 423.448941 
L 100.114804 417.741882 
L 101.800604 416.600471 
L 103.486405 406.327765 
L 105.172205 399.479294 
L 106.858006 394.913647 
L 108.543807 392.630824 
L 110.229607 389.206588 
L 111.915408 388.065176 
L 113.601208 388.065176 
L 115.287009 383.499529 
L 116.97281 380.075294 
L 118.65861 373.226824 
L 120.344411 370.944 
L 125.401813 367.519765 
L 127.087613 364.095529 
L 128.773414 365.236941 
L 130.459215 364.095529 
L 133.830816 364.095529 
L 135.516616 362.954118 
L 137.202417 362.954118 
L 138.888218 360.671294 
L 140.574018 359.529882 
L 143.945619 359.529882 
L 145.63142 356.105647 
L 147.317221 354.964235 
L 150.688822 354.964235 
L 152.374622 353.822824 
L 155.746224 353.822824 
L 157.432024 352.681412 
L 162.489426 352.681412 
L 164.175227 351.54 
L 170.918429 351.54 
L 172.60423 350.398588 
L 177.661631 350.398588 
L 179.347432 348.115765 
L 182.719033 348.115765 
L 184.404834 350.398588 
L 187.776435 350.398588 
L 189.462236 349.257176 
L 191.148036 350.398588 
L 196.205438 350.398588 
L 197.891239 351.54 
L 202.94864 351.54 
L 204.634441 352.681412 
L 229.92145 352.681412 
L 231.607251 351.54 
L 261.951662 351.54 
L 263.637462 350.398588 
L 267.009063 350.398588 
L 268.694864 349.257176 
L 273.752266 349.257176 
L 275.438066 350.398588 
L 277.123867 349.257176 
L 292.296073 349.257176 
L 293.981873 350.398588 
L 304.096677 350.398588 
L 305.782477 351.54 
L 307.468278 350.398588 
L 309.154079 351.54 
L 310.839879 350.398588 
L 312.52568 350.398588 
L 314.21148 351.54 
L 315.897281 350.398588 
L 317.583082 350.398588 
L 319.268882 351.54 
L 320.954683 350.398588 
L 324.326284 350.398588 
L 326.012085 351.54 
L 339.498489 351.54 
L 341.18429 350.398588 
L 344.555891 350.398588 
L 346.241692 351.54 
L 449.075529 351.54 
L 450.761329 352.681412 
L 464.247734 352.681412 
L 465.933535 351.54 
L 545.166163 351.54 
L 546.851964 350.398588 
L 548.537764 351.54 
L 550.223565 350.398588 
L 551.909366 351.54 
L 553.595166 350.398588 
L 555.280967 351.54 
L 556.966767 351.54 
L 558.652568 350.398588 
L 560.338369 351.54 
L 562.024169 351.54 
L 563.70997 350.398588 
L 592.36858 350.398588 
L 594.054381 351.54 
L 602.483384 351.54 
L 604.169184 350.398588 
L 605.854985 351.54 
L 607.540785 350.398588 
L 609.226586 350.398588 
L 610.912387 351.54 
L 612.598187 350.398588 
L 619.34139 350.398588 
L 621.02719 351.54 
L 622.712991 350.398588 
L 629.456193 350.398588 
L 629.456193 350.398588 
" style="fill:none;stroke:#ff7f0e;stroke-linecap:round;stroke-width:1.5;"/>
   </g>
   <g id="line2d_49">
    <path clip-path="url(#p5f630898f6)" d="M 90 442.852941 
L 91.685801 431.438824 
L 93.371601 426.873176 
L 95.057402 425.731765 
L 96.743202 420.024706 
L 98.429003 417.741882 
L 100.114804 420.024706 
L 101.800604 415.459059 
L 103.486405 413.176235 
L 105.172205 404.044941 
L 106.858006 396.055059 
L 110.229607 396.055059 
L 111.915408 393.772235 
L 113.601208 393.772235 
L 115.287009 394.913647 
L 116.97281 394.913647 
L 118.65861 390.348 
L 122.030211 383.499529 
L 123.716012 382.358118 
L 125.401813 383.499529 
L 127.087613 382.358118 
L 128.773414 382.358118 
L 130.459215 381.216706 
L 132.145015 383.499529 
L 135.516616 376.651059 
L 137.202417 374.368235 
L 140.574018 367.519765 
L 142.259819 365.236941 
L 143.945619 361.812706 
L 145.63142 359.529882 
L 147.317221 358.388471 
L 149.003021 359.529882 
L 150.688822 359.529882 
L 152.374622 358.388471 
L 154.060423 358.388471 
L 159.117825 354.964235 
L 165.861027 354.964235 
L 167.546828 356.105647 
L 169.232628 356.105647 
L 170.918429 354.964235 
L 172.60423 352.681412 
L 174.29003 352.681412 
L 175.975831 353.822824 
L 177.661631 352.681412 
L 179.347432 352.681412 
L 182.719033 350.398588 
L 184.404834 351.54 
L 186.090634 351.54 
L 187.776435 352.681412 
L 189.462236 352.681412 
L 191.148036 353.822824 
L 199.577039 353.822824 
L 201.26284 352.681412 
L 213.063444 352.681412 
L 214.749245 353.822824 
L 221.492447 353.822824 
L 223.178248 354.964235 
L 224.864048 354.964235 
L 226.549849 356.105647 
L 255.208459 356.105647 
L 256.89426 357.247059 
L 273.752266 357.247059 
L 277.123867 354.964235 
L 287.238671 354.964235 
L 288.924471 353.822824 
L 349.613293 353.822824 
L 351.299094 352.681412 
L 358.042296 352.681412 
L 359.728097 353.822824 
L 386.700906 353.822824 
L 388.386707 354.964235 
L 391.758308 354.964235 
L 395.129909 352.681412 
L 403.558912 352.681412 
L 406.930514 354.964235 
L 418.731118 354.964235 
L 420.416918 353.822824 
L 467.619335 353.822824 
L 469.305136 354.964235 
L 477.734139 354.964235 
L 479.41994 356.105647 
L 482.791541 356.105647 
L 484.477341 354.964235 
L 501.335347 354.964235 
L 503.021148 356.105647 
L 504.706949 354.964235 
L 506.392749 356.105647 
L 508.07855 354.964235 
L 509.76435 354.964235 
L 511.450151 353.822824 
L 514.821752 356.105647 
L 516.507553 354.964235 
L 541.794562 354.964235 
L 543.480363 353.822824 
L 556.966767 353.822824 
L 558.652568 354.964235 
L 604.169184 354.964235 
L 605.854985 356.105647 
L 629.456193 356.105647 
L 629.456193 356.105647 
" style="fill:none;stroke:#9467bd;stroke-linecap:round;stroke-width:1.5;"/>
   </g>
   <g id="patch_12">
    <path d="M 90 448.56 
L 90 334.418824 
" style="fill:none;stroke:#cccccc;stroke-linecap:square;stroke-linejoin:miter;stroke-width:1.25;"/>
   </g>
   <g id="patch_13">
    <path d="M 648 448.56 
L 648 334.418824 
" style="fill:none;stroke:#cccccc;stroke-linecap:square;stroke-linejoin:miter;stroke-width:1.25;"/>
   </g>
   <g id="patch_14">
    <path d="M 90 448.56 
L 648 448.56 
" style="fill:none;stroke:#cccccc;stroke-linecap:square;stroke-linejoin:miter;stroke-width:1.25;"/>
   </g>
   <g id="patch_15">
    <path d="M 90 334.418824 
L 648 334.418824 
" style="fill:none;stroke:#cccccc;stroke-linecap:square;stroke-linejoin:miter;stroke-width:1.25;"/>
   </g>
  </g>
 </g>
 <defs>
  <clipPath id="p9582b8182f">
   <rect height="251.110588" width="558" x="90" y="60.48"/>
  </clipPath>
  <clipPath id="p5f630898f6">
   <rect height="114.141176" width="558" x="90" y="334.418824"/>
  </clipPath>
 </defs>
</svg>
