<?xml version="1.0" encoding="utf-8" standalone="no"?>
<!DOCTYPE svg PUBLIC "-//W3C//DTD SVG 1.1//EN"
  "http://www.w3.org/Graphics/SVG/1.1/DTD/svg11.dtd">
<!-- Created with matplotlib (https://matplotlib.org/) -->
<svg height="504pt" version="1.1" viewBox="0 0 720 504" width="720pt" xmlns="http://www.w3.org/2000/svg" xmlns:xlink="http://www.w3.org/1999/xlink">
 <defs>
  <style type="text/css">
*{stroke-linecap:butt;stroke-linejoin:round;white-space:pre;}
  </style>
 </defs>
 <g id="figure_1">
  <g id="patch_1">
   <path d="M 0 504 
L 720 504 
L 720 0 
L 0 0 
z
" style="fill:#ffffff;"/>
  </g>
  <g id="axes_1">
   <g id="patch_2">
    <path d="M 90 311.590588 
L 648 311.590588 
L 648 60.48 
L 90 60.48 
z
" style="fill:#eaeaf2;"/>
   </g>
   <g id="matplotlib.axis_1">
    <g id="xtick_1">
     <g id="line2d_1">
      <path clip-path="url(#p4b5354a1f8)" d="M 90 311.590588 
L 90 60.48 
" style="fill:none;stroke:#ffffff;stroke-linecap:round;"/>
     </g>
    </g>
    <g id="xtick_2">
     <g id="line2d_2">
      <path clip-path="url(#p4b5354a1f8)" d="M 158.04878 311.590588 
L 158.04878 60.48 
" style="fill:none;stroke:#ffffff;stroke-linecap:round;"/>
     </g>
    </g>
    <g id="xtick_3">
     <g id="line2d_3">
      <path clip-path="url(#p4b5354a1f8)" d="M 226.097561 311.590588 
L 226.097561 60.48 
" style="fill:none;stroke:#ffffff;stroke-linecap:round;"/>
     </g>
    </g>
    <g id="xtick_4">
     <g id="line2d_4">
      <path clip-path="url(#p4b5354a1f8)" d="M 294.146341 311.590588 
L 294.146341 60.48 
" style="fill:none;stroke:#ffffff;stroke-linecap:round;"/>
     </g>
    </g>
    <g id="xtick_5">
     <g id="line2d_5">
      <path clip-path="url(#p4b5354a1f8)" d="M 362.195122 311.590588 
L 362.195122 60.48 
" style="fill:none;stroke:#ffffff;stroke-linecap:round;"/>
     </g>
    </g>
    <g id="xtick_6">
     <g id="line2d_6">
      <path clip-path="url(#p4b5354a1f8)" d="M 430.243902 311.590588 
L 430.243902 60.48 
" style="fill:none;stroke:#ffffff;stroke-linecap:round;"/>
     </g>
    </g>
    <g id="xtick_7">
     <g id="line2d_7">
      <path clip-path="url(#p4b5354a1f8)" d="M 498.292683 311.590588 
L 498.292683 60.48 
" style="fill:none;stroke:#ffffff;stroke-linecap:round;"/>
     </g>
    </g>
    <g id="xtick_8">
     <g id="line2d_8">
      <path clip-path="url(#p4b5354a1f8)" d="M 566.341463 311.590588 
L 566.341463 60.48 
" style="fill:none;stroke:#ffffff;stroke-linecap:round;"/>
     </g>
    </g>
    <g id="xtick_9">
     <g id="line2d_9">
      <path clip-path="url(#p4b5354a1f8)" d="M 634.390244 311.590588 
L 634.390244 60.48 
" style="fill:none;stroke:#ffffff;stroke-linecap:round;"/>
     </g>
    </g>
   </g>
   <g id="matplotlib.axis_2">
    <g id="ytick_1">
     <g id="line2d_10">
      <path clip-path="url(#p4b5354a1f8)" d="M 90 311.590588 
L 648 311.590588 
" style="fill:none;stroke:#ffffff;stroke-linecap:round;"/>
     </g>
     <g id="line2d_11">
      <defs>
       <path d="M 0 0 
L -6 0 
" id="m343a6e1849" style="stroke:#262626;stroke-width:1.25;"/>
      </defs>
      <g>
       <use style="fill:#262626;stroke:#262626;stroke-width:1.25;" x="90" xlink:href="#m343a6e1849" y="311.590588"/>
      </g>
     </g>
     <g id="text_1">
      <!-- 0 -->
      <defs>
       <path d="M 4.15625 35.296875 
Q 4.15625 48 6.765625 55.734375 
Q 9.375 63.484375 14.515625 67.671875 
Q 19.671875 71.875 27.484375 71.875 
Q 33.25 71.875 37.59375 69.546875 
Q 41.9375 67.234375 44.765625 62.859375 
Q 47.609375 58.5 49.21875 52.21875 
Q 50.828125 45.953125 50.828125 35.296875 
Q 50.828125 22.703125 48.234375 14.96875 
Q 45.65625 7.234375 40.5 3 
Q 35.359375 -1.21875 27.484375 -1.21875 
Q 17.140625 -1.21875 11.234375 6.203125 
Q 4.15625 15.140625 4.15625 35.296875 
z
M 13.1875 35.296875 
Q 13.1875 17.671875 17.3125 11.828125 
Q 21.4375 6 27.484375 6 
Q 33.546875 6 37.671875 11.859375 
Q 41.796875 17.71875 41.796875 35.296875 
Q 41.796875 52.984375 37.671875 58.78125 
Q 33.546875 64.59375 27.390625 64.59375 
Q 21.34375 64.59375 17.71875 59.46875 
Q 13.1875 52.9375 13.1875 35.296875 
z
" id="ArialMT-48"/>
      </defs>
      <g style="fill:#d62728;" transform="translate(74.382969 315.527385)scale(0.11 -0.11)">
       <use xlink:href="#ArialMT-48"/>
      </g>
     </g>
    </g>
    <g id="ytick_2">
     <g id="line2d_12">
      <path clip-path="url(#p4b5354a1f8)" d="M 90 281.750127 
L 648 281.750127 
" style="fill:none;stroke:#ffffff;stroke-linecap:round;"/>
     </g>
     <g id="line2d_13">
      <g>
       <use style="fill:#262626;stroke:#262626;stroke-width:1.25;" x="90" xlink:href="#m343a6e1849" y="281.750127"/>
      </g>
     </g>
     <g id="text_2">
      <!-- 10 -->
      <defs>
       <path d="M 37.25 0 
L 28.46875 0 
L 28.46875 56 
Q 25.296875 52.984375 20.140625 49.953125 
Q 14.984375 46.921875 10.890625 45.40625 
L 10.890625 53.90625 
Q 18.265625 57.375 23.78125 62.296875 
Q 29.296875 67.234375 31.59375 71.875 
L 37.25 71.875 
z
" id="ArialMT-49"/>
      </defs>
      <g style="fill:#d62728;" transform="translate(68.265938 285.686923)scale(0.11 -0.11)">
       <use xlink:href="#ArialMT-49"/>
       <use x="55.615234" xlink:href="#ArialMT-48"/>
      </g>
     </g>
    </g>
    <g id="ytick_3">
     <g id="line2d_14">
      <path clip-path="url(#p4b5354a1f8)" d="M 90 251.909665 
L 648 251.909665 
" style="fill:none;stroke:#ffffff;stroke-linecap:round;"/>
     </g>
     <g id="line2d_15">
      <g>
       <use style="fill:#262626;stroke:#262626;stroke-width:1.25;" x="90" xlink:href="#m343a6e1849" y="251.909665"/>
      </g>
     </g>
     <g id="text_3">
      <!-- 20 -->
      <defs>
       <path d="M 50.34375 8.453125 
L 50.34375 0 
L 3.03125 0 
Q 2.9375 3.171875 4.046875 6.109375 
Q 5.859375 10.9375 9.828125 15.625 
Q 13.8125 20.3125 21.34375 26.46875 
Q 33.015625 36.03125 37.109375 41.625 
Q 41.21875 47.21875 41.21875 52.203125 
Q 41.21875 57.421875 37.46875 61 
Q 33.734375 64.59375 27.734375 64.59375 
Q 21.390625 64.59375 17.578125 60.78125 
Q 13.765625 56.984375 13.71875 50.25 
L 4.6875 51.171875 
Q 5.609375 61.28125 11.65625 66.578125 
Q 17.71875 71.875 27.9375 71.875 
Q 38.234375 71.875 44.234375 66.15625 
Q 50.25 60.453125 50.25 52 
Q 50.25 47.703125 48.484375 43.546875 
Q 46.734375 39.40625 42.65625 34.8125 
Q 38.578125 30.21875 29.109375 22.21875 
Q 21.1875 15.578125 18.9375 13.203125 
Q 16.703125 10.84375 15.234375 8.453125 
z
" id="ArialMT-50"/>
      </defs>
      <g style="fill:#d62728;" transform="translate(68.265938 255.846462)scale(0.11 -0.11)">
       <use xlink:href="#ArialMT-50"/>
       <use x="55.615234" xlink:href="#ArialMT-48"/>
      </g>
     </g>
    </g>
    <g id="ytick_4">
     <g id="line2d_16">
      <path clip-path="url(#p4b5354a1f8)" d="M 90 222.069203 
L 648 222.069203 
" style="fill:none;stroke:#ffffff;stroke-linecap:round;"/>
     </g>
     <g id="line2d_17">
      <g>
       <use style="fill:#262626;stroke:#262626;stroke-width:1.25;" x="90" xlink:href="#m343a6e1849" y="222.069203"/>
      </g>
     </g>
     <g id="text_4">
      <!-- 30 -->
      <defs>
       <path d="M 4.203125 18.890625 
L 12.984375 20.0625 
Q 14.5 12.59375 18.140625 9.296875 
Q 21.78125 6 27 6 
Q 33.203125 6 37.46875 10.296875 
Q 41.75 14.59375 41.75 20.953125 
Q 41.75 27 37.796875 30.921875 
Q 33.84375 34.859375 27.734375 34.859375 
Q 25.25 34.859375 21.53125 33.890625 
L 22.515625 41.609375 
Q 23.390625 41.5 23.921875 41.5 
Q 29.546875 41.5 34.03125 44.421875 
Q 38.53125 47.359375 38.53125 53.46875 
Q 38.53125 58.296875 35.25 61.46875 
Q 31.984375 64.65625 26.8125 64.65625 
Q 21.6875 64.65625 18.265625 61.421875 
Q 14.84375 58.203125 13.875 51.765625 
L 5.078125 53.328125 
Q 6.6875 62.15625 12.390625 67.015625 
Q 18.109375 71.875 26.609375 71.875 
Q 32.46875 71.875 37.390625 69.359375 
Q 42.328125 66.84375 44.9375 62.5 
Q 47.5625 58.15625 47.5625 53.265625 
Q 47.5625 48.640625 45.0625 44.828125 
Q 42.578125 41.015625 37.703125 38.765625 
Q 44.046875 37.3125 47.5625 32.6875 
Q 51.078125 28.078125 51.078125 21.140625 
Q 51.078125 11.765625 44.234375 5.25 
Q 37.40625 -1.265625 26.953125 -1.265625 
Q 17.53125 -1.265625 11.296875 4.34375 
Q 5.078125 9.96875 4.203125 18.890625 
z
" id="ArialMT-51"/>
      </defs>
      <g style="fill:#d62728;" transform="translate(68.265938 226.006)scale(0.11 -0.11)">
       <use xlink:href="#ArialMT-51"/>
       <use x="55.615234" xlink:href="#ArialMT-48"/>
      </g>
     </g>
    </g>
    <g id="ytick_5">
     <g id="line2d_18">
      <path clip-path="url(#p4b5354a1f8)" d="M 90 192.228741 
L 648 192.228741 
" style="fill:none;stroke:#ffffff;stroke-linecap:round;"/>
     </g>
     <g id="line2d_19">
      <g>
       <use style="fill:#262626;stroke:#262626;stroke-width:1.25;" x="90" xlink:href="#m343a6e1849" y="192.228741"/>
      </g>
     </g>
     <g id="text_5">
      <!-- 40 -->
      <defs>
       <path d="M 32.328125 0 
L 32.328125 17.140625 
L 1.265625 17.140625 
L 1.265625 25.203125 
L 33.9375 71.578125 
L 41.109375 71.578125 
L 41.109375 25.203125 
L 50.78125 25.203125 
L 50.78125 17.140625 
L 41.109375 17.140625 
L 41.109375 0 
z
M 32.328125 25.203125 
L 32.328125 57.46875 
L 9.90625 25.203125 
z
" id="ArialMT-52"/>
      </defs>
      <g style="fill:#d62728;" transform="translate(68.265938 196.165538)scale(0.11 -0.11)">
       <use xlink:href="#ArialMT-52"/>
       <use x="55.615234" xlink:href="#ArialMT-48"/>
      </g>
     </g>
    </g>
    <g id="ytick_6">
     <g id="line2d_20">
      <path clip-path="url(#p4b5354a1f8)" d="M 90 162.38828 
L 648 162.38828 
" style="fill:none;stroke:#ffffff;stroke-linecap:round;"/>
     </g>
     <g id="line2d_21">
      <g>
       <use style="fill:#262626;stroke:#262626;stroke-width:1.25;" x="90" xlink:href="#m343a6e1849" y="162.38828"/>
      </g>
     </g>
     <g id="text_6">
      <!-- 50 -->
      <defs>
       <path d="M 4.15625 18.75 
L 13.375 19.53125 
Q 14.40625 12.796875 18.140625 9.390625 
Q 21.875 6 27.15625 6 
Q 33.5 6 37.890625 10.78125 
Q 42.28125 15.578125 42.28125 23.484375 
Q 42.28125 31 38.0625 35.34375 
Q 33.84375 39.703125 27 39.703125 
Q 22.75 39.703125 19.328125 37.765625 
Q 15.921875 35.84375 13.96875 32.765625 
L 5.71875 33.84375 
L 12.640625 70.609375 
L 48.25 70.609375 
L 48.25 62.203125 
L 19.671875 62.203125 
L 15.828125 42.96875 
Q 22.265625 47.46875 29.34375 47.46875 
Q 38.71875 47.46875 45.15625 40.96875 
Q 51.609375 34.46875 51.609375 24.265625 
Q 51.609375 14.546875 45.953125 7.46875 
Q 39.0625 -1.21875 27.15625 -1.21875 
Q 17.390625 -1.21875 11.203125 4.25 
Q 5.03125 9.71875 4.15625 18.75 
z
" id="ArialMT-53"/>
      </defs>
      <g style="fill:#d62728;" transform="translate(68.265938 166.325077)scale(0.11 -0.11)">
       <use xlink:href="#ArialMT-53"/>
       <use x="55.615234" xlink:href="#ArialMT-48"/>
      </g>
     </g>
    </g>
    <g id="ytick_7">
     <g id="line2d_22">
      <path clip-path="url(#p4b5354a1f8)" d="M 90 132.547818 
L 648 132.547818 
" style="fill:none;stroke:#ffffff;stroke-linecap:round;"/>
     </g>
     <g id="line2d_23">
      <g>
       <use style="fill:#262626;stroke:#262626;stroke-width:1.25;" x="90" xlink:href="#m343a6e1849" y="132.547818"/>
      </g>
     </g>
     <g id="text_7">
      <!-- 60 -->
      <defs>
       <path d="M 49.75 54.046875 
L 41.015625 53.375 
Q 39.84375 58.546875 37.703125 60.890625 
Q 34.125 64.65625 28.90625 64.65625 
Q 24.703125 64.65625 21.53125 62.3125 
Q 17.390625 59.28125 14.984375 53.46875 
Q 12.59375 47.65625 12.5 36.921875 
Q 15.671875 41.75 20.265625 44.09375 
Q 24.859375 46.4375 29.890625 46.4375 
Q 38.671875 46.4375 44.84375 39.96875 
Q 51.03125 33.5 51.03125 23.25 
Q 51.03125 16.5 48.125 10.71875 
Q 45.21875 4.9375 40.140625 1.859375 
Q 35.0625 -1.21875 28.609375 -1.21875 
Q 17.625 -1.21875 10.6875 6.859375 
Q 3.765625 14.9375 3.765625 33.5 
Q 3.765625 54.25 11.421875 63.671875 
Q 18.109375 71.875 29.4375 71.875 
Q 37.890625 71.875 43.28125 67.140625 
Q 48.6875 62.40625 49.75 54.046875 
z
M 13.875 23.1875 
Q 13.875 18.65625 15.796875 14.5 
Q 17.71875 10.359375 21.1875 8.171875 
Q 24.65625 6 28.46875 6 
Q 34.03125 6 38.03125 10.484375 
Q 42.046875 14.984375 42.046875 22.703125 
Q 42.046875 30.125 38.078125 34.390625 
Q 34.125 38.671875 28.125 38.671875 
Q 22.171875 38.671875 18.015625 34.390625 
Q 13.875 30.125 13.875 23.1875 
z
" id="ArialMT-54"/>
      </defs>
      <g style="fill:#d62728;" transform="translate(68.265938 136.484615)scale(0.11 -0.11)">
       <use xlink:href="#ArialMT-54"/>
       <use x="55.615234" xlink:href="#ArialMT-48"/>
      </g>
     </g>
    </g>
    <g id="ytick_8">
     <g id="line2d_24">
      <path clip-path="url(#p4b5354a1f8)" d="M 90 102.707356 
L 648 102.707356 
" style="fill:none;stroke:#ffffff;stroke-linecap:round;"/>
     </g>
     <g id="line2d_25">
      <g>
       <use style="fill:#262626;stroke:#262626;stroke-width:1.25;" x="90" xlink:href="#m343a6e1849" y="102.707356"/>
      </g>
     </g>
     <g id="text_8">
      <!-- 70 -->
      <defs>
       <path d="M 4.734375 62.203125 
L 4.734375 70.65625 
L 51.078125 70.65625 
L 51.078125 63.8125 
Q 44.234375 56.546875 37.515625 44.484375 
Q 30.8125 32.421875 27.15625 19.671875 
Q 24.515625 10.6875 23.78125 0 
L 14.75 0 
Q 14.890625 8.453125 18.0625 20.40625 
Q 21.234375 32.375 27.171875 43.484375 
Q 33.109375 54.59375 39.796875 62.203125 
z
" id="ArialMT-55"/>
      </defs>
      <g style="fill:#d62728;" transform="translate(68.265938 106.644153)scale(0.11 -0.11)">
       <use xlink:href="#ArialMT-55"/>
       <use x="55.615234" xlink:href="#ArialMT-48"/>
      </g>
     </g>
    </g>
    <g id="ytick_9">
     <g id="line2d_26">
      <path clip-path="url(#p4b5354a1f8)" d="M 90 72.866895 
L 648 72.866895 
" style="fill:none;stroke:#ffffff;stroke-linecap:round;"/>
     </g>
     <g id="line2d_27">
      <g>
       <use style="fill:#262626;stroke:#262626;stroke-width:1.25;" x="90" xlink:href="#m343a6e1849" y="72.866895"/>
      </g>
     </g>
     <g id="text_9">
      <!-- 80 -->
      <defs>
       <path d="M 17.671875 38.8125 
Q 12.203125 40.828125 9.5625 44.53125 
Q 6.9375 48.25 6.9375 53.421875 
Q 6.9375 61.234375 12.546875 66.546875 
Q 18.171875 71.875 27.484375 71.875 
Q 36.859375 71.875 42.578125 66.421875 
Q 48.296875 60.984375 48.296875 53.171875 
Q 48.296875 48.1875 45.671875 44.5 
Q 43.0625 40.828125 37.75 38.8125 
Q 44.34375 36.671875 47.78125 31.875 
Q 51.21875 27.09375 51.21875 20.453125 
Q 51.21875 11.28125 44.71875 5.03125 
Q 38.234375 -1.21875 27.640625 -1.21875 
Q 17.046875 -1.21875 10.546875 5.046875 
Q 4.046875 11.328125 4.046875 20.703125 
Q 4.046875 27.6875 7.59375 32.390625 
Q 11.140625 37.109375 17.671875 38.8125 
z
M 15.921875 53.71875 
Q 15.921875 48.640625 19.1875 45.40625 
Q 22.46875 42.1875 27.6875 42.1875 
Q 32.765625 42.1875 36.015625 45.375 
Q 39.265625 48.578125 39.265625 53.21875 
Q 39.265625 58.0625 35.90625 61.359375 
Q 32.5625 64.65625 27.59375 64.65625 
Q 22.5625 64.65625 19.234375 61.421875 
Q 15.921875 58.203125 15.921875 53.71875 
z
M 13.09375 20.65625 
Q 13.09375 16.890625 14.875 13.375 
Q 16.65625 9.859375 20.171875 7.921875 
Q 23.6875 6 27.734375 6 
Q 34.03125 6 38.125 10.046875 
Q 42.234375 14.109375 42.234375 20.359375 
Q 42.234375 26.703125 38.015625 30.859375 
Q 33.796875 35.015625 27.4375 35.015625 
Q 21.234375 35.015625 17.15625 30.90625 
Q 13.09375 26.8125 13.09375 20.65625 
z
" id="ArialMT-56"/>
      </defs>
      <g style="fill:#d62728;" transform="translate(68.265938 76.803691)scale(0.11 -0.11)">
       <use xlink:href="#ArialMT-56"/>
       <use x="55.615234" xlink:href="#ArialMT-48"/>
      </g>
     </g>
    </g>
   </g>
   <g id="line2d_28">
    <path clip-path="url(#p4b5354a1f8)" d="M 117.589474 -1 
L 130.829268 60.778405 
L 144.439024 107.65497 
L 158.04878 142.309669 
L 171.658537 168.251391 
L 185.268293 188.017977 
L 198.878049 203.383049 
L 212.487805 215.591506 
L 226.097561 225.508748 
L 239.707317 233.749504 
L 253.317073 240.547843 
L 266.926829 245.875272 
L 280.536585 250.087584 
L 294.146341 255.647754 
L 307.756098 260.758169 
L 321.365854 266.941543 
L 334.97561 273.390883 
L 348.585366 277.934895 
L 362.195122 280.800252 
L 375.804878 283.124402 
L 389.414634 284.557627 
L 403.02439 285.138444 
L 416.634146 286.175112 
L 430.243902 287.450363 
L 443.853659 288.52302 
L 457.463415 289.298335 
L 471.073171 289.880197 
L 484.682927 290.175735 
L 498.292683 290.306051 
" style="fill:none;stroke:#d62728;stroke-linecap:round;stroke-width:1.5;"/>
   </g>
   <g id="line2d_29">
    <path clip-path="url(#p4b5354a1f8)" d="M 105.888958 -1 
L 117.219512 60.12745 
L 130.829268 114.58168 
L 144.439024 153.576875 
L 158.04878 181.462793 
L 171.658537 201.732034 
L 185.268293 216.926564 
L 198.878049 228.850341 
L 212.487805 238.78571 
L 226.097561 247.624351 
L 239.707317 255.932896 
L 253.317073 263.864686 
L 266.926829 271.087242 
L 280.536585 277.426512 
L 294.146341 282.389231 
L 307.756098 286.773785 
L 321.365854 289.940203 
L 334.97561 292.476986 
L 348.585366 294.695188 
L 362.195122 296.512536 
L 375.804878 297.632123 
L 389.414634 298.112352 
L 403.02439 297.887465 
L 416.634146 297.382372 
L 430.243902 296.872022 
L 443.853659 296.363042 
L 457.463415 295.851483 
L 471.073171 295.372741 
L 484.682927 294.855645 
L 498.292683 294.3461 
" style="fill:none;stroke:#d62728;stroke-dasharray:0.5,0.825;stroke-dashoffset:0;stroke-width:0.5;"/>
   </g>
   <g id="line2d_30">
    <path clip-path="url(#p4b5354a1f8)" d="M 90 217.221872 
L 103.609756 238.371403 
L 117.219512 248.736854 
L 130.829268 257.787313 
L 144.439024 265.668684 
L 158.04878 272.437465 
L 171.658537 278.109946 
L 185.268293 282.682001 
L 198.878049 286.123296 
L 212.487805 288.396384 
L 226.097561 289.474985 
L 239.707317 289.407197 
L 253.317073 288.273746 
L 266.926829 286.378619 
L 280.536585 284.251661 
L 294.146341 284.849111 
L 307.756098 285.574972 
L 321.365854 288.591928 
L 334.97561 292.504485 
L 348.585366 294.830295 
L 362.195122 295.878304 
L 375.804878 297.082867 
L 389.414634 298.035863 
L 403.02439 298.841567 
L 416.634146 300.383328 
L 430.243902 302.168929 
L 443.853659 303.750567 
L 457.463415 305.037441 
L 471.073171 306.098044 
L 484.682927 306.910677 
L 498.292683 307.550539 
" style="fill:none;stroke:#d62728;stroke-dasharray:3.2,0.8,0.5,0.8;stroke-dashoffset:0;stroke-width:0.5;"/>
   </g>
   <g id="patch_3">
    <path d="M 90 311.590588 
L 90 60.48 
" style="fill:none;stroke:#ffffff;stroke-linecap:square;stroke-linejoin:miter;stroke-width:1.25;"/>
   </g>
   <g id="patch_4">
    <path d="M 648 311.590588 
L 648 60.48 
" style="fill:none;stroke:#ffffff;stroke-linecap:square;stroke-linejoin:miter;stroke-width:1.25;"/>
   </g>
   <g id="patch_5">
    <path d="M 90 311.590588 
L 648 311.590588 
" style="fill:none;stroke:#ffffff;stroke-linecap:square;stroke-linejoin:miter;stroke-width:1.25;"/>
   </g>
   <g id="patch_6">
    <path d="M 90 60.48 
L 648 60.48 
" style="fill:none;stroke:#ffffff;stroke-linecap:square;stroke-linejoin:miter;stroke-width:1.25;"/>
   </g>
  </g>
  <g id="axes_2">
   <g id="matplotlib.axis_3">
    <g id="ytick_10">
     <g id="line2d_31">
      <defs>
       <path d="M 0 0 
L 6 0 
" id="ma602eae05c" style="stroke:#262626;stroke-width:1.25;"/>
      </defs>
      <g>
       <use style="fill:#262626;stroke:#262626;stroke-width:1.25;" x="648" xlink:href="#ma602eae05c" y="311.590588"/>
      </g>
     </g>
     <g id="text_10">
      <!-- 0 -->
      <g style="fill:#1f77b4;" transform="translate(657.5 315.527385)scale(0.11 -0.11)">
       <use xlink:href="#ArialMT-48"/>
      </g>
     </g>
    </g>
    <g id="ytick_11">
     <g id="line2d_32">
      <g>
       <use style="fill:#262626;stroke:#262626;stroke-width:1.25;" x="648" xlink:href="#ma602eae05c" y="261.368471"/>
      </g>
     </g>
     <g id="text_11">
      <!-- 200 -->
      <g style="fill:#1f77b4;" transform="translate(657.5 265.305267)scale(0.11 -0.11)">
       <use xlink:href="#ArialMT-50"/>
       <use x="55.615234" xlink:href="#ArialMT-48"/>
       <use x="111.230469" xlink:href="#ArialMT-48"/>
      </g>
     </g>
    </g>
    <g id="ytick_12">
     <g id="line2d_33">
      <g>
       <use style="fill:#262626;stroke:#262626;stroke-width:1.25;" x="648" xlink:href="#ma602eae05c" y="211.146353"/>
      </g>
     </g>
     <g id="text_12">
      <!-- 400 -->
      <g style="fill:#1f77b4;" transform="translate(657.5 215.08315)scale(0.11 -0.11)">
       <use xlink:href="#ArialMT-52"/>
       <use x="55.615234" xlink:href="#ArialMT-48"/>
       <use x="111.230469" xlink:href="#ArialMT-48"/>
      </g>
     </g>
    </g>
    <g id="ytick_13">
     <g id="line2d_34">
      <g>
       <use style="fill:#262626;stroke:#262626;stroke-width:1.25;" x="648" xlink:href="#ma602eae05c" y="160.924235"/>
      </g>
     </g>
     <g id="text_13">
      <!-- 600 -->
      <g style="fill:#1f77b4;" transform="translate(657.5 164.861032)scale(0.11 -0.11)">
       <use xlink:href="#ArialMT-54"/>
       <use x="55.615234" xlink:href="#ArialMT-48"/>
       <use x="111.230469" xlink:href="#ArialMT-48"/>
      </g>
     </g>
    </g>
    <g id="ytick_14">
     <g id="line2d_35">
      <g>
       <use style="fill:#262626;stroke:#262626;stroke-width:1.25;" x="648" xlink:href="#ma602eae05c" y="110.702118"/>
      </g>
     </g>
     <g id="text_14">
      <!-- 800 -->
      <g style="fill:#1f77b4;" transform="translate(657.5 114.638915)scale(0.11 -0.11)">
       <use xlink:href="#ArialMT-56"/>
       <use x="55.615234" xlink:href="#ArialMT-48"/>
       <use x="111.230469" xlink:href="#ArialMT-48"/>
      </g>
     </g>
    </g>
    <g id="ytick_15">
     <g id="line2d_36">
      <g>
       <use style="fill:#262626;stroke:#262626;stroke-width:1.25;" x="648" xlink:href="#ma602eae05c" y="60.48"/>
      </g>
     </g>
     <g id="text_15">
      <!-- 1000 -->
      <g style="fill:#1f77b4;" transform="translate(657.5 64.416797)scale(0.11 -0.11)">
       <use xlink:href="#ArialMT-49"/>
       <use x="55.615234" xlink:href="#ArialMT-48"/>
       <use x="111.230469" xlink:href="#ArialMT-48"/>
       <use x="166.845703" xlink:href="#ArialMT-48"/>
      </g>
     </g>
    </g>
   </g>
   <g id="line2d_37">
    <path clip-path="url(#p4b5354a1f8)" d="M 90 310.837256 
L 103.609756 307.572819 
L 117.219512 305.563934 
L 130.829268 304.810602 
L 144.439024 302.550607 
L 158.04878 301.295054 
L 171.658537 299.286169 
L 185.268293 297.528395 
L 198.878049 295.2684 
L 212.487805 291.501741 
L 226.097561 285.977308 
L 239.707317 280.703986 
L 253.317073 270.157341 
L 266.926829 254.588485 
L 280.536585 232.490753 
L 294.146341 205.370809 
L 307.756098 182.519746 
L 321.365854 167.202 
L 334.97561 153.642028 
L 348.585366 137.068729 
L 362.195122 125.015421 
L 375.804878 113.715445 
L 389.414634 110.953228 
L 403.02439 116.226551 
L 416.634146 121.499873 
L 430.243902 129.033191 
L 443.853659 133.804292 
L 457.463415 141.086499 
L 471.073171 147.113153 
L 484.682927 152.386475 
L 498.292683 157.157576 
" style="fill:none;stroke:#1f77b4;stroke-linecap:round;stroke-width:1.5;"/>
   </g>
   <g id="line2d_38">
    <path clip-path="url(#p4b5354a1f8)" d="M 90 305.563934 
L 103.609756 263.879576 
L 117.219512 262.624024 
L 130.829268 262.875134 
L 144.439024 261.11736 
L 158.04878 260.615139 
L 171.658537 265.637351 
L 185.268293 276.183995 
L 198.878049 283.968424 
L 212.487805 284.470645 
L 226.097561 287.232861 
L 239.707317 288.488414 
L 253.317073 285.726198 
L 266.926829 285.977308 
L 280.536585 281.206207 
L 294.146341 274.426221 
L 307.756098 268.901788 
L 321.365854 263.126245 
L 334.97561 254.588485 
L 348.585366 249.566273 
L 362.195122 241.028513 
L 375.804878 236.759633 
L 389.414634 231.486311 
L 403.02439 227.719652 
L 416.634146 218.177449 
L 430.243902 209.8908 
L 443.853659 196.330828 
L 457.463415 188.797511 
L 471.073171 178.753087 
L 484.682927 169.713106 
L 498.292683 158.66424 
" style="fill:none;stroke:#7f7f7f;stroke-linecap:round;stroke-width:1.5;"/>
   </g>
   <g id="line2d_39">
    <path clip-path="url(#p4b5354a1f8)" d="M 90 311.339478 
L 103.609756 308.07504 
L 117.219512 307.321708 
L 130.829268 306.568376 
L 144.439024 304.057271 
L 158.04878 303.052828 
L 171.658537 299.53728 
L 185.268293 296.021732 
L 198.878049 294.263958 
L 212.487805 287.986193 
L 226.097561 279.197322 
L 239.707317 263.126245 
L 253.317073 240.777402 
L 266.926829 214.15968 
L 280.536585 200.097487 
L 294.146341 181.766414 
L 307.756098 167.955332 
L 321.365854 157.157576 
L 334.97561 142.844273 
L 348.585366 124.764311 
L 362.195122 114.217666 
L 375.804878 107.186569 
L 389.414634 111.204339 
L 403.02439 123.759868 
L 416.634146 133.804292 
L 430.243902 141.839831 
L 443.853659 148.117595 
L 457.463415 154.39536 
L 471.073171 158.915351 
L 484.682927 164.942005 
L 498.292683 169.210885 
" style="fill:none;stroke:#2ca02c;stroke-linecap:round;stroke-width:1.5;"/>
   </g>
   <g id="patch_7">
    <path d="M 90 311.590588 
L 90 60.48 
" style="fill:none;stroke:#ffffff;stroke-linecap:square;stroke-linejoin:miter;stroke-width:1.25;"/>
   </g>
   <g id="patch_8">
    <path d="M 648 311.590588 
L 648 60.48 
" style="fill:none;stroke:#ffffff;stroke-linecap:square;stroke-linejoin:miter;stroke-width:1.25;"/>
   </g>
   <g id="patch_9">
    <path d="M 90 311.590588 
L 648 311.590588 
" style="fill:none;stroke:#ffffff;stroke-linecap:square;stroke-linejoin:miter;stroke-width:1.25;"/>
   </g>
   <g id="patch_10">
    <path d="M 90 60.48 
L 648 60.48 
" style="fill:none;stroke:#ffffff;stroke-linecap:square;stroke-linejoin:miter;stroke-width:1.25;"/>
   </g>
  </g>
  <g id="axes_3">
   <g id="patch_11">
    <path d="M 90 448.56 
L 648 448.56 
L 648 334.418824 
L 90 334.418824 
z
" style="fill:#eaeaf2;"/>
   </g>
   <g id="matplotlib.axis_4">
    <g id="xtick_10">
     <g id="line2d_40">
      <path clip-path="url(#pa6aa641454)" d="M 90 448.56 
L 90 334.418824 
" style="fill:none;stroke:#ffffff;stroke-linecap:round;"/>
     </g>
     <g id="text_16">
      <!-- 0 -->
      <g style="fill:#2ca02c;" transform="translate(86.941484 465.933594)scale(0.11 -0.11)">
       <use xlink:href="#ArialMT-48"/>
      </g>
     </g>
    </g>
    <g id="xtick_11">
     <g id="line2d_41">
      <path clip-path="url(#pa6aa641454)" d="M 158.04878 448.56 
L 158.04878 334.418824 
" style="fill:none;stroke:#ffffff;stroke-linecap:round;"/>
     </g>
     <g id="text_17">
      <!-- 250 -->
      <g style="fill:#2ca02c;" transform="translate(148.873234 465.933594)scale(0.11 -0.11)">
       <use xlink:href="#ArialMT-50"/>
       <use x="55.615234" xlink:href="#ArialMT-53"/>
       <use x="111.230469" xlink:href="#ArialMT-48"/>
      </g>
     </g>
    </g>
    <g id="xtick_12">
     <g id="line2d_42">
      <path clip-path="url(#pa6aa641454)" d="M 226.097561 448.56 
L 226.097561 334.418824 
" style="fill:none;stroke:#ffffff;stroke-linecap:round;"/>
     </g>
     <g id="text_18">
      <!-- 500 -->
      <g style="fill:#2ca02c;" transform="translate(216.922014 465.933594)scale(0.11 -0.11)">
       <use xlink:href="#ArialMT-53"/>
       <use x="55.615234" xlink:href="#ArialMT-48"/>
       <use x="111.230469" xlink:href="#ArialMT-48"/>
      </g>
     </g>
    </g>
    <g id="xtick_13">
     <g id="line2d_43">
      <path clip-path="url(#pa6aa641454)" d="M 294.146341 448.56 
L 294.146341 334.418824 
" style="fill:none;stroke:#ffffff;stroke-linecap:round;"/>
     </g>
     <g id="text_19">
      <!-- 750 -->
      <g style="fill:#2ca02c;" transform="translate(284.970795 465.933594)scale(0.11 -0.11)">
       <use xlink:href="#ArialMT-55"/>
       <use x="55.615234" xlink:href="#ArialMT-53"/>
       <use x="111.230469" xlink:href="#ArialMT-48"/>
      </g>
     </g>
    </g>
    <g id="xtick_14">
     <g id="line2d_44">
      <path clip-path="url(#pa6aa641454)" d="M 362.195122 448.56 
L 362.195122 334.418824 
" style="fill:none;stroke:#ffffff;stroke-linecap:round;"/>
     </g>
     <g id="text_20">
      <!-- 1000 -->
      <g style="fill:#2ca02c;" transform="translate(349.961059 465.933594)scale(0.11 -0.11)">
       <use xlink:href="#ArialMT-49"/>
       <use x="55.615234" xlink:href="#ArialMT-48"/>
       <use x="111.230469" xlink:href="#ArialMT-48"/>
       <use x="166.845703" xlink:href="#ArialMT-48"/>
      </g>
     </g>
    </g>
    <g id="xtick_15">
     <g id="line2d_45">
      <path clip-path="url(#pa6aa641454)" d="M 430.243902 448.56 
L 430.243902 334.418824 
" style="fill:none;stroke:#ffffff;stroke-linecap:round;"/>
     </g>
     <g id="text_21">
      <!-- 1250 -->
      <g style="fill:#2ca02c;" transform="translate(418.00984 465.933594)scale(0.11 -0.11)">
       <use xlink:href="#ArialMT-49"/>
       <use x="55.615234" xlink:href="#ArialMT-50"/>
       <use x="111.230469" xlink:href="#ArialMT-53"/>
       <use x="166.845703" xlink:href="#ArialMT-48"/>
      </g>
     </g>
    </g>
    <g id="xtick_16">
     <g id="line2d_46">
      <path clip-path="url(#pa6aa641454)" d="M 498.292683 448.56 
L 498.292683 334.418824 
" style="fill:none;stroke:#ffffff;stroke-linecap:round;"/>
     </g>
     <g id="text_22">
      <!-- 1500 -->
      <g style="fill:#2ca02c;" transform="translate(486.05862 465.933594)scale(0.11 -0.11)">
       <use xlink:href="#ArialMT-49"/>
       <use x="55.615234" xlink:href="#ArialMT-53"/>
       <use x="111.230469" xlink:href="#ArialMT-48"/>
       <use x="166.845703" xlink:href="#ArialMT-48"/>
      </g>
     </g>
    </g>
    <g id="xtick_17">
     <g id="line2d_47">
      <path clip-path="url(#pa6aa641454)" d="M 566.341463 448.56 
L 566.341463 334.418824 
" style="fill:none;stroke:#ffffff;stroke-linecap:round;"/>
     </g>
     <g id="text_23">
      <!-- 1750 -->
      <g style="fill:#2ca02c;" transform="translate(554.107401 465.933594)scale(0.11 -0.11)">
       <use xlink:href="#ArialMT-49"/>
       <use x="55.615234" xlink:href="#ArialMT-55"/>
       <use x="111.230469" xlink:href="#ArialMT-53"/>
       <use x="166.845703" xlink:href="#ArialMT-48"/>
      </g>
     </g>
    </g>
    <g id="xtick_18">
     <g id="line2d_48">
      <path clip-path="url(#pa6aa641454)" d="M 634.390244 448.56 
L 634.390244 334.418824 
" style="fill:none;stroke:#ffffff;stroke-linecap:round;"/>
     </g>
     <g id="text_24">
      <!-- 2000 -->
      <g style="fill:#2ca02c;" transform="translate(622.156181 465.933594)scale(0.11 -0.11)">
       <use xlink:href="#ArialMT-50"/>
       <use x="55.615234" xlink:href="#ArialMT-48"/>
       <use x="111.230469" xlink:href="#ArialMT-48"/>
       <use x="166.845703" xlink:href="#ArialMT-48"/>
      </g>
     </g>
    </g>
   </g>
   <g id="matplotlib.axis_5">
    <g id="ytick_16">
     <g id="line2d_49">
      <path clip-path="url(#pa6aa641454)" d="M 90 448.56 
L 648 448.56 
" style="fill:none;stroke:#ffffff;stroke-linecap:round;"/>
     </g>
     <g id="text_25">
      <!-- 0 -->
      <g style="fill:#2ca02c;" transform="translate(74.382969 452.496797)scale(0.11 -0.11)">
       <use xlink:href="#ArialMT-48"/>
      </g>
     </g>
    </g>
    <g id="ytick_17">
     <g id="line2d_50">
      <path clip-path="url(#pa6aa641454)" d="M 90 425.731765 
L 648 425.731765 
" style="fill:none;stroke:#ffffff;stroke-linecap:round;"/>
     </g>
     <g id="text_26">
      <!-- 20 -->
      <g style="fill:#2ca02c;" transform="translate(68.265938 429.668562)scale(0.11 -0.11)">
       <use xlink:href="#ArialMT-50"/>
       <use x="55.615234" xlink:href="#ArialMT-48"/>
      </g>
     </g>
    </g>
    <g id="ytick_18">
     <g id="line2d_51">
      <path clip-path="url(#pa6aa641454)" d="M 90 402.903529 
L 648 402.903529 
" style="fill:none;stroke:#ffffff;stroke-linecap:round;"/>
     </g>
     <g id="text_27">
      <!-- 40 -->
      <g style="fill:#2ca02c;" transform="translate(68.265938 406.840326)scale(0.11 -0.11)">
       <use xlink:href="#ArialMT-52"/>
       <use x="55.615234" xlink:href="#ArialMT-48"/>
      </g>
     </g>
    </g>
    <g id="ytick_19">
     <g id="line2d_52">
      <path clip-path="url(#pa6aa641454)" d="M 90 380.075294 
L 648 380.075294 
" style="fill:none;stroke:#ffffff;stroke-linecap:round;"/>
     </g>
     <g id="text_28">
      <!-- 60 -->
      <g style="fill:#2ca02c;" transform="translate(68.265938 384.012091)scale(0.11 -0.11)">
       <use xlink:href="#ArialMT-54"/>
       <use x="55.615234" xlink:href="#ArialMT-48"/>
      </g>
     </g>
    </g>
    <g id="ytick_20">
     <g id="line2d_53">
      <path clip-path="url(#pa6aa641454)" d="M 90 357.247059 
L 648 357.247059 
" style="fill:none;stroke:#ffffff;stroke-linecap:round;"/>
     </g>
     <g id="text_29">
      <!-- 80 -->
      <g style="fill:#2ca02c;" transform="translate(68.265938 361.183856)scale(0.11 -0.11)">
       <use xlink:href="#ArialMT-56"/>
       <use x="55.615234" xlink:href="#ArialMT-48"/>
      </g>
     </g>
    </g>
    <g id="ytick_21">
     <g id="line2d_54">
      <path clip-path="url(#pa6aa641454)" d="M 90 334.418824 
L 648 334.418824 
" style="fill:none;stroke:#ffffff;stroke-linecap:round;"/>
     </g>
     <g id="text_30">
      <!-- 100 -->
      <g style="fill:#2ca02c;" transform="translate(62.148906 338.35562)scale(0.11 -0.11)">
       <use xlink:href="#ArialMT-49"/>
       <use x="55.615234" xlink:href="#ArialMT-48"/>
       <use x="111.230469" xlink:href="#ArialMT-48"/>
      </g>
     </g>
    </g>
   </g>
   <g id="line2d_55">
    <path clip-path="url(#pa6aa641454)" d="M 90 442.852941 
L 103.609756 425.731765 
L 117.219512 422.307529 
L 130.829268 420.024706 
L 144.439024 417.741882 
L 158.04878 415.459059 
L 171.658537 412.034824 
L 185.268293 409.752 
L 198.878049 408.610588 
L 212.487805 404.044941 
L 226.097561 401.762118 
L 239.707317 397.196471 
L 253.317073 389.206588 
L 266.926829 383.499529 
L 280.536585 381.216706 
L 294.146341 376.651059 
L 307.756098 367.519765 
L 321.365854 365.236941 
L 334.97561 361.812706 
L 348.585366 358.388471 
L 362.195122 354.964235 
L 375.804878 357.247059 
L 389.414634 357.247059 
L 403.02439 358.388471 
L 416.634146 358.388471 
L 430.243902 361.812706 
L 443.853659 362.954118 
L 457.463415 364.095529 
L 471.073171 364.095529 
L 484.682927 365.236941 
L 498.292683 365.236941 
" style="fill:none;stroke:#2ca02c;stroke-linecap:round;stroke-width:1.5;"/>
   </g>
   <g id="line2d_56">
    <path clip-path="url(#pa6aa641454)" d="M 90 443.994353 
L 103.609756 433.721647 
L 117.219512 430.297412 
L 130.829268 428.014588 
L 144.439024 425.731765 
L 158.04878 422.307529 
L 171.658537 416.600471 
L 185.268293 416.600471 
L 198.878049 410.893412 
L 212.487805 404.044941 
L 226.097561 401.762118 
L 239.707317 394.913647 
L 253.317073 386.923765 
L 266.926829 380.075294 
L 280.536585 377.792471 
L 294.146341 373.226824 
L 307.756098 364.095529 
L 321.365854 361.812706 
L 334.97561 354.964235 
L 348.585366 351.54 
L 362.195122 349.257176 
L 375.804878 344.691529 
L 389.414634 343.550118 
L 403.02439 343.550118 
L 416.634146 350.398588 
L 430.243902 352.681412 
L 443.853659 353.822824 
L 457.463415 354.964235 
L 471.073171 354.964235 
L 484.682927 358.388471 
L 498.292683 360.671294 
" style="fill:none;stroke:#ff7f0e;stroke-linecap:round;stroke-width:1.5;"/>
   </g>
   <g id="line2d_57">
    <path clip-path="url(#pa6aa641454)" d="M 90 446.277176 
L 103.609756 432.580235 
L 117.219512 430.297412 
L 130.829268 428.014588 
L 144.439024 426.873176 
L 158.04878 424.590353 
L 171.658537 420.024706 
L 185.268293 421.166118 
L 198.878049 417.741882 
L 212.487805 416.600471 
L 226.097561 408.610588 
L 239.707317 405.186353 
L 253.317073 404.044941 
L 266.926829 399.479294 
L 280.536585 391.489412 
L 294.146341 389.206588 
L 307.756098 385.782353 
L 321.365854 378.933882 
L 334.97561 375.509647 
L 348.585366 367.519765 
L 362.195122 358.388471 
L 375.804878 358.388471 
L 389.414634 358.388471 
L 403.02439 361.812706 
L 416.634146 364.095529 
L 430.243902 365.236941 
L 443.853659 366.378353 
L 457.463415 368.661176 
L 471.073171 367.519765 
L 484.682927 367.519765 
L 498.292683 369.802588 
" style="fill:none;stroke:#9467bd;stroke-linecap:round;stroke-width:1.5;"/>
   </g>
   <g id="patch_12">
    <path d="M 90 448.56 
L 90 334.418824 
" style="fill:none;stroke:#ffffff;stroke-linecap:square;stroke-linejoin:miter;stroke-width:1.25;"/>
   </g>
   <g id="patch_13">
    <path d="M 648 448.56 
L 648 334.418824 
" style="fill:none;stroke:#ffffff;stroke-linecap:square;stroke-linejoin:miter;stroke-width:1.25;"/>
   </g>
   <g id="patch_14">
    <path d="M 90 448.56 
L 648 448.56 
" style="fill:none;stroke:#ffffff;stroke-linecap:square;stroke-linejoin:miter;stroke-width:1.25;"/>
   </g>
   <g id="patch_15">
    <path d="M 90 334.418824 
L 648 334.418824 
" style="fill:none;stroke:#ffffff;stroke-linecap:square;stroke-linejoin:miter;stroke-width:1.25;"/>
   </g>
  </g>
 </g>
 <defs>
  <clipPath id="p4b5354a1f8">
   <rect height="251.110588" width="558" x="90" y="60.48"/>
  </clipPath>
  <clipPath id="pa6aa641454">
   <rect height="114.141176" width="558" x="90" y="334.418824"/>
  </clipPath>
 </defs>
</svg>
