<?xml version="1.0" encoding="utf-8" standalone="no"?>
<!DOCTYPE svg PUBLIC "-//W3C//DTD SVG 1.1//EN"
  "http://www.w3.org/Graphics/SVG/1.1/DTD/svg11.dtd">
<!-- Created with matplotlib (https://matplotlib.org/) -->
<svg height="504pt" version="1.1" viewBox="0 0 720 504" width="720pt" xmlns="http://www.w3.org/2000/svg" xmlns:xlink="http://www.w3.org/1999/xlink">
 <defs>
  <style type="text/css">
*{stroke-linecap:butt;stroke-linejoin:round;white-space:pre;}
  </style>
 </defs>
 <g id="figure_1">
  <g id="patch_1">
   <path d="M 0 504 
L 720 504 
L 720 0 
L 0 0 
z
" style="fill:#ffffff;"/>
  </g>
  <g id="axes_1">
   <g id="patch_2">
    <path d="M 90 311.590588 
L 648 311.590588 
L 648 60.48 
L 90 60.48 
z
" style="fill:#eaeaf2;"/>
   </g>
   <g id="matplotlib.axis_1">
    <g id="xtick_1">
     <g id="line2d_1">
      <path clip-path="url(#p16ef45a331)" d="M 90 311.590588 
L 90 60.48 
" style="fill:none;stroke:#ffffff;stroke-linecap:round;"/>
     </g>
    </g>
    <g id="xtick_2">
     <g id="line2d_2">
      <path clip-path="url(#p16ef45a331)" d="M 175.846154 311.590588 
L 175.846154 60.48 
" style="fill:none;stroke:#ffffff;stroke-linecap:round;"/>
     </g>
    </g>
    <g id="xtick_3">
     <g id="line2d_3">
      <path clip-path="url(#p16ef45a331)" d="M 261.692308 311.590588 
L 261.692308 60.48 
" style="fill:none;stroke:#ffffff;stroke-linecap:round;"/>
     </g>
    </g>
    <g id="xtick_4">
     <g id="line2d_4">
      <path clip-path="url(#p16ef45a331)" d="M 347.538462 311.590588 
L 347.538462 60.48 
" style="fill:none;stroke:#ffffff;stroke-linecap:round;"/>
     </g>
    </g>
    <g id="xtick_5">
     <g id="line2d_5">
      <path clip-path="url(#p16ef45a331)" d="M 433.384615 311.590588 
L 433.384615 60.48 
" style="fill:none;stroke:#ffffff;stroke-linecap:round;"/>
     </g>
    </g>
    <g id="xtick_6">
     <g id="line2d_6">
      <path clip-path="url(#p16ef45a331)" d="M 519.230769 311.590588 
L 519.230769 60.48 
" style="fill:none;stroke:#ffffff;stroke-linecap:round;"/>
     </g>
    </g>
    <g id="xtick_7">
     <g id="line2d_7">
      <path clip-path="url(#p16ef45a331)" d="M 605.076923 311.590588 
L 605.076923 60.48 
" style="fill:none;stroke:#ffffff;stroke-linecap:round;"/>
     </g>
    </g>
   </g>
   <g id="matplotlib.axis_2">
    <g id="ytick_1">
     <g id="line2d_8">
      <path clip-path="url(#p16ef45a331)" d="M 90 311.590588 
L 648 311.590588 
" style="fill:none;stroke:#ffffff;stroke-linecap:round;"/>
     </g>
     <g id="line2d_9">
      <defs>
       <path d="M 0 0 
L -6 0 
" id="m2ad1b5a2f3" style="stroke:#262626;stroke-width:1.25;"/>
      </defs>
      <g>
       <use style="fill:#262626;stroke:#262626;stroke-width:1.25;" x="90" xlink:href="#m2ad1b5a2f3" y="311.590588"/>
      </g>
     </g>
     <g id="text_1">
      <!-- 0 -->
      <defs>
       <path d="M 4.15625 35.296875 
Q 4.15625 48 6.765625 55.734375 
Q 9.375 63.484375 14.515625 67.671875 
Q 19.671875 71.875 27.484375 71.875 
Q 33.25 71.875 37.59375 69.546875 
Q 41.9375 67.234375 44.765625 62.859375 
Q 47.609375 58.5 49.21875 52.21875 
Q 50.828125 45.953125 50.828125 35.296875 
Q 50.828125 22.703125 48.234375 14.96875 
Q 45.65625 7.234375 40.5 3 
Q 35.359375 -1.21875 27.484375 -1.21875 
Q 17.140625 -1.21875 11.234375 6.203125 
Q 4.15625 15.140625 4.15625 35.296875 
z
M 13.1875 35.296875 
Q 13.1875 17.671875 17.3125 11.828125 
Q 21.4375 6 27.484375 6 
Q 33.546875 6 37.671875 11.859375 
Q 41.796875 17.71875 41.796875 35.296875 
Q 41.796875 52.984375 37.671875 58.78125 
Q 33.546875 64.59375 27.390625 64.59375 
Q 21.34375 64.59375 17.71875 59.46875 
Q 13.1875 52.9375 13.1875 35.296875 
z
" id="ArialMT-48"/>
      </defs>
      <g style="fill:#d62728;" transform="translate(74.382969 315.527385)scale(0.11 -0.11)">
       <use xlink:href="#ArialMT-48"/>
      </g>
     </g>
    </g>
    <g id="ytick_2">
     <g id="line2d_10">
      <path clip-path="url(#p16ef45a331)" d="M 90 270.511406 
L 648 270.511406 
" style="fill:none;stroke:#ffffff;stroke-linecap:round;"/>
     </g>
     <g id="line2d_11">
      <g>
       <use style="fill:#262626;stroke:#262626;stroke-width:1.25;" x="90" xlink:href="#m2ad1b5a2f3" y="270.511406"/>
      </g>
     </g>
     <g id="text_2">
      <!-- 10 -->
      <defs>
       <path d="M 37.25 0 
L 28.46875 0 
L 28.46875 56 
Q 25.296875 52.984375 20.140625 49.953125 
Q 14.984375 46.921875 10.890625 45.40625 
L 10.890625 53.90625 
Q 18.265625 57.375 23.78125 62.296875 
Q 29.296875 67.234375 31.59375 71.875 
L 37.25 71.875 
z
" id="ArialMT-49"/>
      </defs>
      <g style="fill:#d62728;" transform="translate(68.265938 274.448203)scale(0.11 -0.11)">
       <use xlink:href="#ArialMT-49"/>
       <use x="55.615234" xlink:href="#ArialMT-48"/>
      </g>
     </g>
    </g>
    <g id="ytick_3">
     <g id="line2d_12">
      <path clip-path="url(#p16ef45a331)" d="M 90 229.432225 
L 648 229.432225 
" style="fill:none;stroke:#ffffff;stroke-linecap:round;"/>
     </g>
     <g id="line2d_13">
      <g>
       <use style="fill:#262626;stroke:#262626;stroke-width:1.25;" x="90" xlink:href="#m2ad1b5a2f3" y="229.432225"/>
      </g>
     </g>
     <g id="text_3">
      <!-- 20 -->
      <defs>
       <path d="M 50.34375 8.453125 
L 50.34375 0 
L 3.03125 0 
Q 2.9375 3.171875 4.046875 6.109375 
Q 5.859375 10.9375 9.828125 15.625 
Q 13.8125 20.3125 21.34375 26.46875 
Q 33.015625 36.03125 37.109375 41.625 
Q 41.21875 47.21875 41.21875 52.203125 
Q 41.21875 57.421875 37.46875 61 
Q 33.734375 64.59375 27.734375 64.59375 
Q 21.390625 64.59375 17.578125 60.78125 
Q 13.765625 56.984375 13.71875 50.25 
L 4.6875 51.171875 
Q 5.609375 61.28125 11.65625 66.578125 
Q 17.71875 71.875 27.9375 71.875 
Q 38.234375 71.875 44.234375 66.15625 
Q 50.25 60.453125 50.25 52 
Q 50.25 47.703125 48.484375 43.546875 
Q 46.734375 39.40625 42.65625 34.8125 
Q 38.578125 30.21875 29.109375 22.21875 
Q 21.1875 15.578125 18.9375 13.203125 
Q 16.703125 10.84375 15.234375 8.453125 
z
" id="ArialMT-50"/>
      </defs>
      <g style="fill:#d62728;" transform="translate(68.265938 233.369021)scale(0.11 -0.11)">
       <use xlink:href="#ArialMT-50"/>
       <use x="55.615234" xlink:href="#ArialMT-48"/>
      </g>
     </g>
    </g>
    <g id="ytick_4">
     <g id="line2d_14">
      <path clip-path="url(#p16ef45a331)" d="M 90 188.353043 
L 648 188.353043 
" style="fill:none;stroke:#ffffff;stroke-linecap:round;"/>
     </g>
     <g id="line2d_15">
      <g>
       <use style="fill:#262626;stroke:#262626;stroke-width:1.25;" x="90" xlink:href="#m2ad1b5a2f3" y="188.353043"/>
      </g>
     </g>
     <g id="text_4">
      <!-- 30 -->
      <defs>
       <path d="M 4.203125 18.890625 
L 12.984375 20.0625 
Q 14.5 12.59375 18.140625 9.296875 
Q 21.78125 6 27 6 
Q 33.203125 6 37.46875 10.296875 
Q 41.75 14.59375 41.75 20.953125 
Q 41.75 27 37.796875 30.921875 
Q 33.84375 34.859375 27.734375 34.859375 
Q 25.25 34.859375 21.53125 33.890625 
L 22.515625 41.609375 
Q 23.390625 41.5 23.921875 41.5 
Q 29.546875 41.5 34.03125 44.421875 
Q 38.53125 47.359375 38.53125 53.46875 
Q 38.53125 58.296875 35.25 61.46875 
Q 31.984375 64.65625 26.8125 64.65625 
Q 21.6875 64.65625 18.265625 61.421875 
Q 14.84375 58.203125 13.875 51.765625 
L 5.078125 53.328125 
Q 6.6875 62.15625 12.390625 67.015625 
Q 18.109375 71.875 26.609375 71.875 
Q 32.46875 71.875 37.390625 69.359375 
Q 42.328125 66.84375 44.9375 62.5 
Q 47.5625 58.15625 47.5625 53.265625 
Q 47.5625 48.640625 45.0625 44.828125 
Q 42.578125 41.015625 37.703125 38.765625 
Q 44.046875 37.3125 47.5625 32.6875 
Q 51.078125 28.078125 51.078125 21.140625 
Q 51.078125 11.765625 44.234375 5.25 
Q 37.40625 -1.265625 26.953125 -1.265625 
Q 17.53125 -1.265625 11.296875 4.34375 
Q 5.078125 9.96875 4.203125 18.890625 
z
" id="ArialMT-51"/>
      </defs>
      <g style="fill:#d62728;" transform="translate(68.265938 192.28984)scale(0.11 -0.11)">
       <use xlink:href="#ArialMT-51"/>
       <use x="55.615234" xlink:href="#ArialMT-48"/>
      </g>
     </g>
    </g>
    <g id="ytick_5">
     <g id="line2d_16">
      <path clip-path="url(#p16ef45a331)" d="M 90 147.273861 
L 648 147.273861 
" style="fill:none;stroke:#ffffff;stroke-linecap:round;"/>
     </g>
     <g id="line2d_17">
      <g>
       <use style="fill:#262626;stroke:#262626;stroke-width:1.25;" x="90" xlink:href="#m2ad1b5a2f3" y="147.273861"/>
      </g>
     </g>
     <g id="text_5">
      <!-- 40 -->
      <defs>
       <path d="M 32.328125 0 
L 32.328125 17.140625 
L 1.265625 17.140625 
L 1.265625 25.203125 
L 33.9375 71.578125 
L 41.109375 71.578125 
L 41.109375 25.203125 
L 50.78125 25.203125 
L 50.78125 17.140625 
L 41.109375 17.140625 
L 41.109375 0 
z
M 32.328125 25.203125 
L 32.328125 57.46875 
L 9.90625 25.203125 
z
" id="ArialMT-52"/>
      </defs>
      <g style="fill:#d62728;" transform="translate(68.265938 151.210658)scale(0.11 -0.11)">
       <use xlink:href="#ArialMT-52"/>
       <use x="55.615234" xlink:href="#ArialMT-48"/>
      </g>
     </g>
    </g>
    <g id="ytick_6">
     <g id="line2d_18">
      <path clip-path="url(#p16ef45a331)" d="M 90 106.194679 
L 648 106.194679 
" style="fill:none;stroke:#ffffff;stroke-linecap:round;"/>
     </g>
     <g id="line2d_19">
      <g>
       <use style="fill:#262626;stroke:#262626;stroke-width:1.25;" x="90" xlink:href="#m2ad1b5a2f3" y="106.194679"/>
      </g>
     </g>
     <g id="text_6">
      <!-- 50 -->
      <defs>
       <path d="M 4.15625 18.75 
L 13.375 19.53125 
Q 14.40625 12.796875 18.140625 9.390625 
Q 21.875 6 27.15625 6 
Q 33.5 6 37.890625 10.78125 
Q 42.28125 15.578125 42.28125 23.484375 
Q 42.28125 31 38.0625 35.34375 
Q 33.84375 39.703125 27 39.703125 
Q 22.75 39.703125 19.328125 37.765625 
Q 15.921875 35.84375 13.96875 32.765625 
L 5.71875 33.84375 
L 12.640625 70.609375 
L 48.25 70.609375 
L 48.25 62.203125 
L 19.671875 62.203125 
L 15.828125 42.96875 
Q 22.265625 47.46875 29.34375 47.46875 
Q 38.71875 47.46875 45.15625 40.96875 
Q 51.609375 34.46875 51.609375 24.265625 
Q 51.609375 14.546875 45.953125 7.46875 
Q 39.0625 -1.21875 27.15625 -1.21875 
Q 17.390625 -1.21875 11.203125 4.25 
Q 5.03125 9.71875 4.15625 18.75 
z
" id="ArialMT-53"/>
      </defs>
      <g style="fill:#d62728;" transform="translate(68.265938 110.131476)scale(0.11 -0.11)">
       <use xlink:href="#ArialMT-53"/>
       <use x="55.615234" xlink:href="#ArialMT-48"/>
      </g>
     </g>
    </g>
    <g id="ytick_7">
     <g id="line2d_20">
      <path clip-path="url(#p16ef45a331)" d="M 90 65.115497 
L 648 65.115497 
" style="fill:none;stroke:#ffffff;stroke-linecap:round;"/>
     </g>
     <g id="line2d_21">
      <g>
       <use style="fill:#262626;stroke:#262626;stroke-width:1.25;" x="90" xlink:href="#m2ad1b5a2f3" y="65.115497"/>
      </g>
     </g>
     <g id="text_7">
      <!-- 60 -->
      <defs>
       <path d="M 49.75 54.046875 
L 41.015625 53.375 
Q 39.84375 58.546875 37.703125 60.890625 
Q 34.125 64.65625 28.90625 64.65625 
Q 24.703125 64.65625 21.53125 62.3125 
Q 17.390625 59.28125 14.984375 53.46875 
Q 12.59375 47.65625 12.5 36.921875 
Q 15.671875 41.75 20.265625 44.09375 
Q 24.859375 46.4375 29.890625 46.4375 
Q 38.671875 46.4375 44.84375 39.96875 
Q 51.03125 33.5 51.03125 23.25 
Q 51.03125 16.5 48.125 10.71875 
Q 45.21875 4.9375 40.140625 1.859375 
Q 35.0625 -1.21875 28.609375 -1.21875 
Q 17.625 -1.21875 10.6875 6.859375 
Q 3.765625 14.9375 3.765625 33.5 
Q 3.765625 54.25 11.421875 63.671875 
Q 18.109375 71.875 29.4375 71.875 
Q 37.890625 71.875 43.28125 67.140625 
Q 48.6875 62.40625 49.75 54.046875 
z
M 13.875 23.1875 
Q 13.875 18.65625 15.796875 14.5 
Q 17.71875 10.359375 21.1875 8.171875 
Q 24.65625 6 28.46875 6 
Q 34.03125 6 38.03125 10.484375 
Q 42.046875 14.984375 42.046875 22.703125 
Q 42.046875 30.125 38.078125 34.390625 
Q 34.125 38.671875 28.125 38.671875 
Q 22.171875 38.671875 18.015625 34.390625 
Q 13.875 30.125 13.875 23.1875 
z
" id="ArialMT-54"/>
      </defs>
      <g style="fill:#d62728;" transform="translate(68.265938 69.052294)scale(0.11 -0.11)">
       <use xlink:href="#ArialMT-54"/>
       <use x="55.615234" xlink:href="#ArialMT-48"/>
      </g>
     </g>
    </g>
   </g>
   <g id="line2d_22">
    <path clip-path="url(#p16ef45a331)" d="M 100.618841 -1 
L 102.876923 60.890792 
L 107.169231 117.674877 
L 111.461538 147.729437 
L 115.753846 165.892706 
L 120.046154 174.462751 
L 124.338462 181.521896 
L 128.630769 188.599325 
L 132.923077 196.479818 
L 137.215385 206.610653 
L 141.507692 217.203647 
L 145.8 227.571629 
L 150.092308 237.470712 
L 154.384615 244.996623 
L 158.676923 249.822951 
L 162.969231 253.280048 
L 167.261538 256.619472 
L 171.553846 259.99755 
L 175.846154 263.201441 
L 180.138462 265.672885 
L 184.430769 267.396804 
L 188.723077 268.992583 
L 193.015385 270.453532 
L 197.307692 271.477863 
L 201.6 272.29183 
L 205.892308 273.070903 
L 210.184615 273.862542 
L 214.476923 274.615273 
L 218.769231 275.366383 
L 223.061538 276.047281 
L 227.353846 276.711421 
L 231.646154 277.350021 
L 235.938462 277.899333 
L 240.230769 278.465892 
L 244.523077 279.039863 
L 248.815385 279.597104 
L 253.107692 280.150729 
L 257.4 280.657564 
L 261.692308 281.12016 
L 265.984615 281.555506 
L 270.276923 281.995453 
L 274.569231 282.381846 
L 278.861538 282.774922 
L 283.153846 283.179679 
L 287.446154 283.535514 
L 291.738462 283.867082 
L 296.030769 284.224371 
L 300.323077 284.533905 
L 304.615385 284.81644 
L 308.907692 285.109603 
L 313.2 285.391643 
L 317.492308 285.611154 
L 321.784615 285.846601 
L 326.076923 285.983097 
L 330.369231 286.169641 
L 334.661538 286.351478 
L 338.953846 286.522593 
L 343.246154 286.623303 
L 347.538462 286.745945 
L 351.830769 286.874662 
L 356.123077 287.07966 
L 360.415385 287.18284 
L 364.707692 287.304204 
L 369 287.396746 
L 373.292308 287.541369 
L 377.584615 287.615566 
L 381.876923 287.736733 
L 386.169231 287.805833 
L 390.461538 287.853358 
L 394.753846 287.908405 
L 399.046154 287.908155 
L 403.338462 287.953513 
L 407.630769 287.980876 
L 411.923077 288.068614 
L 416.215385 288.109247 
L 420.507692 288.171441 
L 424.8 288.219884 
L 429.092308 288.264413 
L 433.384615 288.290777 
L 437.676923 288.31952 
L 441.969231 288.328067 
L 446.261538 288.348304 
L 450.553846 288.32503 
L 454.846154 288.306725 
L 459.138462 288.292273 
L 463.430769 288.279639 
L 467.723077 288.184978 
L 472.015385 288.176846 
L 476.307692 288.163706 
L 480.6 288.144032 
L 484.892308 288.130236 
L 489.184615 288.087363 
L 493.476923 288.055169 
L 497.769231 288.035872 
L 502.061538 288.013479 
L 506.353846 287.995159 
L 510.646154 287.983286 
L 514.938462 287.90486 
L 519.230769 287.922927 
L 523.523077 287.909349 
L 527.815385 287.897053 
L 532.107692 287.877548 
L 536.4 287.794774 
L 540.692308 287.745059 
L 544.984615 287.682774 
L 549.276923 287.625531 
L 553.569231 287.581083 
L 557.861538 287.529994 
L 562.153846 287.489569 
L 566.446154 287.438762 
L 570.738462 287.402089 
L 575.030769 287.36125 
L 579.323077 287.050922 
L 583.615385 286.955008 
L 587.907692 286.907779 
L 592.2 286.789654 
L 596.492308 286.756283 
L 600.784615 286.72057 
" style="fill:none;stroke:#d62728;stroke-linecap:round;stroke-width:1.5;"/>
   </g>
   <g id="line2d_23">
    <path clip-path="url(#p16ef45a331)" d="M 97.705098 -1 
L 98.584615 28.249778 
L 102.876923 132.048942 
L 107.169231 176.584395 
L 111.461538 195.34816 
L 115.753846 203.357179 
L 120.046154 203.974251 
L 124.338462 204.475846 
L 128.630769 206.126678 
L 132.923077 209.590985 
L 137.215385 216.250692 
L 141.507692 224.757656 
L 145.8 234.530393 
L 150.092308 245.299089 
L 154.384615 254.656715 
L 158.676923 260.483292 
L 162.969231 264.06793 
L 167.261538 267.148329 
L 171.553846 270.449783 
L 175.846154 273.878721 
L 180.138462 276.818913 
L 184.430769 278.848605 
L 188.723077 280.600331 
L 193.015385 282.233877 
L 197.307692 283.313275 
L 201.6 283.950465 
L 205.892308 284.408518 
L 210.184615 284.822228 
L 214.476923 285.177624 
L 218.769231 285.527846 
L 223.061538 285.814114 
L 227.353846 286.101375 
L 231.646154 286.381264 
L 235.938462 286.586519 
L 240.230769 286.816415 
L 244.523077 287.067611 
L 248.815385 287.315775 
L 253.107692 287.573774 
L 257.4 287.801049 
L 261.692308 287.997016 
L 265.984615 288.172565 
L 270.276923 288.367112 
L 274.569231 288.516031 
L 278.861538 288.682193 
L 283.153846 288.866616 
L 287.446154 289.014283 
L 291.738462 289.146397 
L 296.030769 289.319033 
L 300.323077 289.445577 
L 304.615385 289.560921 
L 308.907692 289.690238 
L 313.2 289.819811 
L 317.492308 289.897821 
L 321.784615 289.995694 
L 326.076923 290.000491 
L 330.369231 290.05941 
L 334.661538 290.120841 
L 338.953846 290.17854 
L 343.246154 290.175179 
L 347.538462 290.196925 
L 351.830769 290.232844 
L 356.123077 290.345712 
L 360.415385 290.361624 
L 364.707692 290.399204 
L 369 290.4128 
L 373.292308 290.482659 
L 377.584615 290.484793 
L 381.876923 290.538801 
L 386.169231 290.542412 
L 390.461538 290.531098 
L 394.753846 290.528194 
L 399.046154 290.474007 
L 403.338462 290.469439 
L 407.630769 290.448107 
L 411.923077 290.490123 
L 416.215385 290.485116 
L 420.507692 290.504406 
L 424.8 290.512372 
L 429.092308 290.518939 
L 433.384615 290.508963 
L 437.676923 290.503595 
L 441.969231 290.481226 
L 446.261538 290.47139 
L 450.553846 290.419923 
L 454.846154 290.374319 
L 459.138462 290.33649 
L 463.430769 290.301168 
L 467.723077 290.184117 
L 472.015385 290.157734 
L 476.307692 290.123807 
L 480.6 290.087074 
L 484.892308 290.055756 
L 489.184615 289.996536 
L 493.476923 289.948323 
L 497.769231 289.916123 
L 502.061538 289.881134 
L 506.353846 289.85045 
L 510.646154 289.826245 
L 514.938462 289.735024 
L 519.230769 289.743301 
L 523.523077 289.719911 
L 527.815385 289.698842 
L 532.107692 289.670229 
L 536.4 289.579531 
L 540.692308 289.522626 
L 544.984615 289.453561 
L 549.276923 289.389976 
L 553.569231 289.339908 
L 557.861538 289.28164 
L 562.153846 289.235253 
L 566.446154 289.177829 
L 570.738462 289.138112 
L 575.030769 289.092036 
L 579.323077 288.778562 
L 583.615385 288.679401 
L 587.907692 288.627816 
L 592.2 288.505649 
L 596.492308 288.469238 
L 600.784615 288.430588 
" style="fill:none;stroke:#d62728;stroke-dasharray:0.5,0.825;stroke-dashoffset:0;stroke-width:0.5;"/>
   </g>
   <g id="line2d_24">
    <path clip-path="url(#p16ef45a331)" d="M 90 179.03244 
L 94.292308 210.670918 
L 98.584615 226.585578 
L 102.876923 240.432438 
L 107.169231 252.68107 
L 111.461538 263.971865 
L 115.753846 274.126115 
L 120.046154 282.079088 
L 124.338462 288.636638 
L 128.630769 294.063236 
L 132.923077 298.479422 
L 137.215385 301.950548 
L 141.507692 304.036579 
L 145.8 304.631824 
L 150.092308 303.762211 
L 154.384615 301.930497 
L 158.676923 300.930247 
L 162.969231 300.802707 
L 167.261538 301.061731 
L 171.553846 301.138355 
L 175.846154 300.913308 
L 180.138462 300.444561 
L 184.430769 300.138787 
L 188.723077 299.98284 
L 193.015385 299.810243 
L 197.307692 299.755177 
L 201.6 299.931953 
L 205.892308 300.252973 
L 210.184615 300.630903 
L 214.476923 301.028237 
L 218.769231 301.429125 
L 223.061538 301.823754 
L 227.353846 302.200635 
L 231.646154 302.559345 
L 235.938462 302.903402 
L 240.230769 303.240066 
L 244.523077 303.56284 
L 248.815385 303.871917 
L 253.107692 304.167543 
L 257.4 304.447104 
L 261.692308 304.713732 
L 265.984615 304.973529 
L 270.276923 305.21893 
L 274.569231 305.456404 
L 278.861538 305.683318 
L 283.153846 305.903651 
L 287.446154 306.11182 
L 291.738462 306.311273 
L 296.030769 306.495926 
L 300.323077 306.678916 
L 304.615385 306.846107 
L 308.907692 307.009953 
L 313.2 307.16242 
L 317.492308 307.303921 
L 321.784615 307.441495 
L 326.076923 307.573195 
L 330.369231 307.700819 
L 334.661538 307.821226 
L 338.953846 307.934641 
L 343.246154 308.038713 
L 347.538462 308.139608 
L 351.830769 308.232406 
L 356.123077 308.324536 
L 360.415385 308.411804 
L 364.707692 308.495589 
L 369 308.574534 
L 373.292308 308.649298 
L 377.584615 308.721362 
L 381.876923 308.78852 
L 386.169231 308.85401 
L 390.461538 308.912848 
L 394.753846 308.9708 
L 399.046154 309.024736 
L 403.338462 309.074662 
L 407.630769 309.123357 
L 411.923077 309.16908 
L 416.215385 309.214719 
L 420.507692 309.257623 
L 424.8 309.298099 
L 429.092308 309.336062 
L 433.384615 309.372402 
L 437.676923 309.406514 
L 441.969231 309.437429 
L 446.261538 309.467502 
L 450.553846 309.495695 
L 454.846154 309.522995 
L 459.138462 309.546371 
L 463.430769 309.56906 
L 467.723077 309.591449 
L 472.015385 309.6097 
L 476.307692 309.630487 
L 480.6 309.647546 
L 484.892308 309.665068 
L 489.184615 309.681415 
L 493.476923 309.697435 
L 497.769231 309.710338 
L 502.061538 309.722934 
L 506.353846 309.735297 
L 510.646154 309.747629 
L 514.938462 309.760424 
L 519.230769 309.770214 
L 523.523077 309.780027 
L 527.815385 309.788799 
L 532.107692 309.797907 
L 536.4 309.805831 
L 540.692308 309.813022 
L 544.984615 309.819801 
L 549.276923 309.826143 
L 553.569231 309.831764 
L 557.861538 309.838942 
L 562.153846 309.844904 
L 566.446154 309.851522 
L 570.738462 309.854564 
L 575.030769 309.859803 
L 579.323077 309.862949 
L 583.615385 309.866196 
L 587.907692 309.870551 
L 592.2 309.874593 
L 596.492308 309.877633 
L 600.784615 309.88057 
" style="fill:none;stroke:#d62728;stroke-dasharray:3.2,0.8,0.5,0.8;stroke-dashoffset:0;stroke-width:0.5;"/>
   </g>
   <g id="patch_3">
    <path d="M 90 311.590588 
L 90 60.48 
" style="fill:none;stroke:#ffffff;stroke-linecap:square;stroke-linejoin:miter;stroke-width:1.25;"/>
   </g>
   <g id="patch_4">
    <path d="M 648 311.590588 
L 648 60.48 
" style="fill:none;stroke:#ffffff;stroke-linecap:square;stroke-linejoin:miter;stroke-width:1.25;"/>
   </g>
   <g id="patch_5">
    <path d="M 90 311.590588 
L 648 311.590588 
" style="fill:none;stroke:#ffffff;stroke-linecap:square;stroke-linejoin:miter;stroke-width:1.25;"/>
   </g>
   <g id="patch_6">
    <path d="M 90 60.48 
L 648 60.48 
" style="fill:none;stroke:#ffffff;stroke-linecap:square;stroke-linejoin:miter;stroke-width:1.25;"/>
   </g>
  </g>
  <g id="axes_2">
   <g id="matplotlib.axis_3">
    <g id="ytick_8">
     <g id="line2d_25">
      <defs>
       <path d="M 0 0 
L 6 0 
" id="mfb5712d52e" style="stroke:#262626;stroke-width:1.25;"/>
      </defs>
      <g>
       <use style="fill:#262626;stroke:#262626;stroke-width:1.25;" x="648" xlink:href="#mfb5712d52e" y="311.590588"/>
      </g>
     </g>
     <g id="text_8">
      <!-- 0 -->
      <g style="fill:#1f77b4;" transform="translate(657.5 315.527385)scale(0.11 -0.11)">
       <use xlink:href="#ArialMT-48"/>
      </g>
     </g>
    </g>
    <g id="ytick_9">
     <g id="line2d_26">
      <g>
       <use style="fill:#262626;stroke:#262626;stroke-width:1.25;" x="648" xlink:href="#mfb5712d52e" y="261.368471"/>
      </g>
     </g>
     <g id="text_9">
      <!-- 200 -->
      <g style="fill:#1f77b4;" transform="translate(657.5 265.305267)scale(0.11 -0.11)">
       <use xlink:href="#ArialMT-50"/>
       <use x="55.615234" xlink:href="#ArialMT-48"/>
       <use x="111.230469" xlink:href="#ArialMT-48"/>
      </g>
     </g>
    </g>
    <g id="ytick_10">
     <g id="line2d_27">
      <g>
       <use style="fill:#262626;stroke:#262626;stroke-width:1.25;" x="648" xlink:href="#mfb5712d52e" y="211.146353"/>
      </g>
     </g>
     <g id="text_10">
      <!-- 400 -->
      <g style="fill:#1f77b4;" transform="translate(657.5 215.08315)scale(0.11 -0.11)">
       <use xlink:href="#ArialMT-52"/>
       <use x="55.615234" xlink:href="#ArialMT-48"/>
       <use x="111.230469" xlink:href="#ArialMT-48"/>
      </g>
     </g>
    </g>
    <g id="ytick_11">
     <g id="line2d_28">
      <g>
       <use style="fill:#262626;stroke:#262626;stroke-width:1.25;" x="648" xlink:href="#mfb5712d52e" y="160.924235"/>
      </g>
     </g>
     <g id="text_11">
      <!-- 600 -->
      <g style="fill:#1f77b4;" transform="translate(657.5 164.861032)scale(0.11 -0.11)">
       <use xlink:href="#ArialMT-54"/>
       <use x="55.615234" xlink:href="#ArialMT-48"/>
       <use x="111.230469" xlink:href="#ArialMT-48"/>
      </g>
     </g>
    </g>
    <g id="ytick_12">
     <g id="line2d_29">
      <g>
       <use style="fill:#262626;stroke:#262626;stroke-width:1.25;" x="648" xlink:href="#mfb5712d52e" y="110.702118"/>
      </g>
     </g>
     <g id="text_12">
      <!-- 800 -->
      <defs>
       <path d="M 17.671875 38.8125 
Q 12.203125 40.828125 9.5625 44.53125 
Q 6.9375 48.25 6.9375 53.421875 
Q 6.9375 61.234375 12.546875 66.546875 
Q 18.171875 71.875 27.484375 71.875 
Q 36.859375 71.875 42.578125 66.421875 
Q 48.296875 60.984375 48.296875 53.171875 
Q 48.296875 48.1875 45.671875 44.5 
Q 43.0625 40.828125 37.75 38.8125 
Q 44.34375 36.671875 47.78125 31.875 
Q 51.21875 27.09375 51.21875 20.453125 
Q 51.21875 11.28125 44.71875 5.03125 
Q 38.234375 -1.21875 27.640625 -1.21875 
Q 17.046875 -1.21875 10.546875 5.046875 
Q 4.046875 11.328125 4.046875 20.703125 
Q 4.046875 27.6875 7.59375 32.390625 
Q 11.140625 37.109375 17.671875 38.8125 
z
M 15.921875 53.71875 
Q 15.921875 48.640625 19.1875 45.40625 
Q 22.46875 42.1875 27.6875 42.1875 
Q 32.765625 42.1875 36.015625 45.375 
Q 39.265625 48.578125 39.265625 53.21875 
Q 39.265625 58.0625 35.90625 61.359375 
Q 32.5625 64.65625 27.59375 64.65625 
Q 22.5625 64.65625 19.234375 61.421875 
Q 15.921875 58.203125 15.921875 53.71875 
z
M 13.09375 20.65625 
Q 13.09375 16.890625 14.875 13.375 
Q 16.65625 9.859375 20.171875 7.921875 
Q 23.6875 6 27.734375 6 
Q 34.03125 6 38.125 10.046875 
Q 42.234375 14.109375 42.234375 20.359375 
Q 42.234375 26.703125 38.015625 30.859375 
Q 33.796875 35.015625 27.4375 35.015625 
Q 21.234375 35.015625 17.15625 30.90625 
Q 13.09375 26.8125 13.09375 20.65625 
z
" id="ArialMT-56"/>
      </defs>
      <g style="fill:#1f77b4;" transform="translate(657.5 114.638915)scale(0.11 -0.11)">
       <use xlink:href="#ArialMT-56"/>
       <use x="55.615234" xlink:href="#ArialMT-48"/>
       <use x="111.230469" xlink:href="#ArialMT-48"/>
      </g>
     </g>
    </g>
    <g id="ytick_13">
     <g id="line2d_30">
      <g>
       <use style="fill:#262626;stroke:#262626;stroke-width:1.25;" x="648" xlink:href="#mfb5712d52e" y="60.48"/>
      </g>
     </g>
     <g id="text_13">
      <!-- 1000 -->
      <g style="fill:#1f77b4;" transform="translate(657.5 64.416797)scale(0.11 -0.11)">
       <use xlink:href="#ArialMT-49"/>
       <use x="55.615234" xlink:href="#ArialMT-48"/>
       <use x="111.230469" xlink:href="#ArialMT-48"/>
       <use x="166.845703" xlink:href="#ArialMT-48"/>
      </g>
     </g>
    </g>
   </g>
   <g id="line2d_31">
    <path clip-path="url(#p16ef45a331)" d="M 90 311.339478 
L 94.292308 307.070598 
L 98.584615 305.061713 
L 102.876923 301.797275 
L 107.169231 301.043944 
L 111.461538 293.761736 
L 115.753846 279.699544 
L 120.046154 255.090706 
L 124.338462 239.521849 
L 128.630769 229.728536 
L 132.923077 227.217431 
L 137.215385 227.217431 
L 141.507692 224.204104 
L 145.8 216.921896 
L 150.092308 209.8908 
L 154.384615 199.093045 
L 158.676923 191.559727 
L 162.969231 189.299732 
L 167.261538 186.035294 
L 171.553846 184.779741 
L 175.846154 181.264193 
L 180.138462 175.990871 
L 184.430769 172.224212 
L 188.723077 171.219769 
L 193.015385 167.955332 
L 197.307692 164.942005 
L 201.6 161.928678 
L 205.892308 158.162019 
L 210.184615 156.655355 
L 214.476923 155.148692 
L 218.769231 153.642028 
L 223.061538 151.884254 
L 227.353846 150.377591 
L 231.646154 149.875369 
L 235.938462 149.122038 
L 240.230769 147.866485 
L 244.523077 147.364264 
L 248.815385 145.8576 
L 253.107692 144.602047 
L 257.4 143.346494 
L 261.692308 142.342052 
L 265.984615 140.584278 
L 270.276923 140.333167 
L 274.569231 139.830946 
L 278.861538 139.328725 
L 283.153846 137.570951 
L 287.446154 137.068729 
L 291.738462 136.315398 
L 296.030769 135.813176 
L 300.323077 134.306513 
L 304.615385 134.055402 
L 308.907692 133.302071 
L 313.2 133.302071 
L 317.492308 131.795407 
L 321.784615 132.046518 
L 326.076923 132.548739 
L 330.369231 132.046518 
L 334.661538 132.297628 
L 338.953846 132.046518 
L 343.246154 132.046518 
L 347.538462 132.548739 
L 351.830769 132.548739 
L 356.123077 131.795407 
L 360.415385 131.544296 
L 364.707692 131.293186 
L 369 131.293186 
L 373.292308 130.288744 
L 377.584615 130.288744 
L 381.876923 130.790965 
L 386.169231 131.293186 
L 390.461538 131.293186 
L 394.753846 131.293186 
L 399.046154 131.293186 
L 403.338462 132.297628 
L 407.630769 132.297628 
L 411.923077 132.548739 
L 416.215385 132.297628 
L 420.507692 132.046518 
L 424.8 132.046518 
L 429.092308 131.293186 
L 433.384615 131.544296 
L 437.676923 131.795407 
L 441.969231 132.046518 
L 446.261538 132.297628 
L 450.553846 132.799849 
L 454.846154 132.799849 
L 459.138462 133.553181 
L 463.430769 133.804292 
L 467.723077 134.557624 
L 472.015385 134.055402 
L 476.307692 134.306513 
L 480.6 133.804292 
L 484.892308 134.557624 
L 489.184615 135.562066 
L 493.476923 136.566508 
L 497.769231 136.566508 
L 502.061538 136.566508 
L 506.353846 136.817619 
L 510.646154 136.566508 
L 514.938462 137.31984 
L 519.230769 136.817619 
L 523.523077 136.817619 
L 527.815385 136.817619 
L 532.107692 137.068729 
L 536.4 137.570951 
L 540.692308 137.570951 
L 544.984615 138.324282 
L 549.276923 138.826504 
L 553.569231 138.826504 
L 557.861538 139.830946 
L 562.153846 140.082056 
L 566.446154 140.333167 
L 570.738462 140.584278 
L 575.030769 140.333167 
L 579.323077 141.086499 
L 583.615385 141.839831 
L 587.907692 142.593162 
L 592.2 142.342052 
L 596.492308 142.593162 
L 600.784615 142.593162 
" style="fill:none;stroke:#1f77b4;stroke-linecap:round;stroke-width:1.5;"/>
   </g>
   <g id="line2d_32">
    <path clip-path="url(#p16ef45a331)" d="M 90 309.581704 
L 94.292308 269.404009 
L 98.584615 270.157341 
L 102.876923 276.435106 
L 107.169231 279.699544 
L 111.461538 278.946212 
L 115.753846 273.421779 
L 120.046154 270.408452 
L 124.338462 260.364028 
L 128.630769 243.790729 
L 132.923077 227.217431 
L 137.215385 207.630805 
L 141.507692 174.233096 
L 145.8 146.862042 
L 150.092308 141.337609 
L 154.384615 156.655355 
L 158.676923 167.955332 
L 162.969231 166.699779 
L 167.261538 168.457553 
L 171.553846 170.215327 
L 175.846154 178.250866 
L 180.138462 181.766414 
L 184.430769 184.779741 
L 188.723077 185.030852 
L 193.015385 186.286405 
L 197.307692 187.039736 
L 201.6 186.537515 
L 205.892308 183.775299 
L 210.184615 180.259751 
L 214.476923 175.488649 
L 218.769231 171.721991 
L 223.061538 167.955332 
L 227.353846 165.193115 
L 231.646154 162.179788 
L 235.938462 160.170904 
L 240.230769 154.646471 
L 244.523077 150.879812 
L 248.815385 146.108711 
L 253.107692 143.095384 
L 257.4 141.58872 
L 261.692308 137.068729 
L 265.984615 133.05096 
L 270.276923 131.544296 
L 274.569231 129.284301 
L 278.861538 127.526527 
L 283.153846 126.019864 
L 287.446154 124.764311 
L 291.738462 122.504315 
L 296.030769 119.993209 
L 300.323077 117.984325 
L 304.615385 116.477661 
L 308.907692 114.468776 
L 313.2 111.70656 
L 317.492308 110.451007 
L 321.784615 108.944344 
L 326.076923 108.442122 
L 330.369231 107.43768 
L 334.661538 106.433238 
L 338.953846 105.177685 
L 343.246154 104.926574 
L 347.538462 103.922132 
L 351.830769 102.666579 
L 356.123077 101.159915 
L 360.415385 100.908805 
L 364.707692 100.155473 
L 369 99.653252 
L 373.292308 99.653252 
L 377.584615 99.151031 
L 381.876923 97.895478 
L 386.169231 96.388814 
L 390.461538 95.133261 
L 394.753846 94.63104 
L 399.046154 93.626598 
L 403.338462 92.371045 
L 407.630769 92.371045 
L 411.923077 90.864381 
L 416.215385 90.613271 
L 420.507692 89.859939 
L 424.8 87.851054 
L 429.092308 87.348833 
L 433.384615 85.088838 
L 437.676923 84.335506 
L 441.969231 82.577732 
L 446.261538 81.322179 
L 450.553846 80.568847 
L 454.846154 80.066626 
L 459.138462 79.313294 
L 463.430769 78.811073 
L 467.723077 78.057741 
L 472.015385 77.806631 
L 476.307692 76.299967 
L 480.6 76.802188 
L 484.892308 75.295525 
L 489.184615 74.793304 
L 493.476923 74.291082 
L 497.769231 74.039972 
L 502.061538 73.035529 
L 506.353846 72.784419 
L 510.646154 71.277755 
L 514.938462 70.524424 
L 519.230769 69.519981 
L 523.523077 69.268871 
L 527.815385 69.01776 
L 532.107692 68.264428 
L 536.4 67.511096 
L 540.692308 66.757765 
L 544.984615 66.757765 
L 549.276923 66.757765 
L 553.569231 66.255544 
L 557.861538 66.255544 
L 562.153846 66.255544 
L 566.446154 66.255544 
L 570.738462 66.757765 
L 575.030769 66.757765 
L 579.323077 67.259986 
L 583.615385 67.259986 
L 587.907692 67.511096 
L 592.2 67.762207 
L 596.492308 68.013318 
L 600.784615 68.013318 
" style="fill:none;stroke:#7f7f7f;stroke-linecap:round;stroke-width:1.5;"/>
   </g>
   <g id="line2d_33">
    <path clip-path="url(#p16ef45a331)" d="M 90 311.339478 
L 94.292308 307.572819 
L 98.584615 306.317266 
L 102.876923 302.550607 
L 107.169231 299.286169 
L 111.461538 293.259515 
L 115.753846 280.955096 
L 120.046154 258.355144 
L 124.338462 244.544061 
L 128.630769 235.50408 
L 132.923077 231.2352 
L 137.215385 228.975205 
L 141.507692 220.939666 
L 145.8 213.657459 
L 150.092308 201.855261 
L 154.384615 191.057506 
L 158.676923 184.27752 
L 162.969231 177.748645 
L 167.261538 173.228654 
L 171.553846 163.686452 
L 175.846154 154.144249 
L 180.138462 145.355379 
L 184.430769 139.077614 
L 188.723077 132.046518 
L 193.015385 127.526527 
L 197.307692 126.773195 
L 201.6 125.517642 
L 205.892308 126.270974 
L 210.184615 126.270974 
L 214.476923 127.024306 
L 218.769231 126.019864 
L 223.061538 126.270974 
L 227.353846 126.522085 
L 231.646154 127.275416 
L 235.938462 127.275416 
L 240.230769 128.028748 
L 244.523077 128.530969 
L 248.815385 130.037633 
L 253.107692 130.790965 
L 257.4 130.288744 
L 261.692308 131.544296 
L 265.984615 130.539854 
L 270.276923 130.539854 
L 274.569231 130.288744 
L 278.861538 130.288744 
L 283.153846 130.037633 
L 287.446154 130.790965 
L 291.738462 131.544296 
L 296.030769 131.042075 
L 300.323077 131.042075 
L 304.615385 131.544296 
L 308.907692 131.795407 
L 313.2 132.297628 
L 317.492308 131.544296 
L 321.784615 131.795407 
L 326.076923 132.297628 
L 330.369231 133.302071 
L 334.661538 133.804292 
L 338.953846 133.553181 
L 343.246154 133.804292 
L 347.538462 133.553181 
L 351.830769 134.306513 
L 356.123077 135.059845 
L 360.415385 135.059845 
L 364.707692 135.059845 
L 369 135.562066 
L 373.292308 136.064287 
L 377.584615 136.315398 
L 381.876923 136.566508 
L 386.169231 138.073172 
L 390.461538 138.073172 
L 394.753846 138.324282 
L 399.046154 138.324282 
L 403.338462 139.830946 
L 407.630769 140.835388 
L 411.923077 141.086499 
L 416.215385 141.086499 
L 420.507692 141.337609 
L 424.8 142.342052 
L 429.092308 142.844273 
L 433.384615 142.844273 
L 437.676923 142.593162 
L 441.969231 142.844273 
L 446.261538 142.844273 
L 450.553846 143.346494 
L 454.846154 144.099826 
L 459.138462 145.104268 
L 463.430769 144.853158 
L 467.723077 145.8576 
L 472.015385 146.108711 
L 476.307692 147.113153 
L 480.6 147.364264 
L 484.892308 147.615374 
L 489.184615 147.615374 
L 493.476923 148.619816 
L 497.769231 147.866485 
L 502.061538 148.619816 
L 506.353846 148.619816 
L 510.646154 149.122038 
L 514.938462 150.377591 
L 519.230769 149.875369 
L 523.523077 150.12648 
L 527.815385 149.875369 
L 532.107692 149.624259 
L 536.4 150.879812 
L 540.692308 151.130922 
L 544.984615 151.633144 
L 549.276923 151.884254 
L 553.569231 152.135365 
L 557.861538 152.637586 
L 562.153846 152.637586 
L 566.446154 153.139807 
L 570.738462 153.390918 
L 575.030769 153.390918 
L 579.323077 153.893139 
L 583.615385 155.148692 
L 587.907692 155.148692 
L 592.2 155.148692 
L 596.492308 155.650913 
L 600.784615 155.650913 
" style="fill:none;stroke:#2ca02c;stroke-linecap:round;stroke-width:1.5;"/>
   </g>
   <g id="patch_7">
    <path d="M 90 311.590588 
L 90 60.48 
" style="fill:none;stroke:#ffffff;stroke-linecap:square;stroke-linejoin:miter;stroke-width:1.25;"/>
   </g>
   <g id="patch_8">
    <path d="M 648 311.590588 
L 648 60.48 
" style="fill:none;stroke:#ffffff;stroke-linecap:square;stroke-linejoin:miter;stroke-width:1.25;"/>
   </g>
   <g id="patch_9">
    <path d="M 90 311.590588 
L 648 311.590588 
" style="fill:none;stroke:#ffffff;stroke-linecap:square;stroke-linejoin:miter;stroke-width:1.25;"/>
   </g>
   <g id="patch_10">
    <path d="M 90 60.48 
L 648 60.48 
" style="fill:none;stroke:#ffffff;stroke-linecap:square;stroke-linejoin:miter;stroke-width:1.25;"/>
   </g>
  </g>
  <g id="axes_3">
   <g id="patch_11">
    <path d="M 90 448.56 
L 648 448.56 
L 648 334.418824 
L 90 334.418824 
z
" style="fill:#eaeaf2;"/>
   </g>
   <g id="matplotlib.axis_4">
    <g id="xtick_8">
     <g id="line2d_34">
      <path clip-path="url(#pa2fb88c8a2)" d="M 90 448.56 
L 90 334.418824 
" style="fill:none;stroke:#ffffff;stroke-linecap:round;"/>
     </g>
     <g id="text_14">
      <!-- 0 -->
      <g style="fill:#2ca02c;" transform="translate(86.941484 465.933594)scale(0.11 -0.11)">
       <use xlink:href="#ArialMT-48"/>
      </g>
     </g>
    </g>
    <g id="xtick_9">
     <g id="line2d_35">
      <path clip-path="url(#pa2fb88c8a2)" d="M 175.846154 448.56 
L 175.846154 334.418824 
" style="fill:none;stroke:#ffffff;stroke-linecap:round;"/>
     </g>
     <g id="text_15">
      <!-- 1000 -->
      <g style="fill:#2ca02c;" transform="translate(163.612091 465.933594)scale(0.11 -0.11)">
       <use xlink:href="#ArialMT-49"/>
       <use x="55.615234" xlink:href="#ArialMT-48"/>
       <use x="111.230469" xlink:href="#ArialMT-48"/>
       <use x="166.845703" xlink:href="#ArialMT-48"/>
      </g>
     </g>
    </g>
    <g id="xtick_10">
     <g id="line2d_36">
      <path clip-path="url(#pa2fb88c8a2)" d="M 261.692308 448.56 
L 261.692308 334.418824 
" style="fill:none;stroke:#ffffff;stroke-linecap:round;"/>
     </g>
     <g id="text_16">
      <!-- 2000 -->
      <g style="fill:#2ca02c;" transform="translate(249.458245 465.933594)scale(0.11 -0.11)">
       <use xlink:href="#ArialMT-50"/>
       <use x="55.615234" xlink:href="#ArialMT-48"/>
       <use x="111.230469" xlink:href="#ArialMT-48"/>
       <use x="166.845703" xlink:href="#ArialMT-48"/>
      </g>
     </g>
    </g>
    <g id="xtick_11">
     <g id="line2d_37">
      <path clip-path="url(#pa2fb88c8a2)" d="M 347.538462 448.56 
L 347.538462 334.418824 
" style="fill:none;stroke:#ffffff;stroke-linecap:round;"/>
     </g>
     <g id="text_17">
      <!-- 3000 -->
      <g style="fill:#2ca02c;" transform="translate(335.304399 465.933594)scale(0.11 -0.11)">
       <use xlink:href="#ArialMT-51"/>
       <use x="55.615234" xlink:href="#ArialMT-48"/>
       <use x="111.230469" xlink:href="#ArialMT-48"/>
       <use x="166.845703" xlink:href="#ArialMT-48"/>
      </g>
     </g>
    </g>
    <g id="xtick_12">
     <g id="line2d_38">
      <path clip-path="url(#pa2fb88c8a2)" d="M 433.384615 448.56 
L 433.384615 334.418824 
" style="fill:none;stroke:#ffffff;stroke-linecap:round;"/>
     </g>
     <g id="text_18">
      <!-- 4000 -->
      <g style="fill:#2ca02c;" transform="translate(421.150553 465.933594)scale(0.11 -0.11)">
       <use xlink:href="#ArialMT-52"/>
       <use x="55.615234" xlink:href="#ArialMT-48"/>
       <use x="111.230469" xlink:href="#ArialMT-48"/>
       <use x="166.845703" xlink:href="#ArialMT-48"/>
      </g>
     </g>
    </g>
    <g id="xtick_13">
     <g id="line2d_39">
      <path clip-path="url(#pa2fb88c8a2)" d="M 519.230769 448.56 
L 519.230769 334.418824 
" style="fill:none;stroke:#ffffff;stroke-linecap:round;"/>
     </g>
     <g id="text_19">
      <!-- 5000 -->
      <g style="fill:#2ca02c;" transform="translate(506.996707 465.933594)scale(0.11 -0.11)">
       <use xlink:href="#ArialMT-53"/>
       <use x="55.615234" xlink:href="#ArialMT-48"/>
       <use x="111.230469" xlink:href="#ArialMT-48"/>
       <use x="166.845703" xlink:href="#ArialMT-48"/>
      </g>
     </g>
    </g>
    <g id="xtick_14">
     <g id="line2d_40">
      <path clip-path="url(#pa2fb88c8a2)" d="M 605.076923 448.56 
L 605.076923 334.418824 
" style="fill:none;stroke:#ffffff;stroke-linecap:round;"/>
     </g>
     <g id="text_20">
      <!-- 6000 -->
      <g style="fill:#2ca02c;" transform="translate(592.842861 465.933594)scale(0.11 -0.11)">
       <use xlink:href="#ArialMT-54"/>
       <use x="55.615234" xlink:href="#ArialMT-48"/>
       <use x="111.230469" xlink:href="#ArialMT-48"/>
       <use x="166.845703" xlink:href="#ArialMT-48"/>
      </g>
     </g>
    </g>
   </g>
   <g id="matplotlib.axis_5">
    <g id="ytick_14">
     <g id="line2d_41">
      <path clip-path="url(#pa2fb88c8a2)" d="M 90 448.56 
L 648 448.56 
" style="fill:none;stroke:#ffffff;stroke-linecap:round;"/>
     </g>
     <g id="text_21">
      <!-- 0 -->
      <g style="fill:#2ca02c;" transform="translate(74.382969 452.496797)scale(0.11 -0.11)">
       <use xlink:href="#ArialMT-48"/>
      </g>
     </g>
    </g>
    <g id="ytick_15">
     <g id="line2d_42">
      <path clip-path="url(#pa2fb88c8a2)" d="M 90 425.731765 
L 648 425.731765 
" style="fill:none;stroke:#ffffff;stroke-linecap:round;"/>
     </g>
     <g id="text_22">
      <!-- 20 -->
      <g style="fill:#2ca02c;" transform="translate(68.265938 429.668562)scale(0.11 -0.11)">
       <use xlink:href="#ArialMT-50"/>
       <use x="55.615234" xlink:href="#ArialMT-48"/>
      </g>
     </g>
    </g>
    <g id="ytick_16">
     <g id="line2d_43">
      <path clip-path="url(#pa2fb88c8a2)" d="M 90 402.903529 
L 648 402.903529 
" style="fill:none;stroke:#ffffff;stroke-linecap:round;"/>
     </g>
     <g id="text_23">
      <!-- 40 -->
      <g style="fill:#2ca02c;" transform="translate(68.265938 406.840326)scale(0.11 -0.11)">
       <use xlink:href="#ArialMT-52"/>
       <use x="55.615234" xlink:href="#ArialMT-48"/>
      </g>
     </g>
    </g>
    <g id="ytick_17">
     <g id="line2d_44">
      <path clip-path="url(#pa2fb88c8a2)" d="M 90 380.075294 
L 648 380.075294 
" style="fill:none;stroke:#ffffff;stroke-linecap:round;"/>
     </g>
     <g id="text_24">
      <!-- 60 -->
      <g style="fill:#2ca02c;" transform="translate(68.265938 384.012091)scale(0.11 -0.11)">
       <use xlink:href="#ArialMT-54"/>
       <use x="55.615234" xlink:href="#ArialMT-48"/>
      </g>
     </g>
    </g>
    <g id="ytick_18">
     <g id="line2d_45">
      <path clip-path="url(#pa2fb88c8a2)" d="M 90 357.247059 
L 648 357.247059 
" style="fill:none;stroke:#ffffff;stroke-linecap:round;"/>
     </g>
     <g id="text_25">
      <!-- 80 -->
      <g style="fill:#2ca02c;" transform="translate(68.265938 361.183856)scale(0.11 -0.11)">
       <use xlink:href="#ArialMT-56"/>
       <use x="55.615234" xlink:href="#ArialMT-48"/>
      </g>
     </g>
    </g>
    <g id="ytick_19">
     <g id="line2d_46">
      <path clip-path="url(#pa2fb88c8a2)" d="M 90 334.418824 
L 648 334.418824 
" style="fill:none;stroke:#ffffff;stroke-linecap:round;"/>
     </g>
     <g id="text_26">
      <!-- 100 -->
      <g style="fill:#2ca02c;" transform="translate(62.148906 338.35562)scale(0.11 -0.11)">
       <use xlink:href="#ArialMT-49"/>
       <use x="55.615234" xlink:href="#ArialMT-48"/>
       <use x="111.230469" xlink:href="#ArialMT-48"/>
      </g>
     </g>
    </g>
   </g>
   <g id="line2d_47">
    <path clip-path="url(#pa2fb88c8a2)" d="M 90 443.994353 
L 94.292308 424.590353 
L 98.584615 421.166118 
L 102.876923 417.741882 
L 107.169231 415.459059 
L 111.461538 413.176235 
L 115.753846 404.044941 
L 120.046154 393.772235 
L 124.338462 385.782353 
L 128.630769 381.216706 
L 132.923077 378.933882 
L 137.215385 376.651059 
L 141.507692 376.651059 
L 145.8 376.651059 
L 150.092308 374.368235 
L 154.384615 370.944 
L 158.676923 369.802588 
L 162.969231 368.661176 
L 167.261538 366.378353 
L 171.553846 364.095529 
L 175.846154 364.095529 
L 180.138462 362.954118 
L 184.430769 364.095529 
L 188.723077 365.236941 
L 193.015385 365.236941 
L 197.307692 365.236941 
L 201.6 366.378353 
L 205.892308 364.095529 
L 210.184615 364.095529 
L 214.476923 364.095529 
L 218.769231 364.095529 
L 223.061538 364.095529 
L 227.353846 364.095529 
L 231.646154 361.812706 
L 235.938462 361.812706 
L 240.230769 360.671294 
L 244.523077 359.529882 
L 248.815385 359.529882 
L 253.107692 358.388471 
L 257.4 359.529882 
L 261.692308 360.671294 
L 265.984615 360.671294 
L 270.276923 361.812706 
L 274.569231 361.812706 
L 278.861538 361.812706 
L 283.153846 361.812706 
L 287.446154 361.812706 
L 291.738462 360.671294 
L 296.030769 361.812706 
L 300.323077 362.954118 
L 304.615385 362.954118 
L 308.907692 362.954118 
L 313.2 364.095529 
L 317.492308 364.095529 
L 321.784615 362.954118 
L 326.076923 362.954118 
L 330.369231 362.954118 
L 334.661538 362.954118 
L 338.953846 362.954118 
L 343.246154 361.812706 
L 347.538462 361.812706 
L 351.830769 361.812706 
L 356.123077 361.812706 
L 360.415385 361.812706 
L 364.707692 361.812706 
L 369 361.812706 
L 373.292308 362.954118 
L 377.584615 362.954118 
L 381.876923 364.095529 
L 386.169231 364.095529 
L 390.461538 362.954118 
L 394.753846 361.812706 
L 399.046154 361.812706 
L 403.338462 361.812706 
L 407.630769 361.812706 
L 411.923077 361.812706 
L 416.215385 361.812706 
L 420.507692 362.954118 
L 424.8 362.954118 
L 429.092308 362.954118 
L 433.384615 362.954118 
L 437.676923 362.954118 
L 441.969231 362.954118 
L 446.261538 362.954118 
L 450.553846 362.954118 
L 454.846154 362.954118 
L 459.138462 364.095529 
L 463.430769 364.095529 
L 467.723077 365.236941 
L 472.015385 365.236941 
L 476.307692 365.236941 
L 480.6 365.236941 
L 484.892308 365.236941 
L 489.184615 365.236941 
L 493.476923 364.095529 
L 497.769231 364.095529 
L 502.061538 364.095529 
L 506.353846 364.095529 
L 510.646154 364.095529 
L 514.938462 364.095529 
L 519.230769 364.095529 
L 523.523077 364.095529 
L 527.815385 364.095529 
L 532.107692 364.095529 
L 536.4 364.095529 
L 540.692308 364.095529 
L 544.984615 364.095529 
L 549.276923 362.954118 
L 553.569231 362.954118 
L 557.861538 362.954118 
L 562.153846 364.095529 
L 566.446154 364.095529 
L 570.738462 364.095529 
L 575.030769 364.095529 
L 579.323077 364.095529 
L 583.615385 364.095529 
L 587.907692 364.095529 
L 592.2 364.095529 
L 596.492308 364.095529 
L 600.784615 364.095529 
" style="fill:none;stroke:#2ca02c;stroke-linecap:round;stroke-width:1.5;"/>
   </g>
   <g id="line2d_48">
    <path clip-path="url(#pa2fb88c8a2)" d="M 90 443.994353 
L 94.292308 432.580235 
L 98.584615 430.297412 
L 102.876923 425.731765 
L 107.169231 421.166118 
L 111.461538 409.752 
L 115.753846 405.186353 
L 120.046154 398.337882 
L 124.338462 391.489412 
L 128.630769 391.489412 
L 132.923077 391.489412 
L 137.215385 390.348 
L 141.507692 389.206588 
L 145.8 384.640941 
L 150.092308 378.933882 
L 154.384615 374.368235 
L 158.676923 369.802588 
L 162.969231 367.519765 
L 167.261538 367.519765 
L 171.553846 365.236941 
L 175.846154 364.095529 
L 180.138462 361.812706 
L 184.430769 359.529882 
L 188.723077 358.388471 
L 193.015385 356.105647 
L 197.307692 358.388471 
L 201.6 358.388471 
L 205.892308 356.105647 
L 210.184615 356.105647 
L 214.476923 357.247059 
L 218.769231 357.247059 
L 223.061538 357.247059 
L 227.353846 357.247059 
L 231.646154 357.247059 
L 235.938462 357.247059 
L 240.230769 357.247059 
L 244.523077 357.247059 
L 248.815385 357.247059 
L 253.107692 357.247059 
L 257.4 357.247059 
L 261.692308 356.105647 
L 265.984615 356.105647 
L 270.276923 356.105647 
L 274.569231 354.964235 
L 278.861538 354.964235 
L 283.153846 354.964235 
L 287.446154 356.105647 
L 291.738462 356.105647 
L 296.030769 356.105647 
L 300.323077 356.105647 
L 304.615385 353.822824 
L 308.907692 352.681412 
L 313.2 351.54 
L 317.492308 350.398588 
L 321.784615 350.398588 
L 326.076923 350.398588 
L 330.369231 350.398588 
L 334.661538 350.398588 
L 338.953846 350.398588 
L 343.246154 350.398588 
L 347.538462 350.398588 
L 351.830769 350.398588 
L 356.123077 350.398588 
L 360.415385 350.398588 
L 364.707692 350.398588 
L 369 350.398588 
L 373.292308 350.398588 
L 377.584615 350.398588 
L 381.876923 350.398588 
L 386.169231 350.398588 
L 390.461538 350.398588 
L 394.753846 350.398588 
L 399.046154 350.398588 
L 403.338462 350.398588 
L 407.630769 350.398588 
L 411.923077 350.398588 
L 416.215385 350.398588 
L 420.507692 350.398588 
L 424.8 350.398588 
L 429.092308 350.398588 
L 433.384615 349.257176 
L 437.676923 349.257176 
L 441.969231 350.398588 
L 446.261538 350.398588 
L 450.553846 351.54 
L 454.846154 351.54 
L 459.138462 351.54 
L 463.430769 351.54 
L 467.723077 351.54 
L 472.015385 350.398588 
L 476.307692 350.398588 
L 480.6 350.398588 
L 484.892308 350.398588 
L 489.184615 350.398588 
L 493.476923 350.398588 
L 497.769231 350.398588 
L 502.061538 350.398588 
L 506.353846 350.398588 
L 510.646154 350.398588 
L 514.938462 350.398588 
L 519.230769 350.398588 
L 523.523077 350.398588 
L 527.815385 350.398588 
L 532.107692 350.398588 
L 536.4 350.398588 
L 540.692308 350.398588 
L 544.984615 350.398588 
L 549.276923 349.257176 
L 553.569231 349.257176 
L 557.861538 349.257176 
L 562.153846 349.257176 
L 566.446154 349.257176 
L 570.738462 350.398588 
L 575.030769 351.54 
L 579.323077 351.54 
L 583.615385 351.54 
L 587.907692 351.54 
L 592.2 352.681412 
L 596.492308 351.54 
L 600.784615 351.54 
" style="fill:none;stroke:#ff7f0e;stroke-linecap:round;stroke-width:1.5;"/>
   </g>
   <g id="line2d_49">
    <path clip-path="url(#pa2fb88c8a2)" d="M 90 446.277176 
L 94.292308 433.721647 
L 98.584615 430.297412 
L 102.876923 426.873176 
L 107.169231 426.873176 
L 111.461538 423.448941 
L 115.753846 412.034824 
L 120.046154 406.327765 
L 124.338462 398.337882 
L 128.630769 398.337882 
L 132.923077 394.913647 
L 137.215385 393.772235 
L 141.507692 393.772235 
L 145.8 394.913647 
L 150.092308 388.065176 
L 154.384615 386.923765 
L 158.676923 385.782353 
L 162.969231 383.499529 
L 167.261538 382.358118 
L 171.553846 378.933882 
L 175.846154 376.651059 
L 180.138462 372.085412 
L 184.430769 369.802588 
L 188.723077 366.378353 
L 193.015385 362.954118 
L 197.307692 361.812706 
L 201.6 362.954118 
L 205.892308 362.954118 
L 210.184615 362.954118 
L 214.476923 362.954118 
L 218.769231 361.812706 
L 223.061538 361.812706 
L 227.353846 361.812706 
L 231.646154 362.954118 
L 235.938462 360.671294 
L 240.230769 361.812706 
L 244.523077 361.812706 
L 248.815385 361.812706 
L 253.107692 360.671294 
L 257.4 360.671294 
L 261.692308 359.529882 
L 265.984615 358.388471 
L 270.276923 358.388471 
L 274.569231 358.388471 
L 278.861538 357.247059 
L 283.153846 357.247059 
L 287.446154 358.388471 
L 291.738462 358.388471 
L 296.030769 358.388471 
L 300.323077 358.388471 
L 304.615385 357.247059 
L 308.907692 357.247059 
L 313.2 358.388471 
L 317.492308 358.388471 
L 321.784615 358.388471 
L 326.076923 357.247059 
L 330.369231 357.247059 
L 334.661538 360.671294 
L 338.953846 360.671294 
L 343.246154 361.812706 
L 347.538462 361.812706 
L 351.830769 361.812706 
L 356.123077 361.812706 
L 360.415385 362.954118 
L 364.707692 364.095529 
L 369 364.095529 
L 373.292308 364.095529 
L 377.584615 364.095529 
L 381.876923 364.095529 
L 386.169231 365.236941 
L 390.461538 365.236941 
L 394.753846 365.236941 
L 399.046154 365.236941 
L 403.338462 365.236941 
L 407.630769 365.236941 
L 411.923077 365.236941 
L 416.215385 365.236941 
L 420.507692 365.236941 
L 424.8 365.236941 
L 429.092308 365.236941 
L 433.384615 365.236941 
L 437.676923 365.236941 
L 441.969231 365.236941 
L 446.261538 365.236941 
L 450.553846 365.236941 
L 454.846154 366.378353 
L 459.138462 367.519765 
L 463.430769 367.519765 
L 467.723077 367.519765 
L 472.015385 367.519765 
L 476.307692 367.519765 
L 480.6 368.661176 
L 484.892308 368.661176 
L 489.184615 368.661176 
L 493.476923 368.661176 
L 497.769231 367.519765 
L 502.061538 367.519765 
L 506.353846 367.519765 
L 510.646154 367.519765 
L 514.938462 367.519765 
L 519.230769 367.519765 
L 523.523077 367.519765 
L 527.815385 367.519765 
L 532.107692 367.519765 
L 536.4 367.519765 
L 540.692308 367.519765 
L 544.984615 367.519765 
L 549.276923 368.661176 
L 553.569231 367.519765 
L 557.861538 367.519765 
L 562.153846 367.519765 
L 566.446154 367.519765 
L 570.738462 367.519765 
L 575.030769 367.519765 
L 579.323077 368.661176 
L 583.615385 368.661176 
L 587.907692 368.661176 
L 592.2 368.661176 
L 596.492308 368.661176 
L 600.784615 368.661176 
" style="fill:none;stroke:#9467bd;stroke-linecap:round;stroke-width:1.5;"/>
   </g>
   <g id="patch_12">
    <path d="M 90 448.56 
L 90 334.418824 
" style="fill:none;stroke:#ffffff;stroke-linecap:square;stroke-linejoin:miter;stroke-width:1.25;"/>
   </g>
   <g id="patch_13">
    <path d="M 648 448.56 
L 648 334.418824 
" style="fill:none;stroke:#ffffff;stroke-linecap:square;stroke-linejoin:miter;stroke-width:1.25;"/>
   </g>
   <g id="patch_14">
    <path d="M 90 448.56 
L 648 448.56 
" style="fill:none;stroke:#ffffff;stroke-linecap:square;stroke-linejoin:miter;stroke-width:1.25;"/>
   </g>
   <g id="patch_15">
    <path d="M 90 334.418824 
L 648 334.418824 
" style="fill:none;stroke:#ffffff;stroke-linecap:square;stroke-linejoin:miter;stroke-width:1.25;"/>
   </g>
  </g>
 </g>
 <defs>
  <clipPath id="p16ef45a331">
   <rect height="251.110588" width="558" x="90" y="60.48"/>
  </clipPath>
  <clipPath id="pa2fb88c8a2">
   <rect height="114.141176" width="558" x="90" y="334.418824"/>
  </clipPath>
 </defs>
</svg>
