<?xml version="1.0" encoding="utf-8" standalone="no"?>
<!DOCTYPE svg PUBLIC "-//W3C//DTD SVG 1.1//EN"
  "http://www.w3.org/Graphics/SVG/1.1/DTD/svg11.dtd">
<!-- Created with matplotlib (https://matplotlib.org/) -->
<svg height="288pt" version="1.1" viewBox="0 0 432 288" width="432pt" xmlns="http://www.w3.org/2000/svg" xmlns:xlink="http://www.w3.org/1999/xlink">
 <defs>
  <style type="text/css">
*{stroke-linecap:butt;stroke-linejoin:round;white-space:pre;}
  </style>
 </defs>
 <g id="figure_1">
  <g id="patch_1">
   <path d="M 0 288 
L 432 288 
L 432 0 
L 0 0 
z
" style="fill:#ffffff;"/>
  </g>
  <g id="axes_1">
   <g id="patch_2">
    <path d="M 54 256.32 
L 388.8 256.32 
L 388.8 34.56 
L 54 34.56 
z
" style="fill:#ffffff;"/>
   </g>
   <g id="matplotlib.axis_1">
    <g id="xtick_1">
     <g id="line2d_1">
      <path clip-path="url(#pd3a6f4f9d6)" d="M 54 256.32 
L 54 34.56 
" style="fill:none;stroke:#cccccc;stroke-linecap:round;"/>
     </g>
     <g id="text_1">
      <!-- 0 -->
      <defs>
       <path d="M 4.15625 35.296875 
Q 4.15625 48 6.765625 55.734375 
Q 9.375 63.484375 14.515625 67.671875 
Q 19.671875 71.875 27.484375 71.875 
Q 33.25 71.875 37.59375 69.546875 
Q 41.9375 67.234375 44.765625 62.859375 
Q 47.609375 58.5 49.21875 52.21875 
Q 50.828125 45.953125 50.828125 35.296875 
Q 50.828125 22.703125 48.234375 14.96875 
Q 45.65625 7.234375 40.5 3 
Q 35.359375 -1.21875 27.484375 -1.21875 
Q 17.140625 -1.21875 11.234375 6.203125 
Q 4.15625 15.140625 4.15625 35.296875 
z
M 13.1875 35.296875 
Q 13.1875 17.671875 17.3125 11.828125 
Q 21.4375 6 27.484375 6 
Q 33.546875 6 37.671875 11.859375 
Q 41.796875 17.71875 41.796875 35.296875 
Q 41.796875 52.984375 37.671875 58.78125 
Q 33.546875 64.59375 27.390625 64.59375 
Q 21.34375 64.59375 17.71875 59.46875 
Q 13.1875 52.9375 13.1875 35.296875 
z
" id="ArialMT-48"/>
      </defs>
      <g style="fill:#262626;" transform="translate(51.553187 272.118875)scale(0.088 -0.088)">
       <use xlink:href="#ArialMT-48"/>
      </g>
     </g>
    </g>
    <g id="xtick_2">
     <g id="line2d_2">
      <path clip-path="url(#pd3a6f4f9d6)" d="M 129.918367 256.32 
L 129.918367 34.56 
" style="fill:none;stroke:#cccccc;stroke-linecap:round;"/>
     </g>
     <g id="text_2">
      <!-- 5000 -->
      <defs>
       <path d="M 4.15625 18.75 
L 13.375 19.53125 
Q 14.40625 12.796875 18.140625 9.390625 
Q 21.875 6 27.15625 6 
Q 33.5 6 37.890625 10.78125 
Q 42.28125 15.578125 42.28125 23.484375 
Q 42.28125 31 38.0625 35.34375 
Q 33.84375 39.703125 27 39.703125 
Q 22.75 39.703125 19.328125 37.765625 
Q 15.921875 35.84375 13.96875 32.765625 
L 5.71875 33.84375 
L 12.640625 70.609375 
L 48.25 70.609375 
L 48.25 62.203125 
L 19.671875 62.203125 
L 15.828125 42.96875 
Q 22.265625 47.46875 29.34375 47.46875 
Q 38.71875 47.46875 45.15625 40.96875 
Q 51.609375 34.46875 51.609375 24.265625 
Q 51.609375 14.546875 45.953125 7.46875 
Q 39.0625 -1.21875 27.15625 -1.21875 
Q 17.390625 -1.21875 11.203125 4.25 
Q 5.03125 9.71875 4.15625 18.75 
z
" id="ArialMT-53"/>
      </defs>
      <g style="fill:#262626;" transform="translate(120.131117 272.118875)scale(0.088 -0.088)">
       <use xlink:href="#ArialMT-53"/>
       <use x="55.615234" xlink:href="#ArialMT-48"/>
       <use x="111.230469" xlink:href="#ArialMT-48"/>
       <use x="166.845703" xlink:href="#ArialMT-48"/>
      </g>
     </g>
    </g>
    <g id="xtick_3">
     <g id="line2d_3">
      <path clip-path="url(#pd3a6f4f9d6)" d="M 205.836735 256.32 
L 205.836735 34.56 
" style="fill:none;stroke:#cccccc;stroke-linecap:round;"/>
     </g>
     <g id="text_3">
      <!-- 10000 -->
      <defs>
       <path d="M 37.25 0 
L 28.46875 0 
L 28.46875 56 
Q 25.296875 52.984375 20.140625 49.953125 
Q 14.984375 46.921875 10.890625 45.40625 
L 10.890625 53.90625 
Q 18.265625 57.375 23.78125 62.296875 
Q 29.296875 67.234375 31.59375 71.875 
L 37.25 71.875 
z
" id="ArialMT-49"/>
      </defs>
      <g style="fill:#262626;" transform="translate(193.602672 272.118875)scale(0.088 -0.088)">
       <use xlink:href="#ArialMT-49"/>
       <use x="55.615234" xlink:href="#ArialMT-48"/>
       <use x="111.230469" xlink:href="#ArialMT-48"/>
       <use x="166.845703" xlink:href="#ArialMT-48"/>
       <use x="222.460938" xlink:href="#ArialMT-48"/>
      </g>
     </g>
    </g>
    <g id="xtick_4">
     <g id="line2d_4">
      <path clip-path="url(#pd3a6f4f9d6)" d="M 281.755102 256.32 
L 281.755102 34.56 
" style="fill:none;stroke:#cccccc;stroke-linecap:round;"/>
     </g>
     <g id="text_4">
      <!-- 15000 -->
      <g style="fill:#262626;" transform="translate(269.52104 272.118875)scale(0.088 -0.088)">
       <use xlink:href="#ArialMT-49"/>
       <use x="55.615234" xlink:href="#ArialMT-53"/>
       <use x="111.230469" xlink:href="#ArialMT-48"/>
       <use x="166.845703" xlink:href="#ArialMT-48"/>
       <use x="222.460938" xlink:href="#ArialMT-48"/>
      </g>
     </g>
    </g>
    <g id="xtick_5">
     <g id="line2d_5">
      <path clip-path="url(#pd3a6f4f9d6)" d="M 357.673469 256.32 
L 357.673469 34.56 
" style="fill:none;stroke:#cccccc;stroke-linecap:round;"/>
     </g>
     <g id="text_5">
      <!-- 20000 -->
      <defs>
       <path d="M 50.34375 8.453125 
L 50.34375 0 
L 3.03125 0 
Q 2.9375 3.171875 4.046875 6.109375 
Q 5.859375 10.9375 9.828125 15.625 
Q 13.8125 20.3125 21.34375 26.46875 
Q 33.015625 36.03125 37.109375 41.625 
Q 41.21875 47.21875 41.21875 52.203125 
Q 41.21875 57.421875 37.46875 61 
Q 33.734375 64.59375 27.734375 64.59375 
Q 21.390625 64.59375 17.578125 60.78125 
Q 13.765625 56.984375 13.71875 50.25 
L 4.6875 51.171875 
Q 5.609375 61.28125 11.65625 66.578125 
Q 17.71875 71.875 27.9375 71.875 
Q 38.234375 71.875 44.234375 66.15625 
Q 50.25 60.453125 50.25 52 
Q 50.25 47.703125 48.484375 43.546875 
Q 46.734375 39.40625 42.65625 34.8125 
Q 38.578125 30.21875 29.109375 22.21875 
Q 21.1875 15.578125 18.9375 13.203125 
Q 16.703125 10.84375 15.234375 8.453125 
z
" id="ArialMT-50"/>
      </defs>
      <g style="fill:#262626;" transform="translate(345.439407 272.118875)scale(0.088 -0.088)">
       <use xlink:href="#ArialMT-50"/>
       <use x="55.615234" xlink:href="#ArialMT-48"/>
       <use x="111.230469" xlink:href="#ArialMT-48"/>
       <use x="166.845703" xlink:href="#ArialMT-48"/>
       <use x="222.460938" xlink:href="#ArialMT-48"/>
      </g>
     </g>
    </g>
    <g id="text_6">
     <!-- Epochs -->
     <defs>
      <path d="M 7.90625 0 
L 7.90625 71.578125 
L 59.671875 71.578125 
L 59.671875 63.140625 
L 17.390625 63.140625 
L 17.390625 41.21875 
L 56.984375 41.21875 
L 56.984375 32.8125 
L 17.390625 32.8125 
L 17.390625 8.453125 
L 61.328125 8.453125 
L 61.328125 0 
z
" id="ArialMT-69"/>
      <path d="M 6.59375 -19.875 
L 6.59375 51.859375 
L 14.59375 51.859375 
L 14.59375 45.125 
Q 17.4375 49.078125 21 51.046875 
Q 24.5625 53.03125 29.640625 53.03125 
Q 36.28125 53.03125 41.359375 49.609375 
Q 46.4375 46.1875 49.015625 39.953125 
Q 51.609375 33.734375 51.609375 26.3125 
Q 51.609375 18.359375 48.75 11.984375 
Q 45.90625 5.609375 40.453125 2.21875 
Q 35.015625 -1.171875 29 -1.171875 
Q 24.609375 -1.171875 21.109375 0.6875 
Q 17.625 2.546875 15.375 5.375 
L 15.375 -19.875 
z
M 14.546875 25.640625 
Q 14.546875 15.625 18.59375 10.84375 
Q 22.65625 6.0625 28.421875 6.0625 
Q 34.28125 6.0625 38.453125 11.015625 
Q 42.625 15.96875 42.625 26.375 
Q 42.625 36.28125 38.546875 41.203125 
Q 34.46875 46.140625 28.8125 46.140625 
Q 23.1875 46.140625 18.859375 40.890625 
Q 14.546875 35.640625 14.546875 25.640625 
z
" id="ArialMT-112"/>
      <path d="M 3.328125 25.921875 
Q 3.328125 40.328125 11.328125 47.265625 
Q 18.015625 53.03125 27.640625 53.03125 
Q 38.328125 53.03125 45.109375 46.015625 
Q 51.90625 39.015625 51.90625 26.65625 
Q 51.90625 16.65625 48.90625 10.90625 
Q 45.90625 5.171875 40.15625 2 
Q 34.421875 -1.171875 27.640625 -1.171875 
Q 16.75 -1.171875 10.03125 5.8125 
Q 3.328125 12.796875 3.328125 25.921875 
z
M 12.359375 25.921875 
Q 12.359375 15.96875 16.703125 11.015625 
Q 21.046875 6.0625 27.640625 6.0625 
Q 34.1875 6.0625 38.53125 11.03125 
Q 42.875 16.015625 42.875 26.21875 
Q 42.875 35.84375 38.5 40.796875 
Q 34.125 45.75 27.640625 45.75 
Q 21.046875 45.75 16.703125 40.8125 
Q 12.359375 35.890625 12.359375 25.921875 
z
" id="ArialMT-111"/>
      <path d="M 40.4375 19 
L 49.078125 17.875 
Q 47.65625 8.9375 41.8125 3.875 
Q 35.984375 -1.171875 27.484375 -1.171875 
Q 16.84375 -1.171875 10.375 5.78125 
Q 3.90625 12.75 3.90625 25.734375 
Q 3.90625 34.125 6.6875 40.421875 
Q 9.46875 46.734375 15.15625 49.875 
Q 20.84375 53.03125 27.546875 53.03125 
Q 35.984375 53.03125 41.359375 48.75 
Q 46.734375 44.484375 48.25 36.625 
L 39.703125 35.296875 
Q 38.484375 40.53125 35.375 43.15625 
Q 32.28125 45.796875 27.875 45.796875 
Q 21.234375 45.796875 17.078125 41.03125 
Q 12.9375 36.28125 12.9375 25.984375 
Q 12.9375 15.53125 16.9375 10.796875 
Q 20.953125 6.0625 27.390625 6.0625 
Q 32.5625 6.0625 36.03125 9.234375 
Q 39.5 12.40625 40.4375 19 
z
" id="ArialMT-99"/>
      <path d="M 6.59375 0 
L 6.59375 71.578125 
L 15.375 71.578125 
L 15.375 45.90625 
Q 21.53125 53.03125 30.90625 53.03125 
Q 36.671875 53.03125 40.921875 50.75 
Q 45.171875 48.484375 47 44.484375 
Q 48.828125 40.484375 48.828125 32.859375 
L 48.828125 0 
L 40.046875 0 
L 40.046875 32.859375 
Q 40.046875 39.453125 37.1875 42.453125 
Q 34.328125 45.453125 29.109375 45.453125 
Q 25.203125 45.453125 21.75 43.421875 
Q 18.3125 41.40625 16.84375 37.9375 
Q 15.375 34.46875 15.375 28.375 
L 15.375 0 
z
" id="ArialMT-104"/>
      <path d="M 3.078125 15.484375 
L 11.765625 16.84375 
Q 12.5 11.625 15.84375 8.84375 
Q 19.1875 6.0625 25.203125 6.0625 
Q 31.25 6.0625 34.171875 8.515625 
Q 37.109375 10.984375 37.109375 14.3125 
Q 37.109375 17.28125 34.515625 19 
Q 32.71875 20.171875 25.53125 21.96875 
Q 15.875 24.421875 12.140625 26.203125 
Q 8.40625 27.984375 6.46875 31.125 
Q 4.546875 34.28125 4.546875 38.09375 
Q 4.546875 41.546875 6.125 44.5 
Q 7.71875 47.46875 10.453125 49.421875 
Q 12.5 50.921875 16.03125 51.96875 
Q 19.578125 53.03125 23.640625 53.03125 
Q 29.734375 53.03125 34.34375 51.265625 
Q 38.96875 49.515625 41.15625 46.5 
Q 43.359375 43.5 44.1875 38.484375 
L 35.59375 37.3125 
Q 35.015625 41.3125 32.203125 43.546875 
Q 29.390625 45.796875 24.265625 45.796875 
Q 18.21875 45.796875 15.625 43.796875 
Q 13.03125 41.796875 13.03125 39.109375 
Q 13.03125 37.40625 14.109375 36.03125 
Q 15.1875 34.625 17.484375 33.6875 
Q 18.796875 33.203125 25.25 31.453125 
Q 34.578125 28.953125 38.25 27.359375 
Q 41.9375 25.78125 44.03125 22.75 
Q 46.140625 19.734375 46.140625 15.234375 
Q 46.140625 10.84375 43.578125 6.953125 
Q 41.015625 3.078125 36.171875 0.953125 
Q 31.34375 -1.171875 25.25 -1.171875 
Q 15.140625 -1.171875 9.84375 3.03125 
Q 4.546875 7.234375 3.078125 15.484375 
z
" id="ArialMT-115"/>
     </defs>
     <g style="fill:#262626;" transform="translate(205.3905 284.739375)scale(0.096 -0.096)">
      <use xlink:href="#ArialMT-69"/>
      <use x="66.699219" xlink:href="#ArialMT-112"/>
      <use x="122.314453" xlink:href="#ArialMT-111"/>
      <use x="177.929688" xlink:href="#ArialMT-99"/>
      <use x="227.929688" xlink:href="#ArialMT-104"/>
      <use x="283.544922" xlink:href="#ArialMT-115"/>
     </g>
    </g>
   </g>
   <g id="matplotlib.axis_2">
    <g id="ytick_1">
     <g id="line2d_6">
      <path clip-path="url(#pd3a6f4f9d6)" d="M 54 256.32 
L 388.8 256.32 
" style="fill:none;stroke:#cccccc;stroke-linecap:round;"/>
     </g>
     <g id="text_7">
      <!-- 0 -->
      <g style="fill:#262626;" transform="translate(39.606375 259.469438)scale(0.088 -0.088)">
       <use xlink:href="#ArialMT-48"/>
      </g>
     </g>
    </g>
    <g id="ytick_2">
     <g id="line2d_7">
      <path clip-path="url(#pd3a6f4f9d6)" d="M 54 234.144 
L 388.8 234.144 
" style="fill:none;stroke:#cccccc;stroke-linecap:round;"/>
     </g>
     <g id="text_8">
      <!-- 10 -->
      <g style="fill:#262626;" transform="translate(34.71275 237.293438)scale(0.088 -0.088)">
       <use xlink:href="#ArialMT-49"/>
       <use x="55.615234" xlink:href="#ArialMT-48"/>
      </g>
     </g>
    </g>
    <g id="ytick_3">
     <g id="line2d_8">
      <path clip-path="url(#pd3a6f4f9d6)" d="M 54 211.968 
L 388.8 211.968 
" style="fill:none;stroke:#cccccc;stroke-linecap:round;"/>
     </g>
     <g id="text_9">
      <!-- 20 -->
      <g style="fill:#262626;" transform="translate(34.71275 215.117437)scale(0.088 -0.088)">
       <use xlink:href="#ArialMT-50"/>
       <use x="55.615234" xlink:href="#ArialMT-48"/>
      </g>
     </g>
    </g>
    <g id="ytick_4">
     <g id="line2d_9">
      <path clip-path="url(#pd3a6f4f9d6)" d="M 54 189.792 
L 388.8 189.792 
" style="fill:none;stroke:#cccccc;stroke-linecap:round;"/>
     </g>
     <g id="text_10">
      <!-- 30 -->
      <defs>
       <path d="M 4.203125 18.890625 
L 12.984375 20.0625 
Q 14.5 12.59375 18.140625 9.296875 
Q 21.78125 6 27 6 
Q 33.203125 6 37.46875 10.296875 
Q 41.75 14.59375 41.75 20.953125 
Q 41.75 27 37.796875 30.921875 
Q 33.84375 34.859375 27.734375 34.859375 
Q 25.25 34.859375 21.53125 33.890625 
L 22.515625 41.609375 
Q 23.390625 41.5 23.921875 41.5 
Q 29.546875 41.5 34.03125 44.421875 
Q 38.53125 47.359375 38.53125 53.46875 
Q 38.53125 58.296875 35.25 61.46875 
Q 31.984375 64.65625 26.8125 64.65625 
Q 21.6875 64.65625 18.265625 61.421875 
Q 14.84375 58.203125 13.875 51.765625 
L 5.078125 53.328125 
Q 6.6875 62.15625 12.390625 67.015625 
Q 18.109375 71.875 26.609375 71.875 
Q 32.46875 71.875 37.390625 69.359375 
Q 42.328125 66.84375 44.9375 62.5 
Q 47.5625 58.15625 47.5625 53.265625 
Q 47.5625 48.640625 45.0625 44.828125 
Q 42.578125 41.015625 37.703125 38.765625 
Q 44.046875 37.3125 47.5625 32.6875 
Q 51.078125 28.078125 51.078125 21.140625 
Q 51.078125 11.765625 44.234375 5.25 
Q 37.40625 -1.265625 26.953125 -1.265625 
Q 17.53125 -1.265625 11.296875 4.34375 
Q 5.078125 9.96875 4.203125 18.890625 
z
" id="ArialMT-51"/>
      </defs>
      <g style="fill:#262626;" transform="translate(34.71275 192.941438)scale(0.088 -0.088)">
       <use xlink:href="#ArialMT-51"/>
       <use x="55.615234" xlink:href="#ArialMT-48"/>
      </g>
     </g>
    </g>
    <g id="ytick_5">
     <g id="line2d_10">
      <path clip-path="url(#pd3a6f4f9d6)" d="M 54 167.616 
L 388.8 167.616 
" style="fill:none;stroke:#cccccc;stroke-linecap:round;"/>
     </g>
     <g id="text_11">
      <!-- 40 -->
      <defs>
       <path d="M 32.328125 0 
L 32.328125 17.140625 
L 1.265625 17.140625 
L 1.265625 25.203125 
L 33.9375 71.578125 
L 41.109375 71.578125 
L 41.109375 25.203125 
L 50.78125 25.203125 
L 50.78125 17.140625 
L 41.109375 17.140625 
L 41.109375 0 
z
M 32.328125 25.203125 
L 32.328125 57.46875 
L 9.90625 25.203125 
z
" id="ArialMT-52"/>
      </defs>
      <g style="fill:#262626;" transform="translate(34.71275 170.765438)scale(0.088 -0.088)">
       <use xlink:href="#ArialMT-52"/>
       <use x="55.615234" xlink:href="#ArialMT-48"/>
      </g>
     </g>
    </g>
    <g id="ytick_6">
     <g id="line2d_11">
      <path clip-path="url(#pd3a6f4f9d6)" d="M 54 145.44 
L 388.8 145.44 
" style="fill:none;stroke:#cccccc;stroke-linecap:round;"/>
     </g>
     <g id="text_12">
      <!-- 50 -->
      <g style="fill:#262626;" transform="translate(34.71275 148.589438)scale(0.088 -0.088)">
       <use xlink:href="#ArialMT-53"/>
       <use x="55.615234" xlink:href="#ArialMT-48"/>
      </g>
     </g>
    </g>
    <g id="ytick_7">
     <g id="line2d_12">
      <path clip-path="url(#pd3a6f4f9d6)" d="M 54 123.264 
L 388.8 123.264 
" style="fill:none;stroke:#cccccc;stroke-linecap:round;"/>
     </g>
     <g id="text_13">
      <!-- 60 -->
      <defs>
       <path d="M 49.75 54.046875 
L 41.015625 53.375 
Q 39.84375 58.546875 37.703125 60.890625 
Q 34.125 64.65625 28.90625 64.65625 
Q 24.703125 64.65625 21.53125 62.3125 
Q 17.390625 59.28125 14.984375 53.46875 
Q 12.59375 47.65625 12.5 36.921875 
Q 15.671875 41.75 20.265625 44.09375 
Q 24.859375 46.4375 29.890625 46.4375 
Q 38.671875 46.4375 44.84375 39.96875 
Q 51.03125 33.5 51.03125 23.25 
Q 51.03125 16.5 48.125 10.71875 
Q 45.21875 4.9375 40.140625 1.859375 
Q 35.0625 -1.21875 28.609375 -1.21875 
Q 17.625 -1.21875 10.6875 6.859375 
Q 3.765625 14.9375 3.765625 33.5 
Q 3.765625 54.25 11.421875 63.671875 
Q 18.109375 71.875 29.4375 71.875 
Q 37.890625 71.875 43.28125 67.140625 
Q 48.6875 62.40625 49.75 54.046875 
z
M 13.875 23.1875 
Q 13.875 18.65625 15.796875 14.5 
Q 17.71875 10.359375 21.1875 8.171875 
Q 24.65625 6 28.46875 6 
Q 34.03125 6 38.03125 10.484375 
Q 42.046875 14.984375 42.046875 22.703125 
Q 42.046875 30.125 38.078125 34.390625 
Q 34.125 38.671875 28.125 38.671875 
Q 22.171875 38.671875 18.015625 34.390625 
Q 13.875 30.125 13.875 23.1875 
z
" id="ArialMT-54"/>
      </defs>
      <g style="fill:#262626;" transform="translate(34.71275 126.413437)scale(0.088 -0.088)">
       <use xlink:href="#ArialMT-54"/>
       <use x="55.615234" xlink:href="#ArialMT-48"/>
      </g>
     </g>
    </g>
    <g id="ytick_8">
     <g id="line2d_13">
      <path clip-path="url(#pd3a6f4f9d6)" d="M 54 101.088 
L 388.8 101.088 
" style="fill:none;stroke:#cccccc;stroke-linecap:round;"/>
     </g>
     <g id="text_14">
      <!-- 70 -->
      <defs>
       <path d="M 4.734375 62.203125 
L 4.734375 70.65625 
L 51.078125 70.65625 
L 51.078125 63.8125 
Q 44.234375 56.546875 37.515625 44.484375 
Q 30.8125 32.421875 27.15625 19.671875 
Q 24.515625 10.6875 23.78125 0 
L 14.75 0 
Q 14.890625 8.453125 18.0625 20.40625 
Q 21.234375 32.375 27.171875 43.484375 
Q 33.109375 54.59375 39.796875 62.203125 
z
" id="ArialMT-55"/>
      </defs>
      <g style="fill:#262626;" transform="translate(34.71275 104.237437)scale(0.088 -0.088)">
       <use xlink:href="#ArialMT-55"/>
       <use x="55.615234" xlink:href="#ArialMT-48"/>
      </g>
     </g>
    </g>
    <g id="ytick_9">
     <g id="line2d_14">
      <path clip-path="url(#pd3a6f4f9d6)" d="M 54 78.912 
L 388.8 78.912 
" style="fill:none;stroke:#cccccc;stroke-linecap:round;"/>
     </g>
     <g id="text_15">
      <!-- 80 -->
      <defs>
       <path d="M 17.671875 38.8125 
Q 12.203125 40.828125 9.5625 44.53125 
Q 6.9375 48.25 6.9375 53.421875 
Q 6.9375 61.234375 12.546875 66.546875 
Q 18.171875 71.875 27.484375 71.875 
Q 36.859375 71.875 42.578125 66.421875 
Q 48.296875 60.984375 48.296875 53.171875 
Q 48.296875 48.1875 45.671875 44.5 
Q 43.0625 40.828125 37.75 38.8125 
Q 44.34375 36.671875 47.78125 31.875 
Q 51.21875 27.09375 51.21875 20.453125 
Q 51.21875 11.28125 44.71875 5.03125 
Q 38.234375 -1.21875 27.640625 -1.21875 
Q 17.046875 -1.21875 10.546875 5.046875 
Q 4.046875 11.328125 4.046875 20.703125 
Q 4.046875 27.6875 7.59375 32.390625 
Q 11.140625 37.109375 17.671875 38.8125 
z
M 15.921875 53.71875 
Q 15.921875 48.640625 19.1875 45.40625 
Q 22.46875 42.1875 27.6875 42.1875 
Q 32.765625 42.1875 36.015625 45.375 
Q 39.265625 48.578125 39.265625 53.21875 
Q 39.265625 58.0625 35.90625 61.359375 
Q 32.5625 64.65625 27.59375 64.65625 
Q 22.5625 64.65625 19.234375 61.421875 
Q 15.921875 58.203125 15.921875 53.71875 
z
M 13.09375 20.65625 
Q 13.09375 16.890625 14.875 13.375 
Q 16.65625 9.859375 20.171875 7.921875 
Q 23.6875 6 27.734375 6 
Q 34.03125 6 38.125 10.046875 
Q 42.234375 14.109375 42.234375 20.359375 
Q 42.234375 26.703125 38.015625 30.859375 
Q 33.796875 35.015625 27.4375 35.015625 
Q 21.234375 35.015625 17.15625 30.90625 
Q 13.09375 26.8125 13.09375 20.65625 
z
" id="ArialMT-56"/>
      </defs>
      <g style="fill:#262626;" transform="translate(34.71275 82.061437)scale(0.088 -0.088)">
       <use xlink:href="#ArialMT-56"/>
       <use x="55.615234" xlink:href="#ArialMT-48"/>
      </g>
     </g>
    </g>
    <g id="ytick_10">
     <g id="line2d_15">
      <path clip-path="url(#pd3a6f4f9d6)" d="M 54 56.736 
L 388.8 56.736 
" style="fill:none;stroke:#cccccc;stroke-linecap:round;"/>
     </g>
     <g id="text_16">
      <!-- 90 -->
      <defs>
       <path d="M 5.46875 16.546875 
L 13.921875 17.328125 
Q 14.984375 11.375 18.015625 8.6875 
Q 21.046875 6 25.78125 6 
Q 29.828125 6 32.875 7.859375 
Q 35.9375 9.71875 37.890625 12.8125 
Q 39.84375 15.921875 41.15625 21.1875 
Q 42.484375 26.46875 42.484375 31.9375 
Q 42.484375 32.515625 42.4375 33.6875 
Q 39.796875 29.5 35.234375 26.875 
Q 30.671875 24.265625 25.34375 24.265625 
Q 16.453125 24.265625 10.296875 30.703125 
Q 4.15625 37.15625 4.15625 47.703125 
Q 4.15625 58.59375 10.578125 65.234375 
Q 17 71.875 26.65625 71.875 
Q 33.640625 71.875 39.421875 68.109375 
Q 45.21875 64.359375 48.21875 57.390625 
Q 51.21875 50.4375 51.21875 37.25 
Q 51.21875 23.53125 48.234375 15.40625 
Q 45.265625 7.28125 39.375 3.03125 
Q 33.5 -1.21875 25.59375 -1.21875 
Q 17.1875 -1.21875 11.859375 3.4375 
Q 6.546875 8.109375 5.46875 16.546875 
z
M 41.453125 48.140625 
Q 41.453125 55.71875 37.421875 60.15625 
Q 33.40625 64.59375 27.734375 64.59375 
Q 21.875 64.59375 17.53125 59.8125 
Q 13.1875 55.03125 13.1875 47.40625 
Q 13.1875 40.578125 17.3125 36.296875 
Q 21.4375 32.03125 27.484375 32.03125 
Q 33.59375 32.03125 37.515625 36.296875 
Q 41.453125 40.578125 41.453125 48.140625 
z
" id="ArialMT-57"/>
      </defs>
      <g style="fill:#262626;" transform="translate(34.71275 59.885437)scale(0.088 -0.088)">
       <use xlink:href="#ArialMT-57"/>
       <use x="55.615234" xlink:href="#ArialMT-48"/>
      </g>
     </g>
    </g>
    <g id="text_17">
     <!-- Percent correct -->
     <defs>
      <path d="M 7.71875 0 
L 7.71875 71.578125 
L 34.71875 71.578125 
Q 41.84375 71.578125 45.609375 70.90625 
Q 50.875 70.015625 54.4375 67.546875 
Q 58.015625 65.09375 60.1875 60.640625 
Q 62.359375 56.203125 62.359375 50.875 
Q 62.359375 41.75 56.546875 35.421875 
Q 50.734375 29.109375 35.546875 29.109375 
L 17.1875 29.109375 
L 17.1875 0 
z
M 17.1875 37.546875 
L 35.6875 37.546875 
Q 44.875 37.546875 48.734375 40.96875 
Q 52.59375 44.390625 52.59375 50.59375 
Q 52.59375 55.078125 50.3125 58.265625 
Q 48.046875 61.46875 44.34375 62.5 
Q 41.9375 63.140625 35.5 63.140625 
L 17.1875 63.140625 
z
" id="ArialMT-80"/>
      <path d="M 42.09375 16.703125 
L 51.171875 15.578125 
Q 49.03125 7.625 43.21875 3.21875 
Q 37.40625 -1.171875 28.375 -1.171875 
Q 17 -1.171875 10.328125 5.828125 
Q 3.65625 12.84375 3.65625 25.484375 
Q 3.65625 38.578125 10.390625 45.796875 
Q 17.140625 53.03125 27.875 53.03125 
Q 38.28125 53.03125 44.875 45.953125 
Q 51.46875 38.875 51.46875 26.03125 
Q 51.46875 25.25 51.421875 23.6875 
L 12.75 23.6875 
Q 13.234375 15.140625 17.578125 10.59375 
Q 21.921875 6.0625 28.421875 6.0625 
Q 33.25 6.0625 36.671875 8.59375 
Q 40.09375 11.140625 42.09375 16.703125 
z
M 13.234375 30.90625 
L 42.1875 30.90625 
Q 41.609375 37.453125 38.875 40.71875 
Q 34.671875 45.796875 27.984375 45.796875 
Q 21.921875 45.796875 17.796875 41.75 
Q 13.671875 37.703125 13.234375 30.90625 
z
" id="ArialMT-101"/>
      <path d="M 6.5 0 
L 6.5 51.859375 
L 14.40625 51.859375 
L 14.40625 44 
Q 17.4375 49.515625 20 51.265625 
Q 22.5625 53.03125 25.640625 53.03125 
Q 30.078125 53.03125 34.671875 50.203125 
L 31.640625 42.046875 
Q 28.421875 43.953125 25.203125 43.953125 
Q 22.3125 43.953125 20.015625 42.21875 
Q 17.71875 40.484375 16.75 37.40625 
Q 15.28125 32.71875 15.28125 27.15625 
L 15.28125 0 
z
" id="ArialMT-114"/>
      <path d="M 6.59375 0 
L 6.59375 51.859375 
L 14.5 51.859375 
L 14.5 44.484375 
Q 20.21875 53.03125 31 53.03125 
Q 35.6875 53.03125 39.625 51.34375 
Q 43.5625 49.65625 45.515625 46.921875 
Q 47.46875 44.1875 48.25 40.4375 
Q 48.734375 37.984375 48.734375 31.890625 
L 48.734375 0 
L 39.9375 0 
L 39.9375 31.546875 
Q 39.9375 36.921875 38.90625 39.578125 
Q 37.890625 42.234375 35.28125 43.8125 
Q 32.671875 45.40625 29.15625 45.40625 
Q 23.53125 45.40625 19.453125 41.84375 
Q 15.375 38.28125 15.375 28.328125 
L 15.375 0 
z
" id="ArialMT-110"/>
      <path d="M 25.78125 7.859375 
L 27.046875 0.09375 
Q 23.34375 -0.6875 20.40625 -0.6875 
Q 15.625 -0.6875 12.984375 0.828125 
Q 10.359375 2.34375 9.28125 4.8125 
Q 8.203125 7.28125 8.203125 15.1875 
L 8.203125 45.015625 
L 1.765625 45.015625 
L 1.765625 51.859375 
L 8.203125 51.859375 
L 8.203125 64.703125 
L 16.9375 69.96875 
L 16.9375 51.859375 
L 25.78125 51.859375 
L 25.78125 45.015625 
L 16.9375 45.015625 
L 16.9375 14.703125 
Q 16.9375 10.9375 17.40625 9.859375 
Q 17.875 8.796875 18.921875 8.15625 
Q 19.96875 7.515625 21.921875 7.515625 
Q 23.390625 7.515625 25.78125 7.859375 
z
" id="ArialMT-116"/>
      <path id="ArialMT-32"/>
     </defs>
     <g style="fill:#262626;" transform="translate(28.80475 177.98325)rotate(-90)scale(0.096 -0.096)">
      <use xlink:href="#ArialMT-80"/>
      <use x="66.699219" xlink:href="#ArialMT-101"/>
      <use x="122.314453" xlink:href="#ArialMT-114"/>
      <use x="155.615234" xlink:href="#ArialMT-99"/>
      <use x="205.615234" xlink:href="#ArialMT-101"/>
      <use x="261.230469" xlink:href="#ArialMT-110"/>
      <use x="316.845703" xlink:href="#ArialMT-116"/>
      <use x="344.628906" xlink:href="#ArialMT-32"/>
      <use x="372.412109" xlink:href="#ArialMT-99"/>
      <use x="422.412109" xlink:href="#ArialMT-111"/>
      <use x="478.027344" xlink:href="#ArialMT-114"/>
      <use x="511.328125" xlink:href="#ArialMT-114"/>
      <use x="544.628906" xlink:href="#ArialMT-101"/>
      <use x="600.244141" xlink:href="#ArialMT-99"/>
      <use x="650.244141" xlink:href="#ArialMT-116"/>
     </g>
    </g>
   </g>
   <g id="line2d_16">
    <path clip-path="url(#pd3a6f4f9d6)" d="M 54 256.09824 
L 54.759184 190.01376 
L 55.518367 153.86688 
L 56.277551 137.45664 
L 57.036735 135.01728 
L 57.795918 128.14272 
L 58.555102 127.25568 
L 59.314286 124.59456 
L 60.073469 121.26816 
L 60.832653 126.14688 
L 61.591837 119.9376 
L 62.35102 117.94176 
L 63.110204 114.61536 
L 63.869388 117.05472 
L 64.628571 112.39776 
L 65.387755 113.95008 
L 66.146939 112.61952 
L 66.906122 114.83712 
L 67.665306 113.50656 
L 68.42449 115.28064 
L 69.183673 110.40192 
L 69.942857 108.62784 
L 71.461224 111.0672 
L 72.979592 105.74496 
L 73.738776 105.07968 
L 74.497959 100.64448 
L 75.257143 97.98336 
L 76.016327 96.20928 
L 77.534694 93.3264 
L 78.293878 94.65696 
L 79.053061 89.77824 
L 80.571429 83.56896 
L 81.330612 83.12544 
L 82.089796 81.1296 
L 83.608163 81.1296 
L 84.367347 79.79904 
L 85.126531 82.46016 
L 85.885714 80.90784 
L 86.644898 80.46432 
L 87.404082 80.24256 
L 88.163265 80.46432 
L 88.922449 79.35552 
L 89.681633 81.35136 
L 90.440816 80.0208 
L 91.2 79.79904 
L 91.959184 79.13376 
L 92.718367 78.912 
L 93.477551 77.58144 
L 94.236735 76.6944 
L 94.995918 76.47264 
L 95.755102 75.36384 
L 96.514286 74.03328 
L 98.032653 68.04576 
L 98.791837 66.93696 
L 99.55102 66.27168 
L 100.310204 64.4976 
L 101.069388 66.7152 
L 101.828571 65.38464 
L 102.587755 65.38464 
L 103.346939 65.16288 
L 104.106122 67.824 
L 104.865306 66.04992 
L 105.62449 66.7152 
L 107.142857 66.27168 
L 107.902041 67.824 
L 108.661224 68.04576 
L 109.420408 67.15872 
L 110.179592 66.49344 
L 110.938776 66.27168 
L 111.697959 68.26752 
L 112.457143 68.26752 
L 113.216327 67.38048 
L 113.97551 66.7152 
L 114.734694 66.49344 
L 115.493878 66.7152 
L 116.253061 66.04992 
L 117.012245 66.04992 
L 117.771429 66.7152 
L 118.530612 68.26752 
L 119.289796 67.60224 
L 120.04898 65.82816 
L 120.808163 66.49344 
L 122.326531 66.49344 
L 123.085714 67.38048 
L 123.844898 67.824 
L 124.604082 66.7152 
L 125.363265 67.15872 
L 126.122449 67.15872 
L 126.881633 66.7152 
L 128.4 67.15872 
L 129.159184 65.82816 
L 129.918367 66.27168 
L 130.677551 65.38464 
L 131.436735 66.04992 
L 132.195918 64.71936 
L 132.955102 64.71936 
L 133.714286 65.38464 
L 134.473469 66.49344 
L 135.232653 66.7152 
L 135.991837 64.71936 
L 136.75102 65.38464 
L 137.510204 65.16288 
L 138.269388 64.4976 
L 139.028571 66.27168 
L 139.787755 65.6064 
L 140.546939 65.6064 
L 141.306122 66.04992 
L 142.065306 64.27584 
L 142.82449 65.38464 
L 143.583673 65.6064 
L 145.102041 63.3888 
L 145.861224 65.38464 
L 146.620408 67.824 
L 147.379592 65.16288 
L 148.138776 64.94112 
L 148.897959 64.27584 
L 149.657143 64.05408 
L 150.416327 64.4976 
L 151.17551 64.05408 
L 151.934694 64.94112 
L 152.693878 64.94112 
L 153.453061 66.04992 
L 154.212245 65.16288 
L 154.971429 64.05408 
L 155.730612 64.71936 
L 156.489796 63.16704 
L 157.24898 64.05408 
L 158.008163 66.04992 
L 158.767347 65.16288 
L 159.526531 63.3888 
L 160.285714 63.61056 
L 161.044898 66.7152 
L 161.804082 65.38464 
L 162.563265 64.94112 
L 163.322449 65.38464 
L 164.081633 62.94528 
L 164.840816 64.05408 
L 165.6 64.71936 
L 167.118367 66.49344 
L 167.877551 64.94112 
L 168.636735 65.38464 
L 169.395918 65.16288 
L 170.155102 64.05408 
L 170.914286 64.27584 
L 171.673469 66.04992 
L 172.432653 64.71936 
L 173.191837 64.05408 
L 173.95102 64.4976 
L 174.710204 65.16288 
L 175.469388 63.83232 
L 176.228571 66.04992 
L 176.987755 65.82816 
L 177.746939 65.38464 
L 178.506122 66.93696 
L 179.265306 66.04992 
L 180.02449 66.7152 
L 180.783673 65.38464 
L 181.542857 66.27168 
L 182.302041 64.71936 
L 183.061224 66.7152 
L 183.820408 67.15872 
L 184.579592 66.7152 
L 185.338776 65.38464 
L 186.097959 65.38464 
L 186.857143 65.6064 
L 187.616327 64.71936 
L 188.37551 66.27168 
L 189.134694 65.82816 
L 189.893878 66.04992 
L 190.653061 67.15872 
L 191.412245 66.49344 
L 192.171429 66.7152 
L 192.930612 64.94112 
L 193.689796 66.49344 
L 194.44898 66.49344 
L 195.208163 65.6064 
L 195.967347 65.82816 
L 196.726531 65.16288 
L 197.485714 65.6064 
L 198.244898 65.6064 
L 199.004082 66.49344 
L 199.763265 66.7152 
L 200.522449 68.26752 
L 201.281633 68.04576 
L 202.8 66.27168 
L 203.559184 67.824 
L 204.318367 65.6064 
L 205.077551 65.16288 
L 205.836735 63.61056 
L 206.595918 64.71936 
L 207.355102 64.05408 
L 208.114286 64.05408 
L 208.873469 65.82816 
L 209.632653 65.82816 
L 210.391837 64.94112 
L 211.15102 64.94112 
L 211.910204 64.05408 
L 212.669388 63.61056 
L 213.428571 63.83232 
L 214.187755 62.94528 
L 214.946939 63.3888 
L 215.706122 65.16288 
L 216.465306 61.83648 
L 217.22449 63.83232 
L 218.742857 63.83232 
L 219.502041 62.72352 
L 220.261224 63.61056 
L 221.779592 63.61056 
L 222.538776 63.3888 
L 223.297959 64.4976 
L 224.816327 62.72352 
L 225.57551 63.3888 
L 226.334694 63.3888 
L 227.093878 61.83648 
L 227.853061 63.61056 
L 228.612245 61.1712 
L 229.371429 60.50592 
L 230.130612 62.28 
L 230.889796 62.05824 
L 231.64898 60.94944 
L 232.408163 62.28 
L 233.167347 61.1712 
L 233.926531 60.72768 
L 234.685714 61.61472 
L 235.444898 60.94944 
L 236.204082 61.83648 
L 236.963265 60.50592 
L 237.722449 59.84064 
L 238.481633 60.94944 
L 239.240816 60.94944 
L 240 60.72768 
L 240.759184 60.0624 
L 241.518367 60.94944 
L 242.277551 58.9536 
L 243.036735 58.51008 
L 243.795918 57.62304 
L 244.555102 57.40128 
L 245.314286 59.39712 
L 246.073469 58.06656 
L 246.832653 58.28832 
L 247.591837 57.40128 
L 248.35102 57.40128 
L 249.110204 56.51424 
L 249.869388 58.51008 
L 250.628571 57.62304 
L 251.387755 57.62304 
L 252.146939 56.07072 
L 252.906122 56.736 
L 253.665306 57.62304 
L 254.42449 57.17952 
L 255.183673 58.28832 
L 255.942857 57.8448 
L 256.702041 55.84896 
L 257.461224 57.40128 
L 258.979592 57.40128 
L 259.738776 56.95776 
L 260.497959 59.17536 
L 261.257143 56.95776 
L 262.016327 56.95776 
L 262.77551 55.84896 
L 263.534694 56.29248 
L 264.293878 56.51424 
L 265.053061 54.96192 
L 265.812245 54.74016 
L 266.571429 56.51424 
L 267.330612 56.95776 
L 268.089796 56.29248 
L 268.84898 56.51424 
L 269.608163 56.29248 
L 270.367347 54.07488 
L 271.126531 56.51424 
L 271.885714 55.84896 
L 272.644898 56.29248 
L 273.404082 54.74016 
L 274.163265 57.40128 
L 274.922449 54.5184 
L 275.681633 56.51424 
L 276.440816 55.84896 
L 277.2 56.736 
L 277.959184 55.40544 
L 278.718367 54.96192 
L 279.477551 55.6272 
L 280.236735 55.18368 
L 280.995918 54.96192 
L 281.755102 55.40544 
L 282.514286 54.74016 
L 283.273469 55.40544 
L 284.032653 56.29248 
L 284.791837 54.29664 
L 285.55102 54.5184 
L 286.310204 54.96192 
L 287.069388 54.29664 
L 287.828571 55.40544 
L 288.587755 54.29664 
L 289.346939 55.18368 
L 290.106122 54.29664 
L 290.865306 54.96192 
L 291.62449 54.07488 
L 292.383673 55.6272 
L 293.142857 54.96192 
L 293.902041 53.4096 
L 294.661224 52.96608 
L 295.420408 54.5184 
L 296.179592 54.96192 
L 296.938776 52.96608 
L 297.697959 53.4096 
L 298.457143 54.07488 
L 299.216327 54.29664 
L 299.97551 53.85312 
L 300.734694 55.18368 
L 302.253061 54.29664 
L 303.012245 54.29664 
L 303.771429 52.52256 
L 304.530612 54.29664 
L 305.289796 54.29664 
L 306.04898 53.63136 
L 306.808163 55.18368 
L 307.567347 52.96608 
L 308.326531 52.3008 
L 309.085714 53.4096 
L 309.844898 53.4096 
L 310.604082 54.5184 
L 312.122449 52.74432 
L 312.881633 52.07904 
L 313.640816 53.63136 
L 314.4 54.07488 
L 315.159184 52.74432 
L 315.918367 52.96608 
L 316.677551 52.96608 
L 317.436735 52.74432 
L 318.195918 52.3008 
L 318.955102 53.4096 
L 319.714286 53.18784 
L 320.473469 52.07904 
L 321.232653 52.52256 
L 321.991837 51.63552 
L 322.75102 53.18784 
L 323.510204 51.63552 
L 324.269388 51.63552 
L 325.028571 52.74432 
L 325.787755 52.3008 
L 326.546939 53.63136 
L 327.306122 54.29664 
L 328.065306 51.85728 
L 328.82449 52.3008 
L 329.583673 51.85728 
L 330.342857 53.18784 
L 331.102041 52.74432 
L 331.861224 50.52672 
L 332.620408 52.52256 
L 333.379592 53.18784 
L 334.138776 51.41376 
L 334.897959 52.96608 
L 335.657143 52.3008 
L 336.416327 52.96608 
L 337.17551 52.07904 
L 337.934694 51.85728 
L 338.693878 50.97024 
L 339.453061 51.41376 
L 340.212245 52.96608 
L 340.971429 50.97024 
L 341.730612 52.3008 
L 342.489796 52.07904 
L 343.24898 51.63552 
L 344.767347 52.07904 
L 345.526531 52.07904 
L 346.285714 52.96608 
L 347.804082 52.52256 
L 348.563265 52.74432 
L 349.322449 53.63136 
L 350.081633 53.18784 
L 350.840816 52.52256 
L 351.6 53.4096 
L 352.359184 53.63136 
L 353.118367 51.85728 
L 353.877551 54.29664 
L 354.636735 52.96608 
L 355.395918 52.74432 
L 356.155102 50.97024 
L 356.914286 52.07904 
L 357.673469 52.3008 
L 358.432653 52.07904 
L 359.191837 51.192 
L 360.710204 53.63136 
L 362.228571 52.3008 
L 362.987755 53.63136 
L 363.746939 52.07904 
L 364.506122 53.63136 
L 365.265306 52.3008 
L 366.02449 52.3008 
L 366.783673 52.07904 
L 367.542857 52.96608 
L 368.302041 51.41376 
L 369.061224 51.85728 
L 369.820408 53.4096 
L 370.579592 51.85728 
L 371.338776 51.85728 
L 372.097959 53.63136 
L 372.857143 52.3008 
L 373.616327 51.41376 
L 374.37551 52.74432 
L 375.134694 53.63136 
L 375.893878 52.3008 
L 376.653061 51.63552 
L 377.412245 53.18784 
L 378.171429 52.74432 
L 379.689796 52.74432 
L 381.208163 54.07488 
L 381.967347 51.192 
L 382.726531 52.96608 
L 383.485714 53.4096 
L 384.244898 54.96192 
L 385.004082 51.192 
L 385.763265 53.63136 
L 386.522449 54.29664 
L 387.281633 52.52256 
L 388.040816 52.3008 
L 388.040816 52.3008 
" style="fill:none;stroke:#0000ff;stroke-linecap:round;stroke-width:1.5;"/>
   </g>
   <g id="line2d_17">
    <path clip-path="url(#pd3a6f4f9d6)" d="M 54 233.47872 
L 54.759184 194.67072 
L 55.518367 139.45248 
L 56.277551 127.6992 
L 57.795918 111.0672 
L 58.555102 104.19264 
L 59.314286 102.64032 
L 60.073469 99.09216 
L 60.832653 98.8704 
L 61.591837 94.21344 
L 63.869388 88.44768 
L 64.628571 88.8912 
L 65.387755 85.5648 
L 66.146939 85.12128 
L 66.906122 86.00832 
L 67.665306 82.90368 
L 68.42449 81.57312 
L 69.183673 81.35136 
L 69.942857 81.35136 
L 70.702041 81.1296 
L 71.461224 78.02496 
L 72.220408 78.912 
L 72.979592 78.46848 
L 73.738776 79.13376 
L 74.497959 80.90784 
L 75.257143 79.35552 
L 76.016327 79.79904 
L 76.77551 78.69024 
L 77.534694 78.69024 
L 78.293878 79.57728 
L 79.053061 80.68608 
L 79.812245 79.35552 
L 80.571429 80.46432 
L 81.330612 80.0208 
L 82.84898 83.79072 
L 83.608163 85.5648 
L 84.367347 86.45184 
L 85.126531 90.22176 
L 86.644898 96.43104 
L 87.404082 97.09632 
L 88.163265 99.9792 
L 88.922449 103.52736 
L 90.440816 107.07552 
L 91.2 107.29728 
L 91.959184 108.62784 
L 92.718367 108.18432 
L 93.477551 101.53152 
L 94.236735 97.53984 
L 95.755102 93.76992 
L 96.514286 90.88704 
L 97.273469 90.88704 
L 98.032653 88.44768 
L 98.791837 89.33472 
L 99.55102 89.33472 
L 100.310204 89.11296 
L 101.069388 89.77824 
L 102.587755 88.8912 
L 103.346939 89.33472 
L 104.106122 91.77408 
L 104.865306 91.99584 
L 105.62449 91.55232 
L 106.383673 91.99584 
L 107.142857 90.88704 
L 107.902041 91.77408 
L 108.661224 91.33056 
L 109.420408 92.43936 
L 110.179592 91.33056 
L 110.938776 92.43936 
L 111.697959 91.99584 
L 112.457143 91.33056 
L 113.216327 91.55232 
L 113.97551 90.44352 
L 114.734694 89.77824 
L 115.493878 90.44352 
L 116.253061 89.55648 
L 117.012245 90.66528 
L 117.771429 90 
L 118.530612 89.55648 
L 119.289796 89.55648 
L 120.04898 89.33472 
L 120.808163 88.8912 
L 121.567347 88.8912 
L 122.326531 88.44768 
L 123.085714 89.33472 
L 123.844898 89.11296 
L 124.604082 86.89536 
L 125.363265 87.33888 
L 126.122449 87.33888 
L 126.881633 87.56064 
L 127.640816 88.00416 
L 128.4 88.22592 
L 129.159184 88.66944 
L 129.918367 88.00416 
L 130.677551 89.11296 
L 131.436735 88.44768 
L 132.195918 88.22592 
L 132.955102 87.33888 
L 133.714286 88.22592 
L 134.473469 88.22592 
L 135.232653 87.7824 
L 135.991837 86.6736 
L 136.75102 88.00416 
L 137.510204 87.33888 
L 138.269388 87.56064 
L 139.028571 86.6736 
L 139.787755 85.12128 
L 140.546939 86.6736 
L 141.306122 85.5648 
L 142.065306 86.45184 
L 142.82449 85.78656 
L 143.583673 85.5648 
L 144.342857 85.5648 
L 145.102041 86.23008 
L 145.861224 86.45184 
L 146.620408 86.00832 
L 148.897959 86.00832 
L 149.657143 85.78656 
L 150.416327 86.45184 
L 151.17551 85.78656 
L 151.934694 85.78656 
L 152.693878 84.23424 
L 153.453061 84.456 
L 154.212245 85.12128 
L 154.971429 84.89952 
L 155.730612 84.456 
L 156.489796 83.79072 
L 157.24898 83.3472 
L 158.008163 84.67776 
L 158.767347 83.3472 
L 159.526531 83.3472 
L 160.285714 83.56896 
L 161.044898 82.2384 
L 161.804082 83.3472 
L 162.563265 83.56896 
L 163.322449 82.90368 
L 164.081633 82.90368 
L 164.840816 82.01664 
L 165.6 82.68192 
L 166.359184 82.68192 
L 167.118367 81.79488 
L 167.877551 82.01664 
L 168.636735 82.46016 
L 169.395918 81.35136 
L 170.155102 82.46016 
L 170.914286 81.79488 
L 171.673469 82.2384 
L 172.432653 81.57312 
L 173.191837 82.46016 
L 174.710204 82.01664 
L 175.469388 82.01664 
L 176.987755 80.68608 
L 177.746939 80.68608 
L 178.506122 81.35136 
L 179.265306 81.1296 
L 180.02449 81.1296 
L 180.783673 81.79488 
L 181.542857 80.0208 
L 182.302041 81.35136 
L 183.061224 81.79488 
L 183.820408 80.46432 
L 184.579592 82.2384 
L 185.338776 80.46432 
L 186.097959 80.90784 
L 186.857143 80.24256 
L 187.616327 80.0208 
L 188.37551 79.57728 
L 189.134694 79.79904 
L 189.893878 81.1296 
L 190.653061 80.0208 
L 191.412245 79.57728 
L 192.171429 79.57728 
L 192.930612 80.0208 
L 193.689796 80.24256 
L 194.44898 80.0208 
L 195.208163 80.0208 
L 195.967347 79.79904 
L 196.726531 79.79904 
L 197.485714 80.24256 
L 198.244898 80.46432 
L 199.763265 80.0208 
L 200.522449 80.24256 
L 201.281633 80.68608 
L 202.040816 80.24256 
L 204.318367 79.57728 
L 205.077551 80.0208 
L 205.836735 78.46848 
L 206.595918 79.79904 
L 207.355102 79.35552 
L 208.114286 79.35552 
L 208.873469 78.912 
L 209.632653 79.57728 
L 210.391837 79.13376 
L 211.15102 79.79904 
L 211.910204 79.57728 
L 212.669388 80.46432 
L 213.428571 80.90784 
L 214.187755 80.0208 
L 214.946939 80.68608 
L 215.706122 80.68608 
L 216.465306 80.0208 
L 217.22449 81.57312 
L 217.983673 81.1296 
L 218.742857 81.1296 
L 219.502041 81.35136 
L 220.261224 80.24256 
L 221.020408 81.35136 
L 221.779592 81.57312 
L 222.538776 81.35136 
L 223.297959 81.35136 
L 224.057143 81.79488 
L 224.816327 81.35136 
L 226.334694 81.35136 
L 227.093878 80.90784 
L 227.853061 81.57312 
L 228.612245 80.68608 
L 229.371429 81.35136 
L 230.130612 81.35136 
L 230.889796 80.46432 
L 231.64898 79.79904 
L 232.408163 81.57312 
L 233.167347 80.90784 
L 233.926531 81.1296 
L 234.685714 80.46432 
L 235.444898 81.35136 
L 236.204082 81.57312 
L 236.963265 80.24256 
L 237.722449 81.1296 
L 238.481633 80.90784 
L 239.240816 80.90784 
L 240 80.68608 
L 240.759184 81.1296 
L 241.518367 80.46432 
L 242.277551 81.1296 
L 243.036735 81.1296 
L 243.795918 80.46432 
L 244.555102 80.90784 
L 246.073469 80.0208 
L 246.832653 82.46016 
L 247.591837 80.90784 
L 248.35102 80.90784 
L 249.110204 80.24256 
L 249.869388 82.2384 
L 250.628571 82.46016 
L 251.387755 81.79488 
L 252.146939 81.35136 
L 252.906122 82.2384 
L 253.665306 80.46432 
L 254.42449 81.35136 
L 255.183673 81.1296 
L 255.942857 80.24256 
L 256.702041 79.57728 
L 257.461224 81.79488 
L 258.220408 81.1296 
L 258.979592 80.68608 
L 259.738776 80.68608 
L 260.497959 81.79488 
L 261.257143 80.68608 
L 262.016327 81.1296 
L 262.77551 80.0208 
L 263.534694 81.57312 
L 264.293878 81.79488 
L 265.053061 80.90784 
L 265.812245 80.90784 
L 266.571429 79.79904 
L 267.330612 80.0208 
L 268.089796 80.46432 
L 268.84898 81.57312 
L 269.608163 80.24256 
L 270.367347 80.68608 
L 271.126531 80.24256 
L 271.885714 80.90784 
L 272.644898 80.46432 
L 273.404082 79.57728 
L 274.163265 80.0208 
L 274.922449 79.79904 
L 275.681633 81.35136 
L 276.440816 80.24256 
L 277.2 78.912 
L 277.959184 81.1296 
L 278.718367 80.90784 
L 279.477551 79.35552 
L 280.236735 80.0208 
L 280.995918 82.90368 
L 281.755102 81.79488 
L 282.514286 79.13376 
L 283.273469 79.57728 
L 284.032653 78.912 
L 284.791837 79.35552 
L 285.55102 80.24256 
L 286.310204 78.912 
L 287.069388 80.90784 
L 287.828571 78.69024 
L 289.346939 79.57728 
L 290.106122 78.69024 
L 290.865306 78.69024 
L 291.62449 79.57728 
L 292.383673 77.8032 
L 293.142857 78.24672 
L 293.902041 78.46848 
L 294.661224 78.46848 
L 295.420408 78.02496 
L 296.179592 78.69024 
L 296.938776 77.8032 
L 297.697959 78.02496 
L 298.457143 79.13376 
L 299.216327 78.46848 
L 299.97551 78.24672 
L 300.734694 79.35552 
L 301.493878 78.69024 
L 302.253061 78.46848 
L 303.012245 78.912 
L 303.771429 79.13376 
L 304.530612 78.69024 
L 305.289796 78.69024 
L 306.04898 78.46848 
L 306.808163 78.69024 
L 307.567347 78.69024 
L 308.326531 78.46848 
L 309.085714 78.46848 
L 309.844898 78.24672 
L 310.604082 77.35968 
L 311.363265 78.69024 
L 312.122449 78.24672 
L 312.881633 78.69024 
L 313.640816 77.8032 
L 314.4 78.02496 
L 315.159184 77.8032 
L 315.918367 78.69024 
L 316.677551 78.912 
L 317.436735 78.46848 
L 318.195918 78.69024 
L 318.955102 78.69024 
L 319.714286 79.35552 
L 320.473469 78.69024 
L 321.232653 78.912 
L 321.991837 78.24672 
L 322.75102 78.912 
L 323.510204 78.69024 
L 324.269388 78.02496 
L 325.028571 78.46848 
L 325.787755 79.57728 
L 326.546939 78.69024 
L 327.306122 77.13792 
L 328.065306 79.35552 
L 328.82449 78.02496 
L 329.583673 79.35552 
L 330.342857 78.69024 
L 331.102041 78.912 
L 332.620408 78.46848 
L 333.379592 78.69024 
L 334.138776 80.24256 
L 334.897959 77.35968 
L 335.657143 78.46848 
L 336.416327 78.912 
L 337.17551 78.24672 
L 337.934694 78.69024 
L 338.693878 81.57312 
L 339.453061 78.46848 
L 340.212245 78.02496 
L 340.971429 79.13376 
L 341.730612 81.1296 
L 342.489796 78.46848 
L 343.24898 78.02496 
L 344.008163 78.912 
L 344.767347 79.57728 
L 345.526531 78.24672 
L 346.285714 78.69024 
L 347.044898 78.46848 
L 347.804082 77.35968 
L 348.563265 77.13792 
L 349.322449 78.24672 
L 350.081633 77.8032 
L 350.840816 78.46848 
L 352.359184 78.02496 
L 353.118367 76.47264 
L 353.877551 78.02496 
L 354.636735 78.69024 
L 355.395918 78.69024 
L 356.155102 82.2384 
L 356.914286 77.35968 
L 357.673469 79.35552 
L 358.432653 79.57728 
L 359.191837 78.46848 
L 359.95102 78.46848 
L 360.710204 78.912 
L 361.469388 78.24672 
L 362.228571 77.8032 
L 362.987755 79.79904 
L 363.746939 78.24672 
L 364.506122 78.02496 
L 365.265306 78.69024 
L 366.02449 77.8032 
L 366.783673 79.57728 
L 367.542857 78.24672 
L 368.302041 79.57728 
L 369.061224 77.8032 
L 369.820408 78.46848 
L 370.579592 77.58144 
L 371.338776 77.8032 
L 372.097959 78.24672 
L 372.857143 78.02496 
L 373.616327 79.57728 
L 374.37551 79.13376 
L 375.134694 78.46848 
L 375.893878 78.24672 
L 376.653061 81.57312 
L 377.412245 78.24672 
L 378.171429 79.13376 
L 378.930612 77.8032 
L 379.689796 78.912 
L 380.44898 77.8032 
L 381.208163 78.46848 
L 381.967347 78.02496 
L 382.726531 80.46432 
L 383.485714 78.24672 
L 384.244898 77.13792 
L 385.004082 79.79904 
L 385.763265 77.35968 
L 386.522449 78.24672 
L 387.281633 79.79904 
L 388.040816 79.35552 
L 388.040816 79.35552 
" style="fill:none;stroke:#ffa500;stroke-linecap:round;stroke-width:1.5;"/>
   </g>
   <g id="patch_3">
    <path d="M 54 256.32 
L 54 34.56 
" style="fill:none;stroke:#cccccc;stroke-linecap:square;stroke-linejoin:miter;stroke-width:1.25;"/>
   </g>
   <g id="patch_4">
    <path d="M 388.8 256.32 
L 388.8 34.56 
" style="fill:none;stroke:#cccccc;stroke-linecap:square;stroke-linejoin:miter;stroke-width:1.25;"/>
   </g>
   <g id="patch_5">
    <path d="M 54 256.32 
L 388.8 256.32 
" style="fill:none;stroke:#cccccc;stroke-linecap:square;stroke-linejoin:miter;stroke-width:1.25;"/>
   </g>
   <g id="patch_6">
    <path d="M 54 34.56 
L 388.8 34.56 
" style="fill:none;stroke:#cccccc;stroke-linecap:square;stroke-linejoin:miter;stroke-width:1.25;"/>
   </g>
   <g id="text_18">
    <!-- Experiment 1 - Training Accuracy -->
    <defs>
     <path d="M 0.734375 0 
L 19.671875 26.953125 
L 2.15625 51.859375 
L 13.140625 51.859375 
L 21.09375 39.703125 
Q 23.34375 36.234375 24.703125 33.890625 
Q 26.859375 37.109375 28.65625 39.59375 
L 37.40625 51.859375 
L 47.90625 51.859375 
L 29.984375 27.4375 
L 49.265625 0 
L 38.484375 0 
L 27.828125 16.109375 
L 25 20.453125 
L 11.375 0 
z
" id="ArialMT-120"/>
     <path d="M 6.640625 61.46875 
L 6.640625 71.578125 
L 15.4375 71.578125 
L 15.4375 61.46875 
z
M 6.640625 0 
L 6.640625 51.859375 
L 15.4375 51.859375 
L 15.4375 0 
z
" id="ArialMT-105"/>
     <path d="M 6.59375 0 
L 6.59375 51.859375 
L 14.453125 51.859375 
L 14.453125 44.578125 
Q 16.890625 48.390625 20.9375 50.703125 
Q 25 53.03125 30.171875 53.03125 
Q 35.9375 53.03125 39.625 50.640625 
Q 43.3125 48.25 44.828125 43.953125 
Q 50.984375 53.03125 60.84375 53.03125 
Q 68.5625 53.03125 72.703125 48.75 
Q 76.859375 44.484375 76.859375 35.59375 
L 76.859375 0 
L 68.109375 0 
L 68.109375 32.671875 
Q 68.109375 37.9375 67.25 40.25 
Q 66.40625 42.578125 64.15625 43.984375 
Q 61.921875 45.40625 58.890625 45.40625 
Q 53.421875 45.40625 49.796875 41.765625 
Q 46.1875 38.140625 46.1875 30.125 
L 46.1875 0 
L 37.40625 0 
L 37.40625 33.6875 
Q 37.40625 39.546875 35.25 42.46875 
Q 33.109375 45.40625 28.21875 45.40625 
Q 24.515625 45.40625 21.359375 43.453125 
Q 18.21875 41.5 16.796875 37.734375 
Q 15.375 33.984375 15.375 26.90625 
L 15.375 0 
z
" id="ArialMT-109"/>
     <path d="M 3.171875 21.484375 
L 3.171875 30.328125 
L 30.171875 30.328125 
L 30.171875 21.484375 
z
" id="ArialMT-45"/>
     <path d="M 25.921875 0 
L 25.921875 63.140625 
L 2.34375 63.140625 
L 2.34375 71.578125 
L 59.078125 71.578125 
L 59.078125 63.140625 
L 35.40625 63.140625 
L 35.40625 0 
z
" id="ArialMT-84"/>
     <path d="M 40.4375 6.390625 
Q 35.546875 2.25 31.03125 0.53125 
Q 26.515625 -1.171875 21.34375 -1.171875 
Q 12.796875 -1.171875 8.203125 3 
Q 3.609375 7.171875 3.609375 13.671875 
Q 3.609375 17.484375 5.34375 20.625 
Q 7.078125 23.78125 9.890625 25.6875 
Q 12.703125 27.59375 16.21875 28.5625 
Q 18.796875 29.25 24.03125 29.890625 
Q 34.671875 31.15625 39.703125 32.90625 
Q 39.75 34.71875 39.75 35.203125 
Q 39.75 40.578125 37.25 42.78125 
Q 33.890625 45.75 27.25 45.75 
Q 21.046875 45.75 18.09375 43.578125 
Q 15.140625 41.40625 13.71875 35.890625 
L 5.125 37.0625 
Q 6.296875 42.578125 8.984375 45.96875 
Q 11.671875 49.359375 16.75 51.1875 
Q 21.828125 53.03125 28.515625 53.03125 
Q 35.15625 53.03125 39.296875 51.46875 
Q 43.453125 49.90625 45.40625 47.53125 
Q 47.359375 45.171875 48.140625 41.546875 
Q 48.578125 39.3125 48.578125 33.453125 
L 48.578125 21.734375 
Q 48.578125 9.46875 49.140625 6.21875 
Q 49.703125 2.984375 51.375 0 
L 42.1875 0 
Q 40.828125 2.734375 40.4375 6.390625 
z
M 39.703125 26.03125 
Q 34.90625 24.078125 25.34375 22.703125 
Q 19.921875 21.921875 17.671875 20.9375 
Q 15.4375 19.96875 14.203125 18.09375 
Q 12.984375 16.21875 12.984375 13.921875 
Q 12.984375 10.40625 15.640625 8.0625 
Q 18.3125 5.71875 23.4375 5.71875 
Q 28.515625 5.71875 32.46875 7.9375 
Q 36.421875 10.15625 38.28125 14.015625 
Q 39.703125 17 39.703125 22.796875 
z
" id="ArialMT-97"/>
     <path d="M 4.984375 -4.296875 
L 13.53125 -5.5625 
Q 14.0625 -9.515625 16.5 -11.328125 
Q 19.78125 -13.765625 25.4375 -13.765625 
Q 31.546875 -13.765625 34.859375 -11.328125 
Q 38.1875 -8.890625 39.359375 -4.5 
Q 40.046875 -1.8125 39.984375 6.78125 
Q 34.234375 0 25.640625 0 
Q 14.9375 0 9.078125 7.71875 
Q 3.21875 15.4375 3.21875 26.21875 
Q 3.21875 33.640625 5.90625 39.90625 
Q 8.59375 46.1875 13.6875 49.609375 
Q 18.796875 53.03125 25.6875 53.03125 
Q 34.859375 53.03125 40.828125 45.609375 
L 40.828125 51.859375 
L 48.921875 51.859375 
L 48.921875 7.03125 
Q 48.921875 -5.078125 46.453125 -10.125 
Q 44 -15.1875 38.640625 -18.109375 
Q 33.296875 -21.046875 25.484375 -21.046875 
Q 16.21875 -21.046875 10.5 -16.875 
Q 4.78125 -12.703125 4.984375 -4.296875 
z
M 12.25 26.859375 
Q 12.25 16.65625 16.296875 11.96875 
Q 20.359375 7.28125 26.46875 7.28125 
Q 32.515625 7.28125 36.609375 11.9375 
Q 40.71875 16.609375 40.71875 26.5625 
Q 40.71875 36.078125 36.5 40.90625 
Q 32.28125 45.75 26.3125 45.75 
Q 20.453125 45.75 16.34375 40.984375 
Q 12.25 36.234375 12.25 26.859375 
z
" id="ArialMT-103"/>
     <path d="M -0.140625 0 
L 27.34375 71.578125 
L 37.546875 71.578125 
L 66.84375 0 
L 56.0625 0 
L 47.703125 21.6875 
L 17.78125 21.6875 
L 9.90625 0 
z
M 20.515625 29.390625 
L 44.78125 29.390625 
L 37.3125 49.21875 
Q 33.890625 58.25 32.234375 64.0625 
Q 30.859375 57.171875 28.375 50.390625 
z
" id="ArialMT-65"/>
     <path d="M 40.578125 0 
L 40.578125 7.625 
Q 34.515625 -1.171875 24.125 -1.171875 
Q 19.53125 -1.171875 15.546875 0.578125 
Q 11.578125 2.34375 9.640625 5 
Q 7.71875 7.671875 6.9375 11.53125 
Q 6.390625 14.109375 6.390625 19.734375 
L 6.390625 51.859375 
L 15.1875 51.859375 
L 15.1875 23.09375 
Q 15.1875 16.21875 15.71875 13.8125 
Q 16.546875 10.359375 19.234375 8.375 
Q 21.921875 6.390625 25.875 6.390625 
Q 29.828125 6.390625 33.296875 8.421875 
Q 36.765625 10.453125 38.203125 13.9375 
Q 39.65625 17.4375 39.65625 24.078125 
L 39.65625 51.859375 
L 48.4375 51.859375 
L 48.4375 0 
z
" id="ArialMT-117"/>
     <path d="M 6.203125 -19.96875 
L 5.21875 -11.71875 
Q 8.109375 -12.5 10.25 -12.5 
Q 13.1875 -12.5 14.9375 -11.515625 
Q 16.703125 -10.546875 17.828125 -8.796875 
Q 18.65625 -7.46875 20.515625 -2.25 
Q 20.75 -1.515625 21.296875 -0.09375 
L 1.609375 51.859375 
L 11.078125 51.859375 
L 21.875 21.828125 
Q 23.96875 16.109375 25.640625 9.8125 
Q 27.15625 15.875 29.25 21.625 
L 40.328125 51.859375 
L 49.125 51.859375 
L 29.390625 -0.875 
Q 26.21875 -9.421875 24.46875 -12.640625 
Q 22.125 -17 19.09375 -19.015625 
Q 16.0625 -21.046875 11.859375 -21.046875 
Q 9.328125 -21.046875 6.203125 -19.96875 
z
" id="ArialMT-121"/>
    </defs>
    <g style="fill:#262626;" transform="translate(150.4515 28.56)scale(0.096 -0.096)">
     <use xlink:href="#ArialMT-69"/>
     <use x="66.699219" xlink:href="#ArialMT-120"/>
     <use x="116.699219" xlink:href="#ArialMT-112"/>
     <use x="172.314453" xlink:href="#ArialMT-101"/>
     <use x="227.929688" xlink:href="#ArialMT-114"/>
     <use x="261.230469" xlink:href="#ArialMT-105"/>
     <use x="283.447266" xlink:href="#ArialMT-109"/>
     <use x="366.748047" xlink:href="#ArialMT-101"/>
     <use x="422.363281" xlink:href="#ArialMT-110"/>
     <use x="477.978516" xlink:href="#ArialMT-116"/>
     <use x="505.761719" xlink:href="#ArialMT-32"/>
     <use x="533.544922" xlink:href="#ArialMT-49"/>
     <use x="589.160156" xlink:href="#ArialMT-32"/>
     <use x="616.943359" xlink:href="#ArialMT-45"/>
     <use x="650.244141" xlink:href="#ArialMT-32"/>
     <use x="678.011719" xlink:href="#ArialMT-84"/>
     <use x="739.048828" xlink:href="#ArialMT-114"/>
     <use x="772.349609" xlink:href="#ArialMT-97"/>
     <use x="827.964844" xlink:href="#ArialMT-105"/>
     <use x="850.181641" xlink:href="#ArialMT-110"/>
     <use x="905.796875" xlink:href="#ArialMT-105"/>
     <use x="928.013672" xlink:href="#ArialMT-110"/>
     <use x="983.628906" xlink:href="#ArialMT-103"/>
     <use x="1039.244141" xlink:href="#ArialMT-32"/>
     <use x="1066.949219" xlink:href="#ArialMT-65"/>
     <use x="1133.648438" xlink:href="#ArialMT-99"/>
     <use x="1183.648438" xlink:href="#ArialMT-99"/>
     <use x="1233.648438" xlink:href="#ArialMT-117"/>
     <use x="1289.263672" xlink:href="#ArialMT-114"/>
     <use x="1322.564453" xlink:href="#ArialMT-97"/>
     <use x="1378.179688" xlink:href="#ArialMT-99"/>
     <use x="1428.179688" xlink:href="#ArialMT-121"/>
    </g>
   </g>
   <g id="legend_1">
    <g id="patch_7">
     <path d="M 290.912375 251.92 
L 382.64 251.92 
Q 384.4 251.92 384.4 250.16 
L 384.4 226.0315 
Q 384.4 224.2715 382.64 224.2715 
L 290.912375 224.2715 
Q 289.152375 224.2715 289.152375 226.0315 
L 289.152375 250.16 
Q 289.152375 251.92 290.912375 251.92 
z
" style="fill:#ffffff;opacity:0.8;stroke:#cccccc;stroke-linejoin:miter;"/>
    </g>
    <g id="line2d_18">
     <path d="M 292.672375 231.123125 
L 310.272375 231.123125 
" style="fill:none;stroke:#0000ff;stroke-linecap:round;stroke-width:1.5;"/>
    </g>
    <g id="line2d_19"/>
    <g id="text_19">
     <!-- Output shapes -->
     <defs>
      <path d="M 4.828125 34.859375 
Q 4.828125 52.6875 14.390625 62.765625 
Q 23.96875 72.859375 39.109375 72.859375 
Q 49.03125 72.859375 56.984375 68.109375 
Q 64.9375 63.375 69.109375 54.90625 
Q 73.296875 46.4375 73.296875 35.6875 
Q 73.296875 24.8125 68.890625 16.21875 
Q 64.5 7.625 56.4375 3.203125 
Q 48.390625 -1.21875 39.0625 -1.21875 
Q 28.953125 -1.21875 20.984375 3.65625 
Q 13.03125 8.546875 8.921875 16.984375 
Q 4.828125 25.4375 4.828125 34.859375 
z
M 14.59375 34.71875 
Q 14.59375 21.78125 21.546875 14.328125 
Q 28.515625 6.890625 39.015625 6.890625 
Q 49.703125 6.890625 56.609375 14.40625 
Q 63.53125 21.921875 63.53125 35.75 
Q 63.53125 44.484375 60.578125 51 
Q 57.625 57.515625 51.921875 61.109375 
Q 46.234375 64.703125 39.15625 64.703125 
Q 29.109375 64.703125 21.84375 57.78125 
Q 14.59375 50.875 14.59375 34.71875 
z
" id="ArialMT-79"/>
     </defs>
     <g style="fill:#262626;" transform="translate(317.312375 234.203125)scale(0.088 -0.088)">
      <use xlink:href="#ArialMT-79"/>
      <use x="77.783203" xlink:href="#ArialMT-117"/>
      <use x="133.398438" xlink:href="#ArialMT-116"/>
      <use x="161.181641" xlink:href="#ArialMT-112"/>
      <use x="216.796875" xlink:href="#ArialMT-117"/>
      <use x="272.412109" xlink:href="#ArialMT-116"/>
      <use x="300.195312" xlink:href="#ArialMT-32"/>
      <use x="327.978516" xlink:href="#ArialMT-115"/>
      <use x="377.978516" xlink:href="#ArialMT-104"/>
      <use x="433.59375" xlink:href="#ArialMT-97"/>
      <use x="489.208984" xlink:href="#ArialMT-112"/>
      <use x="544.824219" xlink:href="#ArialMT-101"/>
      <use x="600.439453" xlink:href="#ArialMT-115"/>
     </g>
    </g>
    <g id="line2d_20">
     <path d="M 292.672375 243.571 
L 310.272375 243.571 
" style="fill:none;stroke:#ffa500;stroke-linecap:round;stroke-width:1.5;"/>
    </g>
    <g id="line2d_21"/>
    <g id="text_20">
     <!-- Transformations -->
     <defs>
      <path d="M 8.6875 0 
L 8.6875 45.015625 
L 0.921875 45.015625 
L 0.921875 51.859375 
L 8.6875 51.859375 
L 8.6875 57.375 
Q 8.6875 62.59375 9.625 65.140625 
Q 10.890625 68.5625 14.078125 70.671875 
Q 17.28125 72.796875 23.046875 72.796875 
Q 26.765625 72.796875 31.25 71.921875 
L 29.9375 64.265625 
Q 27.203125 64.75 24.75 64.75 
Q 20.75 64.75 19.09375 63.03125 
Q 17.4375 61.328125 17.4375 56.640625 
L 17.4375 51.859375 
L 27.546875 51.859375 
L 27.546875 45.015625 
L 17.4375 45.015625 
L 17.4375 0 
z
" id="ArialMT-102"/>
     </defs>
     <g style="fill:#262626;" transform="translate(317.312375 246.651)scale(0.088 -0.088)">
      <use xlink:href="#ArialMT-84"/>
      <use x="61.037109" xlink:href="#ArialMT-114"/>
      <use x="94.337891" xlink:href="#ArialMT-97"/>
      <use x="149.953125" xlink:href="#ArialMT-110"/>
      <use x="205.568359" xlink:href="#ArialMT-115"/>
      <use x="255.568359" xlink:href="#ArialMT-102"/>
      <use x="283.351562" xlink:href="#ArialMT-111"/>
      <use x="338.966797" xlink:href="#ArialMT-114"/>
      <use x="372.267578" xlink:href="#ArialMT-109"/>
      <use x="455.568359" xlink:href="#ArialMT-97"/>
      <use x="511.183594" xlink:href="#ArialMT-116"/>
      <use x="538.966797" xlink:href="#ArialMT-105"/>
      <use x="561.183594" xlink:href="#ArialMT-111"/>
      <use x="616.798828" xlink:href="#ArialMT-110"/>
      <use x="672.414062" xlink:href="#ArialMT-115"/>
     </g>
    </g>
   </g>
  </g>
 </g>
 <defs>
  <clipPath id="pd3a6f4f9d6">
   <rect height="221.76" width="334.8" x="54" y="34.56"/>
  </clipPath>
 </defs>
</svg>
