<?xml version="1.0" encoding="utf-8" standalone="no"?>
<!DOCTYPE svg PUBLIC "-//W3C//DTD SVG 1.1//EN"
  "http://www.w3.org/Graphics/SVG/1.1/DTD/svg11.dtd">
<!-- Created with matplotlib (https://matplotlib.org/) -->
<svg height="288pt" version="1.1" viewBox="0 0 432 288" width="432pt" xmlns="http://www.w3.org/2000/svg" xmlns:xlink="http://www.w3.org/1999/xlink">
 <defs>
  <style type="text/css">
*{stroke-linecap:butt;stroke-linejoin:round;white-space:pre;}
  </style>
 </defs>
 <g id="figure_1">
  <g id="patch_1">
   <path d="M 0 288 
L 432 288 
L 432 0 
L 0 0 
z
" style="fill:#ffffff;"/>
  </g>
  <g id="axes_1">
   <g id="patch_2">
    <path d="M 54 256.32 
L 388.8 256.32 
L 388.8 34.56 
L 54 34.56 
z
" style="fill:#ffffff;"/>
   </g>
   <g id="matplotlib.axis_1">
    <g id="xtick_1">
     <g id="line2d_1">
      <path clip-path="url(#p6c49d61757)" d="M 54 256.32 
L 54 34.56 
" style="fill:none;stroke:#cccccc;stroke-linecap:round;"/>
     </g>
     <g id="text_1">
      <!-- 0 -->
      <defs>
       <path d="M 4.15625 35.296875 
Q 4.15625 48 6.765625 55.734375 
Q 9.375 63.484375 14.515625 67.671875 
Q 19.671875 71.875 27.484375 71.875 
Q 33.25 71.875 37.59375 69.546875 
Q 41.9375 67.234375 44.765625 62.859375 
Q 47.609375 58.5 49.21875 52.21875 
Q 50.828125 45.953125 50.828125 35.296875 
Q 50.828125 22.703125 48.234375 14.96875 
Q 45.65625 7.234375 40.5 3 
Q 35.359375 -1.21875 27.484375 -1.21875 
Q 17.140625 -1.21875 11.234375 6.203125 
Q 4.15625 15.140625 4.15625 35.296875 
z
M 13.1875 35.296875 
Q 13.1875 17.671875 17.3125 11.828125 
Q 21.4375 6 27.484375 6 
Q 33.546875 6 37.671875 11.859375 
Q 41.796875 17.71875 41.796875 35.296875 
Q 41.796875 52.984375 37.671875 58.78125 
Q 33.546875 64.59375 27.390625 64.59375 
Q 21.34375 64.59375 17.71875 59.46875 
Q 13.1875 52.9375 13.1875 35.296875 
z
" id="ArialMT-48"/>
      </defs>
      <g style="fill:#262626;" transform="translate(51.553187 272.118875)scale(0.088 -0.088)">
       <use xlink:href="#ArialMT-48"/>
      </g>
     </g>
    </g>
    <g id="xtick_2">
     <g id="line2d_2">
      <path clip-path="url(#p6c49d61757)" d="M 129.918367 256.32 
L 129.918367 34.56 
" style="fill:none;stroke:#cccccc;stroke-linecap:round;"/>
     </g>
     <g id="text_2">
      <!-- 5000 -->
      <defs>
       <path d="M 4.15625 18.75 
L 13.375 19.53125 
Q 14.40625 12.796875 18.140625 9.390625 
Q 21.875 6 27.15625 6 
Q 33.5 6 37.890625 10.78125 
Q 42.28125 15.578125 42.28125 23.484375 
Q 42.28125 31 38.0625 35.34375 
Q 33.84375 39.703125 27 39.703125 
Q 22.75 39.703125 19.328125 37.765625 
Q 15.921875 35.84375 13.96875 32.765625 
L 5.71875 33.84375 
L 12.640625 70.609375 
L 48.25 70.609375 
L 48.25 62.203125 
L 19.671875 62.203125 
L 15.828125 42.96875 
Q 22.265625 47.46875 29.34375 47.46875 
Q 38.71875 47.46875 45.15625 40.96875 
Q 51.609375 34.46875 51.609375 24.265625 
Q 51.609375 14.546875 45.953125 7.46875 
Q 39.0625 -1.21875 27.15625 -1.21875 
Q 17.390625 -1.21875 11.203125 4.25 
Q 5.03125 9.71875 4.15625 18.75 
z
" id="ArialMT-53"/>
      </defs>
      <g style="fill:#262626;" transform="translate(120.131117 272.118875)scale(0.088 -0.088)">
       <use xlink:href="#ArialMT-53"/>
       <use x="55.615234" xlink:href="#ArialMT-48"/>
       <use x="111.230469" xlink:href="#ArialMT-48"/>
       <use x="166.845703" xlink:href="#ArialMT-48"/>
      </g>
     </g>
    </g>
    <g id="xtick_3">
     <g id="line2d_3">
      <path clip-path="url(#p6c49d61757)" d="M 205.836735 256.32 
L 205.836735 34.56 
" style="fill:none;stroke:#cccccc;stroke-linecap:round;"/>
     </g>
     <g id="text_3">
      <!-- 10000 -->
      <defs>
       <path d="M 37.25 0 
L 28.46875 0 
L 28.46875 56 
Q 25.296875 52.984375 20.140625 49.953125 
Q 14.984375 46.921875 10.890625 45.40625 
L 10.890625 53.90625 
Q 18.265625 57.375 23.78125 62.296875 
Q 29.296875 67.234375 31.59375 71.875 
L 37.25 71.875 
z
" id="ArialMT-49"/>
      </defs>
      <g style="fill:#262626;" transform="translate(193.602672 272.118875)scale(0.088 -0.088)">
       <use xlink:href="#ArialMT-49"/>
       <use x="55.615234" xlink:href="#ArialMT-48"/>
       <use x="111.230469" xlink:href="#ArialMT-48"/>
       <use x="166.845703" xlink:href="#ArialMT-48"/>
       <use x="222.460938" xlink:href="#ArialMT-48"/>
      </g>
     </g>
    </g>
    <g id="xtick_4">
     <g id="line2d_4">
      <path clip-path="url(#p6c49d61757)" d="M 281.755102 256.32 
L 281.755102 34.56 
" style="fill:none;stroke:#cccccc;stroke-linecap:round;"/>
     </g>
     <g id="text_4">
      <!-- 15000 -->
      <g style="fill:#262626;" transform="translate(269.52104 272.118875)scale(0.088 -0.088)">
       <use xlink:href="#ArialMT-49"/>
       <use x="55.615234" xlink:href="#ArialMT-53"/>
       <use x="111.230469" xlink:href="#ArialMT-48"/>
       <use x="166.845703" xlink:href="#ArialMT-48"/>
       <use x="222.460938" xlink:href="#ArialMT-48"/>
      </g>
     </g>
    </g>
    <g id="xtick_5">
     <g id="line2d_5">
      <path clip-path="url(#p6c49d61757)" d="M 357.673469 256.32 
L 357.673469 34.56 
" style="fill:none;stroke:#cccccc;stroke-linecap:round;"/>
     </g>
     <g id="text_5">
      <!-- 20000 -->
      <defs>
       <path d="M 50.34375 8.453125 
L 50.34375 0 
L 3.03125 0 
Q 2.9375 3.171875 4.046875 6.109375 
Q 5.859375 10.9375 9.828125 15.625 
Q 13.8125 20.3125 21.34375 26.46875 
Q 33.015625 36.03125 37.109375 41.625 
Q 41.21875 47.21875 41.21875 52.203125 
Q 41.21875 57.421875 37.46875 61 
Q 33.734375 64.59375 27.734375 64.59375 
Q 21.390625 64.59375 17.578125 60.78125 
Q 13.765625 56.984375 13.71875 50.25 
L 4.6875 51.171875 
Q 5.609375 61.28125 11.65625 66.578125 
Q 17.71875 71.875 27.9375 71.875 
Q 38.234375 71.875 44.234375 66.15625 
Q 50.25 60.453125 50.25 52 
Q 50.25 47.703125 48.484375 43.546875 
Q 46.734375 39.40625 42.65625 34.8125 
Q 38.578125 30.21875 29.109375 22.21875 
Q 21.1875 15.578125 18.9375 13.203125 
Q 16.703125 10.84375 15.234375 8.453125 
z
" id="ArialMT-50"/>
      </defs>
      <g style="fill:#262626;" transform="translate(345.439407 272.118875)scale(0.088 -0.088)">
       <use xlink:href="#ArialMT-50"/>
       <use x="55.615234" xlink:href="#ArialMT-48"/>
       <use x="111.230469" xlink:href="#ArialMT-48"/>
       <use x="166.845703" xlink:href="#ArialMT-48"/>
       <use x="222.460938" xlink:href="#ArialMT-48"/>
      </g>
     </g>
    </g>
    <g id="text_6">
     <!-- Epochs -->
     <defs>
      <path d="M 7.90625 0 
L 7.90625 71.578125 
L 59.671875 71.578125 
L 59.671875 63.140625 
L 17.390625 63.140625 
L 17.390625 41.21875 
L 56.984375 41.21875 
L 56.984375 32.8125 
L 17.390625 32.8125 
L 17.390625 8.453125 
L 61.328125 8.453125 
L 61.328125 0 
z
" id="ArialMT-69"/>
      <path d="M 6.59375 -19.875 
L 6.59375 51.859375 
L 14.59375 51.859375 
L 14.59375 45.125 
Q 17.4375 49.078125 21 51.046875 
Q 24.5625 53.03125 29.640625 53.03125 
Q 36.28125 53.03125 41.359375 49.609375 
Q 46.4375 46.1875 49.015625 39.953125 
Q 51.609375 33.734375 51.609375 26.3125 
Q 51.609375 18.359375 48.75 11.984375 
Q 45.90625 5.609375 40.453125 2.21875 
Q 35.015625 -1.171875 29 -1.171875 
Q 24.609375 -1.171875 21.109375 0.6875 
Q 17.625 2.546875 15.375 5.375 
L 15.375 -19.875 
z
M 14.546875 25.640625 
Q 14.546875 15.625 18.59375 10.84375 
Q 22.65625 6.0625 28.421875 6.0625 
Q 34.28125 6.0625 38.453125 11.015625 
Q 42.625 15.96875 42.625 26.375 
Q 42.625 36.28125 38.546875 41.203125 
Q 34.46875 46.140625 28.8125 46.140625 
Q 23.1875 46.140625 18.859375 40.890625 
Q 14.546875 35.640625 14.546875 25.640625 
z
" id="ArialMT-112"/>
      <path d="M 3.328125 25.921875 
Q 3.328125 40.328125 11.328125 47.265625 
Q 18.015625 53.03125 27.640625 53.03125 
Q 38.328125 53.03125 45.109375 46.015625 
Q 51.90625 39.015625 51.90625 26.65625 
Q 51.90625 16.65625 48.90625 10.90625 
Q 45.90625 5.171875 40.15625 2 
Q 34.421875 -1.171875 27.640625 -1.171875 
Q 16.75 -1.171875 10.03125 5.8125 
Q 3.328125 12.796875 3.328125 25.921875 
z
M 12.359375 25.921875 
Q 12.359375 15.96875 16.703125 11.015625 
Q 21.046875 6.0625 27.640625 6.0625 
Q 34.1875 6.0625 38.53125 11.03125 
Q 42.875 16.015625 42.875 26.21875 
Q 42.875 35.84375 38.5 40.796875 
Q 34.125 45.75 27.640625 45.75 
Q 21.046875 45.75 16.703125 40.8125 
Q 12.359375 35.890625 12.359375 25.921875 
z
" id="ArialMT-111"/>
      <path d="M 40.4375 19 
L 49.078125 17.875 
Q 47.65625 8.9375 41.8125 3.875 
Q 35.984375 -1.171875 27.484375 -1.171875 
Q 16.84375 -1.171875 10.375 5.78125 
Q 3.90625 12.75 3.90625 25.734375 
Q 3.90625 34.125 6.6875 40.421875 
Q 9.46875 46.734375 15.15625 49.875 
Q 20.84375 53.03125 27.546875 53.03125 
Q 35.984375 53.03125 41.359375 48.75 
Q 46.734375 44.484375 48.25 36.625 
L 39.703125 35.296875 
Q 38.484375 40.53125 35.375 43.15625 
Q 32.28125 45.796875 27.875 45.796875 
Q 21.234375 45.796875 17.078125 41.03125 
Q 12.9375 36.28125 12.9375 25.984375 
Q 12.9375 15.53125 16.9375 10.796875 
Q 20.953125 6.0625 27.390625 6.0625 
Q 32.5625 6.0625 36.03125 9.234375 
Q 39.5 12.40625 40.4375 19 
z
" id="ArialMT-99"/>
      <path d="M 6.59375 0 
L 6.59375 71.578125 
L 15.375 71.578125 
L 15.375 45.90625 
Q 21.53125 53.03125 30.90625 53.03125 
Q 36.671875 53.03125 40.921875 50.75 
Q 45.171875 48.484375 47 44.484375 
Q 48.828125 40.484375 48.828125 32.859375 
L 48.828125 0 
L 40.046875 0 
L 40.046875 32.859375 
Q 40.046875 39.453125 37.1875 42.453125 
Q 34.328125 45.453125 29.109375 45.453125 
Q 25.203125 45.453125 21.75 43.421875 
Q 18.3125 41.40625 16.84375 37.9375 
Q 15.375 34.46875 15.375 28.375 
L 15.375 0 
z
" id="ArialMT-104"/>
      <path d="M 3.078125 15.484375 
L 11.765625 16.84375 
Q 12.5 11.625 15.84375 8.84375 
Q 19.1875 6.0625 25.203125 6.0625 
Q 31.25 6.0625 34.171875 8.515625 
Q 37.109375 10.984375 37.109375 14.3125 
Q 37.109375 17.28125 34.515625 19 
Q 32.71875 20.171875 25.53125 21.96875 
Q 15.875 24.421875 12.140625 26.203125 
Q 8.40625 27.984375 6.46875 31.125 
Q 4.546875 34.28125 4.546875 38.09375 
Q 4.546875 41.546875 6.125 44.5 
Q 7.71875 47.46875 10.453125 49.421875 
Q 12.5 50.921875 16.03125 51.96875 
Q 19.578125 53.03125 23.640625 53.03125 
Q 29.734375 53.03125 34.34375 51.265625 
Q 38.96875 49.515625 41.15625 46.5 
Q 43.359375 43.5 44.1875 38.484375 
L 35.59375 37.3125 
Q 35.015625 41.3125 32.203125 43.546875 
Q 29.390625 45.796875 24.265625 45.796875 
Q 18.21875 45.796875 15.625 43.796875 
Q 13.03125 41.796875 13.03125 39.109375 
Q 13.03125 37.40625 14.109375 36.03125 
Q 15.1875 34.625 17.484375 33.6875 
Q 18.796875 33.203125 25.25 31.453125 
Q 34.578125 28.953125 38.25 27.359375 
Q 41.9375 25.78125 44.03125 22.75 
Q 46.140625 19.734375 46.140625 15.234375 
Q 46.140625 10.84375 43.578125 6.953125 
Q 41.015625 3.078125 36.171875 0.953125 
Q 31.34375 -1.171875 25.25 -1.171875 
Q 15.140625 -1.171875 9.84375 3.03125 
Q 4.546875 7.234375 3.078125 15.484375 
z
" id="ArialMT-115"/>
     </defs>
     <g style="fill:#262626;" transform="translate(205.3905 284.739375)scale(0.096 -0.096)">
      <use xlink:href="#ArialMT-69"/>
      <use x="66.699219" xlink:href="#ArialMT-112"/>
      <use x="122.314453" xlink:href="#ArialMT-111"/>
      <use x="177.929688" xlink:href="#ArialMT-99"/>
      <use x="227.929688" xlink:href="#ArialMT-104"/>
      <use x="283.544922" xlink:href="#ArialMT-115"/>
     </g>
    </g>
   </g>
   <g id="matplotlib.axis_2">
    <g id="ytick_1">
     <g id="line2d_6">
      <path clip-path="url(#p6c49d61757)" d="M 54 256.32 
L 388.8 256.32 
" style="fill:none;stroke:#cccccc;stroke-linecap:round;"/>
     </g>
     <g id="text_7">
      <!-- 0 -->
      <g style="fill:#262626;" transform="translate(39.606375 259.469438)scale(0.088 -0.088)">
       <use xlink:href="#ArialMT-48"/>
      </g>
     </g>
    </g>
    <g id="ytick_2">
     <g id="line2d_7">
      <path clip-path="url(#p6c49d61757)" d="M 54 225.52015 
L 388.8 225.52015 
" style="fill:none;stroke:#cccccc;stroke-linecap:round;"/>
     </g>
     <g id="text_8">
      <!-- 1 -->
      <g style="fill:#262626;" transform="translate(39.606375 228.669588)scale(0.088 -0.088)">
       <use xlink:href="#ArialMT-49"/>
      </g>
     </g>
    </g>
    <g id="ytick_3">
     <g id="line2d_8">
      <path clip-path="url(#p6c49d61757)" d="M 54 194.7203 
L 388.8 194.7203 
" style="fill:none;stroke:#cccccc;stroke-linecap:round;"/>
     </g>
     <g id="text_9">
      <!-- 2 -->
      <g style="fill:#262626;" transform="translate(39.606375 197.869738)scale(0.088 -0.088)">
       <use xlink:href="#ArialMT-50"/>
      </g>
     </g>
    </g>
    <g id="ytick_4">
     <g id="line2d_9">
      <path clip-path="url(#p6c49d61757)" d="M 54 163.92045 
L 388.8 163.92045 
" style="fill:none;stroke:#cccccc;stroke-linecap:round;"/>
     </g>
     <g id="text_10">
      <!-- 3 -->
      <defs>
       <path d="M 4.203125 18.890625 
L 12.984375 20.0625 
Q 14.5 12.59375 18.140625 9.296875 
Q 21.78125 6 27 6 
Q 33.203125 6 37.46875 10.296875 
Q 41.75 14.59375 41.75 20.953125 
Q 41.75 27 37.796875 30.921875 
Q 33.84375 34.859375 27.734375 34.859375 
Q 25.25 34.859375 21.53125 33.890625 
L 22.515625 41.609375 
Q 23.390625 41.5 23.921875 41.5 
Q 29.546875 41.5 34.03125 44.421875 
Q 38.53125 47.359375 38.53125 53.46875 
Q 38.53125 58.296875 35.25 61.46875 
Q 31.984375 64.65625 26.8125 64.65625 
Q 21.6875 64.65625 18.265625 61.421875 
Q 14.84375 58.203125 13.875 51.765625 
L 5.078125 53.328125 
Q 6.6875 62.15625 12.390625 67.015625 
Q 18.109375 71.875 26.609375 71.875 
Q 32.46875 71.875 37.390625 69.359375 
Q 42.328125 66.84375 44.9375 62.5 
Q 47.5625 58.15625 47.5625 53.265625 
Q 47.5625 48.640625 45.0625 44.828125 
Q 42.578125 41.015625 37.703125 38.765625 
Q 44.046875 37.3125 47.5625 32.6875 
Q 51.078125 28.078125 51.078125 21.140625 
Q 51.078125 11.765625 44.234375 5.25 
Q 37.40625 -1.265625 26.953125 -1.265625 
Q 17.53125 -1.265625 11.296875 4.34375 
Q 5.078125 9.96875 4.203125 18.890625 
z
" id="ArialMT-51"/>
      </defs>
      <g style="fill:#262626;" transform="translate(39.606375 167.069888)scale(0.088 -0.088)">
       <use xlink:href="#ArialMT-51"/>
      </g>
     </g>
    </g>
    <g id="ytick_5">
     <g id="line2d_10">
      <path clip-path="url(#p6c49d61757)" d="M 54 133.120601 
L 388.8 133.120601 
" style="fill:none;stroke:#cccccc;stroke-linecap:round;"/>
     </g>
     <g id="text_11">
      <!-- 4 -->
      <defs>
       <path d="M 32.328125 0 
L 32.328125 17.140625 
L 1.265625 17.140625 
L 1.265625 25.203125 
L 33.9375 71.578125 
L 41.109375 71.578125 
L 41.109375 25.203125 
L 50.78125 25.203125 
L 50.78125 17.140625 
L 41.109375 17.140625 
L 41.109375 0 
z
M 32.328125 25.203125 
L 32.328125 57.46875 
L 9.90625 25.203125 
z
" id="ArialMT-52"/>
      </defs>
      <g style="fill:#262626;" transform="translate(39.606375 136.270038)scale(0.088 -0.088)">
       <use xlink:href="#ArialMT-52"/>
      </g>
     </g>
    </g>
    <g id="ytick_6">
     <g id="line2d_11">
      <path clip-path="url(#p6c49d61757)" d="M 54 102.320751 
L 388.8 102.320751 
" style="fill:none;stroke:#cccccc;stroke-linecap:round;"/>
     </g>
     <g id="text_12">
      <!-- 5 -->
      <g style="fill:#262626;" transform="translate(39.606375 105.470188)scale(0.088 -0.088)">
       <use xlink:href="#ArialMT-53"/>
      </g>
     </g>
    </g>
    <g id="ytick_7">
     <g id="line2d_12">
      <path clip-path="url(#p6c49d61757)" d="M 54 71.520901 
L 388.8 71.520901 
" style="fill:none;stroke:#cccccc;stroke-linecap:round;"/>
     </g>
     <g id="text_13">
      <!-- 6 -->
      <defs>
       <path d="M 49.75 54.046875 
L 41.015625 53.375 
Q 39.84375 58.546875 37.703125 60.890625 
Q 34.125 64.65625 28.90625 64.65625 
Q 24.703125 64.65625 21.53125 62.3125 
Q 17.390625 59.28125 14.984375 53.46875 
Q 12.59375 47.65625 12.5 36.921875 
Q 15.671875 41.75 20.265625 44.09375 
Q 24.859375 46.4375 29.890625 46.4375 
Q 38.671875 46.4375 44.84375 39.96875 
Q 51.03125 33.5 51.03125 23.25 
Q 51.03125 16.5 48.125 10.71875 
Q 45.21875 4.9375 40.140625 1.859375 
Q 35.0625 -1.21875 28.609375 -1.21875 
Q 17.625 -1.21875 10.6875 6.859375 
Q 3.765625 14.9375 3.765625 33.5 
Q 3.765625 54.25 11.421875 63.671875 
Q 18.109375 71.875 29.4375 71.875 
Q 37.890625 71.875 43.28125 67.140625 
Q 48.6875 62.40625 49.75 54.046875 
z
M 13.875 23.1875 
Q 13.875 18.65625 15.796875 14.5 
Q 17.71875 10.359375 21.1875 8.171875 
Q 24.65625 6 28.46875 6 
Q 34.03125 6 38.03125 10.484375 
Q 42.046875 14.984375 42.046875 22.703125 
Q 42.046875 30.125 38.078125 34.390625 
Q 34.125 38.671875 28.125 38.671875 
Q 22.171875 38.671875 18.015625 34.390625 
Q 13.875 30.125 13.875 23.1875 
z
" id="ArialMT-54"/>
      </defs>
      <g style="fill:#262626;" transform="translate(39.606375 74.670338)scale(0.088 -0.088)">
       <use xlink:href="#ArialMT-54"/>
      </g>
     </g>
    </g>
    <g id="ytick_8">
     <g id="line2d_13">
      <path clip-path="url(#p6c49d61757)" d="M 54 40.721051 
L 388.8 40.721051 
" style="fill:none;stroke:#cccccc;stroke-linecap:round;"/>
     </g>
     <g id="text_14">
      <!-- 7 -->
      <defs>
       <path d="M 4.734375 62.203125 
L 4.734375 70.65625 
L 51.078125 70.65625 
L 51.078125 63.8125 
Q 44.234375 56.546875 37.515625 44.484375 
Q 30.8125 32.421875 27.15625 19.671875 
Q 24.515625 10.6875 23.78125 0 
L 14.75 0 
Q 14.890625 8.453125 18.0625 20.40625 
Q 21.234375 32.375 27.171875 43.484375 
Q 33.109375 54.59375 39.796875 62.203125 
z
" id="ArialMT-55"/>
      </defs>
      <g style="fill:#262626;" transform="translate(39.606375 43.870489)scale(0.088 -0.088)">
       <use xlink:href="#ArialMT-55"/>
      </g>
     </g>
    </g>
    <g id="text_15">
     <!-- Loss -->
     <defs>
      <path d="M 7.328125 0 
L 7.328125 71.578125 
L 16.796875 71.578125 
L 16.796875 8.453125 
L 52.046875 8.453125 
L 52.046875 0 
z
" id="ArialMT-76"/>
     </defs>
     <g style="fill:#262626;" transform="translate(33.698375 155.5785)rotate(-90)scale(0.096 -0.096)">
      <use xlink:href="#ArialMT-76"/>
      <use x="55.615234" xlink:href="#ArialMT-111"/>
      <use x="111.230469" xlink:href="#ArialMT-115"/>
      <use x="161.230469" xlink:href="#ArialMT-115"/>
     </g>
    </g>
   </g>
   <g id="line2d_14">
    <path clip-path="url(#p6c49d61757)" d="M 55.644898 -1 
L 56.277551 27.300197 
L 57.036735 34.56 
L 57.795918 49.775608 
L 58.555102 55.865107 
L 59.314286 52.991404 
L 60.073469 58.217576 
L 60.832653 53.965088 
L 61.591837 62.684176 
L 62.35102 66.02056 
L 63.110204 66.719611 
L 63.869388 63.359019 
L 64.628571 66.97911 
L 65.387755 63.902365 
L 66.146939 61.88648 
L 67.665306 73.584218 
L 68.42449 70.16824 
L 69.183673 75.125659 
L 69.942857 72.071087 
L 70.702041 79.711807 
L 71.461224 77.714976 
L 73.738776 94.749938 
L 74.497959 107.484342 
L 75.257143 116.960958 
L 76.016327 120.13972 
L 77.534694 124.871554 
L 78.293878 124.140747 
L 79.053061 132.760481 
L 79.812245 138.426376 
L 80.571429 142.671181 
L 81.330612 145.555724 
L 82.089796 147.186116 
L 82.84898 145.333842 
L 83.608163 147.80234 
L 84.367347 152.069889 
L 85.126531 149.916799 
L 86.644898 150.730381 
L 87.404082 152.487618 
L 88.163265 150.652864 
L 88.922449 151.095017 
L 89.681633 149.172038 
L 90.440816 151.771216 
L 91.2 151.548891 
L 91.959184 152.147072 
L 92.718367 151.975279 
L 93.477551 156.83476 
L 94.236735 152.631057 
L 94.995918 157.173123 
L 95.755102 159.280759 
L 96.514286 157.328368 
L 97.273469 164.096489 
L 98.032653 167.287057 
L 98.791837 166.625759 
L 99.55102 168.39741 
L 100.310204 174.299232 
L 101.069388 172.628749 
L 101.828571 173.098465 
L 102.587755 168.905823 
L 103.346939 174.991925 
L 104.106122 170.754548 
L 104.865306 174.517742 
L 105.62449 172.161677 
L 106.383673 173.617337 
L 107.142857 171.878977 
L 107.902041 171.778628 
L 108.661224 170.542054 
L 109.420408 170.878387 
L 110.179592 171.557567 
L 110.938776 175.736205 
L 111.697959 171.085839 
L 112.457143 170.926178 
L 113.216327 174.184317 
L 113.97551 172.651361 
L 114.734694 173.514258 
L 115.493878 172.5716 
L 116.253061 173.980428 
L 117.012245 171.726968 
L 117.771429 172.747185 
L 118.530612 171.346716 
L 120.04898 174.052101 
L 120.808163 173.34188 
L 121.567347 171.663509 
L 122.326531 172.903516 
L 123.085714 172.53809 
L 123.844898 172.463642 
L 124.604082 174.219422 
L 125.363265 170.566622 
L 126.122449 173.517686 
L 126.881633 173.218904 
L 127.640816 173.746342 
L 128.4 174.672188 
L 129.159184 175.157807 
L 129.918367 176.041766 
L 131.436735 172.814678 
L 132.195918 175.385599 
L 133.714286 175.856116 
L 134.473469 173.515457 
L 135.991837 175.673618 
L 136.75102 172.963527 
L 137.510204 173.51653 
L 138.269388 173.352818 
L 139.028571 173.724623 
L 139.787755 173.836455 
L 140.546939 172.210878 
L 141.306122 175.673913 
L 142.065306 177.524909 
L 142.82449 177.38597 
L 143.583673 176.158428 
L 144.342857 176.27133 
L 145.102041 178.293694 
L 145.861224 176.327377 
L 146.620408 170.518489 
L 147.379592 176.182841 
L 148.138776 176.247131 
L 148.897959 172.175124 
L 149.657143 175.32234 
L 150.416327 177.318596 
L 151.17551 178.630015 
L 151.934694 175.582323 
L 152.693878 175.632486 
L 153.453061 170.337137 
L 154.212245 175.079679 
L 154.971429 178.36615 
L 155.730612 176.227581 
L 156.489796 177.668448 
L 157.24898 177.418627 
L 158.008163 174.98344 
L 158.767347 174.670642 
L 159.526531 177.481989 
L 160.285714 177.311206 
L 161.044898 172.41239 
L 161.804082 172.439195 
L 162.563265 176.968334 
L 163.322449 175.546371 
L 164.081633 177.537747 
L 164.840816 176.593928 
L 165.6 175.362447 
L 166.359184 175.469235 
L 167.118367 172.445648 
L 167.877551 172.572436 
L 168.636735 174.380348 
L 169.395918 173.553493 
L 170.155102 176.334578 
L 170.914286 175.644672 
L 171.673469 175.830644 
L 172.432653 173.874711 
L 173.191837 177.317475 
L 173.95102 176.328263 
L 174.710204 176.366468 
L 175.469388 178.414034 
L 176.228571 175.178139 
L 176.987755 174.478884 
L 177.746939 175.210216 
L 178.506122 172.903249 
L 179.265306 171.767031 
L 180.02449 170.836824 
L 180.783673 174.847697 
L 181.542857 174.768488 
L 182.302041 176.932518 
L 183.061224 171.370863 
L 183.820408 173.161131 
L 184.579592 175.548528 
L 185.338776 178.329306 
L 186.097959 173.021671 
L 186.857143 176.728441 
L 187.616327 177.84568 
L 188.37551 176.433998 
L 189.134694 176.10554 
L 189.893878 178.959917 
L 190.653061 174.892549 
L 191.412245 175.519951 
L 192.171429 174.651831 
L 192.930612 176.058697 
L 193.689796 175.772002 
L 194.44898 176.133181 
L 195.208163 179.846803 
L 196.726531 179.196479 
L 197.485714 178.046889 
L 198.244898 179.835532 
L 199.004082 177.393755 
L 199.763265 179.069902 
L 200.522449 176.456048 
L 201.281633 175.256599 
L 202.040816 178.035363 
L 202.8 179.147555 
L 203.559184 176.962735 
L 204.318367 181.605618 
L 205.077551 181.586808 
L 205.836735 182.964627 
L 206.595918 183.233289 
L 207.355102 182.757374 
L 208.114286 183.178204 
L 208.873469 182.576483 
L 209.632653 183.658192 
L 210.391837 182.905284 
L 211.15102 185.74774 
L 211.910204 185.468485 
L 212.669388 185.396341 
L 213.428571 185.6395 
L 214.187755 187.822878 
L 214.946939 184.972405 
L 215.706122 182.845945 
L 216.465306 189.176369 
L 217.983673 184.66486 
L 218.742857 187.314877 
L 219.502041 188.105469 
L 220.261224 187.393894 
L 221.020408 187.415691 
L 221.779592 184.779502 
L 222.538776 185.814214 
L 223.297959 185.131967 
L 224.057143 188.03473 
L 224.816327 187.150383 
L 225.57551 188.308083 
L 226.334694 187.487766 
L 227.093878 188.761195 
L 227.853061 185.5987 
L 229.371429 190.375736 
L 230.130612 188.850129 
L 230.889796 188.932846 
L 231.64898 190.323407 
L 232.408163 188.672605 
L 233.167347 190.492844 
L 233.926531 190.277658 
L 234.685714 188.367148 
L 235.444898 189.860355 
L 236.204082 189.376274 
L 237.722449 190.721644 
L 238.481633 189.36383 
L 239.240816 191.094838 
L 240 190.919565 
L 240.759184 189.549558 
L 242.277551 192.561104 
L 243.036735 190.333013 
L 243.795918 192.872006 
L 244.555102 193.656524 
L 245.314286 190.153427 
L 246.073469 192.310715 
L 246.832653 193.421636 
L 247.591837 193.571202 
L 248.35102 191.990578 
L 249.110204 191.95734 
L 249.869388 192.095904 
L 250.628571 193.282899 
L 251.387755 193.077792 
L 252.146939 194.937371 
L 252.906122 194.49032 
L 253.665306 193.051735 
L 254.42449 193.345069 
L 255.183673 189.842173 
L 255.942857 192.633731 
L 256.702041 192.509662 
L 257.461224 193.413378 
L 258.220408 191.123106 
L 258.979592 191.193985 
L 259.738776 193.627454 
L 260.497959 188.748614 
L 261.257143 192.436316 
L 262.016327 193.19037 
L 262.77551 192.010682 
L 263.534694 196.241629 
L 264.293878 192.491996 
L 265.053061 195.483662 
L 265.812245 195.409175 
L 266.571429 191.213108 
L 267.330612 190.595547 
L 268.089796 195.000355 
L 268.84898 194.777148 
L 269.608163 194.84614 
L 270.367347 197.937719 
L 271.126531 195.774251 
L 271.885714 194.011996 
L 273.404082 196.742959 
L 274.163265 193.694734 
L 274.922449 196.43943 
L 275.681633 196.244584 
L 276.440816 194.308241 
L 277.2 194.735617 
L 277.959184 197.631152 
L 278.718367 195.680387 
L 279.477551 195.883039 
L 280.236735 195.168874 
L 280.995918 200.216847 
L 281.755102 200.318264 
L 282.514286 196.61581 
L 283.273469 197.567834 
L 284.032653 193.852219 
L 284.791837 196.638879 
L 285.55102 200.038077 
L 286.310204 195.630682 
L 287.069388 198.97273 
L 287.828571 196.387718 
L 288.587755 197.887543 
L 289.346939 192.1361 
L 290.106122 197.042731 
L 290.865306 192.079084 
L 291.62449 198.478788 
L 292.383673 195.837833 
L 293.142857 196.033961 
L 293.902041 199.595121 
L 294.661224 199.054787 
L 295.420408 192.828293 
L 296.179592 197.297795 
L 297.697959 198.369399 
L 298.457143 198.478604 
L 299.216327 196.488418 
L 299.97551 196.538375 
L 300.734694 196.749022 
L 301.493878 195.347154 
L 302.253061 196.456514 
L 303.012245 195.831993 
L 303.771429 198.244391 
L 304.530612 193.085169 
L 305.289796 193.885384 
L 306.04898 198.007386 
L 306.808163 186.746892 
L 307.567347 196.1338 
L 308.326531 197.708174 
L 309.085714 198.211223 
L 309.844898 198.084715 
L 310.604082 193.52346 
L 311.363265 199.375137 
L 312.122449 198.684032 
L 312.881633 200.241664 
L 313.640816 196.293733 
L 314.4 194.591702 
L 315.159184 197.401194 
L 315.918367 197.616707 
L 316.677551 198.353236 
L 317.436735 196.714641 
L 318.195918 197.442378 
L 318.955102 196.846838 
L 319.714286 197.552811 
L 320.473469 200.333426 
L 321.232653 198.095011 
L 321.991837 200.702196 
L 322.75102 197.061764 
L 323.510204 200.789906 
L 324.269388 199.300456 
L 325.028571 195.679555 
L 325.787755 199.303435 
L 327.306122 193.024613 
L 328.065306 199.625643 
L 328.82449 199.928346 
L 329.583673 197.297493 
L 330.342857 199.175688 
L 331.102041 196.256604 
L 331.861224 201.718171 
L 332.620408 196.854032 
L 333.379592 195.354957 
L 334.138776 200.343507 
L 334.897959 198.328419 
L 335.657143 199.110246 
L 336.416327 198.617466 
L 337.17551 200.457377 
L 337.934694 199.570805 
L 338.693878 205.707164 
L 339.453061 201.793769 
L 340.212245 197.07948 
L 340.971429 199.984729 
L 341.730612 202.222853 
L 342.489796 200.140933 
L 343.24898 199.708738 
L 344.008163 197.111378 
L 344.767347 201.075394 
L 345.526531 198.920913 
L 346.285714 196.194086 
L 347.044898 199.334301 
L 347.804082 197.652939 
L 348.563265 197.105035 
L 349.322449 196.035597 
L 350.081633 199.325326 
L 352.359184 194.749577 
L 353.118367 197.137828 
L 353.877551 195.869987 
L 354.636735 200.096549 
L 355.395918 197.87102 
L 356.155102 205.047143 
L 356.914286 199.101831 
L 357.673469 198.03872 
L 359.191837 200.138733 
L 359.95102 198.218401 
L 360.710204 194.721604 
L 361.469388 198.901324 
L 362.228571 197.192559 
L 362.987755 193.310399 
L 363.746939 199.246286 
L 364.506122 196.979559 
L 365.265306 200.783956 
L 366.02449 200.685332 
L 366.783673 198.665198 
L 367.542857 197.542392 
L 368.302041 200.274321 
L 369.061224 198.51359 
L 369.820408 195.291784 
L 370.579592 199.095371 
L 371.338776 198.980822 
L 372.097959 194.961259 
L 372.857143 197.105946 
L 373.616327 197.797494 
L 374.37551 198.801153 
L 375.134694 196.273494 
L 375.893878 197.763108 
L 376.653061 202.624093 
L 377.412245 195.442875 
L 378.171429 196.866159 
L 378.930612 196.785766 
L 379.689796 198.088091 
L 380.44898 197.020556 
L 381.208163 193.712268 
L 381.967347 199.86321 
L 382.726531 195.712177 
L 383.485714 195.502092 
L 384.244898 194.349387 
L 385.004082 200.134993 
L 385.763265 196.717297 
L 386.522449 194.265337 
L 387.281633 198.388138 
L 388.040816 198.568253 
L 388.040816 198.568253 
" style="fill:none;stroke:#0000ff;stroke-linecap:round;stroke-width:1.5;"/>
   </g>
   <g id="line2d_15">
    <path clip-path="url(#p6c49d61757)" d="M 54.634276 -1 
L 54.759184 124.248035 
L 55.518367 183.875469 
L 56.277551 193.76217 
L 57.036735 199.382094 
L 57.795918 203.500602 
L 58.555102 208.691861 
L 60.073469 211.892898 
L 60.832653 212.566263 
L 61.591837 214.17274 
L 63.110204 215.849991 
L 63.869388 216.262621 
L 64.628571 216.515274 
L 65.387755 216.285671 
L 66.146939 215.294645 
L 66.906122 214.983414 
L 67.665306 215.971442 
L 68.42449 216.283193 
L 69.183673 216.425805 
L 69.942857 216.708366 
L 70.702041 216.656709 
L 71.461224 217.311456 
L 73.738776 218.258812 
L 74.497959 218.04322 
L 76.016327 219.368561 
L 76.77551 219.185401 
L 77.534694 217.957701 
L 78.293878 216.994738 
L 79.053061 216.285962 
L 79.812245 216.632946 
L 80.571429 217.315265 
L 81.330612 217.184591 
L 82.089796 217.617243 
L 82.84898 216.890452 
L 83.608163 216.733861 
L 84.367347 216.323956 
L 86.644898 214.101355 
L 87.404082 213.787536 
L 88.163265 213.175973 
L 88.922449 212.346143 
L 89.681633 212.090016 
L 91.2 212.04603 
L 91.959184 211.322602 
L 92.718367 211.582032 
L 93.477551 212.917452 
L 94.236735 213.503334 
L 97.273469 214.778437 
L 101.069388 215.240139 
L 102.587755 215.585669 
L 104.865306 215.361942 
L 106.383673 215.429329 
L 107.142857 215.750335 
L 107.902041 215.754069 
L 112.457143 216.442358 
L 113.216327 216.776045 
L 113.97551 216.691583 
L 114.734694 216.933558 
L 115.493878 216.935576 
L 116.253061 217.171544 
L 117.771429 217.125314 
L 118.530612 217.29966 
L 126.122449 217.307402 
L 126.881633 217.443988 
L 128.4 217.20755 
L 132.955102 217.358116 
L 134.473469 217.70264 
L 136.75102 217.937781 
L 137.510204 217.822951 
L 139.028571 218.103414 
L 139.787755 218.326758 
L 142.065306 218.38648 
L 142.82449 218.322722 
L 143.583673 218.395183 
L 145.102041 218.303957 
L 146.620408 218.622092 
L 147.379592 218.636447 
L 148.138776 218.529076 
L 152.693878 219.166992 
L 153.453061 219.095199 
L 155.730612 219.269066 
L 156.489796 219.494169 
L 157.24898 219.359703 
L 158.008163 219.478848 
L 158.767347 219.323501 
L 161.044898 219.523207 
L 166.359184 219.441675 
L 167.118367 219.695082 
L 167.877551 219.504985 
L 169.395918 219.597389 
L 170.155102 219.097282 
L 170.914286 219.705736 
L 171.673469 219.32327 
L 176.228571 219.005039 
L 176.987755 219.086269 
L 178.506122 219.096127 
L 179.265306 218.841278 
L 181.542857 219.100332 
L 182.302041 218.761922 
L 183.061224 218.737857 
L 183.820408 219.06241 
L 184.579592 218.619011 
L 185.338776 218.801152 
L 186.857143 218.657368 
L 188.37551 218.944771 
L 189.893878 218.609906 
L 192.171429 218.893503 
L 192.930612 218.547998 
L 193.689796 218.685486 
L 195.208163 218.37081 
L 195.967347 218.666556 
L 197.485714 218.718988 
L 198.244898 218.547731 
L 199.004082 218.978011 
L 200.522449 218.844177 
L 201.281633 219.088135 
L 202.8 219.134493 
L 203.559184 219.403352 
L 206.595918 219.125177 
L 207.355102 219.224535 
L 209.632653 218.99612 
L 211.15102 218.792682 
L 211.910204 219.002801 
L 212.669388 218.913952 
L 213.428571 218.699117 
L 214.187755 218.958804 
L 214.946939 219.045346 
L 216.465306 218.874984 
L 217.22449 218.674149 
L 217.983673 218.752806 
L 219.502041 218.369644 
L 220.261224 218.582778 
L 221.779592 218.351396 
L 222.538776 218.550948 
L 223.297959 218.451938 
L 224.057143 218.605868 
L 225.57551 218.468334 
L 226.334694 218.925936 
L 227.093878 218.560159 
L 228.612245 218.767305 
L 230.130612 218.691907 
L 230.889796 219.200049 
L 231.64898 219.290005 
L 232.408163 218.805481 
L 233.167347 218.90628 
L 233.926531 218.626291 
L 234.685714 219.127693 
L 235.444898 218.807083 
L 236.204082 219.119366 
L 236.963265 219.257421 
L 237.722449 218.753089 
L 238.481633 219.154064 
L 239.240816 218.973849 
L 240 219.362773 
L 240.759184 219.269278 
L 241.518367 219.430298 
L 242.277551 219.42988 
L 243.036735 218.949518 
L 243.795918 219.259007 
L 244.555102 219.323614 
L 245.314286 219.158304 
L 246.073469 219.507196 
L 246.832653 219.046976 
L 247.591837 219.408738 
L 248.35102 219.003713 
L 249.869388 219.84387 
L 250.628571 219.533362 
L 251.387755 219.639929 
L 252.146939 219.200516 
L 252.906122 219.647974 
L 253.665306 219.310413 
L 254.42449 219.167373 
L 255.183673 219.870306 
L 255.942857 220.015729 
L 257.461224 219.568087 
L 258.220408 219.859695 
L 259.738776 219.591412 
L 260.497959 219.803001 
L 262.77551 219.712009 
L 263.534694 219.486454 
L 264.293878 219.834279 
L 265.053061 219.28612 
L 265.812245 219.461065 
L 266.571429 220.238916 
L 268.089796 219.77309 
L 268.84898 219.939927 
L 270.367347 219.618575 
L 271.126531 219.392153 
L 272.644898 219.952407 
L 274.163265 219.436219 
L 275.681633 219.969309 
L 276.440816 219.636184 
L 277.2 219.988515 
L 277.959184 219.678344 
L 278.718367 219.223622 
L 279.477551 219.615951 
L 280.236735 219.865132 
L 280.995918 219.680226 
L 281.755102 219.990391 
L 282.514286 219.993305 
L 283.273469 219.773438 
L 284.032653 220.148359 
L 284.791837 220.001523 
L 286.310204 220.087617 
L 287.069388 219.632744 
L 288.587755 219.967495 
L 289.346939 219.861679 
L 290.865306 219.896354 
L 291.62449 219.748925 
L 292.383673 219.721451 
L 293.142857 220.102652 
L 293.902041 219.803243 
L 294.661224 220.043632 
L 295.420408 219.888944 
L 296.938776 220.029015 
L 297.697959 220.115879 
L 298.457143 219.776323 
L 299.216327 220.049135 
L 300.734694 219.805433 
L 301.493878 219.894212 
L 302.253061 219.766006 
L 303.012245 220.186581 
L 303.771429 220.084308 
L 304.530612 220.236569 
L 305.289796 220.634308 
L 306.04898 220.024351 
L 306.808163 219.994326 
L 307.567347 220.418911 
L 308.326531 220.268971 
L 309.844898 219.790888 
L 310.604082 220.596178 
L 311.363265 220.451186 
L 312.122449 220.187041 
L 312.881633 220.483253 
L 313.640816 220.481792 
L 314.4 220.235225 
L 318.195918 220.122033 
L 318.955102 220.519049 
L 319.714286 220.503214 
L 320.473469 220.336176 
L 321.991837 220.347869 
L 322.75102 220.128047 
L 323.510204 220.607171 
L 325.028571 220.217899 
L 326.546939 220.659617 
L 328.065306 220.66313 
L 330.342857 220.390076 
L 331.102041 220.759703 
L 331.861224 220.483115 
L 332.620408 220.853196 
L 333.379592 220.82789 
L 334.138776 220.921725 
L 334.897959 220.494563 
L 337.17551 220.413841 
L 337.934694 220.640275 
L 339.453061 220.644612 
L 340.212245 221.077572 
L 340.971429 220.444462 
L 341.730612 220.51744 
L 342.489796 220.908839 
L 343.24898 220.787725 
L 344.008163 220.476469 
L 345.526531 220.781457 
L 346.285714 220.688865 
L 347.044898 221.022291 
L 348.563265 221.146092 
L 349.322449 220.76177 
L 350.081633 221.157991 
L 352.359184 220.859294 
L 353.118367 221.116176 
L 353.877551 221.178664 
L 355.395918 220.920704 
L 356.155102 220.905568 
L 356.914286 221.089127 
L 357.673469 220.64722 
L 360.710204 220.972664 
L 361.469388 220.64342 
L 362.228571 221.263123 
L 362.987755 220.999625 
L 363.746939 221.184652 
L 364.506122 221.006196 
L 365.265306 221.088169 
L 366.02449 220.944964 
L 366.783673 220.545808 
L 367.542857 220.845048 
L 368.302041 220.974387 
L 369.061224 221.243446 
L 370.579592 220.896563 
L 371.338776 221.12086 
L 372.097959 221.00547 
L 372.857143 221.150875 
L 373.616327 221.179184 
L 374.37551 220.790034 
L 375.134694 221.365336 
L 376.653061 221.099279 
L 377.412245 221.191863 
L 378.171429 220.92669 
L 378.930612 221.223338 
L 379.689796 221.031503 
L 380.44898 221.287598 
L 381.208163 221.142432 
L 381.967347 221.239312 
L 382.726531 220.992924 
L 384.244898 221.485792 
L 385.004082 221.004806 
L 385.763265 221.434315 
L 387.281633 221.006446 
L 388.040816 221.215576 
L 388.040816 221.215576 
" style="fill:none;stroke:#ffa500;stroke-linecap:round;stroke-width:1.5;"/>
   </g>
   <g id="patch_3">
    <path d="M 54 256.32 
L 54 34.56 
" style="fill:none;stroke:#cccccc;stroke-linecap:square;stroke-linejoin:miter;stroke-width:1.25;"/>
   </g>
   <g id="patch_4">
    <path d="M 388.8 256.32 
L 388.8 34.56 
" style="fill:none;stroke:#cccccc;stroke-linecap:square;stroke-linejoin:miter;stroke-width:1.25;"/>
   </g>
   <g id="patch_5">
    <path d="M 54 256.32 
L 388.8 256.32 
" style="fill:none;stroke:#cccccc;stroke-linecap:square;stroke-linejoin:miter;stroke-width:1.25;"/>
   </g>
   <g id="patch_6">
    <path d="M 54 34.56 
L 388.8 34.56 
" style="fill:none;stroke:#cccccc;stroke-linecap:square;stroke-linejoin:miter;stroke-width:1.25;"/>
   </g>
   <g id="text_16">
    <!-- Experiment 1 - Training Loss -->
    <defs>
     <path d="M 0.734375 0 
L 19.671875 26.953125 
L 2.15625 51.859375 
L 13.140625 51.859375 
L 21.09375 39.703125 
Q 23.34375 36.234375 24.703125 33.890625 
Q 26.859375 37.109375 28.65625 39.59375 
L 37.40625 51.859375 
L 47.90625 51.859375 
L 29.984375 27.4375 
L 49.265625 0 
L 38.484375 0 
L 27.828125 16.109375 
L 25 20.453125 
L 11.375 0 
z
" id="ArialMT-120"/>
     <path d="M 42.09375 16.703125 
L 51.171875 15.578125 
Q 49.03125 7.625 43.21875 3.21875 
Q 37.40625 -1.171875 28.375 -1.171875 
Q 17 -1.171875 10.328125 5.828125 
Q 3.65625 12.84375 3.65625 25.484375 
Q 3.65625 38.578125 10.390625 45.796875 
Q 17.140625 53.03125 27.875 53.03125 
Q 38.28125 53.03125 44.875 45.953125 
Q 51.46875 38.875 51.46875 26.03125 
Q 51.46875 25.25 51.421875 23.6875 
L 12.75 23.6875 
Q 13.234375 15.140625 17.578125 10.59375 
Q 21.921875 6.0625 28.421875 6.0625 
Q 33.25 6.0625 36.671875 8.59375 
Q 40.09375 11.140625 42.09375 16.703125 
z
M 13.234375 30.90625 
L 42.1875 30.90625 
Q 41.609375 37.453125 38.875 40.71875 
Q 34.671875 45.796875 27.984375 45.796875 
Q 21.921875 45.796875 17.796875 41.75 
Q 13.671875 37.703125 13.234375 30.90625 
z
" id="ArialMT-101"/>
     <path d="M 6.5 0 
L 6.5 51.859375 
L 14.40625 51.859375 
L 14.40625 44 
Q 17.4375 49.515625 20 51.265625 
Q 22.5625 53.03125 25.640625 53.03125 
Q 30.078125 53.03125 34.671875 50.203125 
L 31.640625 42.046875 
Q 28.421875 43.953125 25.203125 43.953125 
Q 22.3125 43.953125 20.015625 42.21875 
Q 17.71875 40.484375 16.75 37.40625 
Q 15.28125 32.71875 15.28125 27.15625 
L 15.28125 0 
z
" id="ArialMT-114"/>
     <path d="M 6.640625 61.46875 
L 6.640625 71.578125 
L 15.4375 71.578125 
L 15.4375 61.46875 
z
M 6.640625 0 
L 6.640625 51.859375 
L 15.4375 51.859375 
L 15.4375 0 
z
" id="ArialMT-105"/>
     <path d="M 6.59375 0 
L 6.59375 51.859375 
L 14.453125 51.859375 
L 14.453125 44.578125 
Q 16.890625 48.390625 20.9375 50.703125 
Q 25 53.03125 30.171875 53.03125 
Q 35.9375 53.03125 39.625 50.640625 
Q 43.3125 48.25 44.828125 43.953125 
Q 50.984375 53.03125 60.84375 53.03125 
Q 68.5625 53.03125 72.703125 48.75 
Q 76.859375 44.484375 76.859375 35.59375 
L 76.859375 0 
L 68.109375 0 
L 68.109375 32.671875 
Q 68.109375 37.9375 67.25 40.25 
Q 66.40625 42.578125 64.15625 43.984375 
Q 61.921875 45.40625 58.890625 45.40625 
Q 53.421875 45.40625 49.796875 41.765625 
Q 46.1875 38.140625 46.1875 30.125 
L 46.1875 0 
L 37.40625 0 
L 37.40625 33.6875 
Q 37.40625 39.546875 35.25 42.46875 
Q 33.109375 45.40625 28.21875 45.40625 
Q 24.515625 45.40625 21.359375 43.453125 
Q 18.21875 41.5 16.796875 37.734375 
Q 15.375 33.984375 15.375 26.90625 
L 15.375 0 
z
" id="ArialMT-109"/>
     <path d="M 6.59375 0 
L 6.59375 51.859375 
L 14.5 51.859375 
L 14.5 44.484375 
Q 20.21875 53.03125 31 53.03125 
Q 35.6875 53.03125 39.625 51.34375 
Q 43.5625 49.65625 45.515625 46.921875 
Q 47.46875 44.1875 48.25 40.4375 
Q 48.734375 37.984375 48.734375 31.890625 
L 48.734375 0 
L 39.9375 0 
L 39.9375 31.546875 
Q 39.9375 36.921875 38.90625 39.578125 
Q 37.890625 42.234375 35.28125 43.8125 
Q 32.671875 45.40625 29.15625 45.40625 
Q 23.53125 45.40625 19.453125 41.84375 
Q 15.375 38.28125 15.375 28.328125 
L 15.375 0 
z
" id="ArialMT-110"/>
     <path d="M 25.78125 7.859375 
L 27.046875 0.09375 
Q 23.34375 -0.6875 20.40625 -0.6875 
Q 15.625 -0.6875 12.984375 0.828125 
Q 10.359375 2.34375 9.28125 4.8125 
Q 8.203125 7.28125 8.203125 15.1875 
L 8.203125 45.015625 
L 1.765625 45.015625 
L 1.765625 51.859375 
L 8.203125 51.859375 
L 8.203125 64.703125 
L 16.9375 69.96875 
L 16.9375 51.859375 
L 25.78125 51.859375 
L 25.78125 45.015625 
L 16.9375 45.015625 
L 16.9375 14.703125 
Q 16.9375 10.9375 17.40625 9.859375 
Q 17.875 8.796875 18.921875 8.15625 
Q 19.96875 7.515625 21.921875 7.515625 
Q 23.390625 7.515625 25.78125 7.859375 
z
" id="ArialMT-116"/>
     <path id="ArialMT-32"/>
     <path d="M 3.171875 21.484375 
L 3.171875 30.328125 
L 30.171875 30.328125 
L 30.171875 21.484375 
z
" id="ArialMT-45"/>
     <path d="M 25.921875 0 
L 25.921875 63.140625 
L 2.34375 63.140625 
L 2.34375 71.578125 
L 59.078125 71.578125 
L 59.078125 63.140625 
L 35.40625 63.140625 
L 35.40625 0 
z
" id="ArialMT-84"/>
     <path d="M 40.4375 6.390625 
Q 35.546875 2.25 31.03125 0.53125 
Q 26.515625 -1.171875 21.34375 -1.171875 
Q 12.796875 -1.171875 8.203125 3 
Q 3.609375 7.171875 3.609375 13.671875 
Q 3.609375 17.484375 5.34375 20.625 
Q 7.078125 23.78125 9.890625 25.6875 
Q 12.703125 27.59375 16.21875 28.5625 
Q 18.796875 29.25 24.03125 29.890625 
Q 34.671875 31.15625 39.703125 32.90625 
Q 39.75 34.71875 39.75 35.203125 
Q 39.75 40.578125 37.25 42.78125 
Q 33.890625 45.75 27.25 45.75 
Q 21.046875 45.75 18.09375 43.578125 
Q 15.140625 41.40625 13.71875 35.890625 
L 5.125 37.0625 
Q 6.296875 42.578125 8.984375 45.96875 
Q 11.671875 49.359375 16.75 51.1875 
Q 21.828125 53.03125 28.515625 53.03125 
Q 35.15625 53.03125 39.296875 51.46875 
Q 43.453125 49.90625 45.40625 47.53125 
Q 47.359375 45.171875 48.140625 41.546875 
Q 48.578125 39.3125 48.578125 33.453125 
L 48.578125 21.734375 
Q 48.578125 9.46875 49.140625 6.21875 
Q 49.703125 2.984375 51.375 0 
L 42.1875 0 
Q 40.828125 2.734375 40.4375 6.390625 
z
M 39.703125 26.03125 
Q 34.90625 24.078125 25.34375 22.703125 
Q 19.921875 21.921875 17.671875 20.9375 
Q 15.4375 19.96875 14.203125 18.09375 
Q 12.984375 16.21875 12.984375 13.921875 
Q 12.984375 10.40625 15.640625 8.0625 
Q 18.3125 5.71875 23.4375 5.71875 
Q 28.515625 5.71875 32.46875 7.9375 
Q 36.421875 10.15625 38.28125 14.015625 
Q 39.703125 17 39.703125 22.796875 
z
" id="ArialMT-97"/>
     <path d="M 4.984375 -4.296875 
L 13.53125 -5.5625 
Q 14.0625 -9.515625 16.5 -11.328125 
Q 19.78125 -13.765625 25.4375 -13.765625 
Q 31.546875 -13.765625 34.859375 -11.328125 
Q 38.1875 -8.890625 39.359375 -4.5 
Q 40.046875 -1.8125 39.984375 6.78125 
Q 34.234375 0 25.640625 0 
Q 14.9375 0 9.078125 7.71875 
Q 3.21875 15.4375 3.21875 26.21875 
Q 3.21875 33.640625 5.90625 39.90625 
Q 8.59375 46.1875 13.6875 49.609375 
Q 18.796875 53.03125 25.6875 53.03125 
Q 34.859375 53.03125 40.828125 45.609375 
L 40.828125 51.859375 
L 48.921875 51.859375 
L 48.921875 7.03125 
Q 48.921875 -5.078125 46.453125 -10.125 
Q 44 -15.1875 38.640625 -18.109375 
Q 33.296875 -21.046875 25.484375 -21.046875 
Q 16.21875 -21.046875 10.5 -16.875 
Q 4.78125 -12.703125 4.984375 -4.296875 
z
M 12.25 26.859375 
Q 12.25 16.65625 16.296875 11.96875 
Q 20.359375 7.28125 26.46875 7.28125 
Q 32.515625 7.28125 36.609375 11.9375 
Q 40.71875 16.609375 40.71875 26.5625 
Q 40.71875 36.078125 36.5 40.90625 
Q 32.28125 45.75 26.3125 45.75 
Q 20.453125 45.75 16.34375 40.984375 
Q 12.25 36.234375 12.25 26.859375 
z
" id="ArialMT-103"/>
    </defs>
    <g style="fill:#262626;" transform="translate(160.04775 28.56)scale(0.096 -0.096)">
     <use xlink:href="#ArialMT-69"/>
     <use x="66.699219" xlink:href="#ArialMT-120"/>
     <use x="116.699219" xlink:href="#ArialMT-112"/>
     <use x="172.314453" xlink:href="#ArialMT-101"/>
     <use x="227.929688" xlink:href="#ArialMT-114"/>
     <use x="261.230469" xlink:href="#ArialMT-105"/>
     <use x="283.447266" xlink:href="#ArialMT-109"/>
     <use x="366.748047" xlink:href="#ArialMT-101"/>
     <use x="422.363281" xlink:href="#ArialMT-110"/>
     <use x="477.978516" xlink:href="#ArialMT-116"/>
     <use x="505.761719" xlink:href="#ArialMT-32"/>
     <use x="533.544922" xlink:href="#ArialMT-49"/>
     <use x="589.160156" xlink:href="#ArialMT-32"/>
     <use x="616.943359" xlink:href="#ArialMT-45"/>
     <use x="650.244141" xlink:href="#ArialMT-32"/>
     <use x="678.011719" xlink:href="#ArialMT-84"/>
     <use x="739.048828" xlink:href="#ArialMT-114"/>
     <use x="772.349609" xlink:href="#ArialMT-97"/>
     <use x="827.964844" xlink:href="#ArialMT-105"/>
     <use x="850.181641" xlink:href="#ArialMT-110"/>
     <use x="905.796875" xlink:href="#ArialMT-105"/>
     <use x="928.013672" xlink:href="#ArialMT-110"/>
     <use x="983.628906" xlink:href="#ArialMT-103"/>
     <use x="1039.244141" xlink:href="#ArialMT-32"/>
     <use x="1067.027344" xlink:href="#ArialMT-76"/>
     <use x="1122.642578" xlink:href="#ArialMT-111"/>
     <use x="1178.257812" xlink:href="#ArialMT-115"/>
     <use x="1228.257812" xlink:href="#ArialMT-115"/>
    </g>
   </g>
   <g id="legend_1">
    <g id="patch_7">
     <path d="M 290.912375 66.6085 
L 382.64 66.6085 
Q 384.4 66.6085 384.4 64.8485 
L 384.4 40.72 
Q 384.4 38.96 382.64 38.96 
L 290.912375 38.96 
Q 289.152375 38.96 289.152375 40.72 
L 289.152375 64.8485 
Q 289.152375 66.6085 290.912375 66.6085 
z
" style="fill:#ffffff;opacity:0.8;stroke:#cccccc;stroke-linejoin:miter;"/>
    </g>
    <g id="line2d_16">
     <path d="M 292.672375 45.811625 
L 310.272375 45.811625 
" style="fill:none;stroke:#0000ff;stroke-linecap:round;stroke-width:1.5;"/>
    </g>
    <g id="line2d_17"/>
    <g id="text_17">
     <!-- Output shapes -->
     <defs>
      <path d="M 4.828125 34.859375 
Q 4.828125 52.6875 14.390625 62.765625 
Q 23.96875 72.859375 39.109375 72.859375 
Q 49.03125 72.859375 56.984375 68.109375 
Q 64.9375 63.375 69.109375 54.90625 
Q 73.296875 46.4375 73.296875 35.6875 
Q 73.296875 24.8125 68.890625 16.21875 
Q 64.5 7.625 56.4375 3.203125 
Q 48.390625 -1.21875 39.0625 -1.21875 
Q 28.953125 -1.21875 20.984375 3.65625 
Q 13.03125 8.546875 8.921875 16.984375 
Q 4.828125 25.4375 4.828125 34.859375 
z
M 14.59375 34.71875 
Q 14.59375 21.78125 21.546875 14.328125 
Q 28.515625 6.890625 39.015625 6.890625 
Q 49.703125 6.890625 56.609375 14.40625 
Q 63.53125 21.921875 63.53125 35.75 
Q 63.53125 44.484375 60.578125 51 
Q 57.625 57.515625 51.921875 61.109375 
Q 46.234375 64.703125 39.15625 64.703125 
Q 29.109375 64.703125 21.84375 57.78125 
Q 14.59375 50.875 14.59375 34.71875 
z
" id="ArialMT-79"/>
      <path d="M 40.578125 0 
L 40.578125 7.625 
Q 34.515625 -1.171875 24.125 -1.171875 
Q 19.53125 -1.171875 15.546875 0.578125 
Q 11.578125 2.34375 9.640625 5 
Q 7.71875 7.671875 6.9375 11.53125 
Q 6.390625 14.109375 6.390625 19.734375 
L 6.390625 51.859375 
L 15.1875 51.859375 
L 15.1875 23.09375 
Q 15.1875 16.21875 15.71875 13.8125 
Q 16.546875 10.359375 19.234375 8.375 
Q 21.921875 6.390625 25.875 6.390625 
Q 29.828125 6.390625 33.296875 8.421875 
Q 36.765625 10.453125 38.203125 13.9375 
Q 39.65625 17.4375 39.65625 24.078125 
L 39.65625 51.859375 
L 48.4375 51.859375 
L 48.4375 0 
z
" id="ArialMT-117"/>
     </defs>
     <g style="fill:#262626;" transform="translate(317.312375 48.891625)scale(0.088 -0.088)">
      <use xlink:href="#ArialMT-79"/>
      <use x="77.783203" xlink:href="#ArialMT-117"/>
      <use x="133.398438" xlink:href="#ArialMT-116"/>
      <use x="161.181641" xlink:href="#ArialMT-112"/>
      <use x="216.796875" xlink:href="#ArialMT-117"/>
      <use x="272.412109" xlink:href="#ArialMT-116"/>
      <use x="300.195312" xlink:href="#ArialMT-32"/>
      <use x="327.978516" xlink:href="#ArialMT-115"/>
      <use x="377.978516" xlink:href="#ArialMT-104"/>
      <use x="433.59375" xlink:href="#ArialMT-97"/>
      <use x="489.208984" xlink:href="#ArialMT-112"/>
      <use x="544.824219" xlink:href="#ArialMT-101"/>
      <use x="600.439453" xlink:href="#ArialMT-115"/>
     </g>
    </g>
    <g id="line2d_18">
     <path d="M 292.672375 58.2595 
L 310.272375 58.2595 
" style="fill:none;stroke:#ffa500;stroke-linecap:round;stroke-width:1.5;"/>
    </g>
    <g id="line2d_19"/>
    <g id="text_18">
     <!-- Transformations -->
     <defs>
      <path d="M 8.6875 0 
L 8.6875 45.015625 
L 0.921875 45.015625 
L 0.921875 51.859375 
L 8.6875 51.859375 
L 8.6875 57.375 
Q 8.6875 62.59375 9.625 65.140625 
Q 10.890625 68.5625 14.078125 70.671875 
Q 17.28125 72.796875 23.046875 72.796875 
Q 26.765625 72.796875 31.25 71.921875 
L 29.9375 64.265625 
Q 27.203125 64.75 24.75 64.75 
Q 20.75 64.75 19.09375 63.03125 
Q 17.4375 61.328125 17.4375 56.640625 
L 17.4375 51.859375 
L 27.546875 51.859375 
L 27.546875 45.015625 
L 17.4375 45.015625 
L 17.4375 0 
z
" id="ArialMT-102"/>
     </defs>
     <g style="fill:#262626;" transform="translate(317.312375 61.3395)scale(0.088 -0.088)">
      <use xlink:href="#ArialMT-84"/>
      <use x="61.037109" xlink:href="#ArialMT-114"/>
      <use x="94.337891" xlink:href="#ArialMT-97"/>
      <use x="149.953125" xlink:href="#ArialMT-110"/>
      <use x="205.568359" xlink:href="#ArialMT-115"/>
      <use x="255.568359" xlink:href="#ArialMT-102"/>
      <use x="283.351562" xlink:href="#ArialMT-111"/>
      <use x="338.966797" xlink:href="#ArialMT-114"/>
      <use x="372.267578" xlink:href="#ArialMT-109"/>
      <use x="455.568359" xlink:href="#ArialMT-97"/>
      <use x="511.183594" xlink:href="#ArialMT-116"/>
      <use x="538.966797" xlink:href="#ArialMT-105"/>
      <use x="561.183594" xlink:href="#ArialMT-111"/>
      <use x="616.798828" xlink:href="#ArialMT-110"/>
      <use x="672.414062" xlink:href="#ArialMT-115"/>
     </g>
    </g>
   </g>
  </g>
 </g>
 <defs>
  <clipPath id="p6c49d61757">
   <rect height="221.76" width="334.8" x="54" y="34.56"/>
  </clipPath>
 </defs>
</svg>
